<svg width="59" height="67" viewBox="0 0 59 67" fill="none" xmlns="http://www.w3.org/2000/svg">
<g opacity="0.5">
<path d="M27.5757 -0.000244141C27.6909 -0.000244141 27.806 -0.000244141 27.9247 -0.000244141C29.1781 2.48067 30.4147 4.96764 31.6106 7.47676C32.1761 8.66321 32.7493 9.84594 33.3226 11.0287C34.2175 12.8752 35.1093 14.7233 35.9977 16.5729C36.1189 16.825 36.1189 16.825 36.2424 17.0822C36.3128 17.2287 36.3831 17.3752 36.4556 17.5261C36.6408 17.9205 36.6408 17.9205 36.8485 18.2708C37.0369 18.7127 37.0525 19.0143 36.9976 19.4907C36.8121 19.8246 36.8121 19.8246 36.5491 20.1446C36.4516 20.2661 36.354 20.3875 36.2534 20.5126C36.1463 20.642 36.0393 20.7714 35.9289 20.9047C35.7023 21.1865 35.476 21.4686 35.2501 21.751C35.1339 21.8956 35.0178 22.0402 34.8981 22.1892C34.3664 22.8615 33.8607 23.5517 33.3554 24.2438C32.4892 25.4254 31.6085 26.5947 30.7164 27.7569C29.8323 28.9089 28.9586 30.0671 28.0992 31.2375C27.1244 32.5648 26.1288 33.8751 25.1262 35.1816C24.3617 36.1796 23.6089 37.1853 22.8648 38.1985C22.0054 39.3688 21.1316 40.5271 20.2476 41.679C18.9467 43.375 17.6735 45.0898 16.409 46.8128C16.132 47.1894 15.8549 47.566 15.5778 47.9425C15.2149 48.4359 14.8523 48.9295 14.4898 49.4232C17.4637 49.4424 20.4344 49.4332 23.4073 49.3471C23.54 49.3432 23.6727 49.3394 23.8094 49.3355C24.895 49.3039 25.9806 49.2704 27.0661 49.2365C28.0129 49.207 28.9598 49.1784 29.9067 49.1513C30.0387 49.1475 30.1708 49.1437 30.3068 49.1398C33.4093 49.0528 36.5114 49.0576 39.6148 49.0751C38.9942 49.5567 38.3446 49.8924 37.6342 50.222C37.4451 50.3108 37.4451 50.3108 37.2521 50.4015C36.8405 50.5946 36.4283 50.7866 36.0162 50.9786C35.7295 51.1127 35.4429 51.2469 35.1564 51.3812C33.1701 52.3107 31.1798 53.2311 29.1863 54.145C28.0554 54.6635 26.9267 55.1865 25.7982 55.7099C23.9582 56.563 22.1162 57.4118 20.2735 58.2592C17.6479 59.4666 15.0254 60.6803 12.4062 61.9014C10.9763 62.568 9.54493 63.2316 8.11266 63.8932C7.16157 64.3327 6.21116 64.7734 5.26291 65.219C4.80946 65.4319 4.35568 65.6442 3.90187 65.8563C3.68487 65.9581 3.46804 66.0601 3.25138 66.1626C2.95196 66.3041 2.65193 66.4443 2.35186 66.5845C2.18102 66.6649 2.01019 66.7453 1.83417 66.8281C1.40381 66.9998 1.40381 66.9998 0.880371 66.9998C1.0066 66.1494 1.3251 65.3937 1.64431 64.6011C1.70564 64.4472 1.76696 64.2932 1.83014 64.1346C2.03581 63.6188 2.24256 63.1034 2.44932 62.588C2.59662 62.2193 2.74386 61.8506 2.89104 61.4819C3.29175 60.4786 3.69343 59.4757 4.09531 58.4729C4.43486 57.6253 4.77384 56.7774 5.11283 55.9296C7.65416 49.5737 10.2106 43.2239 12.7722 36.8761C15.2859 30.6466 17.7821 24.4103 20.2696 18.1704C22.6872 12.1063 25.1138 6.04612 27.5757 -0.000244141Z" fill="#808080"/>
<path d="M38.5703 21.984C38.6857 21.984 38.8011 21.984 38.92 21.984C40.1508 24.6937 41.3666 27.4088 42.5514 30.1387C43.3726 32.0299 44.2052 33.916 45.0393 35.8016C46.0426 38.07 47.041 40.3403 48.0305 42.6147C48.7901 44.3605 49.5528 46.1048 50.3172 47.8485C50.3792 47.99 50.4413 48.1315 50.5052 48.2774C51.5573 50.6767 52.6154 53.0735 53.6749 55.4696C54.6361 57.6437 55.5932 59.8194 56.5385 62.0003C56.918 62.8753 57.2989 63.749 57.6952 64.6167C57.7552 64.7489 57.8152 64.8812 57.877 65.0175C58.027 65.3464 58.1789 65.6744 58.331 66.0024C58.5017 66.4783 58.5017 66.4783 58.3269 66.9997C57.3673 66.0498 56.4082 65.0994 55.4496 64.1484C55.0044 63.7067 54.559 63.2652 54.1133 62.824C53.6821 62.3973 53.2514 61.9701 52.8209 61.5427C52.5789 61.3025 52.3363 61.0628 52.0938 60.8231C51.3286 60.0624 50.5928 59.2913 49.8878 58.4754C49.3185 57.8364 48.7038 57.242 48.0935 56.642C47.9545 56.5045 47.8156 56.367 47.6724 56.2254C47.2322 55.7899 46.7915 55.355 46.3506 54.9202C45.7691 54.3468 45.1882 53.7728 44.6077 53.1984C44.4763 53.0693 44.345 52.9402 44.2097 52.8071C43.5098 52.1146 42.8466 51.405 42.2022 50.6616C41.6418 50.0338 41.039 49.4485 40.4389 48.8587C40.3038 48.7251 40.1688 48.5915 40.0296 48.4538C39.6019 48.0307 39.1736 47.6082 38.7452 47.1858C38.1801 46.6287 37.6156 46.071 37.0514 45.513C36.9239 45.3876 36.7964 45.2623 36.665 45.1332C36.085 44.5593 35.5227 43.9803 34.9892 43.3633C34.3245 42.5966 33.6028 41.8966 32.8717 41.1929C32.588 40.9164 32.3043 40.6397 32.0208 40.3629C31.578 39.9314 31.1346 39.5008 30.6888 39.0723C30.2558 38.6555 29.8261 38.2354 29.3969 37.8146C29.2621 37.6866 29.1274 37.5586 28.9886 37.4267C28.8665 37.3059 28.7444 37.1852 28.6186 37.0609C28.5101 36.9558 28.4016 36.8508 28.2898 36.7426C28.0801 36.4099 28.0801 36.4099 28.119 35.9585C28.2757 35.4771 28.4836 35.1712 28.7979 34.7737C28.9109 34.6288 29.024 34.484 29.1404 34.3347C29.2629 34.1807 29.3854 34.0267 29.5116 33.868C29.7693 33.5382 30.0268 33.2082 30.284 32.8781C30.4137 32.7122 30.5434 32.5464 30.677 32.3755C31.2219 31.6721 31.7497 30.9569 32.2762 30.2398C33.2596 28.9048 34.263 27.5859 35.2741 26.2716C36.1151 25.1782 36.949 24.0797 37.7765 22.9761C38.378 22.1752 38.378 22.1752 38.5703 21.984Z" fill="#808080"/>
<path d="M28.0598 -0.000244141C28.1729 -0.000244141 28.286 -0.000244141 28.4025 -0.000244141C29.5047 2.22122 30.6018 4.44444 31.6581 6.68889C31.7321 6.84593 31.806 7.00298 31.8822 7.16478C32.0234 7.46608 32.1636 7.76785 32.3027 8.07014C32.453 8.39393 32.6074 8.71582 32.7645 9.03629C32.8447 9.20406 32.9249 9.37183 33.0075 9.54469C33.0812 9.69567 33.155 9.84666 33.231 10.0022C33.4526 10.6943 33.2891 11.1216 32.9883 11.7642C32.899 11.9255 32.8097 12.0868 32.7176 12.253C32.6164 12.437 32.5151 12.6211 32.4108 12.8107C32.3002 13.0087 32.1897 13.2067 32.0758 13.4107C31.9597 13.6204 31.8436 13.8303 31.7277 14.0402C31.3637 14.6979 30.9971 15.3542 30.63 16.0102C30.5724 16.1133 30.5147 16.2164 30.4553 16.3227C29.7753 17.5384 29.092 18.7521 28.4069 19.9649C27.833 20.9808 27.2608 21.9978 26.6889 23.0149C26.4034 23.5225 26.1179 24.03 25.8323 24.5375C25.7181 24.7405 25.6038 24.9435 25.4896 25.1465C23.4334 28.8011 21.3773 32.4556 19.3211 36.1102C19.2646 36.2107 19.208 36.3112 19.1498 36.4147C19.0355 36.6178 18.9213 36.8209 18.807 37.024C18.5218 37.5308 18.2366 38.0377 17.9515 38.5446C17.4329 39.4665 16.9142 40.3883 16.395 41.3098C15.2813 43.2867 14.1688 45.2642 13.0669 47.2479C11.9069 49.3362 10.7351 51.4176 9.56261 53.4988C9.21629 54.1136 8.87022 54.7285 8.52424 55.3435C8.46777 55.4439 8.41131 55.5442 8.35314 55.6476C8.06891 56.1528 7.78472 56.6581 7.50055 57.1633C6.97738 58.0934 6.45399 59.0234 5.9297 59.9529C4.6095 62.2933 3.29544 64.6366 2.01506 66.9998C1.76605 66.2411 2.09673 65.7143 2.38369 65.0074C2.44386 64.8555 2.50403 64.7036 2.56602 64.547C2.76906 64.0355 2.97439 63.5249 3.17968 63.0142C3.32492 62.6495 3.47 62.2846 3.61494 61.9198C3.92832 61.1316 4.24268 60.3439 4.55778 59.5564C5.06223 58.2957 5.56446 57.034 6.06614 55.7721C6.10847 55.6656 6.1508 55.5592 6.19441 55.4495C6.36691 55.0156 6.53941 54.5817 6.71188 54.1478C6.97551 53.4846 7.23932 52.8214 7.50325 52.1583C9.2413 47.7913 10.9575 43.4156 12.6694 39.0379C13.3539 37.2877 14.0392 35.5378 14.7249 33.788C14.8005 33.595 14.8761 33.402 14.954 33.2031C17.4564 26.8184 19.9855 20.4445 22.5111 14.0692C23.8327 10.7333 25.1502 7.39573 26.4641 4.05674C26.5075 3.94657 26.5509 3.8364 26.5955 3.72289C27.0839 2.48195 27.572 1.24093 28.0598 -0.000244141Z" fill="#808080"/>
<path d="M33.202 29.3124C33.8312 29.5196 33.8876 29.6534 34.2251 30.1964C34.3679 30.4227 34.3679 30.4227 34.5136 30.6536C34.6162 30.8192 34.7189 30.9847 34.8247 31.1553C35.0492 31.5107 35.2741 31.8657 35.4994 32.2206C35.6161 32.4044 35.7327 32.5883 35.8528 32.7777C36.401 33.6314 36.9697 34.4709 37.5402 35.3101C38.6385 36.9292 39.7263 38.5545 40.8077 40.1846C40.8852 40.3014 40.9627 40.4182 41.0425 40.5386C41.3623 41.0206 41.6821 41.5027 42.0019 41.9848C42.9161 43.363 43.8323 44.74 44.7485 46.1169C44.919 46.3733 45.0896 46.6296 45.2601 46.8859C45.6028 47.401 45.9455 47.9162 46.2882 48.4312C46.883 49.3252 47.4776 50.2192 48.0723 51.1132C48.4946 51.748 48.9169 52.3829 49.3393 53.0177C50.1064 54.1706 50.8732 55.3236 51.6391 56.4771C53.8974 59.8783 56.1689 63.2703 58.4585 66.651C58.4003 66.7661 58.342 66.8813 58.2819 66.9999C57.3586 66.0918 56.4357 65.1833 55.5135 64.2741C55.0851 63.8518 54.6566 63.4297 54.2277 63.0079C53.733 62.5216 53.2392 62.0345 52.7453 61.5474C52.5933 61.3982 52.4413 61.2489 52.2847 61.0951C51.5305 60.3502 50.8079 59.5929 50.1127 58.7942C49.5364 58.1521 48.9149 57.5542 48.2974 56.951C48.1571 56.813 48.0167 56.675 47.8721 56.5328C47.4274 56.0956 46.9821 55.659 46.5367 55.2226C45.9493 54.6469 45.3625 54.0707 44.7761 53.4941C44.6434 53.3645 44.5107 53.2349 44.374 53.1013C43.667 52.4061 42.9971 51.6938 42.3461 50.9474C41.78 50.3173 41.1711 49.7297 40.5648 49.1376C40.4284 49.0035 40.2919 48.8693 40.1513 48.7311C39.7193 48.3064 39.2866 47.8822 38.8538 47.4582C38.283 46.899 37.7127 46.3391 37.1428 45.7789C37.014 45.6531 36.8852 45.5272 36.7524 45.3976C36.1665 44.8215 35.5985 44.2403 35.0596 43.6208C34.388 42.8512 33.6591 42.1485 32.9205 41.4421C32.6338 41.1645 32.3473 40.8868 32.0609 40.6089C31.6136 40.1757 31.1656 39.7434 30.7154 39.3133C30.2779 38.8948 29.8438 38.4731 29.4102 38.0507C29.2741 37.9221 29.138 37.7936 28.9977 37.6612C28.8744 37.54 28.7511 37.4189 28.624 37.294C28.5144 37.1886 28.4048 37.0831 28.2919 36.9745C28.08 36.6405 28.08 36.6405 28.119 36.1879C28.2795 35.6984 28.4966 35.3845 28.8176 34.9796C28.9338 34.8311 29.05 34.6827 29.1698 34.5298C29.2946 34.3735 29.4195 34.2171 29.5482 34.056C29.8052 33.729 30.062 33.4018 30.3188 33.0746C30.5113 32.8307 30.5113 32.8307 30.7077 32.5818C31.2529 31.8869 31.7867 31.1838 32.3189 30.4792C32.4918 30.2509 32.6648 30.0226 32.8377 29.7942C32.9579 29.6352 33.0781 29.4762 33.202 29.3124Z" fill="#808080"/>
</g>
</svg>
