<svg width="119" height="37" viewBox="0 0 119 37" fill="none" xmlns="http://www.w3.org/2000/svg">
<g opacity="0.5">
<path d="M45.1506 1.27766C47.3902 1.21672 47.3902 1.21672 49.675 1.15455C50.3741 1.12765 50.3741 1.12765 51.0873 1.10021C53.1173 1.07349 54.2336 1.11359 56.0114 2.17985C57.2374 3.54611 57.4246 4.37692 57.4619 6.20215C57.279 6.62874 57.0962 7.05532 56.9079 7.49483C56.7657 7.88079 56.6235 8.26675 56.477 8.6644C56.7106 8.9691 56.9442 9.2738 57.1849 9.58774C57.9543 10.6342 57.9543 10.6342 57.9235 12.3578C57.393 14.3384 57.1716 14.8963 55.4921 16.0511C53.7204 16.2954 51.9822 16.2355 50.1982 16.1742C47.6997 16.1133 47.6997 16.1133 45.1506 16.0511C45.1506 11.1759 45.1506 6.30064 45.1506 1.27766ZM49.0902 4.23236C49.0902 5.20741 49.0902 6.18246 49.0902 7.18705C50.5528 7.18705 52.0154 7.18705 53.5223 7.18705C53.6848 6.53702 53.8473 5.88699 54.0147 5.21726C53.1473 4.14208 53.1473 4.14208 52.0719 4.13618C50.581 4.18427 50.581 4.18427 49.0902 4.23236ZM49.0902 10.1417C49.0902 11.1168 49.0902 12.0918 49.0902 13.0964C50.5528 13.0964 52.0154 13.0964 53.5223 13.0964C53.7105 12.2809 53.8739 11.4593 54.0147 10.6342C53.5182 10.0272 53.5182 10.0272 52.5047 10.0937C51.8962 10.1022 51.8962 10.1022 51.2755 10.111C50.6651 10.1176 50.6651 10.1176 50.0424 10.1244C49.5711 10.133 49.5711 10.133 49.0902 10.1417Z" fill="#999999"/>
<path d="M45.1506 20.9755C46.4507 20.9755 47.7508 20.9755 49.0902 20.9755C49.2527 22.2755 49.4152 23.5756 49.5827 24.9151C49.8156 24.6307 50.0486 24.3463 50.2886 24.0533C52.9168 21.1024 52.9168 21.1024 54.7707 20.7139C55.8569 20.7276 56.8835 20.797 57.9543 20.9755C57.7582 21.2015 57.562 21.4275 57.3599 21.6603C56.8232 22.2819 56.2891 22.9059 55.7575 23.532C55.194 24.1941 54.622 24.849 54.0455 25.4999C53.4332 26.3419 53.4332 26.3419 53.6108 27.2292C54.1831 28.8345 55.0956 30.2015 56.0153 31.6247C57.9543 34.6343 57.9543 34.6343 57.9543 35.749C56.4462 36.0567 56.4462 36.0567 54.5072 35.749C53.1394 34.2389 52.1321 32.55 51.06 30.8245C50.735 30.4994 50.41 30.1744 50.0751 29.8396C49.2615 30.6532 49.4253 31.6776 49.3365 32.7943C49.1449 35.2018 49.1449 35.2018 48.5978 35.749C47.4602 35.749 46.3227 35.749 45.1506 35.749C45.1506 30.8737 45.1506 25.9985 45.1506 20.9755Z" fill="#999999"/>
<path d="M59.4315 19.9906C60.7316 19.9906 62.0316 19.9906 63.3711 19.9906C63.5336 21.4532 63.6961 22.9157 63.8636 24.4226C64.3625 24.3798 64.3625 24.3798 64.8715 24.3361C65.3108 24.3139 65.7501 24.2916 66.2027 24.2688C66.6369 24.2402 67.0711 24.2116 67.5185 24.1822C68.788 24.4226 68.788 24.4226 69.9268 25.3768C71.0722 27.4553 70.9765 29.142 70.881 31.4708C70.8721 31.8825 70.8632 32.2942 70.854 32.7183C70.8309 33.7288 70.7956 34.7389 70.7578 35.749C69.609 35.7699 68.4596 35.7691 67.3107 35.749C66.8183 35.2565 66.8183 35.2565 66.7702 33.4849C66.7734 32.7519 66.7793 32.019 66.7875 31.2861C66.7897 30.9126 66.7919 30.539 66.7942 30.1541C66.8 29.2285 66.8089 28.3029 66.8183 27.3773C65.8432 27.5398 64.8682 27.7024 63.8636 27.8698C63.8337 28.3973 63.8039 28.9248 63.7731 29.4683C63.7316 30.1563 63.6899 30.8444 63.6481 31.5324C63.6287 31.8806 63.6094 32.2287 63.5894 32.5875C63.4269 35.2007 63.4269 35.2007 62.8787 35.749C61.4013 35.8105 61.4013 35.8105 59.924 35.749C59.4315 35.2565 59.4315 35.2565 59.3756 33.7993C59.3782 33.1623 59.3808 32.5253 59.3834 31.869C59.3841 31.5309 59.3848 31.1927 59.3855 30.8443C59.3883 29.7605 59.3945 28.6766 59.4007 27.5928C59.4032 26.8596 59.4055 26.1263 59.4075 25.3931C59.4129 23.5923 59.4214 21.7914 59.4315 19.9906Z" fill="#999999"/>
<path d="M93.4105 19.9906C94.5481 19.9906 95.6856 19.9906 96.8576 19.9906C96.8576 25.1909 96.8576 30.3911 96.8576 35.749C95.517 35.7693 94.1763 35.7896 92.7949 35.8105C92.3758 35.8195 91.9567 35.8285 91.5249 35.8377C87.9872 35.8637 87.9872 35.8637 86.5162 34.7641C84.9868 32.4699 85.2267 30.0643 85.5313 27.3773C86.4217 25.8637 86.9399 25.1957 88.486 24.4226C89.9657 24.3559 91.4361 24.4015 92.9181 24.4226C93.0806 22.9601 93.2431 21.4975 93.4105 19.9906ZM89.9634 27.3773C88.8299 29.0775 88.8086 29.8137 88.9785 31.8094C89.3035 32.1344 89.6285 32.4594 89.9634 32.7943C91.7346 32.6351 91.7346 32.6351 93.4105 32.3018C93.4237 31.5735 93.4333 30.845 93.4413 30.1166C93.447 29.7109 93.4527 29.3053 93.4586 28.8874C93.5251 27.8739 93.5251 27.8739 92.9181 27.3773C91.4614 27.2132 91.4614 27.2132 89.9634 27.3773Z" fill="#999999"/>
<path d="M13.7665 23.1877C16.0706 24.46 16.0706 24.46 17.0809 25.4075C17.3045 26.615 17.3045 26.615 17.2733 28.0294C17.2638 28.7888 17.2638 28.7888 17.254 29.5635C17.2375 30.0914 17.221 30.6192 17.204 31.163C17.1951 31.6966 17.1863 32.2301 17.1771 32.7798C17.1539 34.0983 17.1215 35.4159 17.0809 36.7339C16.3522 36.6647 15.6239 36.5923 14.8957 36.5184C14.49 36.4784 14.0844 36.4384 13.6665 36.3972C12.6489 36.2414 12.6489 36.2414 12.1564 35.749C12.0411 34.7562 11.9529 33.7602 11.8794 32.7635C11.8175 31.9475 11.8175 31.9475 11.7544 31.1149C11.7245 30.6941 11.6947 30.2732 11.664 29.8396C9.47011 31.3022 9.47011 31.3022 7.23193 32.7943C4.63538 31.496 4.63538 31.496 3.78479 30.332C3.9218 29.1019 4.13072 28.5096 5.00954 27.6257C6.02039 26.8959 7.03542 26.1753 8.06294 25.4691C8.41176 25.2114 8.76058 24.9536 9.11998 24.6881C11.7237 22.8802 11.7237 22.8802 13.7665 23.1877Z" fill="#999999"/>
<path d="M17.0809 0.292725C17.0809 4.03041 17.0809 7.7681 17.0809 11.6191C15.6183 12.4316 14.1558 13.2441 12.6489 14.0813C11.3553 13.2003 10.0628 12.3178 8.77084 11.4344C8.40329 11.1843 8.03574 10.9342 7.65706 10.6765C7.30474 10.4353 6.95243 10.194 6.58944 9.94549C6.2645 9.72371 5.93957 9.50193 5.60478 9.27343C4.76969 8.66436 4.76969 8.66436 3.78479 7.67946C3.90018 6.4871 4.21331 5.80236 4.8928 4.8171C5.75459 4.23232 5.75459 4.23232 6.8626 4.23232C8.73976 4.91492 10.0779 5.97412 11.664 7.18701C11.8265 5.0744 11.989 2.9618 12.1564 0.785174C13.6338 0.292725 13.6338 0.292725 17.0809 0.292725Z" fill="#999999"/>
<path d="M35.3016 10.6342C36.2058 12.4957 36.4619 13.5799 35.7941 15.5586C34.7765 16.3377 34.7765 16.3377 33.5473 16.9437C33.1404 17.15 32.7335 17.3563 32.3142 17.5688C32 17.718 31.6858 17.8672 31.362 18.0209C32.9258 19.2345 34.4978 20.1219 36.2865 20.9756C36.2154 21.6053 36.1443 22.235 36.0711 22.8838C36.0311 23.238 35.9911 23.5923 35.9499 23.9572C35.7941 24.9152 35.7941 24.9152 35.3016 25.9001C32.8388 25.1712 30.7075 24.1116 28.4689 22.8838C28.1299 22.7004 27.7909 22.5169 27.4417 22.3279C26.6134 21.8792 25.7866 21.4277 24.9602 20.9756C24.9602 19.188 24.9602 17.4004 24.9602 15.5586C26.4978 14.7354 28.0369 13.9151 29.5769 13.0964C30.0149 12.8615 30.4529 12.6267 30.9042 12.3847C31.3232 12.1625 31.7422 11.9403 32.1738 11.7114C32.5606 11.5051 32.9475 11.2988 33.346 11.0862C34.3167 10.6342 34.3167 10.6342 35.3016 10.6342Z" fill="#999999"/>
<path d="M1.32254 10.6342C3.78535 11.363 5.91668 12.4226 8.15527 13.6504C8.49426 13.8339 8.83324 14.0173 9.18249 14.2063C10.0108 14.655 10.8375 15.1065 11.664 15.5586C11.664 17.3462 11.664 19.1338 11.664 20.9756C10.1263 21.7988 8.5873 22.6191 7.04726 23.4378C6.60925 23.6727 6.17124 23.9076 5.71996 24.1496C5.30099 24.3718 4.88203 24.5939 4.45037 24.8228C4.06354 25.0292 3.67671 25.2355 3.27815 25.448C2.30744 25.9001 2.30744 25.9001 1.32254 25.9001C0.466992 24.0286 0.337646 23.1438 0.337646 20.9756C1.96273 20.163 3.58781 19.3505 5.26214 18.5133C3.62901 17.2885 2.16279 16.4297 0.337646 15.5586C0.406833 14.83 0.479249 14.1016 0.553093 13.3734C0.593085 12.9678 0.633077 12.5621 0.674282 12.1442C0.830095 11.1266 0.830095 11.1266 1.32254 10.6342Z" fill="#999999"/>
<path d="M24.0866 23.0026C25.6626 23.788 27.0426 24.7801 28.4689 25.8078C28.7805 26.024 29.0922 26.2401 29.4134 26.4628C32.2 28.4538 32.2 28.4538 32.8393 30.3322C31.7313 31.5941 31.7313 31.5941 30.3771 32.7945C27.9328 32.5908 25.9158 30.6886 23.9753 29.3473C23.9753 31.6224 23.9753 33.8975 23.9753 36.2416C22.5127 36.4041 21.0501 36.5666 19.5432 36.7341C19.5432 32.8339 19.5432 28.9337 19.5432 24.9153C22.9904 22.9455 22.9904 22.9455 24.0866 23.0026Z" fill="#999999"/>
<path d="M19.5431 0.292678C22.8672 0.231122 22.8672 0.231122 23.9752 0.785127C24.1791 2.23362 24.1791 2.23362 24.283 4.01682C24.3198 4.60655 24.3566 5.19628 24.3945 5.80387C24.4187 6.26029 24.4428 6.71671 24.4676 7.18696C24.9133 6.85846 24.9133 6.85846 25.3679 6.52331C25.7615 6.24464 26.155 5.96596 26.5605 5.67884C26.949 5.39889 27.3375 5.11895 27.7378 4.83052C28.8997 4.23227 28.8997 4.23227 29.9615 4.3246C31.1988 4.86987 31.9413 5.7003 32.8393 6.69452C32.1619 8.30208 31.4802 9.0779 30.0346 10.0416C29.6823 10.2797 29.33 10.5177 28.967 10.763C28.4157 11.1258 28.4157 11.1258 27.8532 11.4959C27.4819 11.7454 27.1105 11.9948 26.7279 12.2519C25.8129 12.8657 24.8954 13.4753 23.9752 14.0813C23.3283 13.7644 22.6821 13.4461 22.0362 13.1271C21.6762 12.95 21.3163 12.7729 20.9455 12.5904C20.0356 12.1115 20.0356 12.1115 19.5431 11.619C19.5002 10.778 19.4905 9.93533 19.4951 9.09328C19.4966 8.58386 19.4982 8.07443 19.4999 7.54957C19.504 7.01348 19.5081 6.4774 19.5124 5.92506C19.5146 5.38707 19.5168 4.84908 19.5191 4.29479C19.5249 2.96072 19.533 1.62671 19.5431 0.292678Z" fill="#999999"/>
<path d="M80.6069 24.4228C82.2728 25.0688 82.8249 25.4814 83.7155 27.0081C84.2732 29.239 84.4025 31.043 83.4385 33.1638C82.2811 34.6518 81.3273 35.6296 79.4239 35.9453C75.1569 35.9059 75.1569 35.9059 73.2202 34.2718C71.7597 32.0811 71.9197 29.9474 72.2353 27.3775C74.3163 23.9091 76.8649 24.1254 80.6069 24.4228ZM75.6824 28.3624C75.5561 29.8787 75.4882 30.9287 76.1749 32.302C77.3473 32.7171 77.3473 32.7171 78.6371 32.7944C79.1246 32.4694 79.6122 32.1444 80.1145 31.8095C80.3196 30.086 80.3196 30.086 80.1145 28.3624C79.7894 28.0374 79.4644 27.7124 79.1296 27.3775C77.137 27.1954 77.137 27.1954 75.6824 28.3624Z" fill="#999999"/>
<path d="M115.571 24.4226C117.049 25.3096 117.763 25.8524 118.525 27.3773C118.776 29.926 118.938 32.0825 117.633 34.3332C115.794 35.9092 114.052 35.8886 111.739 35.8548C110.208 35.7065 109.35 35.2663 108.184 34.2716C106.619 32.3293 106.448 30.8191 106.707 28.3622C107.704 25.7176 107.704 25.7176 109.055 24.8439C111.157 24.0377 113.361 24.1476 115.571 24.4226ZM111.631 27.3773C110.444 28.3407 110.444 28.3407 110.585 30.1474C110.605 30.6958 110.625 31.2443 110.646 31.8094C112.551 32.7329 112.551 32.7329 114.586 32.3018C115.272 30.9286 115.205 29.8786 115.078 28.3622C113.624 27.1952 113.624 27.1952 111.631 27.3773Z" fill="#999999"/>
<path d="M98.0274 5.40182C99.32 6.20205 99.32 6.20205 99.8125 7.18695C99.8534 7.8643 99.8654 8.54357 99.8606 9.22215C99.859 9.61889 99.8574 10.0156 99.8558 10.4244C99.8516 10.8389 99.8475 11.2535 99.8433 11.6805C99.8411 12.0989 99.8388 12.5172 99.8365 12.9482C99.8307 13.9825 99.8219 15.0168 99.8125 16.051C99.285 16.044 98.7575 16.0371 98.214 16.0299C96.8375 16.0456 95.6965 16.1266 94.3648 16.3896C92.1683 16.5639 91.2242 16.3917 89.4711 15.0661C88.9478 13.6503 88.9478 13.6503 88.9786 12.1114C90.0277 9.8633 90.0277 9.8633 91.4409 9.15674C92.2815 9.12229 93.1234 9.11518 93.9647 9.12596C94.4128 9.13041 94.861 9.13485 95.3227 9.13943C95.6668 9.14514 96.0109 9.15086 96.3654 9.15674C96.2028 8.83173 96.0403 8.50671 95.8729 8.17184C94.0853 8.17184 92.2977 8.17184 90.456 8.17184C90.456 7.3593 90.456 6.54676 90.456 5.7096C93.094 4.43053 95.2983 4.28997 98.0274 5.40182ZM92.9182 11.619C92.9182 12.269 92.9182 12.9191 92.9182 13.5888C93.8933 13.5888 94.8683 13.5888 95.8729 13.5888C96.0354 12.9388 96.1979 12.2887 96.3654 11.619C95.2278 11.619 94.0902 11.619 92.9182 11.619Z" fill="#999999"/>
<path d="M67.9877 5.43274C69.2803 6.20219 69.2803 6.20219 69.7728 6.69464C69.8154 7.3918 69.8255 8.09102 69.8209 8.78947C69.8193 9.21002 69.8177 9.63057 69.8161 10.0639C69.812 10.506 69.8078 10.9481 69.8036 11.4037C69.8014 11.8477 69.7991 12.2918 69.7968 12.7493C69.791 13.8499 69.7829 14.9505 69.7728 16.0512C69.2459 16.0448 68.719 16.0385 68.1762 16.0319C66.8066 16.0462 65.6277 16.119 64.2943 16.3589C62.3964 16.5426 61.5286 16.5499 59.9238 15.5587C58.949 14.318 58.9357 13.6682 59.0005 12.0808C59.5102 10.3697 59.8864 10.0418 61.4012 9.15688C62.6708 9.01261 62.6708 9.01261 63.9865 9.06455C64.6454 9.08454 64.6454 9.08454 65.3177 9.10494C65.6503 9.12208 65.9829 9.13922 66.3257 9.15688C66.1631 8.83186 66.0006 8.50685 65.8332 8.17198C64.0456 8.17198 62.258 8.17198 60.4163 8.17198C60.4163 7.35944 60.4163 6.5469 60.4163 5.70974C63.0591 4.42837 65.2678 4.27426 67.9877 5.43274ZM62.8785 11.6191C62.8785 12.2692 62.8785 12.9192 62.8785 13.5889C63.8536 13.5889 64.8286 13.5889 65.8332 13.5889C65.9957 12.9389 66.1582 12.2889 66.3257 11.6191C65.1881 11.6191 64.0505 11.6191 62.8785 11.6191Z" fill="#999999"/>
<path d="M85.5314 1.77014C85.5314 2.9077 85.5314 4.04526 85.5314 5.21728C86.344 5.21728 87.1565 5.21728 87.9937 5.21728C87.9937 6.19233 87.9937 7.16738 87.9937 8.17198C87.1811 8.17198 86.3686 8.17198 85.5314 8.17198C85.6939 9.79706 85.8565 11.4221 86.0239 13.0965C86.8364 13.0965 87.649 13.0965 88.4861 13.0965C88.4861 14.0715 88.4861 15.0466 88.4861 16.0512C84.9563 16.7093 84.9563 16.7093 83.1 15.9588C81.9334 14.9336 81.8442 14.5868 81.5918 13.0965C81.5592 12.2352 81.5497 11.3729 81.5611 10.5111C81.5655 10.0718 81.57 9.63255 81.5745 9.17996C81.5802 8.84733 81.586 8.51469 81.5918 8.17198C81.1043 8.17198 80.6168 8.17198 80.1145 8.17198C80.1145 7.19693 80.1145 6.22188 80.1145 5.21728C80.602 5.21728 81.0896 5.21728 81.5918 5.21728C81.7544 4.40474 81.9169 3.5922 82.0843 2.75504C84.9774 1.77014 84.9774 1.77014 85.5314 1.77014Z" fill="#999999"/>
<path d="M99.3199 24.4227C101.595 24.4227 103.87 24.4227 106.214 24.4227C106.214 25.3978 106.214 26.3728 106.214 27.3774C105.077 27.5399 103.939 27.7024 102.767 27.8699C102.767 30.47 102.767 33.0701 102.767 35.7491C101.63 35.7491 100.492 35.7491 99.3199 35.7491C99.3199 32.0114 99.3199 28.2737 99.3199 24.4227Z" fill="#999999"/>
<path d="M109.661 4.72485C109.661 5.6999 109.661 6.67495 109.661 7.67955C108.361 8.00456 107.061 8.32958 105.722 8.66445C105.722 11.1021 105.722 13.5397 105.722 16.0512C104.584 16.0512 103.447 16.0512 102.275 16.0512C102.275 12.476 102.275 8.90082 102.275 5.2173C103.737 5.2173 105.2 5.2173 106.707 5.2173C108.676 4.72485 108.676 4.72485 109.661 4.72485Z" fill="#999999"/>
<path d="M79.622 4.72485C79.622 5.6999 79.622 6.67495 79.622 7.67955C78.3219 8.00456 77.0218 8.32958 75.6824 8.66445C75.6824 11.1021 75.6824 13.5397 75.6824 16.0512C74.5448 16.0512 73.4073 16.0512 72.2352 16.0512C72.2352 12.476 72.2352 8.90082 72.2352 5.2173C73.6978 5.2173 75.1604 5.2173 76.6673 5.2173C78.6371 4.72485 78.6371 4.72485 79.622 4.72485Z" fill="#999999"/>
</g>
</svg>
