<svg width="63" height="67" viewBox="0 0 63 67" fill="none" xmlns="http://www.w3.org/2000/svg">
<g opacity="0.5">
<path d="M24.8217 -0.000244141C29.1115 -0.000244141 33.4014 -0.000244141 37.8212 -0.000244141C37.8212 3.77859 37.8212 7.55742 37.8212 11.4508C41.6539 11.4508 45.4865 11.4508 49.4352 11.4508C49.4352 15.7541 49.4352 20.0574 49.4352 24.4911C45.5623 24.4911 41.6893 24.4911 37.699 24.4911C37.699 28.2699 37.699 32.0487 37.699 35.9421C33.3822 35.9421 29.0655 35.9421 24.6179 35.9421C24.6179 32.1632 24.6179 28.3844 24.6179 24.4911C20.7988 24.4911 16.9796 24.4911 13.0447 24.4911C13.0447 20.1878 13.0447 15.8845 13.0447 11.4508C16.9311 11.4508 20.8175 11.4508 24.8217 11.4508C24.8217 7.67193 24.8217 3.8931 24.8217 -0.000244141ZM27.1852 2.40406C27.1852 5.41637 27.1852 8.42868 27.1852 11.5323C27.4677 11.5861 27.7501 11.6398 28.041 11.6953C28.4154 11.7819 28.4154 11.7819 28.5725 11.8204C28.6895 11.849 28.8065 11.8716 28.925 11.893C29.1782 11.9429 29.4179 12.0271 29.6609 12.113C29.7078 12.1294 29.7547 12.1459 29.8031 12.1629C30.4759 12.4013 31.1317 12.6884 31.7393 13.0655C31.8623 13.1408 31.9887 13.2092 32.1158 13.2774C32.1976 13.3253 32.1976 13.3253 32.2845 13.3923C32.3559 13.4555 32.3559 13.4555 32.4421 13.4476C32.4421 13.4745 32.4421 13.5014 32.4421 13.5291C32.4749 13.5434 32.5077 13.5576 32.5414 13.5724C32.731 13.6676 32.8894 13.8035 33.0534 13.9366C33.0893 13.9654 33.1252 13.9941 33.1623 14.0238C33.5248 14.3167 33.871 14.623 34.1946 14.9585C34.2239 14.9886 34.2533 15.0186 34.2835 15.0496C34.311 15.078 34.3385 15.1064 34.3668 15.1357C34.433 15.2089 34.433 15.2089 34.5204 15.1999C34.5297 15.2217 34.5389 15.2436 34.5484 15.2661C34.632 15.4173 34.7434 15.5467 34.8671 15.6672C34.9292 15.731 34.9773 15.7962 35.0273 15.8697C35.0875 15.956 35.1433 16.0265 35.2183 16.1015C35.3049 16.188 35.3538 16.2765 35.4169 16.3816C35.4607 16.4371 35.5049 16.4923 35.5494 16.5472C35.6942 16.7301 35.8093 16.924 35.9231 17.1274C35.9799 17.2246 36.0423 17.3106 36.1097 17.4004C36.1371 17.4662 36.1644 17.532 36.1912 17.5981C36.2413 17.7056 36.3023 17.8036 36.3644 17.9047C36.5304 18.1841 36.6497 18.4769 36.7676 18.7788C36.7915 18.8397 36.816 18.9004 36.8409 18.9609C37.2112 19.8653 37.4102 20.7813 37.5555 21.7431C37.575 21.8714 37.5961 21.9995 37.6175 22.1275C40.7374 22.1275 43.8573 22.1275 47.0717 22.1275C47.0717 19.4111 47.0717 16.6946 47.0717 13.8958C43.2391 13.8958 39.4064 13.8958 35.4577 13.8958C35.4577 10.1035 35.4577 6.31126 35.4577 2.40406C32.7278 2.40406 29.9979 2.40406 27.1852 2.40406ZM24.9032 11.5323C24.9022 11.7918 24.9014 12.0513 24.901 12.3108C24.9008 12.3989 24.9005 12.487 24.9001 12.5752C24.8996 12.7024 24.8994 12.8297 24.8992 12.957C24.899 12.9959 24.8988 13.0348 24.8986 13.0748C24.8986 13.3237 24.9144 13.5672 24.9439 13.8143C25.0176 13.8159 25.0176 13.8159 25.0927 13.8174C25.2771 13.8213 25.4616 13.8254 25.6461 13.8295C25.7255 13.8312 25.8049 13.8329 25.8843 13.8346C26.3192 13.8436 26.752 13.8543 27.1852 13.8958C27.1828 13.8472 27.1803 13.7985 27.1778 13.7484C27.143 13.0372 27.1232 12.3256 27.1037 11.6138C26.6118 11.5376 26.1337 11.5221 25.6367 11.5272C25.5651 11.5276 25.4934 11.528 25.4218 11.5283C25.2489 11.5292 25.0761 11.5306 24.9032 11.5323ZM15.449 13.8958C15.449 16.6123 15.449 19.3287 15.449 22.1275C19.2816 22.1275 23.1142 22.1275 27.063 22.1275C27.063 25.9063 27.063 29.6852 27.063 33.5785C29.7795 33.5785 32.4959 33.5785 35.2947 33.5785C35.2947 30.5528 35.2947 27.527 35.2947 24.4096C34.8106 24.3289 34.3264 24.2482 33.8276 24.1651C33.2363 23.9823 33.2363 23.9823 32.9432 23.8718C32.8568 23.8416 32.7723 23.8188 32.6831 23.7986C32.4987 23.7555 32.3332 23.6791 32.162 23.5996C32.0971 23.5701 32.0323 23.5406 31.9674 23.5111C31.9367 23.4972 31.906 23.4832 31.8743 23.4689C31.7729 23.4239 31.6699 23.3839 31.566 23.3449C31.3906 23.2768 31.2367 23.185 31.0774 23.0855C30.975 23.024 30.8713 22.9714 30.7637 22.9196C30.617 22.8481 30.487 22.7701 30.3582 22.6698C30.2753 22.6096 30.2753 22.6096 30.151 22.5433C29.9841 22.4492 29.8335 22.3377 29.6812 22.2217C29.6529 22.2003 29.6246 22.1789 29.5954 22.1568C29.2802 21.9171 28.9725 21.6753 28.693 21.394C28.6392 21.3459 28.5849 21.2983 28.53 21.2514C28.3029 21.0539 28.1046 20.8401 27.9094 20.6113C27.8856 20.5872 27.8618 20.5631 27.8373 20.5382C27.8104 20.5382 27.7835 20.5382 27.7558 20.5382C27.7448 20.5138 27.7339 20.4895 27.7226 20.4644C27.6791 20.374 27.6791 20.374 27.6106 20.3115C27.552 20.253 27.552 20.253 27.5113 20.1307C27.4435 20.0627 27.3755 19.9948 27.3075 19.927C27.2283 19.8285 27.1546 19.7264 27.0808 19.6239C27.0617 19.5977 27.0426 19.5715 27.023 19.5445C26.8637 19.3251 26.7122 19.1034 26.5794 18.8666C26.525 18.7716 26.468 18.6783 26.411 18.5847C26.3231 18.4389 26.243 18.2923 26.1692 18.139C26.1166 18.0342 26.0586 17.9329 26.0009 17.8308C25.9123 17.6697 25.847 17.5166 25.7949 17.3408C25.754 17.223 25.7011 17.1153 25.6459 17.0034C25.4983 16.6863 25.3997 16.3614 25.3056 16.0251C25.2968 15.9941 25.288 15.9632 25.279 15.9314C25.114 15.3485 25.0011 14.7668 24.9328 14.1644C24.9281 14.0177 24.9281 14.0177 24.8624 13.8958C24.7414 13.8918 24.6213 13.8905 24.5002 13.8909C24.4617 13.8909 24.4232 13.8909 24.3836 13.8908C24.2536 13.8907 24.1237 13.891 23.9937 13.8912C23.9009 13.8912 23.8082 13.8912 23.7154 13.8912C23.4628 13.8912 23.2101 13.8914 22.9575 13.8917C22.6937 13.8919 22.43 13.892 22.1663 13.892C21.7234 13.8921 21.2804 13.8924 20.8375 13.8927C20.3812 13.8931 19.9249 13.8934 19.4686 13.8936C19.4402 13.8936 19.4118 13.8936 19.3826 13.8936C19.1356 13.8937 18.8886 13.8938 18.6416 13.8939C17.5774 13.8943 16.5132 13.8951 15.449 13.8958ZM27.3075 13.9773C27.3256 14.1016 27.3445 14.2256 27.3642 14.3497C27.3801 14.4506 27.395 14.5518 27.4087 14.6531C27.484 15.1386 27.6602 15.5779 27.8395 16.0336C27.878 16.1371 27.878 16.1371 27.9202 16.2899C27.9672 16.4484 28.0372 16.5817 28.1174 16.7255C28.147 16.7794 28.1765 16.8334 28.2059 16.8874C28.2199 16.9128 28.2338 16.9382 28.2482 16.9644C28.2921 17.0458 28.3325 17.1285 28.3721 17.2119C28.4463 17.3633 28.5392 17.4996 28.6345 17.6384C28.6857 17.7154 28.7308 17.7927 28.7745 17.8741C28.8542 18.0086 28.9414 18.1152 29.0448 18.2312C29.1005 18.2969 29.1005 18.2969 29.1591 18.3963C29.2405 18.5297 29.3413 18.639 29.446 18.7546C29.508 18.8267 29.508 18.8267 29.5488 18.9082C29.5757 18.9082 29.6026 18.9082 29.6303 18.9082C29.641 18.9321 29.6516 18.956 29.6626 18.9806C29.7146 19.0763 29.77 19.1399 29.8466 19.2168C29.8735 19.2439 29.9004 19.2709 29.928 19.2988C29.9567 19.327 29.9854 19.3553 30.0149 19.3845C30.0589 19.4281 30.0589 19.4281 30.1039 19.4727C30.4121 19.7752 30.7308 20.0491 31.0984 20.278C31.1788 20.3345 31.1788 20.3345 31.2533 20.4126C31.3635 20.5183 31.4866 20.5877 31.6195 20.6605C31.6681 20.6876 31.7168 20.7148 31.7654 20.742C31.7898 20.7554 31.8141 20.7689 31.8392 20.7828C31.9348 20.836 32.0296 20.8905 32.1245 20.9448C32.5722 21.2001 33.0124 21.4112 33.5029 21.5707C33.6237 21.6114 33.7419 21.6588 33.8608 21.7047C34.2704 21.8519 34.7352 21.9731 35.1724 21.9645C35.1507 21.6561 35.0952 21.363 35.0222 21.0629C35.0113 21.0181 35.0005 20.9733 34.9893 20.9272C34.8995 20.5673 34.7838 20.2286 34.6427 19.8862C34.6221 19.8326 34.6018 19.7789 34.5815 19.7251C34.4795 19.4564 34.3674 19.2059 34.2122 18.9626C34.1509 18.863 34.0999 18.7615 34.0492 18.656C33.976 18.5059 33.8943 18.3746 33.7941 18.2414C33.7314 18.1541 33.6824 18.06 33.6304 17.9661C33.5531 17.8406 33.4603 17.7276 33.3684 17.6124C33.3062 17.5332 33.2481 17.4528 33.1909 17.3698C33.1026 17.2442 33.0005 17.1409 32.8904 17.0336C32.8513 16.9832 32.8513 16.9832 32.8114 16.9318C32.7274 16.8235 32.7274 16.8235 32.6051 16.728C32.4914 16.6332 32.4111 16.5379 32.3199 16.4224C32.2118 16.3237 32.2118 16.3237 32.0754 16.3001C32.0657 16.2764 32.056 16.2527 32.0461 16.2283C31.8915 15.9583 31.5391 15.7731 31.2862 15.6C31.2189 15.5535 31.1519 15.5065 31.0856 15.4586C30.8406 15.2826 30.5885 15.1314 30.3231 14.9885C30.2856 14.9678 30.2481 14.9471 30.2094 14.9258C29.9967 14.8103 29.7838 14.7102 29.5578 14.6235C29.4832 14.5947 29.4098 14.5631 29.3368 14.5306C28.977 14.3738 28.6054 14.2693 28.2269 14.1683C28.1867 14.1575 28.1867 14.1575 28.1457 14.1465C27.8672 14.0721 27.5951 14.0024 27.3075 13.9773ZM35.2947 22.0868C35.3081 22.8264 35.3216 23.566 35.3354 24.3281C35.5871 24.4539 35.9447 24.4151 36.2206 24.4135C36.2608 24.4135 36.301 24.4134 36.3424 24.4134C36.4695 24.4131 36.5965 24.4126 36.7235 24.4121C36.8102 24.4119 36.8969 24.4117 36.9835 24.4115C37.1949 24.4111 37.4062 24.4104 37.6175 24.4096C37.6866 23.294 37.6866 23.294 37.536 22.209C37.4797 22.2078 37.4797 22.2078 37.4224 22.2066C37.2786 22.2033 37.1348 22.1998 36.991 22.1961C36.9297 22.1945 36.8683 22.1931 36.807 22.1918C36.2981 22.1809 35.8036 22.1352 35.2947 22.0868Z" fill="#808080"/>
<path d="M24.8218 -0.000244141C29.1116 -0.000244141 33.4015 -0.000244141 37.8213 -0.000244141C37.8213 3.77859 37.8213 7.55742 37.8213 11.4508C41.654 11.4508 45.4866 11.4508 49.4353 11.4508C49.4353 15.7541 49.4353 20.0574 49.4353 24.4911C45.5624 24.4911 41.6894 24.4911 37.6991 24.4911C37.6991 28.243 37.6991 31.9949 37.6991 35.8606C37.6856 35.8606 37.6722 35.8606 37.6583 35.8606C37.6583 35.8371 37.6582 35.8136 37.6581 35.7894C37.6539 34.3897 37.6495 32.99 37.6448 31.5903C37.6443 31.4214 37.6437 31.2525 37.6432 31.0836C37.643 31.05 37.6429 31.0163 37.6428 30.9817C37.641 30.4408 37.6394 29.8998 37.6378 29.3589C37.6361 28.8019 37.6343 28.2449 37.6324 27.6879C37.6313 27.3758 37.6303 27.0638 37.6294 26.7518C37.6293 24.5756 37.6293 24.5756 37.5449 22.4016C37.5405 22.3239 37.538 22.2461 37.5361 22.1683C37.6135 22.0908 37.7275 22.1225 37.8306 22.1222C37.8674 22.1224 37.9043 22.1225 37.9422 22.1226C38.0004 22.1226 38.0004 22.1226 38.0598 22.1225C38.1909 22.1224 38.322 22.1227 38.4531 22.1229C38.5466 22.1229 38.6402 22.1229 38.7337 22.1229C38.9886 22.1229 39.2434 22.1231 39.4983 22.1234C39.7643 22.1236 40.0303 22.1237 40.2963 22.1237C40.7431 22.1238 41.1898 22.1241 41.6366 22.1244C42.0968 22.1248 42.5571 22.1251 43.0173 22.1253C43.0603 22.1253 43.0603 22.1253 43.1041 22.1253C43.3532 22.1254 43.6024 22.1255 43.8515 22.1256C44.9249 22.126 45.9984 22.1268 47.0718 22.1275C47.0718 19.411 47.0718 16.6946 47.0718 13.8958C43.2392 13.8958 39.4065 13.8958 35.4578 13.8958C35.4578 10.1035 35.4578 6.31126 35.4578 2.40406C32.7279 2.40406 29.998 2.40406 27.1853 2.40406C27.1853 5.44326 27.1853 8.48247 27.1853 11.6138C26.9433 11.6003 26.7012 11.5869 26.4518 11.573C26.3124 11.5683 26.1734 11.5641 26.034 11.5616C25.9641 11.56 25.8943 11.5585 25.8244 11.5569C25.7177 11.5547 25.611 11.5526 25.5043 11.5505C25.399 11.5484 25.2937 11.5461 25.1884 11.5437C25.14 11.5429 25.14 11.5429 25.0907 11.5421C24.8672 11.5369 24.8672 11.5369 24.8218 11.4915C24.8178 11.4301 24.8167 11.3685 24.8168 11.307C24.8167 11.2669 24.8166 11.2268 24.8165 11.1854C24.8166 11.1409 24.8168 11.0963 24.8169 11.0503C24.8169 11.0035 24.8168 10.9566 24.8168 10.9084C24.8167 10.7775 24.8169 10.6466 24.8171 10.5157C24.8172 10.3728 24.8172 10.2298 24.8171 10.0868C24.8171 9.80888 24.8173 9.53098 24.8176 9.25307C24.8179 8.9318 24.8179 8.61054 24.8179 8.28927C24.8181 7.44054 24.8187 6.59182 24.8192 5.74309C24.8201 3.84779 24.8209 1.95249 24.8218 -0.000244141Z" fill="#808080"/>
<path d="M27.1853 11.5323C27.6818 11.5958 28.1659 11.6749 28.6511 11.7982C28.742 11.8195 28.8332 11.8359 28.925 11.8525C29.1783 11.9023 29.4179 11.9864 29.6609 12.0723C29.7313 12.097 29.7313 12.097 29.8031 12.1222C30.4761 12.3607 31.1318 12.648 31.7397 13.025C31.8332 13.0823 31.9282 13.1353 32.0245 13.1879C32.1695 13.268 32.3091 13.3487 32.4422 13.4476C32.4422 13.4745 32.4422 13.5014 32.4422 13.5291C32.4868 13.5348 32.4868 13.5348 32.5323 13.5406C32.6648 13.5747 32.7302 13.6247 32.8344 13.7125C32.8875 13.7567 32.8875 13.7567 32.9417 13.8018C32.9786 13.8329 33.0155 13.8639 33.0534 13.8959C33.1281 13.9562 33.2028 14.0165 33.2776 14.0767C33.4622 14.2279 33.6402 14.3849 33.8159 14.5462C33.8801 14.6034 33.9463 14.6585 34.014 14.7116C34.106 14.7867 34.1794 14.8621 34.2556 14.9529C34.3365 15.0476 34.417 15.1372 34.5052 15.2254C34.6132 15.3334 34.7082 15.4492 34.8057 15.5667C34.8335 15.5944 34.8612 15.6222 34.8898 15.6507C34.9789 15.7399 35.057 15.832 35.1317 15.9334C35.1317 15.9603 35.1317 15.9872 35.1317 16.0149C35.1721 16.0284 35.2124 16.0418 35.254 16.0557C35.3005 16.1181 35.3005 16.1181 35.3457 16.1983C35.4211 16.3257 35.5019 16.4401 35.5953 16.5549C35.7387 16.735 35.8517 16.9268 35.964 17.1275C36.0208 17.2246 36.0831 17.3107 36.1505 17.4005C36.1779 17.4663 36.2053 17.5321 36.232 17.5982C36.2821 17.7057 36.3432 17.8037 36.4052 17.9048C36.5712 18.1842 36.6905 18.477 36.8084 18.7789C36.8324 18.8398 36.8568 18.9005 36.8817 18.961C37.1827 19.6962 37.3874 20.4466 37.5182 21.2285C37.526 21.275 37.526 21.275 37.534 21.3225C37.6324 21.916 37.6324 21.916 37.6176 22.1276C37.5002 22.245 37.4164 22.2196 37.2522 22.2199C37.2237 22.22 37.1951 22.2201 37.1656 22.2203C37.0726 22.2204 36.9796 22.2199 36.8866 22.2193C36.8394 22.2191 36.8394 22.2191 36.7914 22.2189C36.4233 22.2174 36.0561 22.2129 35.6895 22.176C35.6448 22.1717 35.6448 22.1717 35.5992 22.1673C35.4304 22.1469 35.2993 22.1213 35.1725 22.0053C35.1272 21.891 35.1083 21.7748 35.0884 21.6539C35.0752 21.5834 35.0619 21.513 35.0485 21.4426C35.042 21.4071 35.0355 21.3716 35.0289 21.335C34.9406 20.8609 34.8138 20.4136 34.6339 19.9663C34.6018 19.8858 34.571 19.805 34.5405 19.7239C34.4384 19.4557 34.3265 19.2056 34.1716 18.9627C34.1102 18.863 34.0592 18.7616 34.0085 18.6561C33.9354 18.506 33.8537 18.3746 33.7534 18.2414C33.6907 18.1543 33.6418 18.0603 33.5899 17.9665C33.466 17.7653 33.3085 17.5846 33.1579 17.403C33.0942 17.319 33.0942 17.319 33.0942 17.2375C33.0715 17.2299 33.0488 17.2223 33.0254 17.2146C32.9124 17.1443 32.8587 17.0558 32.7852 16.9468C32.7061 16.8426 32.6123 16.7658 32.5113 16.6834C32.4137 16.6027 32.3267 16.5131 32.2384 16.4225C31.9491 16.1263 31.627 15.8722 31.285 15.6395C31.2181 15.5936 31.1517 15.5471 31.0859 15.4997C30.8408 15.3236 30.5887 15.1723 30.3231 15.0293C30.2856 15.0086 30.2481 14.9879 30.2095 14.9666C29.9968 14.8512 29.7838 14.751 29.5579 14.6643C29.4833 14.6356 29.4099 14.6039 29.3368 14.5715C28.9779 14.415 28.6074 14.3115 28.2296 14.2117C28.1896 14.2012 28.1896 14.2012 28.1489 14.1904C27.9062 14.1267 27.6639 14.0642 27.418 14.0137C27.2668 13.9774 27.2668 13.9774 27.1853 13.8959C27.1649 13.7727 27.1503 13.6533 27.1395 13.5291C27.136 13.491 27.1325 13.4528 27.129 13.4135C27.0818 12.8154 27.0969 12.2133 27.1038 11.6139C27.1307 11.6139 27.1576 11.6139 27.1853 11.6139C27.1853 11.587 27.1853 11.5601 27.1853 11.5323Z" fill="#808080"/>
<path d="M25.2341 13.8029C25.2684 13.8031 25.3027 13.8032 25.3381 13.8034C25.3737 13.8033 25.4093 13.8033 25.446 13.8032C25.5218 13.8031 25.5976 13.8033 25.6734 13.8036C25.7874 13.804 25.9014 13.8036 26.0154 13.8031C26.9595 13.802 26.9595 13.802 27.226 13.8957C27.3323 14.0285 27.367 14.1506 27.3919 14.3168C27.4023 14.38 27.4023 14.38 27.4129 14.4446C27.4201 14.4895 27.4274 14.5345 27.4349 14.5809C27.5247 15.0946 27.6854 15.5585 27.8816 16.0401C27.9188 16.137 27.9188 16.137 27.9607 16.2883C28.0077 16.4475 28.0776 16.5811 28.1582 16.7254C28.1877 16.7793 28.2172 16.8333 28.2467 16.8873C28.2607 16.9127 28.2746 16.9381 28.289 16.9643C28.3328 17.0457 28.3733 17.1284 28.4129 17.2119C28.4871 17.3632 28.58 17.4995 28.6752 17.6383C28.7265 17.7154 28.7716 17.7926 28.8153 17.8741C28.895 18.0085 28.9822 18.1151 29.0856 18.2311C29.1413 18.2968 29.1413 18.2968 29.1999 18.3962C29.2818 18.5304 29.3843 18.6392 29.4907 18.7545C29.5488 18.8266 29.5488 18.8266 29.5488 18.9081C29.5757 18.9081 29.6026 18.9081 29.6303 18.9081C29.6849 18.9637 29.6849 18.9637 29.75 19.0431C30.1587 19.522 30.6202 19.9309 31.1462 20.2769C31.1704 20.2959 31.1947 20.3149 31.2196 20.3344C31.2196 20.3613 31.2196 20.3882 31.2196 20.4159C31.2472 20.4255 31.2749 20.4351 31.3033 20.445C31.4507 20.5093 31.5798 20.5954 31.7137 20.6833C32.0762 20.9155 32.4569 21.097 32.8497 21.2717C32.8923 21.2908 32.9349 21.31 32.9788 21.3298C33.0978 21.3813 33.2176 21.4289 33.3387 21.4754C33.3662 21.4862 33.3937 21.497 33.422 21.5082C33.8876 21.6893 34.348 21.8114 34.8408 21.8957C34.8822 21.9031 34.9236 21.9104 34.9663 21.9179C35.0032 21.924 35.04 21.9301 35.078 21.9364C35.1856 21.9683 35.2281 21.997 35.2947 22.0867C35.336 22.2148 35.3404 22.3323 35.3401 22.4665C35.3401 22.5097 35.3401 22.5529 35.3401 22.5974C35.3399 22.6438 35.3397 22.6903 35.3394 22.7381C35.3394 22.8096 35.3394 22.8096 35.3393 22.8826C35.339 23.035 35.3385 23.1874 35.338 23.3398C35.3378 23.4431 35.3376 23.5464 35.3375 23.6497C35.337 23.903 35.3363 24.1562 35.3355 24.4095C35.252 24.4033 35.1685 24.3971 35.085 24.3909C35.0385 24.3874 34.9921 24.384 34.9442 24.3804C34.2482 24.3218 33.6063 24.1491 32.9511 23.9138C32.8614 23.8837 32.7734 23.8599 32.6812 23.839C32.497 23.7913 32.3341 23.7202 32.162 23.6403C32.0972 23.6107 32.0323 23.5812 31.9675 23.5518C31.9367 23.5379 31.906 23.5239 31.8744 23.5095C31.7729 23.4646 31.6699 23.4246 31.566 23.3856C31.3906 23.3175 31.2368 23.2257 31.0775 23.1261C30.9751 23.0647 30.8713 23.012 30.7637 22.9603C30.617 22.8888 30.487 22.8108 30.3583 22.7105C30.2753 22.6503 30.2753 22.6503 30.151 22.584C29.9842 22.4898 29.8335 22.3784 29.6813 22.2624C29.6529 22.241 29.6246 22.2195 29.5954 22.1975C29.2802 21.9578 28.9726 21.7159 28.6931 21.4347C28.6324 21.3798 28.5713 21.3255 28.5097 21.2717C28.2922 21.0793 28.0967 20.8767 27.9067 20.6574C27.7977 20.5342 27.6821 20.4187 27.5597 20.3089C27.5113 20.2529 27.5113 20.2529 27.5113 20.1306C27.4709 20.1172 27.4306 20.1037 27.389 20.0899C27.3138 19.9971 27.2439 19.9046 27.1751 19.8072C27.1552 19.7795 27.1353 19.7518 27.1148 19.7233C27.0565 19.6419 26.9986 19.5603 26.9408 19.4786C26.912 19.4386 26.8833 19.3987 26.8537 19.3575C26.7387 19.1961 26.6297 19.0347 26.5344 18.8608C26.4821 18.7672 26.4261 18.6762 26.3703 18.5846C26.2824 18.4388 26.2023 18.2922 26.1285 18.1389C26.0759 18.0341 26.0179 17.9328 25.9602 17.8308C25.8716 17.6696 25.8062 17.5166 25.7542 17.3408C25.7132 17.2229 25.6603 17.1153 25.6052 17.0033C25.4576 16.6862 25.359 16.3613 25.2649 16.025C25.2561 15.9941 25.2473 15.9631 25.2383 15.9313C25.0531 15.2752 24.8665 14.5827 24.9032 13.8957C25.0105 13.7885 25.0881 13.8041 25.2341 13.8029Z" fill="#808080"/>
<path d="M1.51196 42.0138C5.83503 42.0138 5.83503 42.0138 6.60583 42.3806C6.63008 42.3919 6.65433 42.4032 6.67931 42.4149C7.1667 42.6434 7.1667 42.6434 7.33934 42.8288C7.37044 42.8465 7.40154 42.8641 7.43358 42.8823C7.58767 42.979 7.70261 43.106 7.82836 43.2363C7.8645 43.2708 7.90064 43.3052 7.93787 43.3407C8.04043 43.4488 8.11526 43.5588 8.19511 43.6846C8.22135 43.7199 8.22135 43.7199 8.24812 43.7559C8.39889 43.964 8.50624 44.1843 8.61026 44.4181C8.62383 44.4486 8.6374 44.479 8.65137 44.5104C9.16814 45.6992 9.18744 47.2777 8.76992 48.5031C8.7118 48.6481 8.646 48.7871 8.5719 48.9246C8.51694 49.0276 8.51694 49.0276 8.46541 49.1584C8.39715 49.3201 8.30826 49.4644 8.21294 49.6113C8.18856 49.6502 8.18856 49.6502 8.16368 49.6898C8.12216 49.7544 8.07739 49.8168 8.03211 49.8787C8.00521 49.8787 7.97832 49.8787 7.95061 49.8787C7.94105 49.9015 7.93149 49.9243 7.92164 49.9478C7.56145 50.5918 6.69364 51.0161 6.01494 51.2206C4.44134 51.5949 3.4871 51.3865 1.51196 51.3865C1.51196 48.2935 1.51196 45.2005 1.51196 42.0138ZM2.32698 42.7473C2.32698 45.3562 2.32698 47.9651 2.32698 50.653C4.98855 50.7939 4.98855 50.7939 7.1617 49.6519C7.41973 49.389 7.41973 49.389 7.5431 49.0637C7.56999 49.0637 7.59689 49.0637 7.6246 49.0637C7.634 49.0395 7.64341 49.0153 7.65309 48.9903C7.72815 48.7996 7.80717 48.6124 7.89458 48.427C7.97604 48.2478 8.03962 48.0762 8.07286 47.8819C8.08037 47.8402 8.08788 47.7985 8.09562 47.7555C8.29272 46.4642 8.17114 45.2051 7.4616 44.0921C7.40819 44.0368 7.35371 43.9826 7.29859 43.9291C7.26099 43.8843 7.22366 43.8393 7.18653 43.7941C6.58668 43.0943 5.82782 42.8883 4.93504 42.7473C4.07438 42.7473 3.21372 42.7473 2.32698 42.7473Z" fill="#808080"/>
<path d="M18.4237 42.0138C18.6927 42.0138 18.9616 42.0138 19.2387 42.0138C19.2387 43.3451 19.2387 44.6765 19.2387 46.0481C21.0542 46.0481 22.8696 46.0481 24.7401 46.0481C24.7401 44.7168 24.7401 43.3855 24.7401 42.0138C25.0091 42.0138 25.278 42.0138 25.5551 42.0138C25.5551 45.1068 25.5551 48.1998 25.5551 51.3865C25.2862 51.3865 25.0172 51.3865 24.7401 51.3865C24.7401 49.8669 24.7401 48.3473 24.7401 46.7817C22.9246 46.7817 21.1092 46.7817 19.2387 46.7817C19.2387 48.3013 19.2387 49.8209 19.2387 51.3865C18.9698 51.3865 18.7008 51.3865 18.4237 51.3865C18.4237 48.2935 18.4237 45.2005 18.4237 42.0138Z" fill="#808080"/>
<path d="M53.3474 54.3208C53.5894 54.3208 53.8315 54.3208 54.0809 54.3208C54.0809 57.5752 54.0809 60.8295 54.0809 64.1825C53.8523 64.1825 53.6236 64.1825 53.3881 64.1825C53.3612 63.9136 53.3343 63.6446 53.3066 63.3675C53.2797 63.4078 53.2528 63.4482 53.2251 63.4898C53.1982 63.4898 53.1713 63.4898 53.1436 63.4898C53.136 63.5183 53.1285 63.5469 53.1207 63.5764C52.9827 63.8523 52.7194 63.9765 52.4559 64.1112C52.4291 64.1251 52.4022 64.139 52.3745 64.1534C51.9904 64.3424 51.6216 64.3604 51.1977 64.3608C51.1494 64.3618 51.1011 64.3628 51.0513 64.3638C50.5741 64.3654 50.1549 64.2473 49.7434 64.0068C49.7157 63.9909 49.6879 63.975 49.6594 63.9586C49.4601 63.8403 49.3261 63.7208 49.1908 63.5305C49.1546 63.496 49.1185 63.4616 49.0812 63.4261C48.9782 63.3174 48.9306 63.2163 48.8648 63.0822C48.8426 63.047 48.8204 63.0118 48.7976 62.9754C48.1727 61.9561 48.2638 60.584 48.5235 59.4656C48.662 58.9832 48.9094 58.5024 49.2723 58.1514C49.305 58.1161 49.3378 58.0808 49.3716 58.0444C50.0082 57.4544 50.7431 57.2678 51.5933 57.2918C52.1293 57.3163 52.6313 57.4546 53.0621 57.7846C53.1428 57.8788 53.2235 57.9729 53.3066 58.0699C53.3201 56.8327 53.3335 55.5955 53.3474 54.3208ZM49.7087 58.7459C49.5461 58.9649 49.4386 59.1972 49.3538 59.4554C49.3395 59.4987 49.3253 59.5419 49.3106 59.5864C49.0176 60.5408 49.0248 61.5903 49.4353 62.5117C49.607 62.8279 49.8333 63.118 50.128 63.3268C50.1549 63.3268 50.1818 63.3268 50.2095 63.3268C50.2095 63.3537 50.2095 63.3805 50.2095 63.4083C50.8514 63.6843 51.4481 63.7235 52.1248 63.5305C52.5542 63.3387 52.9004 62.9752 53.1029 62.5525C53.1455 62.4395 53.1787 62.3253 53.2098 62.2087C53.2184 62.1765 53.2271 62.1443 53.236 62.1111C53.5102 61.0468 53.5246 59.7202 52.997 58.7307C52.7748 58.3797 52.443 58.1852 52.0484 58.0775C51.1576 57.8964 50.3249 58.0488 49.7087 58.7459Z" fill="#808080"/>
<path d="M0.697144 54.8096C5.53435 54.8096 5.53435 54.8096 6.30772 55.5574C6.5864 55.8755 6.80425 56.2257 6.89128 56.6434C6.89948 56.6725 6.90767 56.7017 6.91612 56.7317C7.09052 57.4163 6.99955 58.2431 6.67113 58.8622C6.60231 58.9721 6.52561 59.0701 6.44302 59.1699C6.4052 59.2216 6.4052 59.2216 6.36662 59.2743C6.2677 59.3878 6.16158 59.4553 6.03551 59.5367C6.01345 59.5618 5.99139 59.5869 5.96866 59.6128C5.83292 59.7355 5.6836 59.7952 5.51594 59.8652C5.48521 59.879 5.45448 59.8928 5.42282 59.907C4.88131 60.1361 4.3193 60.1661 3.74073 60.1599C3.68313 60.1597 3.62553 60.1596 3.56793 60.1595C3.3581 60.1589 3.14827 60.1572 2.93844 60.1556C2.46777 60.1531 1.9971 60.1505 1.51216 60.1479C1.51216 61.4793 1.51216 62.8106 1.51216 64.1823C1.24321 64.1823 0.97425 64.1823 0.697144 64.1823C0.697144 61.0893 0.697144 57.9963 0.697144 54.8096ZM1.51216 55.5431C1.51216 56.8072 1.51216 58.0713 1.51216 59.3737C2.28247 59.38 2.28247 59.38 3.06834 59.3864C3.22946 59.3883 3.39058 59.3901 3.55658 59.392C3.70319 59.3927 3.70319 59.3927 3.8498 59.3931C3.91423 59.3934 3.97866 59.3941 4.04309 59.3952C4.70202 59.4053 5.22615 59.2608 5.71985 58.7987C6.08919 58.3933 6.15568 57.8324 6.1323 57.3025C6.09225 56.7636 5.91439 56.341 5.51769 55.9695C4.7837 55.3901 3.72572 55.5234 2.84675 55.5329C2.18613 55.5379 2.18613 55.5379 1.51216 55.5431Z" fill="#808080"/>
<path d="M13.7293 57.9268C13.7859 57.9808 13.7859 57.9808 13.8598 58.0699C13.8598 58.0968 13.8598 58.1237 13.8598 58.1514C13.8867 58.1514 13.9136 58.1514 13.9413 58.1514C14.4773 58.7997 14.684 59.6609 14.6799 60.487C14.6801 60.5195 14.6802 60.552 14.6804 60.5854C14.6802 60.7215 14.6774 60.8333 14.6341 60.9633C13.0203 60.9633 11.4066 60.9633 9.74396 60.9633C9.83804 61.81 9.98166 62.6121 10.6405 63.2046C10.7465 63.279 10.8544 63.3431 10.9665 63.4083C10.9665 63.4352 10.9665 63.4621 10.9665 63.4898C10.9965 63.4952 11.0265 63.5006 11.0574 63.5062C11.117 63.517 11.117 63.517 11.1779 63.528C11.2171 63.5351 11.2564 63.5422 11.2968 63.5495C11.3703 63.5631 11.4436 63.5776 11.5166 63.5936C11.9629 63.6745 12.3748 63.5745 12.8003 63.4491C12.8461 63.4364 12.892 63.4236 12.9392 63.4105C12.9915 63.3893 12.9915 63.3893 13.0448 63.3676C13.0582 63.3272 13.0717 63.2869 13.0855 63.2453C13.1292 63.2167 13.1729 63.1882 13.218 63.1587C13.3713 63.0546 13.4421 62.9397 13.5241 62.7757C13.5899 62.6442 13.6646 62.5172 13.7375 62.3895C13.9796 62.3895 14.2217 62.3895 14.4711 62.3895C14.3921 62.9425 14.0728 63.4764 13.6314 63.827C13.3662 64.0168 13.0706 64.1663 12.7595 64.2641C12.7137 64.2786 12.6679 64.2931 12.6207 64.308C12.3694 64.3689 12.1125 64.3606 11.8554 64.3609C11.8049 64.3619 11.7545 64.3629 11.7025 64.3639C11.0327 64.366 10.4219 64.1291 9.93498 63.6656C9.86976 63.5948 9.80609 63.5226 9.74396 63.4491C9.71213 63.4116 9.68029 63.3741 9.64749 63.3354C8.99161 62.4808 8.87373 61.2448 8.98736 60.2063C9.07533 59.5709 9.27822 58.9131 9.66246 58.396C9.70154 58.3304 9.70154 58.3304 9.74141 58.2635C9.83907 58.1333 9.94938 58.0359 10.0739 57.9319C10.1504 57.8697 10.1504 57.8697 10.2078 57.806C10.2779 57.74 10.3403 57.7044 10.4272 57.6635C10.4567 57.6496 10.4863 57.6357 10.5168 57.6213C10.5475 57.6071 10.5783 57.593 10.6099 57.5784C10.6551 57.5569 10.6551 57.5569 10.7011 57.535C11.6833 57.0768 12.8951 57.2359 13.7293 57.9268ZM10.396 58.6405C10.3769 58.6614 10.3578 58.6824 10.3382 58.704C10.0017 59.1062 9.78471 59.751 9.78471 60.2705C11.1295 60.2705 12.4743 60.2705 13.8598 60.2705C13.8598 59.6777 13.75 59.0832 13.3264 58.6311C13.2482 58.5628 13.1679 58.4997 13.0855 58.4367C13.0465 58.3926 13.0465 58.3926 13.0066 58.3476C12.6208 58.0086 12.0681 58.0028 11.5844 58.0233C11.0967 58.0557 10.7167 58.2752 10.396 58.6405Z" fill="#808080"/>
<path d="M61.4976 57.8254C61.5212 57.8418 61.5449 57.8583 61.5692 57.8752C62.2061 58.3596 62.3869 59.1255 62.5571 59.8629C62.5571 60.226 62.5571 60.5891 62.5571 60.9632C60.9434 60.9632 59.3296 60.9632 57.667 60.9632C57.7216 61.7815 57.8803 62.5915 58.5016 63.1776C58.906 63.5143 59.3781 63.6466 59.9053 63.6251C60.2896 63.585 60.6616 63.5382 60.9678 63.286C61.0157 63.2479 61.0157 63.2479 61.0645 63.209C61.2693 63.0372 61.4047 62.8894 61.4831 62.6279C61.5303 62.5135 61.5586 62.4622 61.6606 62.3895C61.9017 62.3468 62.1515 62.3713 62.3941 62.3895C62.3462 62.8361 62.1151 63.1978 61.8236 63.5305C61.8003 63.5581 61.7771 63.5857 61.7531 63.6141C61.368 64.0369 60.7928 64.3161 60.2246 64.3544C60.0707 64.3611 59.9172 64.3643 59.7631 64.3659C59.7135 64.3667 59.6638 64.3674 59.6126 64.3682C58.9198 64.3634 58.289 64.0943 57.7893 63.612C57.7758 63.5717 57.7624 63.5313 57.7485 63.4898C57.7216 63.4898 57.6947 63.4898 57.667 63.4898C56.9033 62.5363 56.7823 61.2507 56.9104 60.0753C56.9361 59.9185 56.9707 59.771 57.015 59.6184C57.0244 59.586 57.0338 59.5536 57.0435 59.5201C57.1622 59.1227 57.2868 58.7676 57.553 58.4444C57.6295 58.356 57.6295 58.356 57.6882 58.2494C57.7475 58.153 57.8009 58.0967 57.8886 58.0266C57.9711 57.9593 58.0446 57.8954 58.1178 57.8177C58.2172 57.7248 58.3177 57.6787 58.4413 57.6216C58.4931 57.5945 58.5449 57.5673 58.5966 57.5401C59.5128 57.0855 60.6871 57.2183 61.4976 57.8254ZM58.3241 58.5996C58.2092 58.74 58.1142 58.8854 58.0338 59.0479C58.0175 59.0786 58.0012 59.1094 57.9844 59.141C57.8216 59.4682 57.667 59.8993 57.667 60.2704C59.0252 60.2704 60.3835 60.2704 61.7828 60.2704C61.7828 59.6486 61.6145 59.042 61.1921 58.5667C61.0939 58.4756 60.9944 58.3934 60.8863 58.3144C60.8499 58.2877 60.8499 58.2877 60.8128 58.2604C60.0593 57.7756 58.9089 57.9616 58.3241 58.5996Z" fill="#808080"/>
<path d="M49.0023 44.4819C49.0692 44.4825 49.0692 44.4825 49.1374 44.483C49.8016 44.4972 50.3859 44.7182 50.8743 45.1772C51.6848 46.0556 51.7173 46.9913 51.7173 48.1673C50.1036 48.1673 48.4899 48.1673 46.8272 48.1673C46.992 49.4123 46.992 49.4123 47.7237 50.3679C47.7237 50.3948 47.7237 50.4217 47.7237 50.4494C47.7506 50.4595 47.7775 50.4695 47.8052 50.4799C47.9023 50.5204 47.9924 50.5639 48.0854 50.6124C48.5901 50.8647 49.1508 50.8606 49.6834 50.6956C49.7921 50.6567 49.899 50.6154 50.0058 50.5716C50.0613 50.5513 50.0613 50.5513 50.1179 50.5306C50.2329 50.4798 50.2388 50.4381 50.291 50.3271C50.3219 50.3045 50.3527 50.2819 50.3845 50.2587C50.5192 50.1432 50.5878 50.0232 50.6705 49.8687C50.7201 49.7779 50.7697 49.6871 50.8208 49.5936C51.0629 49.5936 51.3049 49.5936 51.5543 49.5936C51.4727 50.1652 51.1462 50.6531 50.6986 51.0199C50.6717 51.0199 50.6448 51.0199 50.6171 51.0199C50.6171 51.0468 50.6171 51.0737 50.6171 51.1014C50.5298 51.1467 50.4423 51.1916 50.3547 51.2364C50.3306 51.249 50.3064 51.2615 50.2816 51.2745C50.204 51.3139 50.1257 51.3507 50.0465 51.3866C50.0217 51.3986 49.9968 51.4105 49.9711 51.4228C49.6763 51.5437 49.3609 51.5273 49.0477 51.5248C48.9492 51.5242 48.8507 51.5248 48.7521 51.5256C48.2818 51.5264 47.9033 51.4703 47.4971 51.2185C47.4709 51.2025 47.4447 51.1864 47.4178 51.1698C46.8244 50.7931 46.4688 50.2126 46.2567 49.5529C46.2427 49.5114 46.2287 49.4699 46.2142 49.4271C46.0885 49.0165 46.0685 48.6279 46.0725 48.2C46.0733 48.0886 46.0725 47.9773 46.0714 47.8659C46.0707 47.4131 46.1199 47.0098 46.2567 46.578C46.2678 46.543 46.2789 46.5079 46.2903 46.4718C46.3188 46.3885 46.3499 46.3077 46.3841 46.2266C46.396 46.1982 46.4079 46.1698 46.4201 46.1405C46.6826 45.5454 47.0974 45.0683 47.6779 44.7697C47.7033 44.7566 47.7287 44.7435 47.7549 44.7299C48.1537 44.5379 48.5632 44.4775 49.0023 44.4819ZM47.6091 45.6611C47.5797 45.6948 47.5503 45.7284 47.52 45.763C47.4714 45.8182 47.4714 45.8182 47.4218 45.8744C47.0398 46.3348 46.9164 46.894 46.868 47.4746C48.2262 47.4746 49.5844 47.4746 50.9838 47.4746C50.9335 46.958 50.9335 46.958 50.7902 46.4991C50.7743 46.4616 50.7743 46.4616 50.758 46.4234C50.545 45.9397 50.2152 45.5853 49.7613 45.3148C49.6512 45.2847 49.5496 45.2614 49.4378 45.2434C49.4102 45.2383 49.3826 45.2332 49.3542 45.228C48.7296 45.119 48.0874 45.236 47.6091 45.6611Z" fill="#808080"/>
<path d="M34.356 57.2931C34.9593 57.2767 35.5206 57.3026 36.0691 57.5809C36.1082 57.6006 36.1474 57.6202 36.1877 57.6405C36.6148 57.8813 36.8333 58.2492 36.9711 58.7078C37.0626 59.1027 37.0301 59.5274 37.0298 59.93C37.0303 60.0318 37.0309 60.1337 37.0315 60.2355C37.0331 60.5026 37.0337 60.7697 37.0341 61.0369C37.0348 61.4638 37.0372 61.8908 37.0393 62.3178C37.04 62.4659 37.0402 62.6139 37.0405 62.762C37.0417 63.2375 37.0515 63.7084 37.0879 64.1826C36.8593 64.1826 36.6307 64.1826 36.3951 64.1826C36.3412 63.994 36.2978 63.826 36.2678 63.635C36.2609 63.5922 36.2541 63.5494 36.2471 63.5052C36.2421 63.4733 36.2372 63.4413 36.2321 63.4083C36.2083 63.4431 36.2083 63.4431 36.184 63.4785C36.001 63.7311 35.8053 63.8989 35.5393 64.0603C35.5125 64.0767 35.4857 64.093 35.458 64.1098C35.0502 64.3345 34.5978 64.3683 34.1411 64.366C34.0891 64.3657 34.037 64.3655 33.9834 64.3652C33.3046 64.3524 32.8007 64.1531 32.3251 63.6605C32.1603 63.4692 32.066 63.2821 31.994 63.0415C31.9796 62.9994 31.9651 62.9572 31.9502 62.9137C31.9025 62.7145 31.8969 62.5275 31.8972 62.3233C31.8973 62.2837 31.8974 62.244 31.8974 62.2031C31.9054 61.7338 32.0131 61.2939 32.3353 60.9378C32.3706 60.9058 32.4059 60.8739 32.4423 60.841C32.4809 60.8057 32.5196 60.7704 32.5594 60.734C32.6674 60.6519 32.761 60.5966 32.8869 60.5481C32.9517 60.5229 33.0155 60.4953 33.0788 60.4666C33.775 60.156 34.4385 60.1737 35.1879 60.1813C35.2932 60.182 35.3986 60.1825 35.504 60.183C35.7603 60.1844 36.0166 60.1864 36.2729 60.189C36.2669 60.0455 36.2608 59.902 36.2546 59.7586C36.2529 59.7182 36.2512 59.6778 36.2495 59.6362C36.2398 59.0588 36.2398 59.0588 35.9876 58.5589C35.9668 58.5322 35.946 58.5054 35.9246 58.4778C35.6356 58.1407 35.2295 58.0813 34.8058 58.0292C34.3587 57.999 33.8081 58.0565 33.4356 58.3272C33.1824 58.5609 33.0561 58.9397 32.9313 59.2517C32.6892 59.2517 32.4472 59.2517 32.1978 59.2517C32.2264 58.698 32.4304 58.2668 32.809 57.8662C32.8287 57.8444 32.8484 57.8227 32.8687 57.8003C33.2639 57.4443 33.8401 57.3095 34.356 57.2931ZM33.2573 61.1263C33.2573 61.1532 33.2573 61.18 33.2573 61.2078C33.2354 61.217 33.2136 61.2262 33.1911 61.2358C32.9281 61.3811 32.8073 61.5178 32.7151 61.8044C32.6292 62.2196 32.6235 62.711 32.8498 63.0823C32.949 63.1927 33.0567 63.2796 33.1758 63.3676C33.2069 63.3978 33.238 63.4281 33.27 63.4592C33.7257 63.756 34.3708 63.6939 34.8848 63.6095C35.3697 63.4985 35.7043 63.2256 35.9734 62.8171C36.2547 62.3234 36.2814 61.7587 36.2757 61.2025C36.2755 61.1635 36.2753 61.1246 36.2751 61.0844C36.2746 60.9897 36.2738 60.895 36.2729 60.8002C36.036 60.7972 35.7991 60.795 35.5623 60.7935C35.482 60.7929 35.4017 60.7921 35.3215 60.791C34.6214 60.7819 33.8984 60.8057 33.2573 61.1263Z" fill="#808080"/>
<path d="M30.2442 44.4843C30.2887 44.4839 30.3333 44.4834 30.3792 44.4829C30.8883 44.4847 31.4023 44.6255 31.8309 44.9071C31.8645 44.9256 31.8981 44.9441 31.9328 44.9632C32.0533 45.0415 32.1402 45.1279 32.2384 45.2331C32.2626 45.259 32.2868 45.2849 32.3118 45.3116C32.5528 45.5765 32.5528 45.5765 32.6052 45.7629C32.6321 45.7629 32.659 45.7629 32.6867 45.7629C32.9419 46.2225 33.1459 46.7476 33.2164 47.2707C33.2209 47.3011 33.2254 47.3315 33.23 47.3629C33.3522 48.3485 33.2028 49.5068 32.6052 50.327C32.5821 50.3595 32.5589 50.3919 32.5351 50.4254C32.3972 50.6111 32.2571 50.7553 32.0754 50.8975C32.0464 50.9295 32.0174 50.9615 31.9875 50.9945C31.8463 51.1246 31.7042 51.194 31.5304 51.2719C31.5006 51.2859 31.4709 51.2998 31.4403 51.3142C31.064 51.4872 30.7219 51.5251 30.3115 51.5261C30.2199 51.5266 30.1284 51.5286 30.0368 51.5307C29.3271 51.5387 28.7171 51.2821 28.1989 50.7916C28.1662 50.7596 28.1662 50.7596 28.1328 50.7269C28.1118 50.7065 28.0909 50.6862 28.0693 50.6653C27.952 50.5445 27.8917 50.4556 27.8781 50.2863C27.8512 50.2863 27.8243 50.2863 27.7966 50.2863C27.1836 49.2864 27.08 48.0322 27.3483 46.9039C27.3766 46.8056 27.4072 46.7102 27.4432 46.6145C27.4711 46.5355 27.4874 46.4588 27.5037 46.3767C27.5557 46.1613 27.6757 45.9868 27.7966 45.8037C27.8204 45.7671 27.8443 45.7305 27.8688 45.6929C27.9924 45.5094 28.1036 45.3625 28.2856 45.2331C28.3167 45.2004 28.3478 45.1676 28.3798 45.1338C28.5141 45.0058 28.6544 44.9167 28.8153 44.8256C28.8465 44.8079 28.8776 44.7901 28.9097 44.7718C29.3377 44.5424 29.7629 44.4792 30.2442 44.4843ZM28.6272 45.8772C28.0738 46.5945 27.9167 47.6184 28.0178 48.4999C28.1231 49.2609 28.409 49.9763 29.0226 50.4615C29.29 50.6594 29.5419 50.7711 29.8749 50.816C29.9142 50.8226 29.9534 50.8291 29.9939 50.8359C30.3253 50.8793 30.6136 50.8172 30.9344 50.7345C30.9848 50.7253 31.0352 50.716 31.0872 50.7065C31.4356 50.5658 31.7317 50.2585 31.9532 49.9602C31.9532 49.9334 31.9532 49.9065 31.9532 49.8787C31.9801 49.8787 32.0069 49.8787 32.0347 49.8787C32.0445 49.8541 32.0544 49.8294 32.0646 49.8039C32.0782 49.7698 32.0919 49.7356 32.106 49.7005C32.1208 49.6632 32.1356 49.6259 32.1509 49.5874C32.1805 49.5139 32.2107 49.4406 32.2419 49.3678C32.2559 49.3347 32.2699 49.3016 32.2843 49.2675C32.3033 49.2234 32.3033 49.2234 32.3228 49.1783C32.4395 48.8254 32.4562 48.4807 32.455 48.1104C32.4549 48.0274 32.4559 47.9445 32.4569 47.8615C32.4571 47.3732 32.3457 46.9824 32.1569 46.5372C32.1402 46.492 32.1402 46.492 32.1232 46.446C31.9308 45.9538 31.5513 45.6061 31.0974 45.3554C30.9494 45.2974 30.8055 45.2601 30.6491 45.2331C30.5747 45.2193 30.5747 45.2193 30.4989 45.2051C29.7649 45.1359 29.1321 45.3361 28.6272 45.8772Z" fill="#808080"/>
<path d="M16.7529 57.4586C17.0219 57.4586 17.2908 57.4586 17.5679 57.4586C17.6049 57.5637 17.6419 57.6687 17.68 57.777C17.764 58.0153 17.8488 58.2532 17.9365 58.4901C17.9699 58.5839 18.0015 58.678 18.0326 58.7725C18.0957 58.9628 18.1649 59.1505 18.2352 59.3383C18.3416 59.6242 18.4407 59.9114 18.5356 60.2013C18.6011 60.3942 18.6733 60.584 18.746 60.7742C18.8015 60.9208 18.8522 61.0671 18.8949 61.2179C18.9361 61.3625 18.9881 61.4975 19.0477 61.6356C19.1352 61.8398 19.2081 62.046 19.2769 62.257C19.3588 62.5077 19.4443 62.7563 19.5367 63.0033C19.5471 63.0312 19.5575 63.0591 19.5682 63.0879C19.6107 63.2172 19.6107 63.2172 19.687 63.3268C19.9171 62.7059 20.1321 62.0811 20.339 61.4522C20.5366 60.8534 20.7402 60.257 20.9555 59.6643C21.1377 59.1627 21.3132 58.6597 21.4798 58.1527C21.494 58.1094 21.5083 58.066 21.523 58.0213C21.5354 57.9834 21.5478 57.9455 21.5606 57.9065C21.6121 57.7561 21.6687 57.6075 21.7245 57.4586C21.98 57.4586 22.2356 57.4586 22.4988 57.4586C22.4718 57.6209 22.4522 57.7354 22.396 57.882C22.3839 57.9141 22.3718 57.9461 22.3593 57.9792C22.3465 58.0125 22.3337 58.0458 22.3205 58.0801C22.2069 58.3788 22.2069 58.3788 22.1117 58.6837C22.0593 58.8688 21.9891 59.0451 21.9181 59.2236C21.794 59.5359 21.6844 59.8515 21.5813 60.1713C21.514 60.3787 21.4385 60.5805 21.3562 60.7824C21.2958 60.9356 21.2453 61.0917 21.1948 61.2485C21.1198 61.4778 21.0399 61.7022 20.9471 61.925C20.9028 62.0401 20.8681 62.1566 20.8331 62.2749C20.7737 62.474 20.7034 62.6661 20.6243 62.8581C20.5297 63.0876 20.4523 63.3184 20.382 63.5565C20.3251 63.7379 20.2581 63.9148 20.1901 64.0923C20.1368 64.2316 20.0851 64.371 20.0374 64.5123C19.4783 66.1662 19.4783 66.1662 18.8312 66.6683C18.8133 66.6891 18.7953 66.7099 18.7768 66.7314C18.6785 66.8172 18.5763 66.8407 18.4517 66.8772C18.3839 66.8975 18.3839 66.8975 18.3147 66.9182C18.0628 66.9839 17.8292 67.0007 17.5705 66.9994C17.539 66.9996 17.5075 66.9997 17.4751 66.9999C17.4285 66.9998 17.4285 66.9998 17.3809 66.9997C17.3532 66.9997 17.3255 66.9997 17.297 66.9996C17.1693 66.9926 17.0426 66.9717 16.9159 66.9536C16.9159 66.7115 16.9159 66.4695 16.9159 66.2201C16.9739 66.221 17.0319 66.222 17.0917 66.2229C17.1689 66.2237 17.2462 66.2244 17.3234 66.2252C17.3806 66.2262 17.3806 66.2262 17.4389 66.2272C17.8397 66.23 18.2143 66.1645 18.52 65.8886C18.7057 65.6948 18.8297 65.5172 18.9167 65.2635C18.9696 65.1155 19.0422 64.9792 19.1144 64.8398C19.2254 64.615 19.238 64.3948 19.1648 64.1554C19.1192 64.0399 19.0705 63.9265 19.0197 63.8132C18.829 63.3778 18.829 63.3778 18.786 63.1949C18.7487 63.0372 18.6954 62.8978 18.6326 62.7486C18.552 62.5538 18.4808 62.3602 18.4212 62.1577C18.3451 61.9003 18.2448 61.6576 18.1385 61.4115C18.0566 61.2167 17.9793 61.024 17.922 60.8206C17.8369 60.5255 17.7173 60.2427 17.6048 59.9573C17.4282 59.5056 17.2544 59.0509 17.1041 58.5899C17.029 58.3636 16.9393 58.1435 16.8484 57.9231C16.836 57.8923 16.8237 57.8615 16.811 57.8298C16.7999 57.8025 16.7887 57.7752 16.7772 57.747C16.7529 57.6624 16.7529 57.6624 16.7529 57.4586Z" fill="#808080"/>
<path d="M44.4226 57.5399C44.4571 57.558 44.4917 57.5761 44.5272 57.5948C44.7492 57.7188 44.9366 57.8519 45.0746 58.0696C45.0746 58.0965 45.0746 58.1234 45.0746 58.1511C45.1015 58.1511 45.1284 58.1511 45.1561 58.1511C45.4379 58.7581 45.5776 59.3136 45.5729 59.9863C45.5729 60.032 45.5729 60.0778 45.5729 60.125C45.5729 60.2743 45.5723 60.4235 45.5716 60.5728C45.5715 60.6771 45.5713 60.7814 45.5713 60.8857C45.571 61.1309 45.5703 61.3761 45.5695 61.6213C45.5686 61.9008 45.5682 62.1803 45.5678 62.4598C45.5669 63.0339 45.5655 63.6081 45.5637 64.1823C45.3216 64.1823 45.0795 64.1823 44.8301 64.1823C44.8299 64.1269 44.8297 64.0715 44.8294 64.0144C44.8271 63.4904 44.8241 62.9665 44.8205 62.4425C44.8187 62.1732 44.8171 61.9039 44.816 61.6345C44.815 61.3743 44.8133 61.114 44.8113 60.8538C44.8106 60.7548 44.8101 60.6559 44.8099 60.5569C44.8184 59.412 44.8184 59.412 44.2775 58.4338C44.0841 58.2516 43.8878 58.1676 43.628 58.1206C43.5993 58.1154 43.5707 58.1102 43.5411 58.1048C43.0483 58.0239 42.5151 58.0815 42.0922 58.36C41.674 58.6796 41.4551 59.0467 41.2848 59.5367C41.2742 59.5666 41.2636 59.5965 41.2527 59.6273C41.1198 60.0693 41.143 60.5255 41.1417 60.9827C41.141 61.0752 41.1403 61.1677 41.1395 61.2602C41.1376 61.5021 41.1363 61.7441 41.1353 61.9861C41.134 62.2336 41.1322 62.4811 41.1303 62.7286C41.1268 63.2132 41.1241 63.6977 41.1218 64.1823C40.8663 64.1823 40.6108 64.1823 40.3475 64.1823C40.3475 61.9634 40.3475 59.7445 40.3475 57.4584C40.5896 57.4584 40.8317 57.4584 41.0811 57.4584C41.119 57.5721 41.1294 57.6526 41.1347 57.7708C41.1364 57.8072 41.1381 57.8436 41.1399 57.8811C41.1415 57.9189 41.1431 57.9568 41.1447 57.9958C41.1465 58.0341 41.1482 58.0724 41.1501 58.1119C41.1544 58.2065 41.1585 58.3011 41.1626 58.3956C41.1878 58.3553 41.213 58.315 41.239 58.2734C41.2675 58.233 41.2961 58.1927 41.3256 58.1511C41.3525 58.1511 41.3793 58.1511 41.4071 58.1511C41.4209 58.1184 41.4209 58.1184 41.4351 58.0849C41.5681 57.8442 41.6916 57.7378 41.9368 57.6214C41.9739 57.6007 42.0109 57.5801 42.049 57.5588C42.7444 57.1807 43.7187 57.1626 44.4226 57.5399Z" fill="#808080"/>
<path d="M38.2694 44.9479C38.6586 45.2641 38.9565 45.7115 39.0437 46.2112C39.0437 46.2919 39.0437 46.3725 39.0437 46.4557C38.7882 46.4557 38.5327 46.4557 38.2694 46.4557C38.2526 46.3943 38.2358 46.333 38.2185 46.2697C38.0875 45.8412 37.8538 45.5697 37.4544 45.3554C36.9146 45.1727 36.2807 45.1576 35.7429 45.3554C35.5249 45.4891 35.3411 45.6613 35.2688 45.9124C35.22 46.2226 35.2116 46.5165 35.3613 46.7986C35.4365 46.8861 35.5197 46.9299 35.6206 46.9854C35.657 47.0071 35.6934 47.0288 35.7309 47.0512C36.0731 47.2384 36.4122 47.3341 36.7913 47.4224C37.0743 47.4891 37.3484 47.5684 37.6225 47.6655C37.6555 47.6771 37.6885 47.6887 37.7226 47.7007C38.2729 47.9001 38.716 48.2055 39.0437 48.697C39.2206 49.2993 39.2093 49.8607 39.0029 50.4493C38.9347 50.5742 38.8555 50.6719 38.7584 50.7753C38.7381 50.8011 38.7179 50.827 38.697 50.8536C38.5682 51.0167 38.4603 51.0933 38.2694 51.1828C38.2295 51.2034 38.1897 51.2241 38.1486 51.2453C38.1086 51.2659 38.0686 51.2864 38.0274 51.3076C37.9876 51.3282 37.9477 51.3489 37.9066 51.3701C37.6595 51.482 37.4285 51.5219 37.1589 51.5239C37.1273 51.5243 37.0957 51.5246 37.0631 51.525C36.9964 51.5256 36.9297 51.526 36.863 51.5261C36.763 51.5266 36.6631 51.5286 36.5631 51.5307C36.028 51.5362 35.5798 51.4563 35.1316 51.142C35.0965 51.1216 35.0615 51.1012 35.0254 51.0801C34.5802 50.8049 34.3479 50.3349 34.1852 49.8536C34.1536 49.7157 34.1536 49.7157 34.1536 49.4712C34.4091 49.4712 34.6646 49.4712 34.9278 49.4712C34.9413 49.5292 34.9547 49.5872 34.9686 49.647C35.0978 50.072 35.4049 50.4257 35.7836 50.653C35.931 50.7113 36.0761 50.7472 36.2319 50.7753C36.2999 50.7891 36.2999 50.7891 36.3694 50.8033C36.7407 50.8353 37.0932 50.8295 37.4544 50.7345C37.5008 50.724 37.5008 50.724 37.5481 50.7134C37.8148 50.642 38.0179 50.5045 38.1879 50.2863C38.3944 49.841 38.3946 49.4796 38.2408 49.0223C38.0771 48.6456 37.6463 48.5234 37.2914 48.371C37.2596 48.357 37.2278 48.343 37.1951 48.3286C37.0524 48.2701 36.9129 48.2379 36.7616 48.2131C36.0579 48.0945 35.1197 47.8244 34.6693 47.2404C34.4071 46.8608 34.3914 46.3937 34.4606 45.9487C34.5115 45.7046 34.5642 45.511 34.7241 45.3146C34.7388 45.2898 34.7536 45.265 34.7688 45.2394C35.0102 44.8562 35.5047 44.6334 35.9318 44.5251C36.748 44.3846 37.5861 44.4587 38.2694 44.9479Z" fill="#808080"/>
<path d="M42.6323 44.4843C42.6768 44.4839 42.7214 44.4834 42.7673 44.4829C43.2327 44.4846 43.6109 44.6015 44.0152 44.8256C44.0428 44.8392 44.0704 44.8528 44.0988 44.8669C44.463 45.0632 44.7526 45.4442 44.8844 45.8315C44.8934 45.8627 44.9024 45.8938 44.9118 45.9259C44.9208 45.9558 44.9298 45.9857 44.9391 46.0165C44.9818 46.1706 44.9933 46.2937 44.9933 46.4557C44.7512 46.4557 44.5091 46.4557 44.2597 46.4557C44.237 46.3952 44.2144 46.3346 44.191 46.2723C44.0349 45.8889 43.8505 45.6115 43.4855 45.3961C42.816 45.1295 42.1914 45.2163 41.5294 45.4369C41.5015 45.4908 41.4745 45.5453 41.4479 45.5999C41.4143 45.6377 41.3807 45.6755 41.3461 45.7145C41.1835 45.9079 41.1538 46.1033 41.1627 46.3512C41.1925 46.5912 41.2678 46.7423 41.4479 46.9039C41.8192 47.1681 42.214 47.3242 42.6603 47.4031C43.2449 47.5127 43.8866 47.7099 44.382 48.045C44.4177 48.0686 44.4534 48.0923 44.4902 48.1167C44.8497 48.3774 45.0636 48.7452 45.1353 49.1849C45.1716 49.6076 45.1543 50.0265 44.9525 50.4085C44.9358 50.4407 44.919 50.4729 44.9017 50.5061C44.627 51.0027 44.169 51.3025 43.6349 51.4749C43.3648 51.5362 43.0942 51.5344 42.8183 51.5323C42.7167 51.5317 42.6153 51.5331 42.5137 51.5346C41.9875 51.5372 41.594 51.4237 41.1219 51.1828C41.1219 51.1559 41.1219 51.129 41.1219 51.1013C41.0785 51.0983 41.0785 51.0983 41.0342 51.0952C40.8771 51.0482 40.796 50.9511 40.6915 50.8313C40.6724 50.8105 40.6533 50.7898 40.6336 50.7684C40.3989 50.5064 40.2821 50.2434 40.1948 49.9068C40.1814 49.8572 40.1814 49.8572 40.1676 49.8067C40.1031 49.5663 40.1031 49.5663 40.1031 49.4712C40.3587 49.4712 40.6142 49.4712 40.8774 49.4712C40.9115 49.5607 40.9115 49.5607 40.9462 49.6521C41.1278 50.1 41.3366 50.4205 41.7739 50.653C42.4238 50.8723 43.1303 50.9108 43.7669 50.6172C43.9188 50.5363 44.0187 50.4574 44.1095 50.3117C44.1382 50.2671 44.1382 50.2671 44.1676 50.2216C44.328 49.9147 44.336 49.6075 44.3005 49.2675C44.2494 49.1187 44.1802 48.9927 44.0967 48.86C44.0764 48.8154 44.0764 48.8154 44.0557 48.7699C43.9919 48.6548 43.8947 48.6531 43.7707 48.6155C43.7075 48.5841 43.6447 48.5517 43.5823 48.5187C43.2797 48.3654 42.9696 48.268 42.6384 48.196C42.0337 48.0639 41.3482 47.8952 40.8774 47.4744C40.8396 47.4417 40.8018 47.4089 40.7628 47.3751C40.4042 46.955 40.3521 46.551 40.3884 46.0074C40.4584 45.5799 40.6871 45.215 41.0183 44.9404C41.5096 44.5895 42.0375 44.478 42.6323 44.4843Z" fill="#808080"/>
<path d="M60.3973 44.9479C60.8913 45.4046 61.1075 45.9972 61.1716 46.6595C61.1772 46.8149 61.1767 46.9703 61.1762 47.1258C61.1762 47.1719 61.1762 47.2181 61.1762 47.2656C61.1762 47.4176 61.1759 47.5695 61.1756 47.7214C61.1755 47.827 61.1754 47.9325 61.1754 48.0381C61.1752 48.2872 61.1749 48.5363 61.1745 48.7854C61.1741 49.0691 61.1738 49.3529 61.1736 49.6366C61.1732 50.2199 61.1725 50.8033 61.1716 51.3866C60.9295 51.3866 60.6875 51.3866 60.4381 51.3866C60.4378 51.3313 60.4376 51.276 60.4373 51.219C60.435 50.6956 60.432 50.1723 60.4285 49.6489C60.4266 49.3799 60.425 49.1109 60.4239 48.8419C60.4229 48.5819 60.4212 48.3219 60.4192 48.0619C60.4185 47.9631 60.418 47.8644 60.4178 47.7656C60.4376 46.666 60.4376 46.666 59.9804 45.699C59.5981 45.3302 59.1849 45.2599 58.666 45.2652C58.288 45.2883 57.9721 45.3762 57.667 45.6C57.6434 45.6131 57.6197 45.6262 57.5954 45.6398C57.1945 45.8752 56.9743 46.4373 56.852 46.8632C56.7592 47.3928 56.7567 47.9256 56.7536 48.4616C56.7528 48.5465 56.752 48.6314 56.7512 48.7163C56.7491 48.9373 56.7475 49.1583 56.746 49.3793C56.7444 49.6058 56.7423 49.8323 56.7402 50.0588C56.7363 50.5014 56.7329 50.944 56.7297 51.3866C56.4877 51.3866 56.2456 51.3866 55.9962 51.3866C55.9962 49.1677 55.9962 46.9488 55.9962 44.6627C56.2248 44.6627 56.4534 44.6627 56.689 44.6627C56.7403 44.7652 56.7382 44.8425 56.7426 44.9572C56.7443 44.9992 56.746 45.0412 56.7478 45.0845C56.7494 45.1285 56.751 45.1726 56.7527 45.2179C56.7544 45.2623 56.7562 45.3066 56.758 45.3523C56.7623 45.462 56.7665 45.5717 56.7705 45.6815C56.7806 45.6597 56.7907 45.6379 56.8011 45.6155C56.8771 45.4569 56.9449 45.3231 57.0761 45.2026C57.0992 45.181 57.1223 45.1593 57.1462 45.1371C57.1701 45.115 57.1941 45.0929 57.2187 45.0702C57.2449 45.0431 57.2711 45.016 57.298 44.9881C58.1054 44.2083 59.5414 44.3521 60.3973 44.9479Z" fill="#808080"/>
<path d="M24.2919 57.4584C24.5474 57.4584 24.8029 57.4584 25.0661 57.4584C25.4383 58.3897 25.4383 58.3897 25.5566 58.8011C25.6202 59.0023 25.7029 59.1954 25.7847 59.3898C25.8331 59.5173 25.8667 59.6415 25.8979 59.774C25.9454 59.9493 26.0157 60.1168 26.0824 60.2855C26.179 60.5308 26.267 60.7748 26.3406 61.0281C26.3877 61.1839 26.4451 61.3355 26.5026 61.4877C26.719 62.0681 26.929 62.6505 27.1037 63.245C27.2771 62.822 27.4437 62.4002 27.5839 61.9649C27.6456 61.7828 27.7171 61.6059 27.7899 61.4281C27.868 61.2361 27.934 61.0421 27.9975 60.8449C28.0484 60.6968 28.1065 60.5526 28.1658 60.4078C28.2331 60.2432 28.2968 60.0802 28.344 59.9086C28.4065 59.6849 28.4991 59.4748 28.5892 59.2612C28.6523 59.11 28.7107 58.9615 28.7541 58.8032C28.8148 58.5815 28.9069 58.3737 28.9962 58.1623C29.0778 57.9671 29.1474 57.7727 29.202 57.5679C29.2227 57.4992 29.2227 57.4992 29.2635 57.4584C29.3212 57.4549 29.379 57.454 29.4368 57.4544C29.489 57.4546 29.489 57.4546 29.5423 57.4548C29.5789 57.4552 29.6155 57.4555 29.6532 57.4559C29.6899 57.456 29.7267 57.4562 29.7645 57.4564C29.8556 57.4569 29.9467 57.4576 30.0377 57.4584C29.9902 57.7595 29.9014 58.0224 29.7805 58.3014C29.6697 58.5638 29.5633 58.8245 29.4774 59.0961C29.4095 59.3091 29.33 59.5089 29.2313 59.7096C29.1762 59.8351 29.1345 59.9622 29.0921 60.0924C29.0409 60.2447 28.9815 60.3935 28.9222 60.5427C28.8334 60.7682 28.7477 60.9941 28.6675 61.2228C28.6051 61.4005 28.5378 61.5743 28.4637 61.7474C28.4039 61.8881 28.3517 62.0255 28.3109 62.1728C28.249 62.3919 28.1604 62.5977 28.072 62.8071C27.9839 63.0177 27.9058 63.2302 27.8321 63.4462C27.744 63.7037 27.6408 63.9422 27.5112 64.1823C27.2288 64.1823 26.9464 64.1823 26.6554 64.1823C26.4704 63.7175 26.2863 63.2545 26.133 62.7782C26.0796 62.6179 26.0205 62.4604 25.9601 62.3027C25.8848 62.1057 25.8163 61.9091 25.7564 61.7067C25.6927 61.4922 25.6114 61.2909 25.523 61.0856C25.4736 60.9627 25.4345 60.8404 25.3972 60.7134C25.3314 60.4899 25.2514 60.2751 25.1655 60.0588C25.0795 59.8424 25.0012 59.6288 24.9388 59.4043C24.887 59.2416 24.8233 59.0841 24.7605 58.9254C24.6722 58.7025 24.5903 58.482 24.5263 58.2507C24.4724 58.0761 24.4012 57.9079 24.3321 57.7389C24.2919 57.6214 24.2919 57.6214 24.2919 57.4584Z" fill="#808080"/>
<path d="M13.7375 44.4999C13.7375 44.7688 13.7375 45.0378 13.7375 45.3149C13.6063 45.325 13.6063 45.325 13.4726 45.3353C13.0179 45.3852 12.4732 45.6294 12.1552 45.9637C12.136 45.9883 12.1169 46.0129 12.0972 46.0382C12.038 46.114 12.038 46.114 11.9852 46.1707C11.9583 46.1707 11.9314 46.1707 11.9037 46.1707C11.8927 46.1988 11.8817 46.2269 11.8704 46.2558C11.8368 46.3385 11.8015 46.4205 11.765 46.5019C11.7444 46.5481 11.7237 46.5943 11.7025 46.6419C11.6819 46.6873 11.6614 46.7327 11.6402 46.7796C11.4358 47.2969 11.4362 47.7983 11.4345 48.3464C11.4339 48.4343 11.4331 48.5222 11.4323 48.6102C11.4304 48.8401 11.4292 49.07 11.4281 49.2999C11.4269 49.5351 11.425 49.7704 11.4232 50.0056C11.4197 50.466 11.417 50.9264 11.4146 51.3868C11.1726 51.3868 10.9305 51.3868 10.6811 51.3868C10.661 48.0585 10.661 48.0585 10.6404 44.6629C10.8824 44.6629 11.1245 44.6629 11.3739 44.6629C11.4008 45.0529 11.4277 45.4429 11.4554 45.8447C11.5449 45.7136 11.5449 45.7136 11.6362 45.5798C12.0328 45.0208 12.554 44.6944 13.215 44.5152C13.3877 44.4922 13.5632 44.4999 13.7375 44.4999Z" fill="#808080"/>
<path d="M53.2251 44.6628C53.4672 44.6628 53.7092 44.6628 53.9586 44.6628C53.9586 46.8817 53.9586 49.1006 53.9586 51.3867C53.7166 51.3867 53.4745 51.3867 53.2251 51.3867C53.2251 49.1679 53.2251 46.949 53.2251 44.6628Z" fill="#808080"/>
<path d="M53.2251 41.525C53.4672 41.525 53.7092 41.525 53.9586 41.525C53.9586 41.9688 53.9586 42.4126 53.9586 42.8698C53.7166 42.8698 53.4745 42.8698 53.2251 42.8698C53.2251 42.426 53.2251 41.9822 53.2251 41.525Z" fill="#808080"/>
</g>
</svg>
