<svg width="114" height="49" viewBox="0 0 114 49" fill="none" xmlns="http://www.w3.org/2000/svg">
<path d="M92.6291 38.2935C94.0731 39.227 94.865 40.4248 95.4026 42.0378C95.5426 43.9107 95.2221 45.3132 94.0619 46.8199C93.0756 47.8838 91.7921 48.4654 90.3616 48.5988C88.4748 48.6646 87.2356 48.0697 85.8736 46.8101C84.7581 45.6463 84.4892 44.2611 84.5134 42.704C84.5494 41.8752 84.6649 41.2084 85.1407 40.5123C85.2011 40.4181 85.2616 40.3239 85.3238 40.2269C86.9084 37.9366 90.0886 36.7418 92.6291 38.2935Z" fill="#B3B3B3"/>
<path d="M106.513 37.6847C106.717 37.6857 106.921 37.6865 107.125 37.6871C107.659 37.6892 108.192 37.6946 108.726 37.7008C109.272 37.7065 109.817 37.709 110.363 37.7118C111.432 37.7177 112.5 37.7274 113.569 37.7388C113.569 38.3338 113.569 38.9287 113.569 39.5416C113.31 39.5444 113.051 39.5471 112.784 39.5499C111.93 39.5593 111.075 39.57 110.22 39.5815C109.702 39.5884 109.184 39.5949 108.665 39.6001C108.166 39.6052 107.666 39.6117 107.166 39.619C106.975 39.6216 106.784 39.6237 106.593 39.6253C106.326 39.6276 106.059 39.6318 105.792 39.6361C105.64 39.6379 105.488 39.6398 105.331 39.6417C104.949 39.6446 104.949 39.6446 104.694 39.9576C104.654 40.3049 104.654 40.3049 104.832 40.651C105.195 40.8548 105.521 41.0007 105.907 41.145C106.146 41.2398 106.384 41.3346 106.623 41.4294C106.822 41.5071 106.822 41.5071 107.025 41.5863C107.789 41.8873 108.547 42.2024 109.306 42.5167C109.569 42.6252 109.832 42.7328 110.095 42.8403C112.598 43.8692 112.598 43.8692 113.075 44.4732C113.141 44.5535 113.206 44.6338 113.274 44.7165C113.684 45.3276 113.659 46.0478 113.569 46.7527C113.287 47.5134 112.816 47.9877 112.132 48.4057C111.357 48.7227 110.51 48.6389 109.686 48.6232C109.486 48.6219 109.285 48.6209 109.085 48.6202C108.56 48.6176 108.036 48.6108 107.512 48.6031C106.975 48.596 106.439 48.5928 105.902 48.5893C104.852 48.5819 103.802 48.5697 102.752 48.5555C102.752 47.9606 102.752 47.3656 102.752 46.7527C103.135 46.7475 103.135 46.7475 103.524 46.7422C104.365 46.7306 105.206 46.7183 106.047 46.7056C106.557 46.698 107.067 46.6906 107.576 46.6837C108.068 46.6771 108.56 46.6699 109.052 46.6622C109.24 46.6593 109.428 46.6567 109.616 46.6544C109.878 46.651 110.141 46.6468 110.404 46.6425C110.628 46.6393 110.628 46.6393 110.857 46.636C111.21 46.6373 111.21 46.6373 111.489 46.4754C111.489 46.2008 111.489 45.9262 111.489 45.6433C110.958 45.4154 110.427 45.1876 109.896 44.9599C109.449 44.768 109.002 44.5759 108.555 44.3837C107.159 43.7839 107.159 43.7839 105.756 43.2024C105.636 43.1534 105.516 43.1045 105.392 43.054C105.183 42.9693 104.974 42.8857 104.764 42.8037C103.983 42.4859 103.402 42.0878 102.908 41.3964C102.652 40.6268 102.585 39.8491 102.874 39.0774C103.711 37.6004 104.99 37.6619 106.513 37.6847Z" fill="#B3B3B3"/>
<path d="M77.1278 37.6712C77.3314 37.6725 77.535 37.6735 77.7387 37.6742C78.2713 37.6768 78.8037 37.6836 79.3363 37.6913C79.8811 37.6984 80.4258 37.7016 80.9706 37.7051C82.0371 37.7125 83.1035 37.7246 84.1699 37.7389C84.1699 38.3338 84.1699 38.9287 84.1699 39.5417C83.9109 39.5444 83.6519 39.5472 83.385 39.55C82.5304 39.5594 81.6758 39.57 80.8212 39.5816C80.3029 39.5885 79.7847 39.5949 79.2664 39.6002C78.7664 39.6053 78.2665 39.6117 77.7666 39.6191C77.5756 39.6216 77.3846 39.6237 77.1937 39.6254C76.9267 39.6277 76.6597 39.6319 76.3928 39.6361C76.2407 39.638 76.0886 39.6398 75.9318 39.6417C75.5497 39.6447 75.5497 39.6447 75.2947 39.9577C75.2542 40.3039 75.2542 40.3039 75.4334 40.6511C75.7992 40.8624 76.1269 41.0175 76.5168 41.17C76.628 41.216 76.7391 41.262 76.8537 41.3093C77.2113 41.4565 77.5703 41.5999 77.9295 41.7431C78.1629 41.8384 78.3962 41.9339 78.6294 42.0297C79.5441 42.4042 80.4602 42.775 81.3804 43.1358C81.5923 43.2202 81.8042 43.3045 82.0161 43.3888C82.1126 43.4258 82.2091 43.4628 82.3085 43.501C83.0815 43.8107 83.6156 44.2259 84.0312 44.95C84.2625 45.6438 84.3113 46.3709 84.054 47.0659C83.6481 47.7823 83.1332 48.2422 82.3671 48.5555C81.6739 48.6498 80.9849 48.6366 80.287 48.6232C80.0865 48.622 79.886 48.621 79.6855 48.6203C79.1611 48.6176 78.6368 48.6108 78.1125 48.6031C77.5761 48.596 77.0397 48.5929 76.5032 48.5894C75.4532 48.582 74.4033 48.5698 73.3533 48.5555C73.3533 47.9606 73.3533 47.3657 73.3533 46.7528C73.613 46.7493 73.8727 46.7458 74.1403 46.7422C74.9966 46.7306 75.8529 46.7184 76.7091 46.7057C77.2285 46.698 77.7479 46.6906 78.2672 46.6838C78.7681 46.6772 79.2689 46.6699 79.7697 46.6622C79.9612 46.6594 80.1527 46.6568 80.3442 46.6544C80.6115 46.6511 80.8788 46.6469 81.1461 46.6426C81.3747 46.6393 81.3747 46.6393 81.608 46.636C81.9432 46.6525 81.9432 46.6525 82.0898 46.4754C82.0954 46.1981 82.0957 45.9207 82.0898 45.6434C81.5605 45.4126 81.0311 45.1822 80.5015 44.9521C80.3125 44.8699 80.1236 44.7877 79.9346 44.7054C78.9407 44.2727 77.946 43.844 76.9415 43.4365C76.7916 43.3755 76.6417 43.3145 76.4873 43.2517C76.2077 43.1387 75.9277 43.0269 75.6471 42.9165C74.7318 42.5458 74.026 42.1968 73.5093 41.3185C73.2662 40.4946 73.172 39.6685 73.5613 38.8743C74.4692 37.6093 75.6956 37.6443 77.1278 37.6712Z" fill="#B3B3B3"/>
<path d="M42.6072 37.7231C42.6965 37.7231 42.7858 37.723 42.8778 37.723C43.1734 37.7231 43.4691 37.7242 43.7647 37.7253C43.9695 37.7255 44.1743 37.7257 44.3791 37.7259C44.9185 37.7264 45.4579 37.7278 45.9973 37.7293C46.5476 37.7307 47.0979 37.7314 47.6481 37.7321C48.7281 37.7335 49.8081 37.736 50.888 37.7388C50.888 38.3337 50.888 38.9287 50.888 39.5416C50.629 39.5443 50.37 39.5471 50.1032 39.5499C49.2486 39.5593 48.394 39.57 47.5394 39.5815C47.0211 39.5884 46.5028 39.5948 45.9845 39.6001C45.4846 39.6052 44.9847 39.6116 44.4847 39.619C44.2938 39.6216 44.1028 39.6237 43.9118 39.6253C43.6448 39.6276 43.3779 39.6318 43.1109 39.6361C42.9588 39.6379 42.8067 39.6398 42.65 39.6417C42.2679 39.6446 42.2679 39.6446 42.0129 39.9576C41.9779 40.3049 41.9779 40.3049 42.1515 40.651C42.4951 40.8513 42.797 40.9938 43.1645 41.1347C43.2681 41.1769 43.3717 41.2191 43.4784 41.2626C43.7003 41.3526 43.9227 41.4413 44.1455 41.5289C44.4921 41.6652 44.8371 41.8048 45.1819 41.9454C46.1273 42.3298 47.0758 42.7055 48.0273 43.0746C49.261 43.5598 50.2666 43.9843 50.888 45.2273C50.9612 46.088 50.9938 46.861 50.472 47.5847C49.9293 48.1287 49.4931 48.5381 48.693 48.5721C48.5338 48.5718 48.3746 48.5715 48.2106 48.5712C48.0302 48.5712 47.8497 48.5712 47.6638 48.5712C47.4668 48.5705 47.2698 48.5697 47.0729 48.569C46.8714 48.5687 46.6699 48.5685 46.4684 48.5684C45.9383 48.5679 45.4083 48.5665 44.8782 48.565C44.3372 48.5636 43.7962 48.5629 43.2552 48.5622C42.194 48.5607 41.1327 48.5583 40.0714 48.5555C40.0714 47.9605 40.0714 47.3656 40.0714 46.7527C40.4525 46.7486 40.4525 46.7486 40.8413 46.7444C41.6805 46.735 42.5196 46.7243 43.3587 46.7128C43.8675 46.7059 44.3762 46.6995 44.885 46.6942C45.376 46.6891 45.8669 46.6826 46.3579 46.6753C46.6365 46.6715 46.9151 46.669 47.1937 46.6666C47.4477 46.6624 47.4477 46.6624 47.7068 46.6582C47.8562 46.6564 48.0055 46.6545 48.1594 46.6526C48.5617 46.6399 48.5617 46.6399 48.9466 46.3367C48.9225 45.9989 48.9225 45.9989 48.8079 45.6433C48.5639 45.4504 48.5639 45.4504 48.2261 45.3318C48.0879 45.2746 47.9497 45.2174 47.8073 45.1585C47.7259 45.1263 47.6446 45.0941 47.5608 45.0609C47.2422 44.9339 46.9258 44.8023 46.6093 44.6703C46.0941 44.4557 45.5785 44.2418 45.0626 44.0288C44.929 43.9736 44.7955 43.9184 44.6578 43.8616C44.3839 43.7488 44.1099 43.6362 43.8357 43.524C43.436 43.3602 43.037 43.195 42.638 43.0296C42.5159 42.98 42.3938 42.9305 42.2681 42.8794C41.3738 42.5066 40.6444 42.1164 40.1727 41.223C39.9058 40.4466 39.9437 39.6681 40.2968 38.9349C41.0107 38.1458 41.5202 37.721 42.6072 37.7231Z" fill="#B3B3B3"/>
<path d="M60.1792 38.4323C61.0312 39.0626 61.8333 39.7986 62.2593 40.7898C62.2593 40.9271 62.2593 41.0644 62.2593 41.2058C61.9139 41.4505 61.5746 41.6683 61.2106 41.8819C59.7548 42.6667 59.7548 42.6667 58.6885 43.8666C58.4623 44.2832 58.3752 44.3961 57.9604 44.6727C57.2952 44.7696 56.7436 44.7718 56.1577 44.43C55.8277 44.0588 55.6239 43.7657 55.5721 43.2654C55.6158 42.6576 55.7082 42.2589 56.149 41.8212C56.6836 41.4186 57.088 41.4626 57.7324 41.5081C58.4073 41.4622 58.9716 41.0735 59.4858 40.6511C59.4858 40.5596 59.4858 40.4681 59.4858 40.3738C59.3129 40.2835 59.1394 40.1941 58.9658 40.1051C58.8693 40.0552 58.7728 40.0053 58.6733 39.954C57.7766 39.5465 56.9113 39.5747 56.0016 39.9144C55.1269 40.2994 54.4401 40.7766 54.0358 41.6722C53.7921 42.5914 53.7537 43.711 54.0613 44.6174C54.603 45.5466 55.4018 46.1954 56.435 46.4755C57.5989 46.6189 58.4871 46.5448 59.4739 45.8931C59.7844 45.6477 59.7844 45.6477 60.0113 45.2707C60.3179 44.95 60.3179 44.95 60.8271 44.8823C61.0157 44.8869 61.2043 44.8951 61.3926 44.9067C61.5377 44.9114 61.5377 44.9114 61.6857 44.9162C61.9233 44.9243 62.1607 44.9367 62.398 44.95C61.8021 46.5392 60.7965 47.5263 59.2778 48.2609C58.0566 48.7385 56.6425 48.7869 55.4036 48.3302C55.1894 48.2271 54.9783 48.1172 54.7709 48.0009C54.6089 47.9127 54.6089 47.9127 54.4437 47.8227C53.1124 47.0207 52.2506 45.7549 51.8587 44.2567C51.6747 42.6296 51.8781 41.2062 52.8555 39.8537C54.6732 37.6917 57.675 36.8649 60.1792 38.4323Z" fill="#B3B3B3"/>
<path d="M36.2329 38.2005C37.6339 39.0746 38.6726 40.2872 39.1007 41.8992C39.1381 42.4119 39.133 42.9227 39.1278 43.4366C39.1274 43.5831 39.127 43.7297 39.1266 43.8807C39.125 44.347 39.1216 44.8132 39.118 45.2794C39.1166 45.5963 39.1154 45.9132 39.1142 46.2301C39.1112 47.0053 39.1064 47.7804 39.1007 48.5556C38.5058 48.5556 37.9109 48.5556 37.2979 48.5556C37.2959 48.3815 37.2939 48.2074 37.2918 48.028C37.2837 47.3775 37.273 46.727 37.2615 46.0765C37.2569 45.7958 37.253 45.5151 37.2499 45.2344C37.2452 44.8292 37.2379 44.4241 37.2302 44.0189C37.2293 43.8949 37.2284 43.7709 37.2275 43.6431C37.2007 42.4774 36.9688 41.4493 36.1501 40.5823C35.3515 39.8852 34.4613 39.669 33.415 39.6804C32.3195 39.7658 31.5536 40.2251 30.8344 41.0439C30.1782 42.0079 30.2217 43.1433 30.3642 44.2567C30.5206 44.7148 30.7247 45.018 31.0576 45.3661C31.1264 45.4438 31.1952 45.5216 31.2661 45.6017C32.4085 46.7386 34.1237 46.6937 35.6338 46.7528C35.6338 47.3477 35.6338 47.9427 35.6338 48.5556C35.1541 48.5707 34.6749 48.5816 34.1951 48.5903C34.0612 48.5949 33.9273 48.5996 33.7893 48.6044C32.3199 48.6241 31.076 48.1077 29.9482 47.1689C28.8494 46.0568 28.2225 44.7073 28.2061 43.1386C28.2392 41.3764 28.9261 40.0951 30.1735 38.8917C31.8601 37.5095 34.2671 37.2312 36.2329 38.2005Z" fill="#B3B3B3"/>
<path d="M12.0593 38.2936C13.1062 39.0255 13.8151 39.9655 14.1394 41.2057C14.1775 41.7689 14.1716 42.3305 14.1665 42.8948C14.1661 43.0567 14.1657 43.2187 14.1653 43.3855C14.1637 43.9012 14.1602 44.4169 14.1567 44.9326C14.1553 45.2829 14.1541 45.6332 14.1529 45.9835C14.1499 46.8409 14.1451 47.6982 14.1394 48.5555C13.5445 48.5555 12.9495 48.5555 12.3366 48.5555C12.3353 48.3555 12.334 48.1554 12.3327 47.9493C12.3271 47.2039 12.318 46.4586 12.3078 45.7133C12.3039 45.3913 12.301 45.0693 12.299 44.7473C12.296 44.2832 12.2896 43.8192 12.2824 43.3552C12.2823 43.2123 12.2821 43.0694 12.2819 42.9221C12.2661 42.1351 12.1761 41.5621 11.7751 40.8783C11.6432 40.651 11.6432 40.651 11.5046 40.235C11.1862 40.0776 11.1862 40.0776 10.8112 39.9577C10.7025 39.9062 10.5938 39.8547 10.4818 39.8017C9.82104 39.5814 9.30134 39.6298 8.64439 39.845C7.91027 40.2392 7.47155 40.6843 7.15324 41.46C6.97693 42.0739 6.99992 42.7073 6.996 43.3417C6.99351 43.4911 6.99102 43.6406 6.98846 43.7945C6.98098 44.2692 6.97626 44.7439 6.97163 45.2186C6.96702 45.5416 6.96224 45.8645 6.95727 46.1875C6.94552 46.9768 6.93624 47.7661 6.92829 48.5555C6.33338 48.5555 5.73846 48.5555 5.12552 48.5555C5.10482 47.5195 5.08979 46.4836 5.07981 45.4475C5.07565 45.0957 5.06999 44.7438 5.06275 44.392C5.05256 43.8839 5.04792 43.3759 5.04426 42.8677C5.03997 42.7125 5.03568 42.5572 5.03125 42.3973C5.03071 41.1074 5.39499 40.0327 6.26416 39.0598C7.81465 37.5656 10.1555 37.1349 12.0593 38.2936Z" fill="#B3B3B3"/>
<path d="M70.3024 38.2936C71.3494 39.0255 72.0583 39.9655 72.3825 41.2057C72.4206 41.7689 72.4148 42.3305 72.4096 42.8948C72.4092 43.0567 72.4088 43.2187 72.4084 43.3855C72.4069 43.9012 72.4034 44.4169 72.3999 44.9326C72.3985 45.2829 72.3972 45.6332 72.3961 45.9835C72.393 46.8409 72.3882 47.6982 72.3825 48.5555C71.7876 48.5555 71.1927 48.5555 70.5798 48.5555C70.5792 48.352 70.5786 48.1485 70.578 47.9388C70.575 47.1797 70.5675 46.4207 70.5586 45.6616C70.5554 45.3339 70.5534 45.0061 70.5526 44.6783C70.5514 44.2056 70.5457 43.7331 70.5391 43.2604C70.5397 43.1152 70.5402 42.9699 70.5408 42.8203C70.5218 41.8545 70.332 41.1547 69.7477 40.3737C69.1843 39.9162 68.564 39.7078 67.8496 39.611C66.9391 39.7484 66.3103 40.0758 65.7262 40.7897C65.2654 41.6373 65.245 42.3884 65.2392 43.3417C65.2367 43.4911 65.2342 43.6406 65.2316 43.7945C65.2241 44.2692 65.2194 44.7439 65.2148 45.2186C65.2102 45.5416 65.2054 45.8645 65.2004 46.1875C65.1887 46.9768 65.1794 47.7661 65.1715 48.5555C64.5765 48.5555 63.9816 48.5555 63.3687 48.5555C63.348 47.5195 63.333 46.4836 63.323 45.4475C63.3188 45.0957 63.3132 44.7438 63.3059 44.392C63.2957 43.8839 63.2911 43.3759 63.2874 42.8677C63.2831 42.7125 63.2788 42.5572 63.2744 42.3973C63.2739 41.1074 63.6382 40.0327 64.5073 39.0598C66.0578 37.5656 68.3986 37.1349 70.3024 38.2936Z" fill="#B3B3B3"/>
<path d="M15.6647 33.9948C16.3054 33.9948 16.9461 33.9948 17.6062 33.9948C17.6062 35.1846 17.6062 36.3744 17.6062 37.6003C18.796 37.6003 19.9858 37.6003 21.2117 37.6003C21.2117 38.241 21.2117 38.8816 21.2117 39.5417C20.0219 39.5417 18.832 39.5417 17.6062 39.5417C17.6164 40.3784 17.6279 41.2148 17.6426 42.0513C17.6472 42.3358 17.6511 42.6203 17.6542 42.9048C17.6589 43.3141 17.6661 43.7233 17.6739 44.1326C17.6748 44.2595 17.6756 44.3863 17.6766 44.517C17.6919 45.1858 17.7176 45.6609 18.1609 46.1981C18.5876 46.4826 18.7067 46.5133 19.1939 46.5329C19.3114 46.5383 19.429 46.5436 19.55 46.5491C19.6722 46.5534 19.7944 46.5577 19.9203 46.5621C20.0441 46.5675 20.1679 46.5729 20.2954 46.5784C20.6008 46.5915 20.9062 46.603 21.2117 46.6141C21.2117 47.2548 21.2117 47.8955 21.2117 48.5556C17.9803 48.6968 17.9803 48.6968 16.7687 47.6082C15.8812 46.6823 15.5996 45.6999 15.6175 44.4482C15.6174 44.2775 15.6174 44.2775 15.6173 44.1034C15.6176 43.7312 15.6208 43.3591 15.6241 42.9869C15.6249 42.7274 15.6255 42.4678 15.6259 42.2082C15.6275 41.5279 15.6315 40.8476 15.6362 40.1674C15.6404 39.472 15.6423 38.7767 15.6444 38.0813C15.6489 36.7191 15.6559 35.3569 15.6647 33.9948Z" fill="#B3B3B3"/>
<path d="M22.7371 37.7389C23.332 37.7389 23.9269 37.7389 24.5398 37.7389C24.5856 37.9677 24.6314 38.1966 24.6785 38.4323C24.7545 38.3823 24.8305 38.3322 24.9087 38.2806C26.0031 37.64 26.9098 37.6648 28.1454 37.7389C28.1454 38.3338 28.1454 38.9288 28.1454 39.5417C27.8064 39.5546 27.8064 39.5546 27.4607 39.5677C26.6288 39.6491 26.0178 39.8351 25.3719 40.3737C24.6976 41.3245 24.5761 42.2441 24.5805 43.3823C24.5784 43.5312 24.5763 43.6801 24.5741 43.8334C24.5682 44.3039 24.5669 44.7742 24.5658 45.2447C24.5626 45.5657 24.5591 45.8868 24.5553 46.2078C24.5466 46.9904 24.5421 47.7729 24.5398 48.5556C23.9449 48.5556 23.35 48.5556 22.7371 48.5556C22.7371 44.9861 22.7371 41.4166 22.7371 37.7389Z" fill="#B3B3B3"/>
<path d="M96.3733 37.7389C96.9682 37.7389 97.5631 37.7389 98.1761 37.7389C98.2218 37.9677 98.2676 38.1966 98.3147 38.4323C98.3907 38.3823 98.4667 38.3322 98.545 38.2806C99.6393 37.64 100.546 37.6648 101.782 37.7389C101.782 38.3338 101.782 38.9288 101.782 39.5417C101.651 39.5553 101.521 39.5689 101.386 39.5829C99.9412 39.7308 99.9412 39.7308 98.8269 40.5904C98.2411 41.4187 98.2131 42.1447 98.2167 43.1386C98.2146 43.294 98.2125 43.4494 98.2103 43.6095C98.2044 44.1026 98.2032 44.5956 98.2021 45.0887C98.1989 45.4244 98.1953 45.76 98.1915 46.0957C98.1828 46.9157 98.1783 47.7356 98.1761 48.5556C97.5811 48.5556 96.9862 48.5556 96.3733 48.5556C96.3733 44.9861 96.3733 41.4166 96.3733 37.7389Z" fill="#B3B3B3"/>
<path d="M1.24268 37.6002C1.88335 37.6002 2.52403 37.6002 3.18412 37.6002C3.18412 41.2155 3.18412 44.8307 3.18412 48.5555C2.54344 48.5555 1.90277 48.5555 1.24268 48.5555C1.24268 44.9403 1.24268 41.325 1.24268 37.6002Z" fill="#B3B3B3"/>
<path d="M90.549 41.3444C91.1859 41.5936 91.4847 41.9908 91.7971 42.5924C91.8873 43.3142 91.7847 43.7898 91.3811 44.3952C90.8231 44.9 90.3495 45.0535 89.6135 45.0236C89.0608 44.8933 88.696 44.5381 88.3302 44.1179C88.0572 43.5718 88.1279 42.9103 88.1915 42.3151C88.7781 41.324 89.48 41.2364 90.549 41.3444Z" fill="#B3B3B3"/>
<path d="M34.3859 41.3444C34.8255 41.5221 35.0208 41.6938 35.3306 42.0464C35.5744 42.6493 35.606 43.2 35.4953 43.8405C35.2679 44.2818 34.9456 44.5636 34.5506 44.8632C33.8405 45.0661 33.3246 45.045 32.6785 44.7159C32.1073 44.2244 31.8692 43.8464 31.8118 43.0951C31.8301 42.4487 32.0749 42.1219 32.5127 41.6651C33.0501 41.1973 33.7105 41.2858 34.3859 41.3444Z" fill="#B3B3B3"/>
<path d="M51.3692 0.418885C51.5199 0.417692 51.6705 0.4165 51.8257 0.415271C52.0716 0.414385 52.0716 0.414385 52.3224 0.413481C52.4961 0.412347 52.6698 0.411213 52.8488 0.410044C53.4236 0.406604 53.9984 0.404287 54.5733 0.402308C54.7718 0.401564 54.9703 0.400819 55.1688 0.400071C55.995 0.397074 56.8212 0.394476 57.6474 0.392912C58.8283 0.390663 60.0091 0.386065 61.1899 0.378157C62.022 0.372777 62.8541 0.37008 63.6862 0.369349C64.1823 0.368844 64.6783 0.367197 65.1744 0.362678C65.7287 0.3577 66.2829 0.358284 66.8372 0.359311C66.9997 0.357036 67.1622 0.354761 67.3296 0.352417C68.4753 0.361078 69.424 0.585208 70.2898 1.37492C71.1859 2.33255 71.3617 3.24164 71.3302 4.5295C71.2051 5.60076 70.7154 6.38193 69.892 7.0614C68.9554 7.63735 68.1966 7.71424 67.1135 7.71614C66.963 7.71799 66.8125 7.71983 66.6574 7.72173C66.1618 7.72708 65.6662 7.72925 65.1705 7.73094C64.8254 7.73298 64.4802 7.73504 64.135 7.73713C63.4125 7.74087 62.69 7.74275 61.9675 7.74364C61.2255 7.74461 60.4837 7.74951 59.7417 7.75785C58.845 7.76779 57.9484 7.77232 57.0517 7.77277C56.7101 7.77377 56.3685 7.77661 56.0269 7.78132C55.5498 7.7874 55.0731 7.7865 54.596 7.78386C54.4548 7.78719 54.3136 7.79053 54.1681 7.79396C53.7832 7.78768 53.4725 7.77246 53.1069 7.65131C52.856 7.38908 52.7074 7.14495 52.5518 6.81802C52.1695 6.05452 51.381 5.7126 50.6108 5.43251C49.5165 5.15895 48.3521 5.23501 47.3606 5.78787C46.3385 6.48476 45.724 7.40902 45.4798 8.62203C45.3258 9.8102 45.6222 10.8948 46.3465 11.8549C47.338 12.8238 48.2511 13.0998 49.6129 13.1039C50.8269 13.0826 51.6887 12.6549 52.5522 11.8115C52.6301 11.6689 52.7079 11.5263 52.7881 11.3794C53.1069 10.9795 53.1069 10.9795 53.5755 10.8748C53.7645 10.8703 53.9536 10.8703 54.1425 10.874C54.2461 10.8728 54.3497 10.8716 54.4565 10.8703C54.7992 10.8673 55.1417 10.8704 55.4844 10.8739C55.7243 10.8737 55.9641 10.8732 56.204 10.8725C56.7077 10.8719 57.2114 10.8742 57.7151 10.8786C58.3551 10.8841 58.9949 10.8829 59.6349 10.8794C60.1312 10.8775 60.6275 10.8789 61.1237 10.8813C61.3593 10.8821 61.5948 10.882 61.8304 10.8808C64.5385 10.8715 66.842 11.6215 68.8449 13.5244C70.7046 15.4854 71.3477 17.7551 71.3036 20.4034C71.2194 22.639 70.0441 24.833 68.4413 26.354C66.428 28.0196 64.2194 28.6336 61.6549 28.6315C61.4892 28.6324 61.3235 28.6333 61.1528 28.6343C60.7024 28.6365 60.252 28.6374 59.8016 28.6376C59.5193 28.6378 59.2371 28.6384 58.9548 28.6391C57.9678 28.6417 56.9807 28.6428 55.9936 28.6426C55.0772 28.6424 54.1608 28.6453 53.2443 28.6497C52.454 28.6534 51.6638 28.6548 50.8735 28.6547C50.403 28.6546 49.9325 28.6554 49.462 28.6583C48.937 28.661 48.4121 28.6602 47.8871 28.6586C47.7335 28.6601 47.5799 28.6617 47.4216 28.6633C46.2743 28.654 45.372 28.4009 44.3964 27.7938C43.5011 26.8729 43.2069 25.9694 43.1985 24.6956C43.2221 23.7811 43.4789 23.16 44.0931 22.4895C44.8664 21.8377 45.5338 21.5064 46.5466 21.4946C46.7419 21.4919 46.7419 21.4919 46.9413 21.4892C47.0832 21.488 47.2251 21.4867 47.3714 21.4854C47.5216 21.4836 47.6718 21.4818 47.8266 21.48C49.3936 21.4624 50.9607 21.4545 52.5278 21.4474C53.2717 21.4439 54.0155 21.437 54.7593 21.4275C55.6573 21.4161 56.5552 21.4102 57.4533 21.4081C57.7955 21.4064 58.1378 21.4028 58.48 21.3972C58.9588 21.3898 59.4371 21.3894 59.916 21.3906C60.128 21.385 60.128 21.385 60.3444 21.3792C61.2902 21.3917 61.2902 21.3917 61.6936 21.7654C61.917 22.0655 61.917 22.0655 62.0979 22.3651C62.3086 22.7081 62.5435 22.8581 62.9008 23.0355C63.0027 23.0883 63.1046 23.141 63.2096 23.1953C64.1878 23.6097 65.3164 23.6357 66.3238 23.3134C67.2468 22.8882 67.8748 22.4164 68.3611 21.5188C68.4078 21.4333 68.4544 21.3479 68.5025 21.2598C68.9378 20.3018 68.8598 19.2409 68.6905 18.2253C68.2196 17.1123 67.4629 16.3507 66.3872 15.8185C65.3507 15.4832 63.9955 15.5221 63.0048 15.9805C62.2911 16.4039 61.7457 16.9543 61.4072 17.7159C61.1501 18.0519 61.1501 18.0519 60.7226 18.1381C60.5466 18.1378 60.3707 18.1375 60.1894 18.1372C60.0922 18.138 59.9949 18.1388 59.8947 18.1396C59.5724 18.1412 59.2503 18.1378 58.928 18.1342C58.7028 18.134 58.4777 18.134 58.2525 18.1343C57.7794 18.134 57.3064 18.1314 56.8333 18.1271C56.2317 18.1216 55.6302 18.121 55.0286 18.122C54.5627 18.1224 54.0968 18.1207 53.6308 18.1184C53.4094 18.1174 53.1879 18.117 52.9665 18.1171C50.1403 18.1148 47.6881 17.4708 45.6185 15.4171C43.6456 13.1395 43.0678 10.857 43.2257 7.89067C43.4198 5.81096 44.6599 3.90812 46.1732 2.52035C47.6547 1.35414 49.4543 0.430224 51.3692 0.418885Z" fill="#B3B3B3"/>
<path d="M65.4489 17.7746C66.0536 18.0826 66.438 18.3897 66.697 19.0226C66.7714 19.6921 66.7691 19.9904 66.463 20.5914C65.9672 21.1675 65.6656 21.356 64.9029 21.4408C64.3097 21.4162 63.9604 21.2151 63.5075 20.8254C63.1074 20.3453 63.0167 19.9257 63.0427 19.2989C63.1498 18.692 63.4987 18.3135 63.9582 17.9306C64.4641 17.7236 64.9154 17.6804 65.4489 17.7746Z" fill="#B3B3B3"/>
<path d="M50.0559 7.5127C50.5906 7.78957 50.8323 7.98379 51.1653 8.48342C51.2679 9.17652 51.2372 9.72649 50.9227 10.3555C50.562 10.7563 50.2925 10.9426 49.758 11.0262C49.003 11.0394 48.5654 10.9425 47.9758 10.4249C47.5979 9.81239 47.5873 9.18242 47.6985 8.48342C48.2407 7.47757 49.0041 7.39332 50.0559 7.5127Z" fill="#B3B3B3"/>
<path d="M2.62928 33.7173C3.1229 34.0007 3.39233 34.1563 3.54258 34.7102C3.57457 35.1665 3.56362 35.5081 3.30207 35.8933C2.96087 36.2101 2.65873 36.3467 2.20459 36.4301C1.70324 36.3341 1.46704 36.1502 1.10386 35.7974C0.878899 35.3475 0.86789 34.8953 0.965183 34.4107C1.46729 33.8368 1.86333 33.5577 2.62928 33.7173Z" fill="#B3B3B3"/>
</svg>
