<svg width="58" height="63" viewBox="0 0 58 63" fill="none" xmlns="http://www.w3.org/2000/svg">
<g opacity="0.5">
<g clip-path="url(#clip0_390_1450)">
<path d="M53.8507 2.2019H42.1219L41.1412 4.78136H52.5598V19.4456H55.1393V3.50146C55.1407 3.33132 55.1085 3.16257 55.0444 3.00496C54.9802 2.84736 54.8855 2.70401 54.7657 2.58319C54.6459 2.46237 54.5034 2.36647 54.3463 2.30103C54.1893 2.23559 54.0208 2.2019 53.8507 2.2019Z" fill="#808080"/>
<path d="M52.5598 43.3705C52.5598 48.8723 46.2258 53.044 40.8987 55.5754C37.0645 57.3555 33.0757 58.7818 28.9822 59.8366C24.9015 58.7836 20.9252 57.3609 17.1027 55.5863C11.7669 53.0527 5.40671 48.8745 5.40671 43.3552V38.1133H2.82507V43.3705C2.82507 56.2153 27.6324 62.1736 28.6895 62.4226C28.8821 62.4663 29.0821 62.4663 29.2748 62.4226C30.3341 62.1736 55.1392 56.2153 55.1392 43.3705V38.1133H52.5598V43.3705Z" fill="#808080"/>
<path d="M5.40671 4.78136H16.7074L15.7245 2.20191H4.11589C3.94648 2.20162 3.77868 2.23474 3.62208 2.29937C3.46549 2.364 3.32317 2.45888 3.20328 2.57857C3.08338 2.69826 2.98827 2.84041 2.92337 2.99689C2.85848 3.15338 2.82507 3.32113 2.82507 3.49054V19.4347H5.40671V4.78136Z" fill="#808080"/>
<path d="M22.7815 36.7264H17.5527C15.5127 36.7264 13.914 37.7442 13.274 39.4457C12.9745 40.2379 12.9262 41.1031 13.1357 41.9237C13.3451 42.7443 13.8022 43.4806 14.4447 44.0323C15.8906 45.297 18.2167 45.1725 19.632 43.7571C19.9512 43.4288 20.1995 43.0384 20.3615 42.61C20.5234 42.1817 20.5955 41.7246 20.5734 41.2672C20.5564 40.8394 20.4489 40.4201 20.258 40.0368C20.0672 39.6535 19.7972 39.3151 19.466 39.0438C18.8375 38.5435 18.0406 38.3041 17.2404 38.3755C16.8962 38.4037 16.5613 38.5013 16.2557 38.6624C15.9502 38.8234 15.6804 39.0445 15.4625 39.3124C15.1112 39.7761 14.9505 40.3565 15.0134 40.9348C15.0764 41.5131 15.3582 42.0455 15.801 42.4226C16.0467 42.6338 16.3407 42.781 16.657 42.8511C16.9733 42.9212 17.302 42.9121 17.6139 42.8245C17.8693 42.7384 18.0987 42.5888 18.2806 42.3897C18.4624 42.1907 18.5907 41.9488 18.6535 41.6866C18.6908 41.5467 18.6711 41.3977 18.5986 41.2724C18.5261 41.147 18.4068 41.0556 18.2669 41.0182C18.1979 40.9998 18.1259 40.9951 18.0551 41.0045C17.9843 41.0138 17.916 41.0371 17.8541 41.0728C17.7915 41.1083 17.7366 41.1559 17.6927 41.2129C17.6488 41.2699 17.6168 41.3352 17.5986 41.4048C17.5818 41.4915 17.5428 41.5723 17.4853 41.6393C17.4279 41.7063 17.354 41.7572 17.271 41.7871C17.1317 41.8178 16.987 41.8139 16.8496 41.7759C16.7121 41.7378 16.5861 41.6666 16.4825 41.5686C16.3721 41.4737 16.2815 41.3578 16.2159 41.2278C16.1503 41.0977 16.111 40.956 16.1003 40.8108C16.0609 40.526 16.1355 40.2372 16.3078 40.007C16.4356 39.8518 16.5933 39.7239 16.7715 39.6308C16.9497 39.5378 17.1448 39.4815 17.3452 39.4653C17.8566 39.419 18.3664 39.5707 18.7693 39.8891C18.9832 40.0629 19.1574 40.2805 19.2802 40.5272C19.403 40.774 19.4716 41.0442 19.4813 41.3197C19.4953 41.6251 19.4473 41.9301 19.3403 42.2165C19.2334 42.5029 19.0696 42.7647 18.8588 42.9861C17.8432 44.0039 16.1855 44.1044 15.1655 43.2046C14.6906 42.8001 14.352 42.2592 14.1956 41.6553C14.0393 41.0515 14.0729 40.4141 14.2918 39.8301C14.7636 38.572 15.9801 37.8207 17.5462 37.8207H22.2333V52.0393C22.2455 52.1757 22.3083 52.3026 22.4094 52.395C22.5104 52.4874 22.6424 52.5387 22.7793 52.5387C22.9163 52.5387 23.0482 52.4874 23.1493 52.395C23.2503 52.3026 23.3131 52.1757 23.3254 52.0393V37.2747C23.3254 37.13 23.2682 36.9912 23.1663 36.8885C23.0645 36.7859 22.9261 36.7276 22.7815 36.7264Z" fill="#808080"/>
<path d="M25.9485 42.0819C25.8037 42.0819 25.6648 42.1394 25.5624 42.2418C25.46 42.3442 25.4025 42.4831 25.4025 42.6279V52.0393C25.4025 52.1842 25.46 52.323 25.5624 52.4254C25.6648 52.5278 25.8037 52.5854 25.9485 52.5854C26.0933 52.5854 26.2322 52.5278 26.3346 52.4254C26.437 52.323 26.4945 52.1842 26.4945 52.0393V42.6279C26.4945 42.4831 26.437 42.3442 26.3346 42.2418C26.2322 42.1394 26.0933 42.0819 25.9485 42.0819Z" fill="#808080"/>
<path d="M31.6403 42.0819C31.4952 42.0819 31.3561 42.1394 31.2534 42.2417C31.1506 42.344 31.0926 42.4829 31.092 42.6279V52.0393C31.1043 52.1757 31.1671 52.3026 31.2681 52.395C31.3692 52.4874 31.5011 52.5387 31.6381 52.5387C31.775 52.5387 31.907 52.4874 32.008 52.395C32.1091 52.3026 32.1719 52.1757 32.1841 52.0393V42.6279C32.1841 42.4835 32.1269 42.3449 32.0249 42.2426C31.923 42.1403 31.7847 42.0825 31.6403 42.0819Z" fill="#808080"/>
<path d="M28.7944 42.0819C28.6496 42.0819 28.5107 42.1394 28.4083 42.2418C28.3059 42.3442 28.2484 42.4831 28.2484 42.6279V52.0393C28.2484 52.1842 28.3059 52.323 28.4083 52.4254C28.5107 52.5278 28.6496 52.5854 28.7944 52.5854C28.9393 52.5854 29.0781 52.5278 29.1805 52.4254C29.2829 52.323 29.3405 52.1842 29.3405 52.0393V42.6279C29.3405 42.4831 29.2829 42.3442 29.1805 42.2418C29.0781 42.1394 28.9393 42.0819 28.7944 42.0819Z" fill="#808080"/>
<path d="M31.6403 39.4762H25.9484C25.812 39.4884 25.6852 39.5512 25.5927 39.6523C25.5003 39.7533 25.4491 39.8853 25.4491 40.0222C25.4491 40.1592 25.5003 40.2911 25.5927 40.3922C25.6852 40.4932 25.812 40.556 25.9484 40.5683H31.6403C31.7766 40.556 31.9035 40.4932 31.9959 40.3922C32.0883 40.2911 32.1396 40.1592 32.1396 40.0222C32.1396 39.8853 32.0883 39.7533 31.9959 39.6523C31.9035 39.5512 31.7766 39.4884 31.6403 39.4762Z" fill="#808080"/>
<path d="M31.6403 36.8728H25.9485C25.8037 36.8728 25.6648 36.9303 25.5624 37.0327C25.46 37.1351 25.4025 37.274 25.4025 37.4188C25.4025 37.5637 25.46 37.7025 25.5624 37.8049C25.6648 37.9073 25.8037 37.9649 25.9485 37.9649H31.6403C31.7851 37.9649 31.924 37.9073 32.0264 37.8049C32.1288 37.7025 32.1864 37.5637 32.1864 37.4188C32.1864 37.274 32.1288 37.1351 32.0264 37.0327C31.924 36.9303 31.7851 36.8728 31.6403 36.8728Z" fill="#808080"/>
<path d="M47.6128 34.361H9.97162C9.83523 34.3732 9.70835 34.436 9.61594 34.537C9.52354 34.6381 9.47229 34.7701 9.47229 34.907C9.47229 35.0439 9.52354 35.1759 9.61594 35.277C9.70835 35.378 9.83523 35.4408 9.97162 35.453H47.6128C47.7492 35.4408 47.8761 35.378 47.9685 35.277C48.0609 35.1759 48.1122 35.0439 48.1122 34.907C48.1122 34.7701 48.0609 34.6381 47.9685 34.537C47.8761 34.436 47.7492 34.3732 47.6128 34.361Z" fill="#808080"/>
<path d="M40.2458 36.7264H35.017C34.872 36.727 34.7331 36.785 34.6307 36.8878C34.5284 36.9905 34.4709 37.1296 34.4709 37.2747V52.0393C34.4709 52.1842 34.5285 52.323 34.6309 52.4254C34.7333 52.5278 34.8722 52.5854 35.017 52.5854C35.1618 52.5854 35.3007 52.5278 35.4031 52.4254C35.5055 52.323 35.563 52.1842 35.563 52.0393V37.8207H40.2458C41.8118 37.8207 43.0262 38.572 43.5001 39.8301C43.7191 40.4141 43.7526 41.0515 43.5963 41.6553C43.44 42.2592 43.1013 42.8001 42.6265 43.2046C41.6065 44.0979 39.9487 43.9974 38.9309 42.9861C38.7207 42.7643 38.5572 42.5025 38.4503 42.2162C38.3434 41.9299 38.2951 41.625 38.3085 41.3197C38.3193 41.0442 38.3885 40.7742 38.5116 40.5275C38.6348 40.2809 38.809 40.0632 39.0227 39.8891C39.4254 39.5703 39.9352 39.4185 40.4467 39.4653C40.6471 39.4815 40.8422 39.5378 41.0204 39.6308C41.1986 39.7239 41.3563 39.8518 41.4842 40.007C41.6564 40.2372 41.731 40.526 41.6917 40.8108C41.6812 40.9561 41.642 41.0979 41.5764 41.2279C41.5108 41.358 41.42 41.4738 41.3094 41.5686C41.2058 41.6666 41.0798 41.7378 40.9424 41.7759C40.8049 41.8139 40.6602 41.8178 40.521 41.7871C40.4379 41.7572 40.364 41.7063 40.3066 41.6393C40.2492 41.5723 40.2101 41.4915 40.1934 41.4048C40.1653 41.3006 40.107 41.2069 40.0258 41.1358C39.9445 41.0646 39.844 41.0192 39.737 41.0052C39.6299 40.9911 39.5211 41.0092 39.4242 41.057C39.3274 41.1048 39.247 41.1802 39.193 41.2738C39.1563 41.3353 39.1326 41.4036 39.1232 41.4746C39.1138 41.5455 39.119 41.6177 39.1384 41.6866C39.2012 41.9488 39.3295 42.1907 39.5114 42.3897C39.6932 42.5888 39.9226 42.7384 40.1781 42.8245C40.4898 42.9133 40.8188 42.923 41.1353 42.8529C41.4518 42.7827 41.7458 42.6348 41.9909 42.4226C42.4415 42.048 42.725 41.51 42.7794 40.9265C42.8143 40.6411 42.7925 40.3516 42.7153 40.0746C42.6381 39.7976 42.507 39.5386 42.3294 39.3124C42.1115 39.0445 41.8417 38.8234 41.5362 38.6624C41.2307 38.5013 40.8957 38.4037 40.5515 38.3755C39.7507 38.3043 38.9531 38.5435 38.3237 39.0438C37.9931 39.3155 37.7237 39.6541 37.5333 40.0373C37.3428 40.4205 37.2355 40.8396 37.2186 41.2672C37.1964 41.7246 37.2685 42.1817 37.4304 42.61C37.5924 43.0384 37.8407 43.4288 38.1599 43.7571C39.5752 45.1725 41.9013 45.2969 43.3472 44.0323C43.9899 43.4807 44.4469 42.7443 44.656 41.9236C44.8651 41.1028 44.8161 40.2376 44.5157 39.4457C43.8845 37.7442 42.2836 36.7264 40.2458 36.7264Z" fill="#808080"/>
<path d="M55.4035 24.4953C54.2598 24.2718 53.1049 24.11 51.9439 24.0105V19.6116C51.944 19.5007 51.9068 19.393 51.8383 19.3059C51.7697 19.2187 51.6738 19.1571 51.566 19.1311C50.1374 18.8391 48.6787 18.721 47.2218 18.7795V14.7629C47.2217 14.6386 47.1749 14.519 47.0908 14.4276C47.0067 14.3362 46.8913 14.2797 46.7675 14.2693C44.4258 14.1861 42.0883 14.5234 39.8657 15.2652C35.2827 16.7297 31.4662 19.9494 29.2508 24.2201C27.0354 19.9494 23.2189 16.7297 18.636 15.2652C16.4136 14.5223 14.0758 14.1849 11.7341 14.2693C11.6101 14.2792 11.4945 14.3355 11.4102 14.427C11.326 14.5186 11.2794 14.6385 11.2798 14.7629V18.7795C9.82286 18.7208 8.36416 18.8389 6.93561 19.1311C6.8278 19.1571 6.7319 19.2187 6.66335 19.3059C6.5948 19.393 6.5576 19.5007 6.55775 19.6116V24.0105C5.39667 24.11 4.24179 24.2718 3.0981 24.4953C2.9871 24.5184 2.88743 24.579 2.81584 24.6669C2.74424 24.7548 2.70509 24.8647 2.70496 24.978V29.7329C2.70496 29.8638 2.75696 29.9893 2.84953 30.0819C2.9421 30.1745 3.06765 30.2265 3.19856 30.2265C3.32948 30.2265 3.45503 30.1745 3.5476 30.0819C3.64017 29.9893 3.69218 29.8638 3.69218 29.7329V25.3886C5.91343 25.0021 17.1027 23.3989 25.647 28.4705C25.7597 28.5374 25.8943 28.5568 26.0213 28.5244C26.1483 28.492 26.2572 28.4106 26.3241 28.2979C26.391 28.1852 26.4104 28.0506 26.378 27.9236C26.3457 27.7966 26.2642 27.6877 26.1515 27.6208C19.7957 23.8488 12.2343 23.6042 7.54497 23.9297V20.0157C9.58058 19.6619 19.4332 18.513 27.1344 27.5247C27.2198 27.624 27.341 27.6854 27.4715 27.6957C27.602 27.7059 27.7313 27.6641 27.8311 27.5793C27.9302 27.4943 27.9916 27.3735 28.0019 27.2433C28.0121 27.1132 27.9703 26.9842 27.8857 26.8848C23.1942 21.3983 17.7558 19.5789 14.0209 19.0219C13.4072 18.9302 12.8218 18.869 12.2736 18.8297V15.2412C14.4861 15.2412 24.129 15.7261 28.7659 25.4345V26.745C28.7659 26.8759 28.8179 27.0015 28.9105 27.094C29.0031 27.1866 29.1286 27.2386 29.2595 27.2386C29.3905 27.2386 29.516 27.1866 29.6086 27.094C29.7011 27.0015 29.7532 26.8759 29.7532 26.745V25.4345C34.3813 15.7436 44.0242 15.2281 46.2455 15.2412V18.8275C45.6885 18.8669 45.1032 18.928 44.4982 19.0197C40.7611 19.5789 35.3249 21.3982 30.6334 26.8826C30.5522 26.9827 30.5134 27.1105 30.5252 27.2388C30.5371 27.3671 30.5986 27.4857 30.6967 27.5693C30.7948 27.6528 30.9216 27.6947 31.0502 27.686C31.1788 27.6772 31.2988 27.6186 31.3847 27.5225C39.0728 18.5261 48.9363 19.6597 50.9741 20.0157V23.9275C46.2848 23.602 38.7234 23.8467 32.3676 27.6186C32.2577 27.6866 32.1789 27.795 32.148 27.9204C32.1171 28.0459 32.1366 28.1784 32.2024 28.2896C32.2681 28.4008 32.3749 28.4818 32.4997 28.5152C32.6245 28.5486 32.7574 28.5318 32.8699 28.4683C41.3989 23.3989 52.5882 25.0086 54.8204 25.3886V29.7329C54.8287 29.8578 54.8842 29.9749 54.9756 30.0605C55.0671 30.1461 55.1876 30.1937 55.3129 30.1937C55.4381 30.1937 55.5587 30.1461 55.6501 30.0605C55.7416 29.9749 55.7971 29.8578 55.8054 29.7329V24.978C55.8053 24.8633 55.765 24.7523 55.6916 24.6641C55.6182 24.576 55.5163 24.5162 55.4035 24.4953Z" fill="#808080"/>
<path d="M20.6519 4.14363H18.7867V0.544189H17.8409V4.87968H20.6519V4.14363Z" fill="#808080"/>
<path d="M22.4451 2.91615C21.4753 2.91615 20.9446 3.2809 20.9446 3.97763C20.9446 4.52585 21.4207 4.94083 22.0366 4.94083C22.1892 4.94592 22.3409 4.9161 22.4802 4.85365C22.6195 4.79119 22.7427 4.69775 22.8404 4.58045C22.857 4.68394 22.8879 4.78463 22.9321 4.87967H23.8473V4.83162C23.757 4.61303 23.7138 4.37785 23.7206 4.14144V2.7021C23.7009 2.01847 23.2139 1.59912 22.4101 1.59912C21.6064 1.59912 21.0254 2.03594 21.0254 2.63003H21.934C21.934 2.3854 22.0934 2.24999 22.3708 2.24999C22.6482 2.24999 22.8076 2.41598 22.8076 2.72613V2.91615H22.4451ZM22.8054 3.96453C22.7496 4.0617 22.6687 4.14201 22.571 4.19698C22.4734 4.25195 22.3627 4.27955 22.2507 4.27686C22.2007 4.28179 22.1503 4.2761 22.1026 4.26016C22.055 4.24421 22.0113 4.21837 21.9744 4.18433C21.9375 4.1503 21.9082 4.10884 21.8884 4.06267C21.8686 4.01651 21.8589 3.96668 21.8597 3.91647C21.8597 3.58667 22.0672 3.42286 22.4822 3.42286H22.8054V3.96453Z" fill="#808080"/>
<path d="M25.2386 2.59944C25.2874 2.50859 25.3609 2.43335 25.4505 2.38235C25.5401 2.33135 25.6423 2.30667 25.7454 2.31114C26.1101 2.31114 26.239 2.47058 26.239 2.83096V4.87967H27.1541V2.79383C27.1541 1.99444 26.8112 1.59912 26.1407 1.59912C25.9624 1.5907 25.7847 1.62611 25.6233 1.70227C25.4618 1.77842 25.3215 1.89299 25.2146 2.03594L25.1775 1.65153H24.3235V4.87093H25.2386V2.59944Z" fill="#808080"/>
<path d="M28.7703 2.0556L30.4412 4.87968H31.3803V0.544189H30.4412V3.37482L28.7703 0.544189H27.8246V4.87968H28.7703V2.0556Z" fill="#808080"/>
<path d="M33.5755 4.94087C33.8156 4.94986 34.0544 4.90213 34.2726 4.80157C34.4908 4.70101 34.6822 4.55044 34.8313 4.36208L34.3945 3.87283C34.3053 3.98921 34.1896 4.08262 34.057 4.14529C33.9244 4.20797 33.7788 4.23812 33.6323 4.23322C33.4442 4.24004 33.2608 4.17418 33.1201 4.04932C32.9794 3.92445 32.8922 3.75018 32.8766 3.56269H34.9078V3.20231C34.9078 2.19106 34.3639 1.60571 33.4663 1.60571C32.5096 1.60571 31.9374 2.30026 31.9374 3.27002V3.3552C31.9527 4.30092 32.6057 4.94087 33.5755 4.94087ZM33.4706 2.30682C33.8135 2.30682 34.0079 2.52523 34.0145 2.89216V2.95768H32.8809C32.9421 2.53178 33.1474 2.30682 33.4706 2.30682Z" fill="#808080"/>
<path d="M36.6179 4.31834C36.2903 4.31834 36.0631 4.16545 36.0522 3.85531H35.1917C35.1917 4.51054 35.8469 4.94737 36.5939 4.94737C37.4063 4.94737 37.9655 4.54549 37.9655 3.96015C37.9655 3.50803 37.699 3.22191 37.1552 3.04937C36.845 2.94671 36.1614 2.90958 36.1614 2.56886C36.1657 2.51776 36.1803 2.46807 36.2042 2.42272C36.2282 2.37738 36.261 2.33731 36.3007 2.30491C36.3404 2.27251 36.3863 2.24843 36.4355 2.23412C36.4848 2.2198 36.5364 2.21554 36.5873 2.22158C36.6481 2.21243 36.7101 2.21718 36.7687 2.23546C36.8274 2.25375 36.8811 2.2851 36.9259 2.32714C36.9707 2.36919 37.0053 2.42085 37.0273 2.47823C37.0492 2.5356 37.0578 2.59721 37.0525 2.65841H37.9655C37.9655 2.03593 37.4173 1.61658 36.5939 1.61658C35.8207 1.61658 35.2943 2.03593 35.2943 2.62128C35.2943 3.11707 35.6853 3.43377 36.4235 3.59758C36.8319 3.68931 37.0787 3.77449 37.0787 4.00601C37.0875 4.18511 36.9105 4.31834 36.6179 4.31834Z" fill="#808080"/>
<path d="M38.6579 3.97759C38.6579 4.63282 38.9615 4.94078 39.6145 4.94078C39.7966 4.94242 39.9779 4.91589 40.1518 4.86215V4.20692C40.0688 4.22049 39.9848 4.22707 39.9007 4.22658C39.6386 4.22658 39.573 4.13484 39.573 3.89022V2.29363H40.1147V1.66023H39.573V0.86084H38.6579V1.66023H38.2211V2.29363H38.6579V3.97759Z" fill="#808080"/>
<path d="M56.2073 29.3419H33.8943C33.4968 27.6339 31.5289 26.3606 29.2508 26.3606C26.9728 26.3606 25.0027 27.6339 24.6074 29.3419H2.29437C1.8614 29.3576 1.45138 29.5406 1.15061 29.8524C0.849837 30.1643 0.681763 30.5806 0.681763 31.0139C0.681763 31.4471 0.849837 31.8635 1.15061 32.1753C1.45138 32.4872 1.8614 32.6702 2.29437 32.6858H56.2073C56.6403 32.6702 57.0503 32.4872 57.3511 32.1753C57.6518 31.8635 57.8199 31.4471 57.8199 31.0139C57.8199 30.5806 57.6518 30.1643 57.3511 29.8524C57.0503 29.5406 56.6403 29.3576 56.2073 29.3419ZM56.2073 31.4103H2.29437C2.18894 31.4103 2.08783 31.3684 2.01328 31.2939C1.93873 31.2193 1.89686 31.1182 1.89686 31.0128C1.89686 30.9074 1.93873 30.8062 2.01328 30.7317C2.08783 30.6572 2.18894 30.6153 2.29437 30.6153H25.1709C25.3397 30.6153 25.5015 30.5484 25.6211 30.4292C25.7406 30.3101 25.8081 30.1485 25.8086 29.9797C25.8086 28.6867 27.3528 27.6339 29.2508 27.6339C31.1488 27.6339 32.693 28.6867 32.693 29.9797C32.6936 30.1485 32.761 30.3101 32.8806 30.4292C33.0001 30.5484 33.162 30.6153 33.3308 30.6153H56.2073C56.3127 30.6153 56.4138 30.6572 56.4884 30.7317C56.5629 30.8062 56.6048 30.9074 56.6048 31.0128C56.6048 31.1182 56.5629 31.2193 56.4884 31.2939C56.4138 31.3684 56.3127 31.4103 56.2073 31.4103Z" fill="#808080"/>
</g>
</g>
<defs>
<clipPath id="clip0_390_1450">
<rect width="57.2568" height="61.9112" fill="white" transform="translate(0.623535 0.544189)"/>
</clipPath>
</defs>
</svg>
