<svg width="115" height="57" viewBox="0 0 115 57" fill="none" xmlns="http://www.w3.org/2000/svg">
<g opacity="0.5">
<path d="M47.6478 0.568726C69.6554 0.568726 91.6631 0.568726 114.338 0.568726C114.338 19.0033 114.338 37.4378 114.338 56.431C92.33 56.431 70.3223 56.431 47.6478 56.431C47.6478 52.1897 47.6478 47.9485 47.6478 43.5787C48.7345 43.5787 49.8211 43.5787 50.9407 43.5787C50.9407 46.7328 50.9407 49.8868 50.9407 53.1365C70.775 53.1365 90.6094 53.1365 111.045 53.1365C111.045 36.8883 111.045 20.64 111.045 3.89946C91.2223 3.89946 71.4 3.89946 50.9769 3.89946C50.9769 7.06547 50.9769 10.2315 50.9769 13.4934C49.8783 13.4934 48.7797 13.4934 47.6478 13.4934C47.6478 9.22828 47.6478 4.96313 47.6478 0.568726Z" fill="#808080"/>
<path d="M54.1297 21.9513C54.1543 21.9513 54.1789 21.9513 54.2042 21.9514C54.6037 21.9528 54.9754 21.9827 55.3554 22.1097C55.3909 22.1213 55.3909 22.1213 55.427 22.1332C55.8435 22.2745 56.2676 22.4883 56.5857 22.7976C56.5857 22.8215 56.5857 22.8454 56.5857 22.87C56.6148 22.8812 56.6148 22.8812 56.6445 22.8926C56.8298 22.9999 56.9529 23.1555 57.0561 23.3406C57.0914 23.392 57.1269 23.4433 57.1624 23.4945C57.2843 23.6764 57.418 23.8767 57.418 24.1009C57.4419 24.1009 57.4658 24.1009 57.4904 24.1009C57.5016 24.0595 57.5016 24.0595 57.513 24.0172C57.6013 23.7803 57.7225 23.5333 57.8884 23.3406C57.9123 23.3406 57.9362 23.3406 57.9608 23.3406C57.969 23.3145 57.9772 23.2883 57.9857 23.2614C58.0737 23.0727 58.2358 22.9612 58.395 22.8338C58.4221 22.8054 58.4492 22.7771 58.4771 22.7479C58.7351 22.4995 59.0721 22.3338 59.4082 22.2183C59.4504 22.203 59.4925 22.1878 59.536 22.1721C60.0019 22.0079 60.4375 21.9506 60.9325 21.9513C60.9571 21.9513 60.9817 21.9513 61.0071 21.9514C61.4079 21.9528 61.7764 21.9863 62.1583 22.1097C62.1827 22.1171 62.2071 22.1244 62.2323 22.132C63.034 22.3779 63.6829 22.9275 64.0761 23.6664C64.0957 23.7009 64.1152 23.7353 64.1353 23.7708C64.3639 24.1935 64.4914 24.6747 64.5465 25.1508C64.5495 25.1756 64.5525 25.2005 64.5556 25.226C64.59 25.5499 64.5878 25.8733 64.5874 26.1985C64.5875 26.2634 64.5875 26.3284 64.5876 26.3933C64.5878 26.5684 64.5877 26.7436 64.5876 26.9188C64.5875 27.1022 64.5876 27.2857 64.5876 27.4692C64.5877 27.7769 64.5876 28.0846 64.5874 28.3922C64.5872 28.7483 64.5873 29.1044 64.5875 29.4605C64.5877 29.7664 64.5877 30.0723 64.5876 30.3782C64.5875 30.5609 64.5875 30.7435 64.5877 30.9262C64.5878 31.0975 64.5877 31.2689 64.5875 31.4402C64.5874 31.5032 64.5874 31.5663 64.5875 31.6293C64.5876 31.715 64.5875 31.8006 64.5873 31.8863C64.5874 31.9115 64.5875 31.9368 64.5876 31.9628C64.5869 32.134 64.5869 32.134 64.5465 32.1743C64.443 32.1778 64.3404 32.1789 64.2368 32.1784C64.1881 32.1784 64.1881 32.1784 64.1384 32.1784C64.0305 32.1784 63.9227 32.1781 63.8148 32.1778C63.7402 32.1778 63.6656 32.1777 63.591 32.1777C63.3943 32.1776 63.1976 32.1772 63.0008 32.1768C62.8002 32.1764 62.5997 32.1763 62.3991 32.1761C62.0052 32.1757 61.6113 32.1751 61.2175 32.1743C61.2173 32.1315 61.2173 32.1315 61.2171 32.0878C61.2142 31.3918 61.2108 30.6959 61.2071 30C61.2053 29.6634 61.2036 29.3269 61.2022 28.9903C61.201 28.6968 61.1996 28.4034 61.1978 28.1099C61.1969 27.9546 61.1961 27.7994 61.1956 27.6441C61.1952 27.4977 61.1944 27.3513 61.1933 27.2049C61.193 27.1514 61.1928 27.0979 61.1927 27.0444C61.1922 26.7429 61.1761 26.4588 61.1089 26.1645C61.0954 26.1045 61.0954 26.1045 61.0816 26.0433C60.996 25.7555 60.8519 25.5755 60.6385 25.368C60.6161 25.3428 60.5937 25.3175 60.5707 25.2915C60.4736 25.2053 60.3802 25.1702 60.2586 25.1259C60.2179 25.1108 60.1772 25.0958 60.1353 25.0802C59.6416 24.9125 59.1607 25.0071 58.6981 25.2255C58.5805 25.2856 58.5805 25.2856 58.5185 25.3543C58.4674 25.4042 58.4674 25.4042 58.395 25.4042C58.3855 25.4253 58.376 25.4463 58.3662 25.468C58.3206 25.5528 58.2683 25.6148 58.205 25.6871C57.8324 26.1587 57.7692 26.7364 57.7683 27.3163C57.768 27.3694 57.7676 27.4226 57.7672 27.4758C57.7662 27.6192 57.7657 27.7626 57.7652 27.906C57.7646 28.0562 57.7637 28.2064 57.7627 28.3566C57.7611 28.6406 57.7597 28.9246 57.7585 29.2086C57.7571 29.5321 57.7554 29.8556 57.7535 30.1791C57.7498 30.8442 57.7466 31.5093 57.7437 32.1743C57.3102 32.1751 56.8768 32.1758 56.4434 32.1762C56.2421 32.1764 56.0409 32.1766 55.8397 32.177C55.6456 32.1774 55.4516 32.1777 55.2576 32.1777C55.1834 32.1778 55.1092 32.1779 55.035 32.1781C54.9314 32.1784 54.8279 32.1784 54.7243 32.1784C54.6933 32.1786 54.6623 32.1787 54.6304 32.1788C54.4187 32.1784 54.4187 32.1784 54.3784 32.1381C54.3748 32.0634 54.3738 31.9886 54.3737 31.9138C54.3736 31.8782 54.3736 31.8782 54.3734 31.842C54.3732 31.7619 54.3733 31.6819 54.3733 31.6019C54.3732 31.5448 54.3731 31.4876 54.3729 31.4305C54.3726 31.3071 54.3724 31.1837 54.3723 31.0603C54.3721 30.8649 54.3715 30.6695 54.3708 30.4741C54.3706 30.4073 54.3704 30.3404 54.3701 30.2735C54.37 30.2233 54.37 30.2233 54.3698 30.172C54.3683 29.717 54.3671 29.262 54.3666 28.807C54.3663 28.5003 54.3655 28.1936 54.3641 27.887C54.3634 27.7248 54.363 27.5625 54.3631 27.4003C54.3633 27.2474 54.3628 27.0945 54.3618 26.9415C54.3616 26.8857 54.3615 26.8298 54.3618 26.7739C54.3641 26.2369 54.2295 25.7881 53.8718 25.3771C53.5526 25.0749 53.0916 24.9929 52.6697 24.9955C52.4544 25.012 52.2637 25.0756 52.0626 25.1508C52.0178 25.1657 51.973 25.1807 51.9269 25.1961C51.5438 25.4024 51.236 25.7717 51.0986 26.1847C50.9699 26.616 50.9353 27.0231 50.9334 27.4724C50.933 27.5238 50.9327 27.5752 50.9323 27.6266C50.9313 27.7655 50.9306 27.9043 50.9298 28.0431C50.929 28.1884 50.928 28.3338 50.9271 28.4791C50.9253 28.754 50.9236 29.0289 50.9221 29.3038C50.92 29.6755 50.9176 30.0472 50.9152 30.4189C50.9114 31.004 50.9081 31.5892 50.9046 32.1743C49.806 32.1743 48.7074 32.1743 47.5756 32.1743C47.5756 28.853 47.5756 25.5317 47.5756 22.1097C48.6742 22.1097 49.7727 22.1097 50.9046 22.1097C50.9225 22.8265 50.9225 22.8265 50.9408 23.5578C51.0483 23.4145 51.1557 23.2711 51.2665 23.1234C51.4789 22.8929 51.6932 22.7157 51.954 22.5441C51.9815 22.5233 52.009 22.5025 52.0374 22.4811C52.2588 22.3218 52.4904 22.2352 52.7478 22.1527C52.797 22.1369 52.797 22.1369 52.8471 22.1209C53.2735 21.9911 53.6847 21.9507 54.1297 21.9513Z" fill="#808080"/>
<path d="M84.6655 18.381C85.7761 18.381 86.8866 18.381 88.0308 18.381C88.0308 22.9329 88.0308 27.4848 88.0308 32.1746C86.9203 32.1746 85.8097 32.1746 84.6655 32.1746C84.6536 31.7923 84.6417 31.41 84.6294 31.0161C84.5045 31.1571 84.5045 31.1571 84.3804 31.2988C84.2838 31.4061 84.2241 31.4542 84.0866 31.4867C84.0714 31.5193 84.0714 31.5193 84.0559 31.5525C83.9945 31.669 83.8933 31.7135 83.7813 31.7741C83.7587 31.7866 83.7361 31.7992 83.7128 31.8121C82.6884 32.3728 81.3981 32.4447 80.2768 32.1232C80.1388 32.0795 80.0124 32.0258 79.8845 31.9574C79.7651 31.895 79.6508 31.8383 79.5227 31.7967C79.3331 31.7293 79.1798 31.6072 79.0206 31.4867C78.9915 31.4651 78.9624 31.4434 78.9324 31.4211C78.454 31.0529 78.0053 30.5957 77.7541 30.0386C77.7541 30.0147 77.7541 29.9908 77.7541 29.9662C77.7302 29.9662 77.7064 29.9662 77.6818 29.9662C77.5505 29.6919 77.4433 29.4157 77.3493 29.1267C77.3307 29.0709 77.3307 29.0709 77.3118 29.0139C76.8985 27.759 76.9445 26.2548 77.3561 25.0063C77.3641 24.981 77.3721 24.9558 77.3803 24.9298C77.4614 24.6745 77.5563 24.446 77.7013 24.2204C77.7523 24.1402 77.7962 24.0587 77.8401 23.9744C77.9869 23.7072 78.188 23.4803 78.4055 23.2685C78.4388 23.2271 78.4719 23.1856 78.505 23.144C78.6111 23.0178 78.7307 22.9362 78.8697 22.849C78.9406 22.8028 79.0024 22.7542 79.0658 22.6983C79.1619 22.6196 79.2328 22.5896 79.3463 22.5444C79.3988 22.5113 79.4508 22.4773 79.5023 22.4426C79.9976 22.1418 80.7237 21.9841 81.3003 21.9651C81.325 21.9642 81.3497 21.9633 81.3751 21.9623C82.1577 21.9363 83.0165 22.0365 83.6885 22.472C83.7344 22.4979 83.7804 22.5235 83.8265 22.5489C84.0063 22.6548 84.0063 22.6548 84.0866 22.7254C84.0866 22.7493 84.0866 22.7732 84.0866 22.7978C84.106 22.806 84.1254 22.8143 84.1454 22.8227C84.3547 22.9385 84.4756 23.0839 84.6294 23.2685C84.6473 20.8492 84.6473 20.8492 84.6655 18.381ZM81.3727 25.0787C81.3346 25.1011 81.2965 25.1235 81.2573 25.1465C81.1433 25.2327 81.0731 25.3239 80.9924 25.4407C80.9384 25.5131 80.9384 25.5131 80.8689 25.5738C80.7584 25.6974 80.7065 25.8381 80.6444 25.9905C80.6319 26.02 80.6193 26.0494 80.6064 26.0797C80.3417 26.7175 80.3141 27.5493 80.5766 28.1922C80.7003 28.4804 80.8154 28.7356 81.047 28.9525C81.0843 28.999 81.1212 29.0457 81.1578 29.0927C81.4061 29.3791 81.7968 29.5777 82.1742 29.6156C82.303 29.6213 82.4311 29.6225 82.56 29.6222C82.6032 29.6233 82.6464 29.6243 82.691 29.6253C83.2108 29.6265 83.6193 29.4041 83.9984 29.0588C84.5697 28.448 84.6935 27.6832 84.6708 26.8738C84.6592 26.6672 84.6128 26.4723 84.557 26.2734C84.5492 26.2409 84.5413 26.2083 84.5332 26.1748C84.4738 25.9458 84.3754 25.738 84.2313 25.5493C84.2074 25.5493 84.1836 25.5493 84.159 25.5493C84.1504 25.5228 84.1418 25.4962 84.1329 25.4688C84.0015 25.1837 83.6456 24.9478 83.3629 24.8252C82.6995 24.6261 81.9333 24.6371 81.3727 25.0787Z" fill="#808080"/>
<path d="M30.6454 21.9513C30.67 21.9513 30.6946 21.9513 30.72 21.9514C31.1202 21.9528 31.4901 21.9848 31.8712 22.1097C31.8967 22.1178 31.9223 22.126 31.9487 22.1344C32.2519 22.2331 32.5186 22.3529 32.7758 22.5441C32.8337 22.5812 32.8918 22.6182 32.9499 22.655C33.0746 22.7379 33.1564 22.8216 33.2462 22.9424C33.282 22.9715 33.3179 23.0006 33.3548 23.0306C33.4681 23.1275 33.5302 23.2141 33.6081 23.3406C33.6319 23.3739 33.6319 23.3739 33.6563 23.4078C33.7762 23.5765 33.871 23.7511 33.9586 23.938C33.9689 23.9599 33.9793 23.9817 33.9899 24.0043C34.3917 24.883 34.3106 25.8835 34.3066 26.8268C34.3059 27.0154 34.3059 27.2039 34.3057 27.3924C34.3054 27.7481 34.3045 28.1037 34.3034 28.4594C34.302 28.9409 34.3014 29.4225 34.3007 29.9041C34.2997 30.6608 34.2976 31.4176 34.2956 32.1743C33.197 32.1743 32.0984 32.1743 30.9665 32.1743C30.9648 31.7812 30.963 31.388 30.9612 30.983C30.9599 30.7332 30.9586 30.4834 30.9572 30.2336C30.955 29.8375 30.9529 29.4415 30.9513 29.0454C30.9501 28.7569 30.9486 28.4684 30.9469 28.1799C30.946 28.0273 30.9452 27.8748 30.9447 27.7222C30.9442 27.5782 30.9434 27.4341 30.9424 27.29C30.9421 27.2376 30.9418 27.1852 30.9418 27.1328C30.9407 26.4914 30.9162 25.9227 30.4561 25.4324C30.0958 25.0942 29.666 24.9797 29.1782 24.9942C28.9924 25.0111 28.8256 25.0507 28.6507 25.1146C28.6225 25.1247 28.5943 25.1348 28.5653 25.1451C28.1809 25.299 27.8133 25.6062 27.6389 25.9869C27.568 26.1637 27.5102 26.3438 27.4565 26.5265C27.4499 26.5485 27.4432 26.5706 27.4363 26.5932C27.4154 26.6957 27.4152 26.793 27.4146 26.8977C27.4143 26.9442 27.4139 26.9907 27.4136 27.0386C27.4133 27.09 27.4131 27.1415 27.4129 27.1929C27.4126 27.2472 27.4122 27.3014 27.4118 27.3557C27.4109 27.5029 27.4101 27.65 27.4094 27.7972C27.4086 27.9511 27.4076 28.1049 27.4066 28.2588C27.4048 28.5501 27.4032 28.8414 27.4016 29.1327C27.3995 29.5264 27.3971 29.92 27.3947 30.3137C27.391 30.9339 27.3876 31.5541 27.3842 32.1743C26.2736 32.1743 25.1631 32.1743 24.0189 32.1743C24.0189 28.853 24.0189 25.5317 24.0189 22.1097C25.1295 22.1097 26.24 22.1097 27.3842 22.1097C27.3961 22.5756 27.408 23.0416 27.4204 23.5216C27.5159 23.4022 27.6114 23.2827 27.7098 23.1596C28.4087 22.2855 29.5663 21.9498 30.6454 21.9513Z" fill="#808080"/>
<path d="M40.8672 21.9538C40.9669 21.954 41.0666 21.9531 41.1663 21.9522C41.763 21.95 42.331 22.0274 42.9055 22.1915C42.9439 22.2024 42.9824 22.2133 43.0221 22.2245C43.3051 22.3081 43.5313 22.4154 43.7762 22.5807C43.8323 22.6088 43.8888 22.6361 43.9458 22.6622C44.0656 22.7256 44.0656 22.7256 44.1018 22.8342C44.1657 22.8707 44.1657 22.8707 44.2466 22.9066C44.4172 23.0083 44.5278 23.1105 44.6446 23.2686C44.6446 23.2925 44.6446 23.3164 44.6446 23.341C44.6671 23.3503 44.6895 23.3595 44.7126 23.369C44.8013 23.4203 44.8195 23.4521 44.8595 23.5447C44.9198 23.6762 44.9897 23.7945 45.0699 23.9148C45.202 24.1429 45.2617 24.3777 45.3186 24.633C45.3264 24.6662 45.3342 24.6994 45.3423 24.7337C45.4478 25.1997 45.4458 25.6661 45.4448 26.1412C45.4448 26.2072 45.4448 26.2733 45.4448 26.3393C45.4448 26.5174 45.4446 26.6955 45.4444 26.8735C45.4441 27.0601 45.4441 27.2466 45.4441 27.4332C45.444 27.7859 45.4437 28.1386 45.4433 28.4913C45.4428 28.9684 45.4426 29.4454 45.4424 29.9224C45.4421 30.6732 45.4414 31.4239 45.4407 32.1747C44.3421 32.1747 43.2435 32.1747 42.1116 32.1747C42.0997 31.8402 42.0878 31.5057 42.0754 31.161C41.9501 31.3044 41.9501 31.3044 41.8221 31.4506C41.7444 31.5185 41.6691 31.5815 41.5869 31.643C41.5678 31.658 41.5486 31.6731 41.5288 31.6886C41.393 31.7921 41.2566 31.8584 41.0984 31.9213C40.9987 31.9669 40.8992 32.0131 40.7998 32.0595C39.8838 32.4545 38.4584 32.4235 37.5352 32.0648C37.0365 31.8538 36.578 31.5536 36.2858 31.0886C36.2521 31.0476 36.2182 31.0069 36.184 30.9664C35.9216 30.6179 35.7791 30.1741 35.7068 29.7491C35.7021 29.7219 35.6974 29.6946 35.6925 29.6666C35.6006 29.0081 35.7043 28.3985 35.9601 27.7941C35.9739 27.76 35.9876 27.726 36.0018 27.691C36.2302 27.1778 36.701 26.8083 37.1904 26.5631C37.2281 26.5422 37.2659 26.5212 37.3048 26.4996C37.8993 26.1891 38.6228 26.0853 39.2895 26.0884C39.3356 26.0884 39.3356 26.0884 39.3827 26.0884C39.4831 26.0884 39.5835 26.0887 39.684 26.089C39.7541 26.089 39.8242 26.0891 39.8943 26.0891C40.0779 26.0893 40.2616 26.0896 40.4452 26.09C40.633 26.0904 40.8207 26.0905 41.0085 26.0907C41.3762 26.0911 41.7439 26.0917 42.1116 26.0925C42.1017 26.0061 42.0913 25.9198 42.0807 25.8336C42.0766 25.7972 42.0766 25.7972 42.0723 25.7602C42.0333 25.4492 41.8978 25.1906 41.6774 24.9702C41.5926 24.9158 41.5133 24.8703 41.4241 24.8254C41.4038 24.8131 41.3835 24.8008 41.3626 24.7882C40.5674 24.3308 39.4843 24.6017 38.6604 24.8186C38.367 24.8989 38.0916 25.0024 37.8169 25.1325C37.7059 25.1833 37.5959 25.2223 37.4799 25.2598C37.4418 25.2811 37.4418 25.2811 37.403 25.3028C37.3352 25.3322 37.3352 25.3322 37.265 25.3311C37.1666 25.2848 37.1488 25.2243 37.1115 25.1255C37.1032 25.1019 37.0949 25.0782 37.0864 25.0539C37.0677 25.004 37.049 24.9542 37.0303 24.9044C37.0209 24.8791 37.0115 24.8537 37.0018 24.8276C36.9589 24.7152 36.9107 24.6052 36.8625 24.495C36.7773 24.2977 36.6981 24.0989 36.6222 23.8978C36.588 23.8086 36.553 23.7201 36.517 23.6316C36.5072 23.6074 36.4973 23.5831 36.4871 23.5581C36.4591 23.4895 36.431 23.4209 36.4028 23.3523C36.365 23.2508 36.3389 23.158 36.322 23.0514C36.3418 23.0426 36.3616 23.0338 36.3821 23.0248C36.5236 22.9621 36.6648 22.8989 36.8054 22.8342C37.0825 22.7073 37.3547 22.5905 37.6488 22.5078C37.7597 22.475 37.8669 22.4361 37.9752 22.3959C38.3104 22.2745 38.6524 22.2024 39.0019 22.1372C39.0259 22.1327 39.0499 22.1282 39.0745 22.1236C39.6731 22.0119 40.2579 21.9524 40.8672 21.9538ZM39.02 28.2738C38.8488 28.5752 38.8081 28.8719 38.8787 29.2117C38.947 29.4497 39.0312 29.6244 39.253 29.7491C39.2769 29.7491 39.3007 29.7491 39.3254 29.7491C39.3254 29.773 39.3254 29.7969 39.3254 29.8215C39.7339 30.0562 40.3179 30.0516 40.7728 29.9663C41.2816 29.8072 41.735 29.5167 42.0234 29.0612C42.1325 28.8239 42.1218 28.5972 42.1171 28.3394C42.1167 28.2974 42.1163 28.2553 42.1159 28.212C42.1149 28.1089 42.1135 28.0058 42.1116 27.9027C41.8313 27.9001 41.551 27.8982 41.2707 27.897C41.1405 27.8965 41.0103 27.8957 40.8801 27.8945C40.7541 27.8933 40.6282 27.8927 40.5022 27.8924C40.4315 27.8921 40.3608 27.8912 40.2901 27.8904C39.845 27.8903 39.3603 27.9596 39.02 28.2738Z" fill="#808080"/>
<path d="M73.7737 22.5081C73.8095 22.5439 73.8095 22.5439 73.846 22.5805C73.9299 22.6179 74.0144 22.6542 74.0993 22.6891C74.1232 22.701 74.1471 22.713 74.1717 22.7253C74.1717 22.7492 74.1717 22.7731 74.1717 22.7977C74.1962 22.8053 74.2208 22.8129 74.2461 22.8207C74.388 22.8865 74.4934 22.9778 74.6105 23.0805C74.6342 23.1013 74.658 23.122 74.6825 23.1434C74.9854 23.4138 75.2412 23.7085 75.4382 24.0648C75.4713 24.1161 75.5045 24.1674 75.5377 24.2187C75.8107 24.6748 75.9825 25.1757 76.0895 25.694C76.0995 25.7395 76.1094 25.7851 76.1196 25.832C76.2652 26.5435 76.3542 27.3274 76.2343 28.0472C73.9535 28.0472 71.6727 28.0472 69.3229 28.0472C69.4508 28.38 69.5439 28.6132 69.7571 28.8799C69.7791 28.9082 69.801 28.9366 69.8237 28.9657C70.1759 29.3931 70.6634 29.6113 71.2045 29.6764C71.9061 29.7369 72.5216 29.6065 73.1223 29.2419C73.364 29.0971 73.364 29.0971 73.448 29.0971C73.4571 29.0757 73.4661 29.0542 73.4754 29.0321C73.5265 28.9414 73.5776 28.8967 73.6606 28.8346C73.6974 28.8064 73.6974 28.8064 73.7349 28.7775C73.8099 28.7351 73.8099 28.7351 73.9546 28.7351C74.0366 28.7997 74.0366 28.7997 74.1272 28.8913C74.1438 28.9079 74.1604 28.9245 74.1775 28.9416C74.2323 28.9965 74.2865 29.0519 74.3408 29.1073C74.3787 29.1455 74.4166 29.1836 74.4545 29.2218C74.5543 29.3221 74.6537 29.423 74.7529 29.5239C74.8543 29.6268 74.9561 29.7293 75.0578 29.8318C75.2574 30.033 75.4565 30.2347 75.6553 30.4367C75.6033 30.5465 75.5583 30.6116 75.4631 30.6878C75.3815 30.7549 75.3074 30.821 75.2324 30.896C75.1594 30.969 75.0902 31.0318 75.004 31.0883C74.9801 31.0883 74.9562 31.0883 74.9316 31.0883C74.9197 31.1242 74.9077 31.16 74.8954 31.1969C74.7711 31.2936 74.6324 31.3696 74.4974 31.4504C74.4376 31.4887 74.4376 31.4887 74.3765 31.5279C73.7799 31.8986 73.0338 32.1436 72.3347 32.2145C72.3051 32.2175 72.2754 32.2205 72.2448 32.2237C71.9132 32.2551 71.5826 32.2596 71.2497 32.2582C71.2026 32.2581 71.2026 32.2581 71.1545 32.258C70.265 32.2548 69.4508 32.1504 68.6353 31.7762C68.5998 31.7603 68.5998 31.7603 68.5635 31.7441C68.0509 31.5019 67.5372 31.1799 67.1879 30.7263C67.1465 30.686 67.1465 30.686 67.1042 30.6448C66.6451 30.1748 66.6451 30.1748 66.6451 29.966C66.6213 29.966 66.5974 29.966 66.5728 29.966C66.5648 29.9449 66.5569 29.9238 66.5487 29.9021C66.4824 29.7304 66.4099 29.5687 66.3217 29.4071C66.173 29.1128 66.0993 28.8023 66.03 28.4817C66.024 28.4542 66.0179 28.4268 66.0117 28.3986C65.8413 27.5858 65.8617 26.6857 66.03 25.875C66.035 25.8485 66.0401 25.822 66.0453 25.7947C66.1212 25.3969 66.2528 25.0445 66.428 24.6803C66.4569 24.6183 66.4569 24.6183 66.4863 24.5551C66.582 24.355 66.68 24.1945 66.8261 24.0286C66.8425 23.9935 66.8589 23.9584 66.8758 23.9223C66.9427 23.7962 67.022 23.7177 67.1245 23.6202C67.1952 23.5531 67.1952 23.5531 67.2761 23.4493C67.8519 22.7749 68.7659 22.3189 69.6191 22.1392C69.6621 22.13 69.7051 22.1208 69.7494 22.1114C71.0433 21.841 72.5852 21.8601 73.7737 22.5081ZM69.7933 24.9699C69.7063 25.0664 69.7063 25.0664 69.6847 25.1871C69.6608 25.1871 69.637 25.1871 69.6123 25.1871C69.3341 25.6859 69.3341 25.6859 69.2143 26.237C70.4681 26.237 71.722 26.237 73.0138 26.237C72.9313 25.5772 72.8222 25.1466 72.3198 24.7223C72.2509 24.6691 72.182 24.6192 72.1091 24.5717C72.0827 24.5531 72.0562 24.5345 72.029 24.5154C71.8977 24.4472 71.7725 24.4253 71.6274 24.402C71.6013 24.3973 71.5752 24.3926 71.5483 24.3877C70.8479 24.269 70.2861 24.4724 69.7933 24.9699Z" fill="#808080"/>
<path d="M1.64997 21.562C1.69208 21.5619 1.73418 21.5618 1.77756 21.5617C1.89364 21.5615 2.00971 21.5615 2.12578 21.5615C2.25129 21.5615 2.3768 21.5613 2.50231 21.5612C2.74795 21.5609 2.99359 21.5608 3.23923 21.5607C3.4391 21.5607 3.63897 21.5607 3.83885 21.5605C4.4065 21.5602 4.97414 21.5601 5.54179 21.5601C5.58765 21.5601 5.58765 21.5601 5.63442 21.5601C5.66503 21.5601 5.69563 21.5601 5.72716 21.5601C6.22256 21.5601 6.71796 21.5598 7.21335 21.5592C7.72298 21.5587 8.2326 21.5585 8.74223 21.5585C9.02796 21.5585 9.31368 21.5584 9.59941 21.558C9.84281 21.5577 10.0862 21.5576 10.3296 21.5579C10.4535 21.558 10.5775 21.558 10.7014 21.5577C11.4031 21.5562 12.0532 21.58 12.729 21.784C12.7645 21.7935 12.7999 21.8031 12.8365 21.8129C13.33 21.9567 13.793 22.2423 14.1764 22.5805C14.2171 22.613 14.2578 22.6454 14.2986 22.6778C14.3916 22.7598 14.4614 22.8458 14.5383 22.9425C14.5689 22.9664 14.5995 22.9903 14.631 23.0149C14.725 23.0921 14.7737 23.1602 14.8278 23.2684C14.8278 23.2923 14.8278 23.3162 14.8278 23.3408C14.8636 23.3527 14.8994 23.3647 14.9363 23.377C15.0215 23.5019 15.0845 23.6408 15.1535 23.7752C15.1774 23.8181 15.2014 23.861 15.2255 23.9038C15.4377 24.2902 15.5399 24.6837 15.6239 25.1148C15.6313 25.1506 15.6388 25.1864 15.6465 25.2234C15.6659 25.3789 15.6638 25.5329 15.6623 25.6895C15.6621 25.7213 15.662 25.7531 15.6618 25.7859C15.6614 25.8639 15.6607 25.9419 15.6601 26.0198C15.4622 26.1188 15.3102 26.144 15.0906 26.1418C15.0441 26.1419 15.0441 26.1419 14.9967 26.1421C14.8933 26.1424 14.7899 26.1419 14.6865 26.1414C14.6121 26.1414 14.5377 26.1415 14.4633 26.1416C14.2609 26.1418 14.0586 26.1413 13.8562 26.1407C13.6426 26.1401 13.429 26.1402 13.2154 26.1401C12.855 26.14 12.4946 26.1395 12.1342 26.1386C11.6776 26.1376 11.221 26.1372 10.7644 26.1371C10.3665 26.1369 9.96866 26.1365 9.57081 26.136C9.4459 26.1358 9.321 26.1357 9.19609 26.1356C7.91524 26.1344 6.63525 26.1151 5.35479 26.0837C5.3299 26.0831 5.305 26.0825 5.27935 26.0819C4.82865 26.0706 4.382 26.0516 3.93597 25.9836C3.89994 25.9782 3.89994 25.9782 3.86319 25.9726C3.54745 25.923 3.2786 25.8399 2.99515 25.694C2.95858 25.6767 2.92201 25.6595 2.88433 25.6417C2.68535 25.5466 2.50632 25.4465 2.33391 25.3088C2.26591 25.2534 2.26591 25.2534 2.16288 25.1917C2.01307 25.0855 1.89217 24.9568 1.76484 24.8251C1.73499 24.7968 1.70513 24.7684 1.67438 24.7391C1.23373 24.2762 0.918789 23.7401 0.751648 23.1236C0.74485 23.0987 0.738051 23.0739 0.731046 23.0484C0.631059 22.6797 0.563863 22.329 0.568459 21.9469C0.568623 21.9206 0.568786 21.8943 0.568954 21.8672C0.569374 21.8033 0.570023 21.7393 0.570721 21.6754C0.618156 21.6639 0.665666 21.6526 0.713201 21.6415C0.739649 21.6352 0.766097 21.6289 0.793346 21.6224C1.0791 21.5686 1.36017 21.5615 1.64997 21.562Z" fill="#808080"/>
<path d="M7.56536 27.6443C7.7836 27.6444 8.00184 27.6443 8.22009 27.6443C8.58661 27.6442 8.95313 27.6443 9.31965 27.6444C9.73822 27.6446 10.1568 27.6446 10.5754 27.6444C10.9396 27.6442 11.3039 27.6442 11.6682 27.6443C11.8836 27.6443 12.0989 27.6444 12.3143 27.6442C13.4421 27.6437 14.5688 27.6571 15.6962 27.6854C15.6969 27.7539 15.6975 27.8225 15.6979 27.891C15.6984 27.9483 15.6984 27.9483 15.6989 28.0067C15.695 28.1698 15.6659 28.323 15.6306 28.4819C15.6207 28.5286 15.6207 28.5286 15.6105 28.5763C15.5913 28.6656 15.5715 28.7548 15.5514 28.8439C15.542 28.8873 15.5325 28.9308 15.5227 28.9756C15.4709 29.1995 15.3997 29.3984 15.2981 29.6042C15.2761 29.6508 15.2541 29.6975 15.2321 29.7442C15.1083 30.0033 14.9915 30.2274 14.7915 30.4369C14.7658 30.4817 14.7658 30.4817 14.7395 30.5274C14.6702 30.6383 14.5848 30.7193 14.491 30.8098C14.4241 30.8743 14.4241 30.8743 14.3551 30.9686C14.2701 31.07 14.1794 31.1263 14.0678 31.1971C14.0255 31.2301 13.9833 31.2633 13.9412 31.2967C13.548 31.5946 13.1111 31.796 12.6362 31.9212C12.6044 31.9302 12.5725 31.9391 12.5396 31.9484C11.8318 32.1358 11.1169 32.1544 10.3891 32.151C10.2578 32.1506 10.1265 32.1507 9.99519 32.1508C9.76866 32.1509 9.54214 32.1505 9.31562 32.1499C8.98812 32.149 8.66063 32.1487 8.33313 32.1486C7.80155 32.1484 7.26998 32.1476 6.7384 32.1466C6.22258 32.1456 5.70676 32.1449 5.19094 32.1444C5.15905 32.1444 5.12716 32.1443 5.0943 32.1443C4.93428 32.1442 4.77425 32.144 4.61423 32.1439C3.29049 32.1428 1.96676 32.1409 0.643026 32.1384C0.544509 31.664 0.58325 31.1536 0.715397 30.6903C0.726312 30.6498 0.737227 30.6093 0.748473 30.5675C0.882229 30.0997 1.12086 29.6145 1.43911 29.2421C1.46299 29.2421 1.48687 29.2421 1.51148 29.2421C1.52043 29.216 1.52939 29.1899 1.53862 29.1629C1.62957 28.9582 1.7816 28.8286 1.94924 28.6863C2.0172 28.6295 2.0172 28.6295 2.06995 28.5715C2.14215 28.5034 2.22207 28.4596 2.30756 28.4094C2.36054 28.3705 2.4133 28.3313 2.46587 28.2918C2.6803 28.1408 2.90764 28.0322 3.14816 27.9299C3.20305 27.9065 3.25744 27.8819 3.3117 27.8571C3.86099 27.6363 4.5373 27.6822 5.1191 27.6657C5.16011 27.6646 5.16011 27.6646 5.20195 27.6634C5.98962 27.6418 6.77747 27.6439 7.56536 27.6443Z" fill="#808080"/>
<path d="M8.8544 15.5884C9.09671 15.5885 9.33902 15.5886 9.58133 15.5887C11.5715 15.5891 13.5615 15.5945 15.5514 15.6293C15.5518 15.6918 15.5521 15.7544 15.5524 15.8169C15.5526 15.8518 15.5528 15.8866 15.553 15.9225C15.5452 16.4406 15.4187 16.9264 15.2257 17.4033C15.2103 17.4435 15.1949 17.4837 15.1791 17.5252C15.0862 17.7608 14.981 17.9965 14.8277 18.1998C14.8038 18.1998 14.7799 18.1998 14.7553 18.1998C14.7523 18.2259 14.7493 18.252 14.7463 18.279C14.6973 18.4626 14.5605 18.5757 14.4296 18.7066C14.4028 18.7402 14.3759 18.7738 14.3482 18.8084C13.8265 19.4355 12.9476 19.8375 12.15 19.9375C11.9032 19.9584 11.6556 19.9666 11.4082 19.976C11.3714 19.9775 11.3346 19.9789 11.2967 19.9805C10.5968 20.0082 9.89668 20.022 9.19632 20.0326C9.17218 20.0329 9.14803 20.0333 9.12316 20.0337C7.49792 20.059 5.8725 20.045 4.24721 20.0321C4.07132 20.0307 3.89543 20.0294 3.71955 20.0281C2.63343 20.0205 1.54761 20.0126 0.46206 19.9737C0.446413 19.2641 0.470043 18.7047 0.78773 18.0549C0.813478 17.9911 0.813478 17.9911 0.839746 17.926C1.0525 17.4577 1.36206 17.0374 1.72855 16.6792C1.76682 16.6397 1.76682 16.6397 1.80587 16.5994C1.83409 16.5705 1.86231 16.5416 1.89139 16.5118C1.91788 16.4844 1.94437 16.4571 1.97167 16.4289C2.05501 16.3526 2.13727 16.3005 2.23515 16.2448C2.28122 16.2117 2.3272 16.1785 2.3731 16.1452C2.92986 15.7717 3.54848 15.6281 4.20938 15.618C4.25108 15.6173 4.29277 15.6165 4.33573 15.6157C4.45128 15.6138 4.56683 15.612 4.68238 15.6103C4.7567 15.6092 4.83102 15.6081 4.90533 15.6069C6.22162 15.5869 7.53799 15.5874 8.8544 15.5884Z" fill="#808080"/>
<path d="M18.2291 22.11C19.3277 22.11 20.4263 22.11 21.5582 22.11C21.5582 25.4313 21.5582 28.7526 21.5582 32.1746C20.4596 32.1746 19.361 32.1746 18.2291 32.1746C18.2291 28.8533 18.2291 25.532 18.2291 22.11Z" fill="#808080"/>
<path d="M21.0516 17.8499C21.4096 18.1266 21.6073 18.5937 21.6667 19.0325C21.7024 19.5549 21.5994 19.9748 21.3049 20.4082C21.2889 20.4324 21.273 20.4566 21.2567 20.4815C21.0238 20.7926 20.6282 20.9807 20.2555 21.0599C20.1276 21.0736 20.0018 21.0752 19.8733 21.0735C19.8254 21.0741 19.8254 21.0741 19.7767 21.0747C19.3444 21.0728 18.9067 20.8921 18.5891 20.5969C18.3684 20.3464 18.1982 20.0459 18.1205 19.7204C18.1123 19.6868 18.1041 19.6532 18.0957 19.6185C18.0378 19.0283 18.1448 18.5495 18.4892 18.0618C19.1337 17.2777 20.2771 17.3323 21.0516 17.8499Z" fill="#808080"/>
<path d="M12.8739 35.7588C13.0291 35.7588 13.1844 35.7588 13.3443 35.7588C13.4323 36.0101 13.5002 36.2623 13.5614 36.5213C13.5709 36.5611 13.5804 36.6008 13.5902 36.6418C13.6535 36.911 13.7089 37.1804 13.7572 37.4526C13.7824 37.59 13.8144 37.7238 13.8509 37.8586C13.9192 37.7561 13.9464 37.6864 13.9794 37.5697C13.9948 37.5158 13.9948 37.5158 14.0105 37.4609C14.0267 37.4035 14.0267 37.4035 14.0431 37.345C14.1102 37.1085 14.1779 36.8732 14.2571 36.6405C14.3578 36.3428 14.3888 36.0711 14.3937 35.7588C14.537 35.7588 14.6803 35.7588 14.8279 35.7588C14.9076 35.9365 14.9711 36.1125 15.0247 36.2996C15.0363 36.3396 15.0363 36.3396 15.0482 36.3805C15.1063 36.5825 15.1575 36.7859 15.2068 36.9902C15.273 37.2594 15.3576 37.5226 15.4431 37.7862C15.5135 37.6608 15.5469 37.5346 15.582 37.3954C15.5881 37.3716 15.5941 37.3477 15.6003 37.3231C15.6197 37.246 15.6388 37.1688 15.6579 37.0915C15.6644 37.0654 15.6709 37.0393 15.6776 37.0124C15.7635 36.6675 15.8419 36.3233 15.8964 35.9719C15.9135 35.8674 15.9135 35.8674 15.9497 35.7588C16.1168 35.7588 16.284 35.7588 16.4563 35.7588C16.4401 35.9845 16.3948 36.1926 16.3375 36.4114C16.2792 36.6387 16.2338 36.8679 16.1894 37.0983C16.1217 37.4477 16.0425 37.7926 15.9517 38.1367C15.8882 38.3804 15.8436 38.6234 15.8049 38.8723C15.6258 38.8723 15.4467 38.8723 15.2621 38.8723C15.1222 38.471 15.1222 38.471 15.0856 38.2718C15.0414 38.0409 14.9694 37.8198 14.898 37.5961C14.8718 37.5138 14.8458 37.4314 14.8199 37.3489C14.8084 37.3129 14.7969 37.2769 14.7851 37.2399C14.7551 37.1328 14.7356 37.0272 14.7194 36.9173C14.6429 36.9938 14.6277 37.0313 14.5962 37.132C14.5872 37.1605 14.5782 37.1891 14.569 37.2185C14.5596 37.249 14.5503 37.2796 14.5407 37.311C14.5309 37.3424 14.5211 37.3738 14.5111 37.4062C14.4617 37.5666 14.4159 37.7267 14.3779 37.8903C14.2994 38.2244 14.1788 38.5479 14.068 38.8723C13.9008 38.8723 13.7337 38.8723 13.5614 38.8723C13.4409 38.4606 13.3355 38.0511 13.2599 37.6284C13.198 37.2908 13.115 36.9592 13.0305 36.6268C12.9574 36.3379 12.8932 36.0574 12.8739 35.7588Z" fill="#808080"/>
<path d="M3.39307 35.7588C3.56024 35.7588 3.72742 35.7588 3.89966 35.7588C4.01045 35.891 4.05708 35.9663 4.11678 36.1208C4.13784 36.1705 4.13784 36.1705 4.15932 36.2212C4.18913 36.2921 4.21826 36.3634 4.24682 36.4348C4.3371 36.6486 4.44445 36.854 4.54969 37.0607C4.61105 37.1815 4.67145 37.3029 4.73193 37.4242C4.75282 37.466 4.77372 37.5078 4.79525 37.5509C4.81764 37.5957 4.81764 37.5957 4.84048 37.6414C5.00872 37.3363 5.16159 37.0326 5.29492 36.7105C5.35984 36.5623 5.43716 36.4235 5.5167 36.2828C5.56041 36.2004 5.59422 36.1204 5.62526 36.0326C5.67275 35.9036 5.67275 35.9036 5.78131 35.7588C5.96042 35.7588 6.13954 35.7588 6.32409 35.7588C6.32409 36.7862 6.32409 37.8137 6.32409 38.8723C6.14497 38.8723 5.96585 38.8723 5.78131 38.8723C5.76936 38.2152 5.75742 37.5581 5.74512 36.8811C5.69736 36.9767 5.64959 37.0723 5.60038 37.1707C5.57818 37.2147 5.55597 37.2587 5.5331 37.3041C5.35624 37.655 5.18713 38.0092 5.02141 38.3655C4.902 38.3655 4.78259 38.3655 4.65956 38.3655C4.64535 38.3359 4.63114 38.3064 4.6165 38.276C4.56271 38.1642 4.50888 38.0525 4.45504 37.9408C4.43194 37.8928 4.40886 37.8448 4.38578 37.7969C4.35221 37.7271 4.3186 37.6574 4.28498 37.5876C4.25485 37.5251 4.25485 37.5251 4.22411 37.4612C4.12935 37.2672 4.03238 37.0743 3.93585 36.8811C3.92391 37.5382 3.91197 38.1953 3.89966 38.8723C3.73249 38.8723 3.56531 38.8723 3.39307 38.8723C3.39307 37.8448 3.39307 36.8174 3.39307 35.7588Z" fill="#808080"/>
<path d="M61.3984 35.7588C61.5537 35.7588 61.7089 35.7588 61.8688 35.7588C61.9741 35.8659 62.0214 35.9225 62.086 36.0484C62.1605 36.1773 62.2418 36.2975 62.3302 36.4172C62.5271 36.6861 62.7175 36.9585 62.9006 37.2369C62.9729 37.3426 63.0516 37.4428 63.1317 37.5427C63.1715 37.6052 63.1715 37.6052 63.1715 37.7138C63.1954 37.7138 63.2193 37.7138 63.2439 37.7138C63.2797 37.7735 63.3155 37.8333 63.3525 37.8948C63.3644 37.1899 63.3763 36.485 63.3886 35.7588C63.5558 35.7588 63.723 35.7588 63.8952 35.7588C63.959 35.8226 63.936 35.907 63.9363 35.9921C63.9362 36.0345 63.9362 36.0345 63.9361 36.0777C63.9362 36.1221 63.9362 36.1221 63.9363 36.1674C63.9365 36.2658 63.9363 36.3641 63.9362 36.4625C63.9362 36.5305 63.9363 36.5986 63.9363 36.6666C63.9364 36.8094 63.9363 36.9522 63.9361 37.095C63.9359 37.2785 63.936 37.462 63.9363 37.6455C63.9364 37.786 63.9364 37.9266 63.9363 38.0672C63.9362 38.1348 63.9363 38.2025 63.9364 38.2702C63.9364 38.3646 63.9363 38.459 63.9361 38.5534C63.9362 38.5817 63.9362 38.6099 63.9363 38.639C63.9356 38.832 63.9356 38.832 63.8952 38.8723C63.7208 38.899 63.5371 38.9229 63.3848 38.8217C63.3171 38.7457 63.2623 38.6685 63.2077 38.5827C63.187 38.5513 63.1664 38.5199 63.1451 38.4875C63.1021 38.4207 63.0597 38.3534 63.0179 38.2858C62.8839 38.0717 62.7367 37.8675 62.5812 37.6685C62.4959 37.5565 62.4462 37.4537 62.4116 37.3155C62.3877 37.3155 62.3639 37.3155 62.3393 37.3155C62.1422 37.0288 62.1422 37.0288 61.9412 36.7363C61.9293 37.4412 61.9173 38.1461 61.905 38.8723C61.7379 38.8723 61.5707 38.8723 61.3984 38.8723C61.3984 37.8448 61.3984 36.8174 61.3984 35.7588Z" fill="#808080"/>
<path d="M23.8018 35.7588C24.2722 35.7588 24.2722 35.7588 24.3896 35.8582C24.4311 35.9224 24.4311 35.9224 24.4689 35.9919C24.4907 36.0267 24.4907 36.0267 24.5129 36.0623C24.5417 36.1085 24.5697 36.1552 24.5971 36.2022C24.6437 36.2823 24.695 36.3587 24.7471 36.4353C24.7638 36.4608 24.7805 36.4862 24.7977 36.5124C24.8585 36.6024 24.9224 36.6896 24.9868 36.777C25.1196 36.9578 25.2443 37.1431 25.3662 37.3313C25.4876 37.5165 25.6183 37.6817 25.7558 37.8586C25.7677 37.1657 25.7797 36.4727 25.792 35.7588C25.9591 35.7588 26.1263 35.7588 26.2986 35.7588C26.2986 36.7862 26.2986 37.8137 26.2986 38.8723C25.8281 38.8723 25.8281 38.8723 25.7199 38.7821C25.6974 38.7417 25.6749 38.7012 25.6517 38.6596C25.6259 38.6161 25.6001 38.5726 25.5743 38.5291C25.5622 38.5074 25.5502 38.4857 25.5377 38.4634C25.4879 38.3761 25.43 38.2954 25.3713 38.2139C25.3099 38.1263 25.2485 38.0386 25.1874 37.9508C25.0763 37.7913 24.9637 37.6331 24.8489 37.4762C24.7417 37.3296 24.6393 37.181 24.5407 37.0285C24.4799 36.9398 24.4117 36.8565 24.3445 36.7725C24.3326 37.4654 24.3207 38.1584 24.3084 38.8723C24.1412 38.8723 23.974 38.8723 23.8018 38.8723C23.8018 37.8448 23.8018 36.8174 23.8018 35.7588Z" fill="#808080"/>
<path d="M68.6719 35.7588C68.8152 35.7588 68.9585 35.7588 69.1061 35.7588C69.118 35.7946 69.13 35.8305 69.1423 35.8674C69.1662 35.8674 69.1901 35.8674 69.2147 35.8674C69.2604 35.9243 69.2604 35.9243 69.3116 36.0036C69.3397 36.0465 69.3397 36.0465 69.3683 36.0902C69.3878 36.1205 69.4072 36.1507 69.4272 36.1819C69.5433 36.3609 69.6588 36.5345 69.7936 36.7001C69.8283 36.7625 69.863 36.825 69.8974 36.8876C69.9416 36.9587 69.9913 37.0178 70.0469 37.0802C70.1329 37.177 70.1975 37.2744 70.2589 37.3891C70.3309 37.5133 70.4163 37.6284 70.4997 37.745C70.5535 37.8224 70.5535 37.8224 70.5897 37.8948C70.6016 37.1899 70.6136 36.485 70.6259 35.7588C70.805 35.7588 70.9841 35.7588 71.1687 35.7588C71.1687 36.7862 71.1687 37.8137 71.1687 38.8723C70.6983 38.8723 70.6983 38.8723 70.5852 38.775C70.5516 38.7156 70.5516 38.7156 70.5173 38.6551C70.4458 38.5346 70.3717 38.4252 70.2844 38.3157C70.2086 38.2197 70.1393 38.1266 70.0808 38.0193C70.0111 37.8954 69.9326 37.7875 69.8465 37.6749C69.6489 37.4143 69.6489 37.4143 69.6489 37.3155C69.625 37.3155 69.6011 37.3155 69.5765 37.3155C69.5283 37.244 69.5283 37.244 69.4747 37.1481C69.3863 36.9901 69.2988 36.8808 69.1785 36.7363C69.1665 37.4412 69.1546 38.1461 69.1423 38.8723C68.9871 38.8723 68.8318 38.8723 68.6719 38.8723C68.6719 37.8448 68.6719 36.8174 68.6719 35.7588Z" fill="#808080"/>
<path d="M51.8093 35.7588C51.9526 35.7588 52.0959 35.7588 52.2436 35.7588C52.2555 35.7946 52.2674 35.8305 52.2797 35.8674C52.3156 35.8793 52.3514 35.8913 52.3883 35.9036C52.533 36.0939 52.533 36.0939 52.533 36.2294C52.5569 36.2294 52.5808 36.2294 52.6054 36.2294C53.0396 36.7635 53.0396 36.7635 53.0396 36.9535C53.0755 36.9655 53.1113 36.9774 53.1482 36.9897C53.1961 37.0584 53.1961 37.0584 53.2454 37.1481C53.3484 37.3276 53.4646 37.4923 53.5885 37.6579C53.6516 37.7456 53.7077 37.8383 53.7633 37.931C53.7753 37.2142 53.7872 36.4973 53.7995 35.7588C53.9667 35.7588 54.1339 35.7588 54.3061 35.7588C54.3061 36.7862 54.3061 37.8137 54.3061 38.8723C53.8357 38.8723 53.8357 38.8723 53.7204 38.7773C53.66 38.6647 53.6147 38.5613 53.5824 38.4379C53.5585 38.4379 53.5346 38.4379 53.51 38.4379C53.4615 38.3726 53.416 38.305 53.3721 38.2365C53.288 38.1067 53.204 37.9783 53.112 37.8541C53.0396 37.75 53.0396 37.75 53.0396 37.6776C53.0157 37.6776 52.9919 37.6776 52.9673 37.6776C52.9203 37.6086 52.9203 37.6086 52.8678 37.5147C52.7978 37.3938 52.7266 37.2792 52.6416 37.1685C52.5264 37.0172 52.4214 36.8583 52.3159 36.7001C52.304 37.4169 52.292 38.1338 52.2797 38.8723C52.1245 38.8723 51.9693 38.8723 51.8093 38.8723C51.8093 37.8448 51.8093 36.8174 51.8093 35.7588Z" fill="#808080"/>
<path d="M19.6765 35.7586C19.9377 35.7564 20.1989 35.7541 20.4681 35.7518C20.5906 35.7504 20.5906 35.7504 20.7157 35.7488C20.7816 35.7485 20.8474 35.7482 20.9133 35.748C20.9466 35.7475 20.9799 35.7469 21.0143 35.7463C21.2811 35.7462 21.5576 35.7693 21.7628 35.9535C21.903 36.1621 22.0081 36.3381 22.0286 36.5913C22.031 36.6177 22.0335 36.644 22.0361 36.6712C22.0497 36.9593 21.9849 37.2172 21.7979 37.4398C21.7032 37.5394 21.6106 37.6169 21.4858 37.6774C21.5016 37.6903 21.5174 37.7031 21.5337 37.7163C21.6175 37.8127 21.6508 37.9134 21.6961 38.0327C21.7149 38.0813 21.7337 38.1299 21.7525 38.1785C21.7621 38.2033 21.7717 38.2281 21.7816 38.2537C21.8465 38.4177 21.9182 38.5789 21.9887 38.7406C22.0286 38.8359 22.0286 38.8359 22.0286 38.8721C21.9403 38.877 21.8523 38.8806 21.764 38.8835C21.739 38.885 21.714 38.8865 21.6883 38.8881C21.6151 38.8898 21.6151 38.8898 21.4858 38.8721C21.3905 38.7567 21.3512 38.6256 21.3006 38.4854C21.1685 38.0835 21.1685 38.0835 20.9068 37.786C20.8545 37.7806 20.8019 37.777 20.7494 37.7746C20.7216 37.7732 20.6939 37.7718 20.6653 37.7704C20.6301 37.7688 20.5948 37.7673 20.5585 37.7657C20.4466 37.7604 20.3346 37.7552 20.2193 37.7498C20.2193 38.1202 20.2193 38.4906 20.2193 38.8721C20.0402 38.8721 19.8611 38.8721 19.6765 38.8721C19.6765 37.8447 19.6765 36.8172 19.6765 35.7586ZM20.2193 36.2293C20.2193 36.5877 20.2193 36.9461 20.2193 37.3154C20.4264 37.3187 20.4264 37.3187 20.6377 37.3222C20.6807 37.3232 20.7238 37.3242 20.7681 37.3252C20.9871 37.3269 21.1504 37.3191 21.341 37.2068C21.4716 37.0715 21.522 36.8837 21.522 36.6999C21.4547 36.4252 21.4547 36.4252 21.2687 36.2293C21.1563 36.2192 21.1563 36.2192 21.0285 36.2222C20.9862 36.2224 20.9438 36.2226 20.9002 36.2228C20.8195 36.2237 20.8195 36.2237 20.7372 36.2248C20.5663 36.2262 20.3954 36.2277 20.2193 36.2293Z" fill="#808080"/>
<path d="M12.0456 35.911C12.1605 35.998 12.2192 36.092 12.2584 36.2295C12.2823 36.2295 12.3062 36.2295 12.3308 36.2295C12.3605 36.3033 12.3898 36.3773 12.419 36.4512C12.4354 36.4924 12.4518 36.5336 12.4686 36.576C12.5533 36.8198 12.5545 37.0533 12.5547 37.3088C12.5552 37.3431 12.5556 37.3774 12.5561 37.4127C12.5568 37.7915 12.4748 38.0705 12.2946 38.4017C12.2797 38.4346 12.2648 38.4674 12.2494 38.5013C12.058 38.7475 11.7635 38.866 11.4624 38.9086C11.0076 38.9469 10.5217 38.9458 10.1439 38.6551C9.79752 38.3152 9.69566 37.8144 9.6825 37.3473C9.68997 36.8728 9.75715 36.3757 10.0873 36.0123C10.5795 35.5919 11.497 35.5991 12.0456 35.911ZM10.413 36.4467C10.2682 36.721 10.2186 37.0006 10.2208 37.3066C10.2208 37.3347 10.2208 37.3629 10.2209 37.392C10.2248 37.6302 10.266 37.8491 10.3406 38.0759C10.3645 38.0759 10.3884 38.0759 10.413 38.0759C10.4205 38.096 10.4279 38.1162 10.4356 38.137C10.5235 38.285 10.6487 38.3838 10.811 38.4379C11.2978 38.4851 11.2978 38.4851 11.7267 38.2918C11.9891 37.9876 12.0587 37.6047 12.0502 37.2138C12.0244 36.8783 11.9613 36.5801 11.7157 36.3381C11.3521 36.0631 10.7217 36.1308 10.413 36.4467Z" fill="#808080"/>
<path d="M74.1357 35.831C74.1357 35.9863 74.1357 36.1417 74.1357 36.3017C74.1033 36.2964 74.0708 36.2912 74.0373 36.2858C73.3151 36.1612 73.3151 36.1612 72.6469 36.3582C72.4527 36.5319 72.3748 36.7003 72.3265 36.9533C72.3182 36.9952 72.31 37.037 72.3016 37.0801C72.271 37.4226 72.2535 37.8254 72.4548 38.1219C72.6243 38.2994 72.7996 38.4061 73.049 38.4134C73.1158 38.413 73.1825 38.412 73.2492 38.4105C73.2826 38.4103 73.3161 38.4102 73.3505 38.41C73.523 38.408 73.6741 38.394 73.8462 38.3653C73.8462 38.0905 73.8462 37.8157 73.8462 37.5326C73.5955 37.5326 73.3447 37.5326 73.0863 37.5326C73.0863 37.4012 73.0863 37.2698 73.0863 37.1344C73.4924 37.1344 73.8984 37.1344 74.3167 37.1344C74.3208 37.3541 74.3244 37.5737 74.3266 37.7935C74.3275 37.8683 74.3287 37.943 74.3303 38.0178C74.3325 38.1252 74.3335 38.2326 74.3343 38.34C74.3357 38.3902 74.3357 38.3902 74.3372 38.4415C74.3372 38.5284 74.3358 38.6063 74.3167 38.6911C74.2308 38.7652 74.2308 38.7652 74.1357 38.7997C74.1056 38.8111 74.0755 38.8224 74.0444 38.8341C73.5319 38.9668 72.8437 39.0183 72.3626 38.7635C72.0155 38.532 71.8577 38.2309 71.7619 37.8318C71.7343 37.6747 71.7352 37.5175 71.7362 37.3584C71.7364 37.323 71.7365 37.2877 71.7367 37.2513C71.7407 37.005 71.7599 36.7843 71.856 36.5551C71.8684 36.5242 71.8807 36.4932 71.8934 36.4613C72.0383 36.1355 72.2295 35.9274 72.5639 35.7948C73.0577 35.6343 73.6478 35.6705 74.1357 35.831Z" fill="#808080"/>
<path d="M28.404 35.7111C28.4408 35.7112 28.4776 35.7112 28.5156 35.7113C28.7845 35.7147 29.0091 35.7467 29.2656 35.831C29.2656 35.9864 29.2656 36.1417 29.2656 36.3017C29.194 36.2897 29.1223 36.2778 29.0485 36.2655C28.638 36.2072 28.1134 36.1329 27.7571 36.3854C27.5138 36.6194 27.4489 36.9348 27.4349 37.2592C27.4305 37.6044 27.4563 37.9392 27.6925 38.2119C27.8383 38.3414 27.9769 38.4106 28.1706 38.4111C28.2196 38.4113 28.2196 38.4113 28.2696 38.4114C28.3035 38.4111 28.3374 38.4108 28.3723 38.4106C28.4058 38.4108 28.4392 38.4111 28.4737 38.4114C28.5229 38.4113 28.5229 38.4113 28.5732 38.4111C28.6175 38.411 28.6175 38.411 28.6628 38.4109C28.7872 38.4017 28.7872 38.4017 29.0123 38.3291C29.0243 38.0663 29.0362 37.8034 29.0485 37.5326C28.7977 37.5326 28.547 37.5326 28.2886 37.5326C28.2886 37.4012 28.2886 37.2698 28.2886 37.1344C28.6707 37.1344 29.0529 37.1344 29.4466 37.1344C29.4499 37.3541 29.4528 37.5738 29.4545 37.7935C29.4552 37.8683 29.4562 37.9431 29.4575 38.0178C29.4592 38.1252 29.46 38.2326 29.4607 38.34C29.4614 38.3735 29.4622 38.407 29.463 38.4415C29.463 38.673 29.463 38.673 29.3793 38.7652C28.9057 38.9762 28.2051 38.9994 27.7119 38.8495C27.5395 38.7786 27.3658 38.6859 27.2392 38.5463C27.2392 38.5105 27.2392 38.4746 27.2392 38.4377C27.2034 38.4258 27.1676 38.4138 27.1307 38.4015C26.8356 37.9679 26.8231 37.4036 26.8955 36.8999C26.9779 36.5374 27.1345 36.1866 27.4202 35.9397C27.525 35.8772 27.6301 35.8328 27.7458 35.7948C27.7826 35.7819 27.8194 35.769 27.8574 35.7557C28.037 35.7055 28.2188 35.7102 28.404 35.7111Z" fill="#808080"/>
<path d="M44.9701 35.7588C45.1373 35.7588 45.3044 35.7588 45.4767 35.7588C45.4767 36.1889 45.4767 36.619 45.4767 37.0621C45.9424 37.0621 46.4081 37.0621 46.8879 37.0621C46.8879 36.632 46.8879 36.2019 46.8879 35.7588C47.0551 35.7588 47.2223 35.7588 47.3945 35.7588C47.3945 36.7862 47.3945 37.8137 47.3945 38.8723C47.2273 38.8723 47.0602 38.8723 46.8879 38.8723C46.8879 38.4422 46.8879 38.0121 46.8879 37.569C46.4222 37.569 45.9565 37.569 45.4767 37.569C45.4767 37.9991 45.4767 38.4292 45.4767 38.8723C45.3095 38.8723 45.1423 38.8723 44.9701 38.8723C44.9701 37.8448 44.9701 36.8174 44.9701 35.7588Z" fill="#808080"/>
<path d="M31.256 35.7588C31.4232 35.7588 31.5903 35.7588 31.7626 35.7588C31.7626 36.1889 31.7626 36.619 31.7626 37.0621C32.2283 37.0621 32.694 37.0621 33.1738 37.0621C33.1738 36.632 33.1738 36.2019 33.1738 35.7588C33.341 35.7588 33.5082 35.7588 33.6804 35.7588C33.6804 36.7862 33.6804 37.8137 33.6804 38.8723C33.5132 38.8723 33.3461 38.8723 33.1738 38.8723C33.1738 38.4422 33.1738 38.0121 33.1738 37.569C32.7081 37.569 32.2424 37.569 31.7626 37.569C31.7626 37.9991 31.7626 38.4292 31.7626 38.8723C31.5954 38.8723 31.4282 38.8723 31.256 38.8723C31.256 37.8448 31.256 36.8174 31.256 35.7588Z" fill="#808080"/>
<path d="M83.0371 35.7588C83.7416 35.7588 84.4462 35.7588 85.1721 35.7588C85.1721 35.9022 85.1721 36.0455 85.1721 36.1932C84.6466 36.1932 84.1212 36.1932 83.5799 36.1932C83.5799 36.4919 83.5799 36.7906 83.5799 37.0983C84.0456 37.0983 84.5113 37.0983 84.9911 37.0983C84.9911 37.2417 84.9911 37.3851 84.9911 37.5328C84.5254 37.5328 84.0597 37.5328 83.5799 37.5328C83.5799 37.8314 83.5799 38.1301 83.5799 38.4379C84.1053 38.4379 84.6307 38.4379 85.1721 38.4379C85.1721 38.5812 85.1721 38.7246 85.1721 38.8723C84.4675 38.8723 83.763 38.8723 83.0371 38.8723C83.0371 37.8448 83.0371 36.8174 83.0371 35.7588Z" fill="#808080"/>
<path d="M17.035 35.7588C17.7396 35.7588 18.4441 35.7588 19.17 35.7588C19.17 35.8902 19.17 36.0216 19.17 36.157C19.1338 36.1932 19.1338 36.1932 19.0704 36.1976C19.0428 36.1975 19.0152 36.1974 18.9868 36.1973C18.9557 36.1973 18.9246 36.1973 18.8925 36.1973C18.8586 36.1971 18.8248 36.197 18.7899 36.1968C18.7554 36.1967 18.7209 36.1967 18.6854 36.1966C18.5748 36.1964 18.4642 36.196 18.3535 36.1955C18.2787 36.1953 18.2039 36.1951 18.1291 36.195C17.9454 36.1946 17.7616 36.1939 17.5778 36.1932C17.5778 36.4919 17.5778 36.7906 17.5778 37.0983C18.0435 37.0983 18.5092 37.0983 18.989 37.0983C18.989 37.2417 18.989 37.3851 18.989 37.5328C18.5233 37.5328 18.0576 37.5328 17.5778 37.5328C17.5778 37.8314 17.5778 38.1301 17.5778 38.4379C17.6897 38.4374 17.8016 38.437 17.9169 38.4366C18.0248 38.4363 18.1327 38.4361 18.2406 38.4359C18.3158 38.4357 18.3911 38.4354 18.4663 38.4351C18.5741 38.4347 18.682 38.4345 18.7899 38.4343C18.8407 38.434 18.8407 38.434 18.8925 38.4338C18.9236 38.4338 18.9548 38.4338 18.9868 38.4338C19.0144 38.4337 19.042 38.4336 19.0704 38.4335C19.1338 38.4379 19.1338 38.4379 19.17 38.4741C19.17 38.6055 19.17 38.7369 19.17 38.8723C18.4654 38.8723 17.7609 38.8723 17.035 38.8723C17.035 37.8448 17.035 36.8174 17.035 35.7588Z" fill="#808080"/>
<path d="M54.9937 35.7588C55.1489 35.7588 55.3041 35.7588 55.4641 35.7588C55.4641 36.1889 55.4641 36.619 55.4641 37.0621C55.9417 37.0621 56.4194 37.0621 56.9115 37.0621C56.9115 36.632 56.9115 36.2019 56.9115 35.7588C57.0667 35.7588 57.222 35.7588 57.3819 35.7588C57.3819 36.7862 57.3819 37.8137 57.3819 38.8723C57.2267 38.8723 57.0714 38.8723 56.9115 38.8723C56.9115 38.4422 56.9115 38.0121 56.9115 37.569C56.4338 37.569 55.9562 37.569 55.4641 37.569C55.4641 37.9991 55.4641 38.4292 55.4641 38.8723C55.3088 38.8723 55.1536 38.8723 54.9937 38.8723C54.9937 37.8448 54.9937 36.8174 54.9937 35.7588Z" fill="#808080"/>
<path d="M6.97546 35.7588C8.71237 35.7588 8.71237 35.7588 8.99506 35.9285C9.18289 36.1272 9.28463 36.3137 9.29133 36.5915C9.29273 36.626 9.29413 36.6605 9.29557 36.6961C9.30382 37.0612 9.25902 37.324 9.00909 37.6063C8.72724 37.8586 8.31623 37.841 7.96152 37.8314C7.8033 37.8285 7.64508 37.8255 7.48206 37.8224C7.48206 38.1689 7.48206 38.5153 7.48206 38.8723C7.31488 38.8723 7.14771 38.8723 6.97546 38.8723C6.97546 37.8448 6.97546 36.8174 6.97546 35.7588ZM7.48206 36.2294C7.48206 36.5998 7.48206 36.9702 7.48206 37.3518C7.70708 37.3562 7.70708 37.3562 7.93664 37.3608C7.98345 37.3621 8.03026 37.3634 8.07849 37.3648C8.32144 37.3671 8.48318 37.3609 8.67618 37.2069C8.79024 37.0606 8.83335 36.8954 8.82092 36.7114C8.79513 36.5611 8.73955 36.4552 8.63999 36.338C8.60417 36.3261 8.56835 36.3142 8.53144 36.3018C8.53144 36.2779 8.53144 36.2541 8.53144 36.2294C8.18514 36.2294 7.83885 36.2294 7.48206 36.2294Z" fill="#808080"/>
<path d="M0.751709 35.7588C1.4443 35.7588 2.13689 35.7588 2.85046 35.7588C2.85046 35.9022 2.85046 36.0455 2.85046 36.1932C2.32505 36.1932 1.79964 36.1932 1.25831 36.1932C1.25831 36.4919 1.25831 36.7906 1.25831 37.0983C1.72401 37.0983 2.18972 37.0983 2.66954 37.0983C2.66954 37.2417 2.66954 37.3851 2.66954 37.5328C2.20383 37.5328 1.73812 37.5328 1.25831 37.5328C1.25831 37.8314 1.25831 38.1301 1.25831 38.4379C1.78372 38.4379 2.30913 38.4379 2.85046 38.4379C2.85046 38.5812 2.85046 38.7246 2.85046 38.8723C2.15788 38.8723 1.46529 38.8723 0.751709 38.8723C0.751709 37.8448 0.751709 36.8174 0.751709 35.7588Z" fill="#808080"/>
<path d="M34.3679 35.7588C35.0486 35.7588 35.7292 35.7588 36.4305 35.7588C36.4305 35.9022 36.4305 36.0455 36.4305 36.1932C35.917 36.1932 35.4035 36.1932 34.8745 36.1932C34.8745 36.4919 34.8745 36.7906 34.8745 37.0983C35.3402 37.0983 35.8059 37.0983 36.2857 37.0983C36.2857 37.2417 36.2857 37.3851 36.2857 37.5328C35.82 37.5328 35.3543 37.5328 34.8745 37.5328C34.8745 37.8314 34.8745 38.1301 34.8745 38.4379C35.388 38.4379 35.9015 38.4379 36.4305 38.4379C36.4305 38.5812 36.4305 38.7246 36.4305 38.8723C35.7498 38.8723 35.0692 38.8723 34.3679 38.8723C34.3679 37.8448 34.3679 36.8174 34.3679 35.7588Z" fill="#808080"/>
<path d="M49.1678 35.7588C49.8604 35.7588 50.553 35.7588 51.2666 35.7588C51.2666 35.9022 51.2666 36.0455 51.2666 36.1932C50.7292 36.1932 50.1919 36.1932 49.6383 36.1932C49.6383 36.4919 49.6383 36.7906 49.6383 37.0983C50.1159 37.0983 50.5936 37.0983 51.0857 37.0983C51.0857 37.2417 51.0857 37.3851 51.0857 37.5328C50.608 37.5328 50.1304 37.5328 49.6383 37.5328C49.6383 37.8314 49.6383 38.1301 49.6383 38.4379C50.1756 38.4379 50.713 38.4379 51.2666 38.4379C51.2666 38.5812 51.2666 38.7246 51.2666 38.8723C50.574 38.8723 49.8814 38.8723 49.1678 38.8723C49.1678 37.8448 49.1678 36.8174 49.1678 35.7588Z" fill="#808080"/>
<path d="M59.1187 35.7588C59.3098 35.7588 59.5008 35.7588 59.6977 35.7588C59.877 36.1758 59.877 36.1758 59.9283 36.3629C59.9763 36.5335 60.0427 36.6934 60.1115 36.8562C60.2046 37.0765 60.2812 37.2957 60.3477 37.5257C60.39 37.6563 60.4427 37.7808 60.4983 37.9061C60.6116 38.1627 60.6116 38.1627 60.643 38.3021C60.6777 38.4509 60.7308 38.5835 60.7903 38.7238C60.8194 38.7999 60.8194 38.7999 60.8194 38.8723C60.6403 38.8723 60.4612 38.8723 60.2766 38.8723C60.1811 38.6214 60.0856 38.3705 59.9871 38.112C59.5931 38.1001 59.199 38.0881 58.793 38.0758C58.7691 38.1833 58.7453 38.2909 58.7207 38.4017C58.692 38.481 58.6613 38.5596 58.6279 38.637C58.6122 38.6739 58.5965 38.7109 58.5803 38.749C58.5397 38.8361 58.5397 38.8361 58.5035 38.8723C58.4184 38.8749 58.3332 38.8753 58.248 38.8746C58.1779 38.8741 58.1779 38.8741 58.1065 38.8736C58.0703 38.8732 58.0342 38.8727 57.9969 38.8723C58.058 38.5591 58.1652 38.2746 58.288 37.9811C58.3622 37.8024 58.4231 37.6245 58.4767 37.4385C58.5179 37.3052 58.5725 37.1787 58.6279 37.0508C58.7221 36.8285 58.7991 36.6069 58.8664 36.3748C58.9141 36.2269 58.9774 36.0886 59.0445 35.9486C59.0859 35.8643 59.0859 35.8643 59.1187 35.7588ZM59.372 36.3743C59.2203 36.737 59.2203 36.737 59.0961 37.1096C59.043 37.2908 58.9716 37.4661 58.9016 37.6414C59.224 37.6414 59.5464 37.6414 59.8786 37.6414C59.8219 37.3688 59.8219 37.3688 59.7225 37.13C59.6059 36.8859 59.526 36.6316 59.4444 36.3743C59.4205 36.3743 59.3966 36.3743 59.372 36.3743Z" fill="#808080"/>
<path d="M38.0227 35.7588C38.2138 35.7588 38.4049 35.7588 38.6017 35.7588C38.66 35.902 38.718 36.0453 38.7759 36.1887C38.7922 36.2288 38.8086 36.269 38.8254 36.3103C38.9094 36.5188 38.9849 36.7256 39.0466 36.9416C39.089 37.0816 39.1441 37.2162 39.1988 37.3518C39.2782 37.5515 39.3494 37.7491 39.407 37.9563C39.451 38.0921 39.5133 38.2192 39.5736 38.3483C39.662 38.54 39.6873 38.6567 39.6873 38.8723C39.532 38.8723 39.3768 38.8723 39.2169 38.8723C39.0774 38.6182 39.0168 38.4026 38.9274 38.112C38.5214 38.1001 38.1154 38.0881 37.6971 38.0758C37.6851 38.1475 37.6732 38.2192 37.6609 38.293C37.6392 38.3607 37.6158 38.4279 37.5908 38.4944C37.5785 38.5273 37.5663 38.5602 37.5536 38.5941C37.5177 38.6871 37.4808 38.7797 37.4438 38.8723C37.2647 38.8723 37.0855 38.8723 36.901 38.8723C36.9719 38.6308 37.048 38.3924 37.1317 38.155C37.1482 38.1079 37.1482 38.1079 37.1651 38.0599C37.2404 37.8466 37.319 37.6351 37.4025 37.4249C37.4355 37.3376 37.4653 37.2506 37.4941 37.162C37.5639 36.9501 37.6495 36.745 37.7347 36.5389C37.809 36.3563 37.872 36.1742 37.9247 35.9841C37.9504 35.9036 37.9504 35.9036 38.0227 35.7588ZM38.276 36.338C38.2655 36.3714 38.255 36.4047 38.2441 36.439C38.152 36.7251 38.0488 36.9983 37.9227 37.2714C37.8657 37.4072 37.8657 37.4072 37.8418 37.6414C38.1523 37.6414 38.4628 37.6414 38.7826 37.6414C38.7085 37.2706 38.5831 36.9319 38.4208 36.5915C38.3838 36.5073 38.348 36.4227 38.3122 36.338C38.3003 36.338 38.2884 36.338 38.276 36.338Z" fill="#808080"/>
<path d="M87.5242 35.8311C87.5242 35.9744 87.5242 36.1178 87.5242 36.2655C87.4744 36.2568 87.4246 36.2481 87.3732 36.2392C86.7385 36.1252 86.7385 36.1252 86.1491 36.3379C86.065 36.4541 86.0596 36.5593 86.0768 36.7C86.1778 36.8563 86.2627 36.9104 86.4392 36.9636C86.4815 36.9769 86.5238 36.9902 86.5674 37.0039C86.6115 37.0171 86.6556 37.0303 86.701 37.0439C87.4456 37.2699 87.4456 37.2699 87.6689 37.605C87.7707 37.8662 87.7697 38.1297 87.6719 38.3916C87.5616 38.6236 87.4204 38.7638 87.1782 38.8541C86.6796 38.9837 86.0959 38.9545 85.6064 38.7998C85.5702 38.7636 85.5702 38.7636 85.5666 38.665C85.5671 38.6251 85.5675 38.5852 85.5679 38.5441C85.5682 38.5041 85.5686 38.4641 85.5689 38.4229C85.5693 38.3919 85.5697 38.361 85.5702 38.3291C85.6112 38.3396 85.6523 38.35 85.6946 38.3608C86.0964 38.4482 86.5844 38.5516 86.9814 38.4015C87.1167 38.2584 87.1167 38.2584 87.1643 38.0748C87.1622 38.0467 87.16 38.0187 87.1578 37.9897C87.1562 37.9618 87.1546 37.9339 87.153 37.9051C87.1142 37.7855 87.0475 37.749 86.9452 37.6774C86.8315 37.629 86.8315 37.629 86.7069 37.5917C86.6608 37.5767 86.6147 37.5617 86.5687 37.5466C86.497 37.5237 86.4252 37.501 86.3534 37.4785C85.7509 37.2887 85.7509 37.2887 85.6013 37.0258C85.5026 36.7964 85.5063 36.4705 85.5739 36.2316C85.671 36.0085 85.8206 35.8682 86.0451 35.7768C86.5079 35.6446 87.0699 35.6796 87.5242 35.8311Z" fill="#808080"/>
<path d="M79.7083 35.7588C79.8874 35.7588 80.0665 35.7588 80.251 35.7588C80.4303 36.2146 80.4303 36.2146 80.4817 36.3991C80.54 36.6037 80.6206 36.7988 80.6989 36.9963C80.7775 37.196 80.8429 37.397 80.9032 37.6031C80.9628 37.7899 81.0407 37.9689 81.1195 38.1482C81.1331 38.1097 81.1466 38.0711 81.1606 38.0314C81.302 37.63 81.4435 37.2286 81.5893 36.8288C81.6021 36.7938 81.6149 36.7587 81.628 36.7227C81.6532 36.6536 81.6784 36.5845 81.7037 36.5155C81.7691 36.3364 81.8319 36.1571 81.8897 35.9754C81.9156 35.9036 81.9156 35.9036 81.9879 35.7588C82.1671 35.7588 82.3462 35.7588 82.5307 35.7588C82.456 36.0165 82.3714 36.2678 82.2774 36.5191C82.2599 36.5662 82.2425 36.6133 82.225 36.6603C82.1469 36.87 82.0689 37.0794 81.9834 37.2861C81.9298 37.4178 81.8877 37.5503 81.8477 37.6866C81.7826 37.9052 81.6962 38.1094 81.604 38.3178C81.5471 38.4536 81.5035 38.5896 81.4648 38.7315C81.4452 38.7999 81.4452 38.7999 81.409 38.8723C81.2179 38.8723 81.0268 38.8723 80.83 38.8723C80.8151 38.8319 80.8001 38.7915 80.7848 38.7498C80.7419 38.6354 80.6973 38.5219 80.6513 38.4087C80.6391 38.3786 80.6269 38.3485 80.6143 38.3175C80.5893 38.2562 80.5643 38.1949 80.5391 38.1337C80.4657 37.9524 80.4047 37.7714 80.3504 37.5837C80.3082 37.4474 80.253 37.3175 80.1968 37.1866C80.1197 37.0062 80.0502 36.8261 79.9897 36.6395C79.9296 36.4596 79.8605 36.2828 79.793 36.1056C79.7821 36.0763 79.7711 36.0471 79.7598 36.017C79.7499 35.9908 79.74 35.9647 79.7298 35.9377C79.7083 35.8674 79.7083 35.8674 79.7083 35.7588Z" fill="#808080"/>
<path d="M65.9985 35.7135C66.034 35.7127 66.0695 35.712 66.1062 35.7112C66.3599 35.7099 66.5866 35.7455 66.8262 35.8311C66.8624 35.8673 66.8624 35.8673 66.8659 35.9738C66.8655 36.0171 66.8651 36.0604 66.8646 36.1049C66.8643 36.1483 66.864 36.1916 66.8637 36.2363C66.8632 36.2699 66.8628 36.3034 66.8624 36.338C66.8269 36.3302 66.7914 36.3223 66.7548 36.3142C66.4119 36.242 66.0924 36.2076 65.7406 36.2294C65.7116 36.2311 65.6825 36.2327 65.6526 36.2345C65.4562 36.2636 65.351 36.3862 65.2254 36.5271C65.0603 36.7875 65.035 37.0489 65.0373 37.3517C65.0366 37.3855 65.0358 37.4193 65.0351 37.4541C65.0353 37.7271 65.0911 37.9485 65.269 38.1605C65.2925 38.1796 65.3161 38.1987 65.3403 38.2183C65.3755 38.2479 65.3755 38.2479 65.4114 38.2781C65.6186 38.4175 65.8098 38.4142 66.0527 38.4129C66.0883 38.4129 66.1238 38.4128 66.1605 38.4128C66.4109 38.4095 66.6255 38.3792 66.8624 38.293C66.8624 38.4603 66.8624 38.6275 66.8624 38.7998C66.3223 38.958 65.6068 39.0308 65.0893 38.7636C64.7421 38.5071 64.5849 38.2061 64.5103 37.7861C64.5026 37.6504 64.5036 37.5147 64.5035 37.3788C64.5031 37.3427 64.5027 37.3065 64.5022 37.2692C64.5018 37.0448 64.525 36.8442 64.5827 36.6276C64.592 36.5864 64.592 36.5864 64.6014 36.5443C64.6642 36.2745 64.8483 36.081 65.0531 35.9035C65.3528 35.7316 65.6609 35.7152 65.9985 35.7135Z" fill="#808080"/>
<path d="M76.0896 35.7588C76.2687 35.7588 76.4478 35.7588 76.6324 35.7588C76.6324 36.6429 76.6324 37.527 76.6324 38.4379C77.1339 38.4379 77.6354 38.4379 78.1522 38.4379C78.1522 38.5812 78.1522 38.7246 78.1522 38.8723C77.4715 38.8723 76.7909 38.8723 76.0896 38.8723C76.0896 37.8448 76.0896 36.8174 76.0896 35.7588Z" fill="#808080"/>
<path d="M42.0391 35.7588C42.8391 35.7588 43.6392 35.7588 44.4635 35.7588C44.4635 35.9022 44.4635 36.0455 44.4635 36.1932C44.1411 36.1932 43.8187 36.1932 43.4865 36.1932C43.4865 37.0773 43.4865 37.9614 43.4865 38.8723C43.3312 38.8723 43.176 38.8723 43.0161 38.8723C43.0161 37.9882 43.0161 37.1041 43.0161 36.1932C42.6937 36.1932 42.3712 36.1932 42.0391 36.1932C42.0391 36.0499 42.0391 35.9065 42.0391 35.7588Z" fill="#808080"/>
<path d="M40.3022 35.7588C40.4694 35.7588 40.6366 35.7588 40.8088 35.7588C40.8088 36.6429 40.8088 37.527 40.8088 38.4379C41.3104 38.4379 41.8119 38.4379 42.3286 38.4379C42.3286 38.5812 42.3286 38.7246 42.3286 38.8723C41.6599 38.8723 40.9912 38.8723 40.3022 38.8723C40.3022 37.8448 40.3022 36.8174 40.3022 35.7588Z" fill="#808080"/>
<path d="M78.6588 35.7588C78.826 35.7588 78.9932 35.7588 79.1654 35.7588C79.1654 36.7862 79.1654 37.8137 79.1654 38.8723C78.9982 38.8723 78.8311 38.8723 78.6588 38.8723C78.6588 37.8448 78.6588 36.8174 78.6588 35.7588Z" fill="#808080"/>
<path d="M22.6077 35.7588C22.7748 35.7588 22.942 35.7588 23.1143 35.7588C23.1143 36.7862 23.1143 37.8137 23.1143 38.8723C22.9471 38.8723 22.7799 38.8723 22.6077 38.8723C22.6077 37.8448 22.6077 36.8174 22.6077 35.7588Z" fill="#808080"/>
<path d="M67.4775 35.7588C67.6328 35.7588 67.788 35.7588 67.9479 35.7588C67.9479 36.7862 67.9479 37.8137 67.9479 38.8723C67.7927 38.8723 67.6375 38.8723 67.4775 38.8723C67.4775 37.8448 67.4775 36.8174 67.4775 35.7588Z" fill="#808080"/>
<path d="M48.1183 38.5103C48.2616 38.5103 48.4049 38.5103 48.5526 38.5103C48.5183 38.8355 48.4785 39.1406 48.3716 39.4515C48.2522 39.4515 48.1328 39.4515 48.0098 39.4515C48.0038 39.2333 48.0253 39.0325 48.0641 38.818C48.0692 38.7882 48.0744 38.7584 48.0798 38.7278C48.0924 38.6552 48.1053 38.5827 48.1183 38.5103Z" fill="#808080"/>
</g>
</svg>
