<svg width="61" height="47" viewBox="0 0 61 47" fill="none" xmlns="http://www.w3.org/2000/svg">
<path d="M0.906982 -0.00012207C20.707 -0.00012207 40.507 -0.00012207 60.907 -0.00012207C60.907 11.8192 60.907 23.6386 60.907 35.8161C47.1507 35.8161 33.3945 35.8161 19.2213 35.8161C19.2213 33.5737 19.2213 31.3313 19.2213 29.021C30.7676 29.021 42.3138 29.021 54.2099 29.021C54.2099 21.7331 54.2099 14.4453 54.2099 6.93662C38.83 6.93662 23.45 6.93662 7.60402 6.93662C7.60402 20.1575 7.60402 33.3784 7.60402 46.9999C5.394 46.9999 3.18398 46.9999 0.906982 46.9999C0.906982 31.4899 0.906982 15.9799 0.906982 -0.00012207Z" fill="#B3B3B3"/>
</svg>
