<svg width="26" height="30" viewBox="0 0 26 30" fill="none" xmlns="http://www.w3.org/2000/svg">
<g id="Group 6">
<path id="Vector" d="M12.074 0C12.1255 0 12.1769 0 12.2299 0C12.79 1.11086 13.3426 2.22442 13.8769 3.34791C14.1296 3.87915 14.3858 4.40874 14.642 4.93831C15.0418 5.76514 15.4403 6.59261 15.8373 7.42082C15.8914 7.53369 15.8914 7.53369 15.9466 7.64884C15.9781 7.71444 16.0095 7.78004 16.0419 7.84762C16.1246 8.02421 16.1246 8.02421 16.2174 8.18104C16.3016 8.37893 16.3086 8.51396 16.2841 8.72727C16.2012 8.87676 16.2012 8.87676 16.0837 9.02009C16.0401 9.07446 15.9965 9.12883 15.9515 9.18486C15.9037 9.24278 15.8558 9.30071 15.8065 9.36039C15.7053 9.48657 15.6042 9.61289 15.5032 9.73935C15.4513 9.8041 15.3994 9.86885 15.3459 9.93556C15.1084 10.2366 14.8824 10.5456 14.6566 10.8555C14.2695 11.3846 13.876 11.9082 13.4774 12.4286C13.0823 12.9444 12.6919 13.463 12.3079 13.987C11.8723 14.5814 11.4275 15.168 10.9795 15.753C10.6379 16.1999 10.3015 16.6502 9.96898 17.1039C9.58496 17.6279 9.19451 18.1465 8.79952 18.6623C8.21825 19.4217 7.64931 20.1895 7.08431 20.961C6.96054 21.1297 6.83672 21.2983 6.71289 21.4669C6.55073 21.6878 6.38872 21.9088 6.2267 22.1299C7.55557 22.1385 8.88301 22.1343 10.2114 22.0958C10.2707 22.0941 10.33 22.0924 10.3911 22.0906C10.8762 22.0764 11.3612 22.0614 11.8463 22.0463C12.2694 22.0331 12.6925 22.0203 13.1156 22.0081C13.1746 22.0064 13.2336 22.0047 13.2944 22.003C14.6807 21.964 16.0668 21.9662 17.4535 21.974C17.1762 22.1896 16.886 22.3399 16.5685 22.4875C16.484 22.5273 16.484 22.5273 16.3978 22.5679C16.2139 22.6544 16.0297 22.7404 15.8455 22.8263C15.7174 22.8864 15.5894 22.9465 15.4613 23.0066C14.5738 23.4228 13.6844 23.8349 12.7937 24.2441C12.2884 24.4763 11.784 24.7104 11.2797 24.9448C10.4575 25.3268 9.63448 25.7069 8.81109 26.0863C7.63789 26.6269 6.46606 27.1704 5.2957 27.7171C4.65675 28.0156 4.01716 28.3127 3.37717 28.609C2.95219 28.8057 2.52751 29.0031 2.10379 29.2026C1.90118 29.2979 1.69841 29.393 1.49563 29.488C1.39866 29.5335 1.30177 29.5792 1.20497 29.6251C1.07117 29.6885 0.937106 29.7513 0.803025 29.814C0.726689 29.85 0.650352 29.886 0.571702 29.9231C0.3794 30 0.3794 30 0.145508 30C0.201912 29.6192 0.344231 29.2808 0.486867 28.9259C0.514268 28.857 0.541669 28.7881 0.5699 28.7171C0.661803 28.4861 0.754187 28.2553 0.846575 28.0246C0.912394 27.8595 0.978186 27.6944 1.04395 27.5293C1.223 27.08 1.40249 26.631 1.58206 26.182C1.73379 25.8024 1.88526 25.4228 2.03673 25.0432C3.17229 22.1973 4.31463 19.3541 5.45921 16.5118C6.58244 13.7225 7.69783 10.9301 8.80938 8.1361C9.88962 5.42081 10.9739 2.70733 12.074 0Z" fill="#3686CD"/>
<path id="Vector_2" d="M16.9858 9.74023C17.0372 9.74023 17.0887 9.74023 17.1417 9.74023C17.6905 10.9551 18.2327 12.1723 18.761 13.3962C19.1272 14.2441 19.4985 15.0897 19.8704 15.935C20.3178 16.952 20.7631 17.9699 21.2043 18.9896C21.543 19.7722 21.8831 20.5543 22.224 21.336C22.2517 21.3995 22.2793 21.4629 22.3078 21.5283C22.777 22.604 23.2488 23.6785 23.7213 24.7528C24.1499 25.7275 24.5767 26.7029 24.9982 27.6807C25.1675 28.073 25.3373 28.4647 25.514 28.8537C25.5408 28.913 25.5675 28.9723 25.5951 29.0334C25.662 29.1808 25.7297 29.3279 25.7975 29.4749C25.8737 29.6883 25.8737 29.6883 25.7957 29.9221C25.3678 29.4962 24.9401 29.0701 24.5127 28.6437C24.3141 28.4457 24.1155 28.2478 23.9168 28.05C23.7245 27.8587 23.5324 27.6672 23.3405 27.4755C23.2325 27.3678 23.1244 27.2604 23.0162 27.1529C22.675 26.8119 22.3469 26.4661 22.0325 26.1004C21.7786 25.8139 21.5045 25.5474 21.2324 25.2784C21.1704 25.2168 21.1085 25.1551 21.0446 25.0916C20.8483 24.8964 20.6518 24.7014 20.4552 24.5065C20.1959 24.2494 19.9368 23.9921 19.678 23.7346C19.6194 23.6767 19.5608 23.6188 19.5005 23.5591C19.1884 23.2487 18.8927 22.9305 18.6053 22.5972C18.3554 22.3158 18.0866 22.0534 17.819 21.7889C17.7588 21.729 17.6986 21.6691 17.6365 21.6074C17.4458 21.4177 17.2548 21.2283 17.0637 21.0389C16.8117 20.7892 16.56 20.5391 16.3085 20.2889C16.2516 20.2327 16.1947 20.1766 16.1361 20.1187C15.8775 19.8614 15.6268 19.6018 15.3889 19.3252C15.0924 18.9814 14.7707 18.6676 14.4446 18.3521C14.3181 18.2282 14.1916 18.1041 14.0652 17.98C13.8677 17.7866 13.67 17.5935 13.4712 17.4014C13.2781 17.2145 13.0865 17.0262 12.8951 16.8375C12.835 16.7801 12.7749 16.7227 12.713 16.6636C12.6586 16.6095 12.6042 16.5554 12.5481 16.4996C12.4997 16.4525 12.4513 16.4054 12.4014 16.3569C12.3079 16.2078 12.3079 16.2078 12.3253 16.0054C12.3951 15.7896 12.4878 15.6524 12.628 15.4742C12.6784 15.4093 12.7288 15.3443 12.7807 15.2774C12.8354 15.2084 12.89 15.1393 12.9463 15.0682C13.0612 14.9203 13.176 14.7724 13.2907 14.6244C13.3485 14.55 13.4064 14.4757 13.4659 14.399C13.7089 14.0837 13.9443 13.763 14.1791 13.4415C14.6176 12.843 15.065 12.2517 15.5159 11.6625C15.8909 11.1723 16.2628 10.6798 16.6318 10.185C16.9 9.82595 16.9 9.82595 16.9858 9.74023Z" fill="white"/>
<path id="Vector_3" d="M12.0741 0C12.1255 0 12.177 0 12.23 0C12.7315 0.994686 13.2307 1.99015 13.7113 2.99513C13.745 3.06545 13.7786 3.13577 13.8133 3.20822C13.8775 3.34312 13.9413 3.47825 14.0046 3.6136C14.073 3.75858 14.1433 3.90271 14.2147 4.0462C14.2512 4.12132 14.2877 4.19645 14.3253 4.27384C14.3589 4.34145 14.3924 4.40906 14.427 4.47871C14.5278 4.78859 14.4534 4.97992 14.3166 5.26767C14.276 5.33989 14.2353 5.4121 14.1934 5.48651C14.1474 5.56892 14.1013 5.65133 14.0538 5.73623C14.0035 5.82488 13.9532 5.91353 13.9014 6.00487C13.8485 6.09881 13.7957 6.19277 13.743 6.28675C13.5774 6.58126 13.4106 6.87511 13.2435 7.16883C13.2173 7.21501 13.1911 7.26119 13.164 7.30876C12.8546 7.8531 12.5437 8.39657 12.232 8.93959C11.9709 9.39449 11.7105 9.84986 11.4503 10.3053C11.3204 10.5325 11.1905 10.7598 11.0606 10.987C11.0086 11.0779 10.9566 11.1688 10.9046 11.2597C9.96906 12.8961 9.03349 14.5325 8.09792 16.1688C8.07219 16.2138 8.04646 16.2588 8.01996 16.3052C7.96797 16.3961 7.91598 16.487 7.86399 16.578C7.73423 16.8049 7.60447 17.0319 7.47472 17.2589C7.23876 17.6717 7.00275 18.0844 6.76653 18.497C6.25978 19.3822 5.75359 20.2676 5.25223 21.1558C4.72442 22.0909 4.19122 23.0229 3.65774 23.9548C3.50015 24.23 3.34269 24.5054 3.18527 24.7807C3.15958 24.8257 3.13389 24.8706 3.10742 24.9169C2.97809 25.1431 2.84878 25.3694 2.71948 25.5956C2.48144 26.0121 2.24329 26.4285 2.00473 26.8446C1.40404 27.8926 0.806132 28.9418 0.223548 30C0.110249 29.6603 0.260709 29.4244 0.391277 29.1079C0.418655 29.0398 0.446034 28.9718 0.474241 28.9017C0.566624 28.6727 0.66005 28.444 0.75346 28.2154C0.819545 28.0521 0.885559 27.8887 0.951506 27.7253C1.0941 27.3724 1.23713 27.0197 1.3805 26.6671C1.61003 26.1026 1.83855 25.5377 2.06682 24.9727C2.08608 24.925 2.10534 24.8773 2.12518 24.8282C2.20367 24.6339 2.28216 24.4396 2.36063 24.2454C2.48059 23.9484 2.60062 23.6515 2.72071 23.3545C3.51154 21.3992 4.2924 19.4399 5.07133 17.4798C5.38281 16.6961 5.69463 15.9125 6.00659 15.1291C6.04101 15.0426 6.07542 14.9562 6.11087 14.8672C7.24945 12.0083 8.4002 9.15434 9.54939 6.29974C10.1507 4.80605 10.7502 3.31163 11.348 1.81656C11.3678 1.76723 11.3875 1.7179 11.4078 1.66707C11.63 1.11143 11.8521 0.555749 12.0741 0Z" fill="white"/>
<path id="Vector_4" d="M14.5689 12.9351C14.8467 13.0276 14.8716 13.0874 15.0206 13.3298C15.0836 13.4309 15.0836 13.4309 15.1479 13.534C15.1932 13.608 15.2385 13.6819 15.2852 13.7581C15.3843 13.9168 15.4836 14.0754 15.5831 14.2339C15.6346 14.316 15.686 14.3981 15.7391 14.4827C15.981 14.8639 16.2321 15.2389 16.4839 15.6136C16.9687 16.3367 17.4489 17.0626 17.9263 17.7906C17.9605 17.8427 17.9947 17.8949 18.0299 17.9487C18.1711 18.1639 18.3123 18.3792 18.4534 18.5945C18.857 19.21 19.2614 19.825 19.6658 20.4399C19.7411 20.5544 19.8164 20.6689 19.8917 20.7834C20.043 21.0134 20.1942 21.2435 20.3455 21.4735C20.6081 21.8727 20.8706 22.272 21.1331 22.6712C21.3195 22.9548 21.5059 23.2383 21.6924 23.5218C22.0309 24.0367 22.3694 24.5516 22.7075 25.0668C23.7044 26.5857 24.7071 28.1006 25.7178 29.6104C25.6921 29.6618 25.6663 29.7132 25.6398 29.7662C25.2323 29.3607 24.8249 28.9549 24.4178 28.5489C24.2287 28.3603 24.0395 28.1718 23.8502 27.9834C23.6319 27.7662 23.4138 27.5487 23.1958 27.3312C23.1287 27.2645 23.0616 27.1978 22.9925 27.1291C22.6596 26.7965 22.3406 26.4583 22.0338 26.1016C21.7794 25.8148 21.505 25.5478 21.2324 25.2784C21.1705 25.2168 21.1085 25.1551 21.0447 25.0916C20.8484 24.8964 20.6518 24.7014 20.4552 24.5065C20.1959 24.2494 19.9369 23.9921 19.678 23.7346C19.6195 23.6767 19.5609 23.6188 19.5005 23.5591C19.1885 23.2487 18.8927 22.9305 18.6054 22.5972C18.3555 22.3158 18.0867 22.0534 17.8191 21.789C17.7588 21.7291 17.6986 21.6691 17.6365 21.6074C17.4458 21.4177 17.2548 21.2283 17.0638 21.039C16.8118 20.7892 16.5601 20.5392 16.3085 20.289C16.2517 20.2328 16.1948 20.1766 16.1362 20.1187C15.8775 19.8614 15.6268 19.6018 15.3889 19.3252C15.0925 18.9814 14.7707 18.6676 14.4447 18.3522C14.3181 18.2282 14.1917 18.1041 14.0652 17.9801C13.8678 17.7866 13.67 17.5935 13.4713 17.4014C13.2782 17.2145 13.0866 17.0262 12.8952 16.8376C12.8351 16.7802 12.775 16.7228 12.7131 16.6636C12.6586 16.6095 12.6042 16.5554 12.5481 16.4996C12.4997 16.4525 12.4513 16.4055 12.4015 16.3569C12.308 16.2078 12.308 16.2078 12.3252 16.0057C12.396 15.787 12.4919 15.6468 12.6335 15.466C12.6849 15.3997 12.7362 15.3335 12.789 15.2652C12.8441 15.1953 12.8993 15.1255 12.9561 15.0536C13.0695 14.9075 13.1829 14.7614 13.2962 14.6153C13.3812 14.5063 13.3812 14.5063 13.4679 14.3952C13.7086 14.0849 13.9442 13.7708 14.1791 13.4562C14.2555 13.3542 14.3318 13.2522 14.4081 13.1503C14.4612 13.0792 14.5143 13.0082 14.5689 12.9351Z" fill="#3686CD"/>
</g>
</svg>
