<svg width="64" height="21" viewBox="0 0 64 21" fill="none" xmlns="http://www.w3.org/2000/svg">
<g id="Group 8">
<path id="Vector" d="M24.2314 1.18747C25.4424 1.15451 25.4424 1.15451 26.6779 1.1209C27.0559 1.10635 27.0559 1.10635 27.4416 1.09151C28.5392 1.07706 29.1428 1.09875 30.1042 1.6753C30.7671 2.41407 30.8683 2.86331 30.8884 3.85026C30.7896 4.08092 30.6907 4.31159 30.5889 4.54924C30.512 4.75794 30.4351 4.96663 30.3559 5.18166C30.4822 5.34642 30.6085 5.51118 30.7386 5.68093C31.1547 6.24677 31.1547 6.24677 31.1381 7.17875C30.8512 8.24974 30.7315 8.5514 29.8233 9.17585C28.8653 9.30791 27.9255 9.27556 26.9608 9.24242C25.6098 9.20946 25.6098 9.20946 24.2314 9.17585C24.2314 6.53968 24.2314 3.90351 24.2314 1.18747ZM26.3617 2.78514C26.3617 3.31237 26.3617 3.83961 26.3617 4.38282C27.1525 4.38282 27.9434 4.38282 28.7582 4.38282C28.8461 4.03133 28.9339 3.67984 29.0245 3.3177C28.5555 2.73633 28.5555 2.73633 27.9739 2.73313C27.1678 2.75914 27.1678 2.75914 26.3617 2.78514ZM26.3617 5.98049C26.3617 6.50773 26.3617 7.03496 26.3617 7.57817C27.1525 7.57817 27.9434 7.57817 28.7582 7.57817C28.86 7.13717 28.9483 6.6929 29.0245 6.24677C28.756 5.91854 28.756 5.91854 28.208 5.95449C27.8789 5.95912 27.8789 5.95912 27.5433 5.96385C27.2133 5.96745 27.2133 5.96745 26.8766 5.97113C26.6217 5.97577 26.6217 5.97577 26.3617 5.98049Z" fill="white"/>
<path id="Vector_2" d="M24.2314 11.8387C24.9344 11.8387 25.6374 11.8387 26.3617 11.8387C26.4496 12.5417 26.5374 13.2447 26.628 13.969C26.7539 13.8152 26.8799 13.6614 27.0097 13.503C28.4308 11.9073 28.4308 11.9073 29.4333 11.6973C30.0206 11.7047 30.5757 11.7422 31.1547 11.8387C31.0486 11.9609 30.9426 12.0831 30.8333 12.209C30.5431 12.5452 30.2543 12.8826 29.9669 13.2211C29.6622 13.5791 29.3528 13.9332 29.0411 14.2852C28.71 14.7405 28.71 14.7405 28.806 15.2203C29.1155 16.0883 29.6089 16.8275 30.1062 17.597C31.1547 19.2244 31.1547 19.2244 31.1547 19.8271C30.3392 19.9935 30.3392 19.9935 29.2908 19.8271C28.5512 19.0106 28.0065 18.0974 27.4268 17.1643C27.2511 16.9886 27.0753 16.8128 26.8942 16.6318C26.4543 17.0717 26.5429 17.6256 26.4948 18.2294C26.3913 19.5312 26.3913 19.5312 26.0954 19.8271C25.4803 19.8271 24.8652 19.8271 24.2314 19.8271C24.2314 17.1909 24.2314 14.5548 24.2314 11.8387Z" fill="white"/>
<path id="Vector_3" d="M31.9536 11.306C32.6565 11.306 33.3595 11.306 34.0838 11.306C34.1717 12.0969 34.2595 12.8877 34.3501 13.7025C34.6199 13.6794 34.6199 13.6794 34.8951 13.6557C35.1327 13.6437 35.3702 13.6317 35.6149 13.6193C35.8497 13.6039 36.0845 13.5884 36.3264 13.5725C37.0129 13.7025 37.0129 13.7025 37.6286 14.2185C38.2479 15.3424 38.1962 16.2544 38.1446 17.5137C38.1398 17.7363 38.135 17.9589 38.13 18.1882C38.1175 18.7346 38.0984 19.2808 38.078 19.827C37.4568 19.8383 36.8353 19.8379 36.214 19.827C35.9478 19.5607 35.9478 19.5607 35.9218 18.6027C35.9235 18.2064 35.9267 17.8101 35.9311 17.4138C35.9323 17.2118 35.9335 17.0098 35.9348 16.8017C35.9379 16.3012 35.9427 15.8007 35.9478 15.3002C35.4205 15.3881 34.8933 15.476 34.3501 15.5665C34.334 15.8517 34.3178 16.137 34.3012 16.4309C34.2787 16.8029 34.2562 17.1749 34.2336 17.547C34.2231 17.7352 34.2126 17.9235 34.2019 18.1175C34.114 19.5305 34.114 19.5305 33.8175 19.827C33.0187 19.8603 33.0187 19.8603 32.2198 19.827C31.9536 19.5607 31.9536 19.5607 31.9233 18.7727C31.9247 18.4283 31.9261 18.0838 31.9276 17.729C31.9279 17.5461 31.9283 17.3633 31.9287 17.1749C31.9302 16.5888 31.9335 16.0028 31.9369 15.4167C31.9383 15.0202 31.9395 14.6238 31.9406 14.2273C31.9435 13.2535 31.9481 12.2798 31.9536 11.306Z" fill="white"/>
<path id="Vector_4" d="M50.3269 11.306C50.942 11.306 51.5571 11.306 52.1908 11.306C52.1908 14.1179 52.1908 16.9299 52.1908 19.827C51.4659 19.838 50.741 19.8489 49.994 19.8603C49.7674 19.8651 49.5408 19.87 49.3073 19.8749C47.3944 19.889 47.3944 19.889 46.599 19.2944C45.772 18.0539 45.9017 16.7531 46.0664 15.3002C46.5479 14.4818 46.8281 14.1206 47.6641 13.7025C48.4642 13.6664 49.2593 13.6911 50.0606 13.7025C50.1485 12.9117 50.2364 12.1208 50.3269 11.306ZM48.4629 15.3002C47.8501 16.2195 47.8385 16.6176 47.9304 17.6967C48.1061 17.8725 48.2819 18.0482 48.4629 18.2293C49.4207 18.1432 49.4207 18.1432 50.3269 17.963C50.3341 17.5692 50.3392 17.1753 50.3435 16.7814C50.3466 16.5621 50.3497 16.3427 50.3529 16.1167C50.3888 15.5687 50.3888 15.5687 50.0606 15.3002C49.2729 15.2114 49.2729 15.2114 48.4629 15.3002Z" fill="white"/>
<path id="Vector_5" d="M7.26137 13.0348C8.50726 13.7228 8.50726 13.7228 9.05356 14.2352C9.17447 14.8881 9.17447 14.8881 9.15757 15.6529C9.15242 16.0635 9.15242 16.0635 9.14717 16.4824C9.13825 16.7678 9.12932 17.0532 9.12013 17.3473C9.11532 17.6358 9.11052 17.9243 9.10556 18.2216C9.093 18.9345 9.07548 19.6469 9.05356 20.3596C8.65955 20.3222 8.2657 20.283 7.87194 20.2431C7.6526 20.2215 7.43327 20.1998 7.20728 20.1776C6.65704 20.0933 6.65704 20.0933 6.39076 19.827C6.32838 19.2902 6.28069 18.7517 6.24098 18.2127C6.20751 17.7715 6.20751 17.7715 6.17337 17.3213C6.15724 17.0937 6.14111 16.8662 6.12448 16.6317C4.93821 17.4225 4.93821 17.4225 3.72797 18.2294C2.32395 17.5274 2.32395 17.5274 1.86401 16.898C1.9381 16.2328 2.05107 15.9125 2.52627 15.4346C3.07286 15.04 3.62171 14.6503 4.17732 14.2685C4.36593 14.1291 4.55455 13.9897 4.74888 13.8462C6.15678 12.8686 6.15678 12.8686 7.26137 13.0348Z" fill="white"/>
<path id="Vector_6" d="M9.05356 0.654907C9.05356 2.67597 9.05356 4.69703 9.05356 6.77933C8.26271 7.21869 7.47186 7.65805 6.65704 8.11073C5.95758 7.63433 5.25868 7.15715 4.56009 6.67948C4.36135 6.54424 4.16261 6.409 3.95784 6.26966C3.76734 6.13922 3.57683 6.00879 3.38056 5.8744C3.20486 5.75448 3.02915 5.63455 2.84813 5.511C2.39657 5.18166 2.39657 5.18166 1.86401 4.6491C1.92641 4.00436 2.09572 3.6341 2.46314 3.10135C2.92913 2.78514 2.92913 2.78514 3.52826 2.78514C4.54329 3.15424 5.26685 3.72698 6.12448 4.38282C6.21236 3.24048 6.30023 2.09814 6.39076 0.921187C7.1896 0.654907 7.1896 0.654907 9.05356 0.654907Z" fill="white"/>
<path id="Vector_7" d="M18.9058 6.24683C19.3947 7.2534 19.5332 7.83968 19.1721 8.90962C18.6219 9.33088 18.6219 9.33088 17.9572 9.65853C17.7372 9.77009 17.5172 9.88164 17.2905 9.99658C17.1206 10.0772 16.9507 10.1579 16.7756 10.241C17.6212 10.8973 18.4712 11.3771 19.4384 11.8387C19.3999 12.1792 19.3615 12.5197 19.3219 12.8705C19.3003 13.0621 19.2786 13.2536 19.2564 13.4509C19.1721 13.9689 19.1721 13.9689 18.9058 14.5015C17.5741 14.1074 16.4217 13.5344 15.2112 12.8705C15.0279 12.7713 14.8446 12.6721 14.6558 12.5699C14.2079 12.3273 13.7608 12.0832 13.314 11.8387C13.314 10.8721 13.314 9.9055 13.314 8.90962C14.1454 8.46449 14.9776 8.02091 15.8103 7.57822C16.0472 7.45122 16.284 7.32422 16.528 7.19337C16.7546 7.07323 16.9811 6.95309 17.2145 6.82931C17.4237 6.71776 17.6329 6.6062 17.8484 6.49126C18.3733 6.24683 18.3733 6.24683 18.9058 6.24683Z" fill="white"/>
<path id="Vector_8" d="M0.532559 6.24683C1.86426 6.64094 3.01672 7.21391 4.22718 7.87779C4.41048 7.97699 4.59378 8.07619 4.78263 8.17839C5.23051 8.421 5.67756 8.66515 6.12442 8.90962C6.12442 9.87621 6.12442 10.8428 6.12442 11.8387C5.29299 12.2838 4.46079 12.7274 3.62806 13.1701C3.39121 13.2971 3.15437 13.4241 2.91035 13.5549C2.6838 13.6751 2.45726 13.7952 2.22385 13.919C2.01468 14.0306 1.80551 14.1421 1.59 14.257C1.06512 14.5015 1.06512 14.5015 0.532559 14.5015C0.0699405 13.4895 0 13.0111 0 11.8387C0.878722 11.3993 1.75744 10.96 2.66279 10.5073C1.77972 9.84499 0.986903 9.38064 0 8.90962C0.037411 8.51561 0.0765682 8.12177 0.116497 7.72801C0.138122 7.50867 0.159747 7.28933 0.182027 7.06335C0.266279 6.51311 0.266279 6.51311 0.532559 6.24683Z" fill="#FFDC00"/>
<path id="Vector_9" d="M12.8415 12.9346C13.6937 13.3593 14.4399 13.8957 15.2111 14.4515C15.3796 14.5683 15.5482 14.6852 15.7218 14.8056C17.2286 15.8822 17.2286 15.8822 17.5743 16.8979C16.9752 17.5803 16.9752 17.5803 16.2429 18.2293C14.9212 18.1192 13.8306 17.0906 12.7813 16.3654C12.7813 17.5956 12.7813 18.8258 12.7813 20.0933C11.9904 20.1811 11.1996 20.269 10.3848 20.3595C10.3848 18.2506 10.3848 16.1417 10.3848 13.9688C12.2487 12.9037 12.2487 12.9037 12.8415 12.9346Z" fill="#FFDC00"/>
<path id="Vector_10" d="M10.385 0.654943C12.1823 0.621658 12.1823 0.621658 12.7815 0.921222C12.8917 1.70446 12.8917 1.70446 12.9479 2.66868C12.9678 2.98756 12.9877 3.30644 13.0082 3.63498C13.0213 3.88178 13.0343 4.12858 13.0478 4.38285C13.2887 4.20522 13.2887 4.20522 13.5345 4.024C13.7474 3.87331 13.9602 3.72263 14.1794 3.56737C14.3895 3.416 14.5996 3.26463 14.816 3.10867C15.4443 2.78518 15.4443 2.78518 16.0184 2.83511C16.6875 3.12994 17.0889 3.57898 17.5745 4.11657C17.2082 4.98583 16.8396 5.40533 16.058 5.92644C15.8675 6.05516 15.677 6.18388 15.4807 6.3165C15.1826 6.51267 15.1826 6.51267 14.8784 6.7128C14.6776 6.8477 14.4768 6.98259 14.2699 7.12158C13.7752 7.4535 13.2791 7.78311 12.7815 8.11077C12.4317 7.93945 12.0822 7.76732 11.733 7.59485C11.5384 7.49908 11.3438 7.40332 11.1432 7.30465C10.6512 7.04565 10.6512 7.04565 10.385 6.77937C10.3618 6.32464 10.3565 5.86896 10.359 5.41365C10.3598 5.13819 10.3607 4.86273 10.3616 4.57892C10.3638 4.28905 10.366 3.99917 10.3683 3.70051C10.3695 3.40961 10.3707 3.1187 10.372 2.81898C10.3751 2.09762 10.3795 1.37629 10.385 0.654943Z" fill="#FFDC00"/>
<path id="Vector_11" d="M43.4037 13.7026C44.3045 14.0519 44.603 14.275 45.0846 15.1005C45.3862 16.3068 45.4561 17.2823 44.9348 18.429C44.309 19.2337 43.7932 19.7624 42.764 19.9331C40.4567 19.9118 40.4567 19.9118 39.4095 19.0282C38.6198 17.8436 38.7063 16.6899 38.877 15.3003C40.0022 13.4248 41.3803 13.5418 43.4037 13.7026ZM40.7409 15.8328C40.6726 16.6527 40.6359 17.2205 41.0072 17.9631C41.6412 18.1875 41.6412 18.1875 42.3386 18.2293C42.6022 18.0536 42.8658 17.8778 43.1374 17.6968C43.2484 16.7648 43.2484 16.7648 43.1374 15.8328C42.9617 15.6571 42.7859 15.4813 42.6049 15.3003C41.5274 15.2018 41.5274 15.2018 40.7409 15.8328Z" fill="white"/>
<path id="Vector_12" d="M62.3092 13.7026C63.1086 14.1822 63.4946 14.4757 63.9069 15.3003C64.0423 16.6784 64.1301 17.8445 63.4243 19.0614C62.4301 19.9136 61.4882 19.9025 60.2372 19.8842C59.4094 19.8041 58.9456 19.566 58.315 19.0282C57.469 17.9779 57.3764 17.1613 57.5162 15.8328C58.0558 14.4028 58.0558 14.4028 58.7862 13.9304C59.9229 13.4944 61.1144 13.5539 62.3092 13.7026ZM60.179 15.3003C59.5369 15.8212 59.5369 15.8212 59.6132 16.7981C59.6241 17.0946 59.6351 17.3912 59.6464 17.6968C60.6763 18.1962 60.6763 18.1962 61.7767 17.963C62.148 17.2205 62.1113 16.6527 62.043 15.8328C61.2564 15.2018 61.2564 15.2018 60.179 15.3003Z" fill="white"/>
<path id="Vector_13" d="M52.8231 3.41757C53.522 3.85028 53.522 3.85028 53.7883 4.38284C53.8104 4.7491 53.8169 5.1164 53.8143 5.48332C53.8135 5.69785 53.8126 5.91238 53.8117 6.13341C53.8095 6.35756 53.8073 6.5817 53.805 6.81263C53.8038 7.03884 53.8026 7.26504 53.8013 7.4981C53.7982 8.05736 53.7934 8.61661 53.7883 9.17586C53.5031 9.17209 53.2178 9.16831 52.924 9.16442C52.1797 9.17294 51.5627 9.21674 50.8426 9.35893C49.6549 9.45319 49.1444 9.36006 48.1965 8.6433C47.9135 7.87775 47.9135 7.87775 47.9302 7.04563C48.4975 5.83001 48.4975 5.83001 49.2616 5.44795C49.7161 5.42932 50.1714 5.42548 50.6263 5.43131C50.8686 5.43371 51.1109 5.43612 51.3606 5.43859C51.5466 5.44168 51.7327 5.44477 51.9244 5.44795C51.8365 5.27221 51.7486 5.09646 51.6581 4.91539C50.6915 4.91539 49.7249 4.91539 48.729 4.91539C48.729 4.47603 48.729 4.03667 48.729 3.584C50.1555 2.89237 51.3474 2.81637 52.8231 3.41757ZM50.0604 6.77935C50.0604 7.13084 50.0604 7.48233 50.0604 7.84447C50.5876 7.84447 51.1149 7.84447 51.6581 7.84447C51.746 7.49298 51.8338 7.14149 51.9244 6.77935C51.3093 6.77935 50.6942 6.77935 50.0604 6.77935Z" fill="white"/>
<path id="Vector_14" d="M36.58 3.43431C37.279 3.85037 37.279 3.85038 37.5453 4.11665C37.5683 4.49363 37.5738 4.87171 37.5713 5.24938C37.5704 5.47679 37.5695 5.70419 37.5687 5.93848C37.5664 6.17756 37.5642 6.41663 37.5619 6.66295C37.5607 6.90305 37.5595 7.14316 37.5583 7.39054C37.5551 7.9857 37.5507 8.58082 37.5453 9.17596C37.2604 9.17253 36.9755 9.1691 36.6819 9.16556C35.9413 9.17326 35.3039 9.21267 34.5829 9.34239C33.5567 9.4417 33.0874 9.44565 32.2197 8.90968C31.6925 8.23879 31.6854 7.88745 31.7204 7.02908C31.996 6.10388 32.1994 5.92654 33.0185 5.44805C33.705 5.37004 33.705 5.37004 34.4165 5.39812C34.7728 5.40894 34.7728 5.40894 35.1363 5.41997C35.3161 5.42923 35.496 5.4385 35.6813 5.44805C35.5934 5.27231 35.5056 5.09656 35.415 4.91549C34.4484 4.91549 33.4818 4.91549 32.4859 4.91549C32.4859 4.47613 32.4859 4.03677 32.4859 3.5841C33.915 2.89123 35.1093 2.8079 36.58 3.43431ZM33.8173 6.77945C33.8173 7.13094 33.8173 7.48243 33.8173 7.84457C34.3446 7.84457 34.8718 7.84457 35.415 7.84457C35.5029 7.49308 35.5908 7.14159 35.6813 6.77945C35.0662 6.77945 34.4511 6.77945 33.8173 6.77945Z" fill="white"/>
<path id="Vector_15" d="M46.0663 1.45374C46.0663 2.06884 46.0663 2.68395 46.0663 3.31769C46.5056 3.31769 46.945 3.31769 47.3977 3.31769C47.3977 3.84492 47.3977 4.37216 47.3977 4.91537C46.9583 4.91537 46.519 4.91537 46.0663 4.91537C46.1542 5.79409 46.242 6.67281 46.3326 7.57816C46.7719 7.57816 47.2113 7.57816 47.664 7.57816C47.664 8.10539 47.664 8.63263 47.664 9.17584C45.7553 9.53169 45.7553 9.53169 44.7515 9.12591C44.1207 8.57157 44.0725 8.38402 43.936 7.57816C43.9184 7.11247 43.9133 6.64618 43.9194 6.18019C43.9218 5.94266 43.9242 5.70514 43.9267 5.46041C43.9298 5.28054 43.9329 5.10068 43.936 4.91537C43.6724 4.91537 43.4088 4.91537 43.1372 4.91537C43.1372 4.38813 43.1372 3.8609 43.1372 3.31769C43.4008 3.31769 43.6644 3.31769 43.936 3.31769C44.0239 2.87833 44.1118 2.43897 44.2023 1.98629C45.7667 1.45374 45.7667 1.45374 46.0663 1.45374Z" fill="white"/>
<path id="Vector_16" d="M53.5222 13.7026C54.7524 13.7026 55.9826 13.7026 57.2501 13.7026C57.2501 14.2299 57.2501 14.7571 57.2501 15.3003C56.635 15.3882 56.0199 15.4761 55.3862 15.5666C55.3862 16.9725 55.3862 18.3785 55.3862 19.8271C54.7711 19.8271 54.156 19.8271 53.5222 19.8271C53.5222 17.806 53.5222 15.7849 53.5222 13.7026Z" fill="white"/>
<path id="Vector_17" d="M59.1141 3.05139C59.1141 3.57862 59.1141 4.10586 59.1141 4.64907C58.4111 4.82481 57.7081 5.00056 56.9838 5.18163C56.9838 6.49971 56.9838 7.81779 56.9838 9.17582C56.3687 9.17582 55.7536 9.17582 55.1199 9.17582C55.1199 7.24263 55.1199 5.30944 55.1199 3.31767C55.9107 3.31767 56.7016 3.31767 57.5164 3.31767C58.5815 3.05139 58.5815 3.05139 59.1141 3.05139Z" fill="white"/>
<path id="Vector_18" d="M42.8711 3.05139C42.8711 3.57862 42.8711 4.10586 42.8711 4.64907C42.1682 4.82481 41.4652 5.00056 40.7409 5.18163C40.7409 6.49971 40.7409 7.81779 40.7409 9.17582C40.1258 9.17582 39.5107 9.17582 38.877 9.17582C38.877 7.24263 38.877 5.30944 38.877 3.31767C39.6678 3.31767 40.4587 3.31767 41.2735 3.31767C42.3386 3.05139 42.3386 3.05139 42.8711 3.05139Z" fill="white"/>
</g>
</svg>
