<svg width="1440" height="700" viewBox="0 0 1440 700" fill="none" xmlns="http://www.w3.org/2000/svg">
<line x1="1408.5" y1="-31" x2="1408.5" y2="1001" stroke="#DBD2DD"/>
<line x1="1377.23" y1="-31" x2="1377.23" y2="1001" stroke="#DBD2DD"/>
<line x1="1345.95" y1="-31" x2="1345.95" y2="1001" stroke="#DBD2DD"/>
<line x1="1314.68" y1="-31" x2="1314.68" y2="1001" stroke="#DBD2DD"/>
<line x1="1283.41" y1="-31" x2="1283.41" y2="1001" stroke="#DBD2DD"/>
<line x1="1252.14" y1="-31" x2="1252.14" y2="1001" stroke="#DBD2DD"/>
<line x1="1220.86" y1="-31" x2="1220.86" y2="1001" stroke="#DBD2DD"/>
<line x1="1189.59" y1="-31" x2="1189.59" y2="1001" stroke="#DBD2DD"/>
<line x1="1158.32" y1="-31" x2="1158.32" y2="1001" stroke="#DBD2DD"/>
<line x1="1127.05" y1="-31" x2="1127.05" y2="1001" stroke="#DBD2DD"/>
<line x1="1095.77" y1="-31" x2="1095.77" y2="1001" stroke="#DBD2DD"/>
<line x1="1064.5" y1="-31" x2="1064.5" y2="1001" stroke="#DBD2DD"/>
<line x1="1033.23" y1="-31" x2="1033.23" y2="1001" stroke="#DBD2DD"/>
<line x1="1001.95" y1="-31" x2="1001.95" y2="1001" stroke="#DBD2DD"/>
<line x1="970.682" y1="-31" x2="970.682" y2="1001" stroke="#DBD2DD"/>
<line x1="939.409" y1="-31" x2="939.409" y2="1001" stroke="#DBD2DD"/>
<line x1="908.136" y1="-31" x2="908.136" y2="1001" stroke="#DBD2DD"/>
<line x1="876.864" y1="-31" x2="876.864" y2="1001" stroke="#DBD2DD"/>
<line x1="845.591" y1="-31" x2="845.591" y2="1001" stroke="#DBD2DD"/>
<line x1="814.318" y1="-31" x2="814.318" y2="1001" stroke="#DBD2DD"/>
<line x1="783.045" y1="-31" x2="783.045" y2="1001" stroke="#DBD2DD"/>
<line x1="751.773" y1="-31" x2="751.773" y2="1001" stroke="#DBD2DD"/>
<line x1="720.5" y1="-31" x2="720.5" y2="1001" stroke="#DBD2DD"/>
<line x1="689.227" y1="-31" x2="689.227" y2="1001" stroke="#DBD2DD"/>
<line x1="657.955" y1="-31" x2="657.955" y2="1001" stroke="#DBD2DD"/>
<line x1="626.682" y1="-31" x2="626.682" y2="1001" stroke="#DBD2DD"/>
<line x1="595.409" y1="-31" x2="595.409" y2="1001" stroke="#DBD2DD"/>
<line x1="564.136" y1="-31" x2="564.136" y2="1001" stroke="#DBD2DD"/>
<line x1="532.864" y1="-31" x2="532.864" y2="1001" stroke="#DBD2DD"/>
<line x1="501.591" y1="-31" x2="501.591" y2="1001" stroke="#DBD2DD"/>
<line x1="470.318" y1="-31" x2="470.318" y2="1001" stroke="#DBD2DD"/>
<line x1="439.045" y1="-31" x2="439.045" y2="1001" stroke="#DBD2DD"/>
<line x1="407.773" y1="-31" x2="407.773" y2="1001" stroke="#DBD2DD"/>
<line x1="376.5" y1="-31" x2="376.5" y2="1001" stroke="#DBD2DD"/>
<line x1="345.227" y1="-31" x2="345.227" y2="1001" stroke="#DBD2DD"/>
<line x1="313.955" y1="-31" x2="313.955" y2="1001" stroke="#DBD2DD"/>
<line x1="282.682" y1="-31" x2="282.682" y2="1001" stroke="#DBD2DD"/>
<line x1="251.409" y1="-31" x2="251.409" y2="1001" stroke="#DBD2DD"/>
<line x1="220.136" y1="-31" x2="220.136" y2="1001" stroke="#DBD2DD"/>
<line x1="188.864" y1="-31" x2="188.863" y2="1001" stroke="#DBD2DD"/>
<line x1="157.591" y1="-31" x2="157.591" y2="1001" stroke="#DBD2DD"/>
<line x1="126.318" y1="-31" x2="126.318" y2="1001" stroke="#DBD2DD"/>
<line x1="95.0454" y1="-31" x2="95.0454" y2="1001" stroke="#DBD2DD"/>
<line x1="63.7727" y1="-31" x2="63.7727" y2="1001" stroke="#DBD2DD"/>
<line x1="32.5" y1="-31" x2="32.5" y2="1001" stroke="#DBD2DD"/>
<line x1="1439.27" y1="688.773" x2="0.727295" y2="688.773" stroke="#DBD2DD"/>
<line x1="1439.27" y1="657.5" x2="0.727295" y2="657.5" stroke="#DBD2DD"/>
<line x1="1439.27" y1="626.227" x2="0.727295" y2="626.227" stroke="#DBD2DD"/>
<line x1="1439.27" y1="594.955" x2="0.727295" y2="594.955" stroke="#DBD2DD"/>
<line x1="1439.27" y1="563.682" x2="0.727295" y2="563.682" stroke="#DBD2DD"/>
<line x1="1439.27" y1="532.409" x2="0.727295" y2="532.409" stroke="#DBD2DD"/>
<line x1="1439.27" y1="501.136" x2="0.727295" y2="501.136" stroke="#DBD2DD"/>
<line x1="1439.27" y1="469.864" x2="0.727295" y2="469.864" stroke="#DBD2DD"/>
<line x1="1439.27" y1="438.591" x2="0.727295" y2="438.591" stroke="#DBD2DD"/>
<line x1="1439.27" y1="407.318" x2="0.727295" y2="407.318" stroke="#DBD2DD"/>
<line x1="1439.27" y1="376.045" x2="0.727295" y2="376.045" stroke="#DBD2DD"/>
<line x1="1439.27" y1="344.773" x2="0.727295" y2="344.773" stroke="#DBD2DD"/>
<line x1="1439.27" y1="313.5" x2="0.727295" y2="313.5" stroke="#DBD2DD"/>
<line x1="1439.27" y1="282.227" x2="0.727295" y2="282.227" stroke="#DBD2DD"/>
<line x1="1439.27" y1="250.955" x2="0.727295" y2="250.955" stroke="#DBD2DD"/>
<line x1="1439.27" y1="219.682" x2="0.727295" y2="219.682" stroke="#DBD2DD"/>
<line x1="1439.27" y1="188.409" x2="0.727295" y2="188.409" stroke="#DBD2DD"/>
<line x1="1439.27" y1="157.136" x2="0.727295" y2="157.136" stroke="#DBD2DD"/>
<line x1="1439.27" y1="125.864" x2="0.727295" y2="125.863" stroke="#DBD2DD"/>
<line x1="1439.27" y1="94.5908" x2="0.727295" y2="94.5907" stroke="#DBD2DD"/>
<line x1="1439.27" y1="63.3181" x2="0.727295" y2="63.318" stroke="#DBD2DD"/>
<line x1="1439.27" y1="32.0454" x2="0.727295" y2="32.0453" stroke="#DBD2DD"/>
<line x1="1439.27" y1="0.772705" x2="0.727295" y2="0.772629" stroke="#DBD2DD"/>
</svg>
