<svg width="60" height="64" viewBox="0 0 60 64" fill="none" xmlns="http://www.w3.org/2000/svg">
<g id="Layer_1" clip-path="url(#clip0_383_1042)">
<path id="Vector" d="M55.023 1.71368H42.8985L41.8848 4.38016H53.6886V19.5391H56.3551V3.05708C56.3566 2.8812 56.3232 2.70676 56.257 2.54384C56.1907 2.38091 56.0928 2.23273 55.9689 2.10783C55.8451 1.98294 55.6978 1.8838 55.5354 1.81615C55.373 1.7485 55.1989 1.71368 55.023 1.71368Z" fill="white"/>
<path id="Vector_2" d="M53.6886 44.2712C53.6886 49.9587 47.1409 54.2711 41.6341 56.8879C37.6705 58.7281 33.5472 60.2025 29.3155 61.2929C25.0971 60.2043 20.9867 58.7337 17.0352 56.8992C11.5194 54.2801 4.94462 49.9609 4.94462 44.2554V38.8367H2.27588V44.2712C2.27588 57.5494 27.9201 63.7087 29.0129 63.9661C29.2121 64.0113 29.4188 64.0113 29.618 63.9661C30.713 63.7087 56.355 57.5494 56.355 44.2712V38.8367H53.6886V44.2712Z" fill="white"/>
<path id="Vector_3" d="M4.94462 4.38016H16.6265L15.6105 1.71369H3.61025C3.43512 1.71339 3.26166 1.74762 3.09978 1.81444C2.9379 1.88125 2.79078 1.97933 2.66684 2.10305C2.5429 2.22678 2.44458 2.37373 2.3775 2.5355C2.31041 2.69726 2.27588 2.87067 2.27588 3.04579V19.5278H4.94462V4.38016Z" fill="white"/>
<path id="Vector_4" d="M22.9056 37.403H17.5004C15.3916 37.403 13.7389 38.4551 13.0773 40.2139C12.7677 41.0329 12.7178 41.9273 12.9343 42.7756C13.1508 43.6239 13.6233 44.385 14.2875 44.9553C15.7822 46.2626 18.1867 46.1339 19.6498 44.6709C19.9798 44.3315 20.2365 43.9278 20.4039 43.4851C20.5713 43.0423 20.6459 42.5698 20.6229 42.097C20.6054 41.6547 20.4943 41.2212 20.297 40.825C20.0997 40.4288 19.8206 40.079 19.4782 39.7985C18.8285 39.2813 18.0047 39.0339 17.1775 39.1076C16.8217 39.1368 16.4755 39.2377 16.1596 39.4042C15.8438 39.5706 15.5649 39.7992 15.3396 40.0762C14.9764 40.5555 14.8103 41.1555 14.8754 41.7533C14.9405 42.3512 15.2318 42.9014 15.6896 43.2913C15.9436 43.5096 16.2475 43.6618 16.5745 43.7343C16.9014 43.8068 17.2412 43.7973 17.5636 43.7068C17.8277 43.6177 18.0648 43.4631 18.2528 43.2573C18.4408 43.0516 18.5734 42.8015 18.6383 42.5304C18.6769 42.3858 18.6565 42.2318 18.5816 42.1023C18.5066 41.9727 18.3833 41.8782 18.2387 41.8396C18.1673 41.8205 18.0929 41.8156 18.0197 41.8253C17.9465 41.835 17.8759 41.859 17.8119 41.896C17.7472 41.9326 17.6904 41.9818 17.645 42.0408C17.5997 42.0997 17.5666 42.1672 17.5478 42.2392C17.5304 42.3288 17.4901 42.4123 17.4307 42.4816C17.3713 42.5508 17.295 42.6035 17.2091 42.6343C17.0651 42.6661 16.9156 42.6621 16.7735 42.6227C16.6314 42.5834 16.5012 42.5098 16.394 42.4085C16.2799 42.3103 16.1862 42.1906 16.1184 42.0562C16.0506 41.9217 16.01 41.7752 15.9989 41.6251C15.9583 41.3307 16.0353 41.0321 16.2134 40.7942C16.3456 40.6338 16.5086 40.5015 16.6928 40.4053C16.877 40.3092 17.0787 40.251 17.2859 40.2343C17.8146 40.1864 18.3415 40.3431 18.758 40.6723C18.9791 40.852 19.1592 41.0769 19.2862 41.332C19.4131 41.5871 19.484 41.8664 19.494 42.1511C19.5085 42.4668 19.4589 42.7822 19.3483 43.0782C19.2377 43.3743 19.0684 43.6449 18.8505 43.8739C17.8007 44.926 16.087 45.0299 15.0326 44.0996C14.5417 43.6816 14.1916 43.1223 14.03 42.4981C13.8684 41.8739 13.9031 41.2151 14.1295 40.6113C14.6171 39.3108 15.8748 38.5341 17.4936 38.5341H22.3389V53.2325C22.3515 53.3735 22.4164 53.5046 22.5209 53.6002C22.6253 53.6957 22.7618 53.7487 22.9033 53.7487C23.0449 53.7487 23.1813 53.6957 23.2858 53.6002C23.3902 53.5046 23.4551 53.3735 23.4678 53.2325V37.9697C23.4678 37.8201 23.4087 37.6767 23.3034 37.5705C23.1981 37.4644 23.0551 37.4041 22.9056 37.403Z" fill="white"/>
<path id="Vector_5" d="M26.1793 42.9391C26.0296 42.9391 25.886 42.9986 25.7802 43.1044C25.6743 43.2103 25.6149 43.3539 25.6149 43.5036V53.2325C25.6149 53.3822 25.6743 53.5258 25.7802 53.6316C25.886 53.7375 26.0296 53.7969 26.1793 53.7969C26.329 53.7969 26.4726 53.7375 26.5784 53.6316C26.6843 53.5258 26.7438 53.3822 26.7438 53.2325V43.5036C26.7438 43.3539 26.6843 43.2103 26.5784 43.1044C26.4726 42.9986 26.329 42.9391 26.1793 42.9391Z" fill="white"/>
<path id="Vector_6" d="M32.0632 42.9391C31.9133 42.9391 31.7695 42.9985 31.6632 43.1043C31.557 43.2101 31.4971 43.3537 31.4965 43.5036V53.2325C31.5091 53.3735 31.574 53.5046 31.6785 53.6002C31.7829 53.6957 31.9194 53.7487 32.0609 53.7487C32.2025 53.7487 32.3389 53.6957 32.4434 53.6002C32.5478 53.5046 32.6127 53.3735 32.6254 53.2325V43.5036C32.6254 43.3543 32.5662 43.211 32.4608 43.1052C32.3555 42.9994 32.2125 42.9397 32.0632 42.9391Z" fill="white"/>
<path id="Vector_7" d="M29.1213 42.9391C28.9716 42.9391 28.8281 42.9986 28.7222 43.1044C28.6163 43.2103 28.5569 43.3539 28.5569 43.5036V53.2325C28.5569 53.3822 28.6163 53.5258 28.7222 53.6316C28.8281 53.7375 28.9716 53.7969 29.1213 53.7969C29.271 53.7969 29.4146 53.7375 29.5205 53.6316C29.6263 53.5258 29.6858 53.3822 29.6858 53.2325V43.5036C29.6858 43.3539 29.6263 43.2103 29.5205 43.1044C29.4146 42.9986 29.271 42.9391 29.1213 42.9391Z" fill="white"/>
<path id="Vector_8" d="M32.0633 40.2455H26.1794C26.0384 40.2582 25.9072 40.3231 25.8117 40.4276C25.7162 40.532 25.6632 40.6684 25.6632 40.81C25.6632 40.9516 25.7162 41.088 25.8117 41.1924C25.9072 41.2969 26.0384 41.3618 26.1794 41.3745H32.0633C32.2042 41.3618 32.3354 41.2969 32.4309 41.1924C32.5265 41.088 32.5794 40.9516 32.5794 40.81C32.5794 40.6684 32.5265 40.532 32.4309 40.4276C32.3354 40.3231 32.2042 40.2582 32.0633 40.2455Z" fill="white"/>
<path id="Vector_9" d="M32.0632 37.5542H26.1793C26.0296 37.5542 25.886 37.6137 25.7802 37.7196C25.6743 37.8254 25.6149 37.969 25.6149 38.1187C25.6149 38.2684 25.6743 38.412 25.7802 38.5178C25.886 38.6237 26.0296 38.6831 26.1793 38.6831H32.0632C32.2129 38.6831 32.3565 38.6237 32.4623 38.5178C32.5682 38.412 32.6276 38.2684 32.6276 38.1187C32.6276 37.969 32.5682 37.8254 32.4623 37.7196C32.3565 37.6137 32.2129 37.5542 32.0632 37.5542Z" fill="white"/>
<path id="Vector_10" d="M48.5746 34.9577H9.66339C9.5224 34.9704 9.39124 35.0353 9.29572 35.1397C9.20019 35.2442 9.14722 35.3806 9.14722 35.5222C9.14722 35.6637 9.20019 35.8002 9.29572 35.9046C9.39124 36.0091 9.5224 36.074 9.66339 36.0866H48.5746C48.7155 36.074 48.8467 36.0091 48.9422 35.9046C49.0378 35.8002 49.0907 35.6637 49.0907 35.5222C49.0907 35.3806 49.0378 35.2442 48.9422 35.1397C48.8467 35.0353 48.7155 34.9704 48.5746 34.9577Z" fill="white"/>
<path id="Vector_11" d="M40.959 37.403H35.5538C35.4039 37.4036 35.2604 37.4635 35.1546 37.5697C35.0488 37.676 34.9894 37.8198 34.9894 37.9697V53.2325C34.9894 53.3822 35.0489 53.5258 35.1547 53.6316C35.2606 53.7375 35.4041 53.7969 35.5538 53.7969C35.7035 53.7969 35.8471 53.7375 35.953 53.6316C36.0588 53.5258 36.1183 53.3822 36.1183 53.2325V38.5341H40.959C42.5779 38.5341 43.8332 39.3108 44.3232 40.6113C44.5495 41.2151 44.5842 41.8739 44.4226 42.4981C44.261 43.1223 43.9109 43.6816 43.42 44.0996C42.3657 45.0231 40.652 44.9192 39.5998 43.8739C39.3825 43.6445 39.2135 43.3739 39.103 43.0779C38.9924 42.7819 38.9426 42.4668 38.9564 42.1511C38.9675 41.8664 39.0391 41.5873 39.1664 41.3323C39.2937 41.0773 39.4738 40.8523 39.6947 40.6723C40.1109 40.3427 40.638 40.1859 41.1668 40.2343C41.3739 40.251 41.5756 40.3092 41.7598 40.4053C41.9441 40.5015 42.1071 40.6338 42.2392 40.7942C42.4173 41.0321 42.4944 41.3307 42.4537 41.6251C42.4429 41.7753 42.4024 41.9219 42.3345 42.0563C42.2667 42.1908 42.1729 42.3105 42.0586 42.4085C41.9515 42.5098 41.8212 42.5834 41.6791 42.6227C41.537 42.6621 41.3875 42.6661 41.2435 42.6343C41.1577 42.6035 41.0813 42.5508 41.0219 42.4816C40.9625 42.4123 40.9222 42.3288 40.9049 42.2392C40.8759 42.1314 40.8156 42.0346 40.7316 41.9611C40.6476 41.8875 40.5437 41.8405 40.4331 41.826C40.3224 41.8115 40.2099 41.8302 40.1098 41.8796C40.0097 41.929 39.9265 42.007 39.8708 42.1037C39.8328 42.1673 39.8083 42.2379 39.7986 42.3113C39.7889 42.3846 39.7942 42.4592 39.8143 42.5304C39.8792 42.8015 40.0119 43.0516 40.1999 43.2573C40.3878 43.4631 40.625 43.6177 40.889 43.7068C41.2113 43.7985 41.5514 43.8086 41.8786 43.7361C42.2057 43.6635 42.5097 43.5107 42.763 43.2913C43.2288 42.9041 43.5219 42.3479 43.5781 41.7447C43.6142 41.4497 43.5917 41.1504 43.5119 40.8641C43.4321 40.5778 43.2965 40.31 43.113 40.0762C42.8877 39.7992 42.6088 39.5706 42.293 39.4042C41.9772 39.2377 41.6309 39.1368 41.2751 39.1076C40.4473 39.034 39.6228 39.2813 38.9722 39.7985C38.6304 40.0794 38.3519 40.4294 38.155 40.8255C37.9581 41.2216 37.8473 41.6549 37.8297 42.097C37.8068 42.5698 37.8813 43.0423 38.0487 43.4851C38.2161 43.9278 38.4728 44.3315 38.8028 44.6709C40.2659 46.1339 42.6705 46.2626 44.1651 44.9553C44.8295 44.3851 45.3019 43.6239 45.5181 42.7754C45.7342 41.927 45.6836 41.0326 45.3731 40.2139C44.7206 38.4551 43.0656 37.403 40.959 37.403Z" fill="white"/>
<path id="Vector_12" d="M56.6283 24.7592C55.446 24.5281 54.2521 24.3608 53.0519 24.2579V19.7107C53.052 19.5961 53.0136 19.4847 52.9427 19.3946C52.8719 19.3045 52.7727 19.2409 52.6613 19.214C51.1845 18.9121 49.6766 18.79 48.1705 18.8505V14.6984C48.1704 14.5699 48.1221 14.4462 48.0351 14.3517C47.9481 14.2572 47.8288 14.1988 47.7009 14.1881C45.2802 14.1021 42.8638 14.4508 40.5662 15.2177C35.8287 16.7315 31.8834 20.0598 29.5932 24.4747C27.303 20.0598 23.3578 16.7315 18.6202 15.2177C16.3229 14.4496 13.9063 14.1009 11.4855 14.1881C11.3574 14.1983 11.2378 14.2566 11.1507 14.3512C11.0636 14.4458 11.0155 14.5698 11.0159 14.6984V18.8505C9.50979 18.7898 8.00187 18.9119 6.52512 19.214C6.41368 19.2409 6.31454 19.3045 6.24368 19.3946C6.17282 19.4847 6.13436 19.5961 6.13451 19.7107V24.2579C4.93427 24.3608 3.74042 24.5281 2.55814 24.7592C2.4434 24.783 2.34036 24.8457 2.26635 24.9365C2.19234 25.0274 2.15187 25.141 2.15173 25.2582V30.1734C2.15173 30.3087 2.20549 30.4385 2.30118 30.5342C2.39688 30.6299 2.52666 30.6837 2.66199 30.6837C2.79733 30.6837 2.92711 30.6299 3.02281 30.5342C3.1185 30.4385 3.17226 30.3087 3.17226 30.1734V25.6826C5.46846 25.283 17.0352 23.6258 25.8678 28.8684C25.9843 28.9376 26.1235 28.9576 26.2547 28.9242C26.386 28.8907 26.4986 28.8065 26.5677 28.69C26.6369 28.5736 26.657 28.4344 26.6235 28.3031C26.5901 28.1719 26.5058 28.0593 26.3894 27.9901C19.8191 24.0909 12.0026 23.838 7.15504 24.1744V20.1284C9.25933 19.7626 19.4443 18.575 27.4054 27.8908C27.4937 27.9934 27.6189 28.0569 27.7539 28.0675C27.8888 28.078 28.0224 28.0348 28.1256 27.9472C28.2281 27.8593 28.2916 27.7344 28.3021 27.5999C28.3127 27.4653 28.2695 27.332 28.1821 27.2292C23.3323 21.5576 17.7103 19.6768 13.8495 19.1011C13.215 19.0063 12.6099 18.943 12.0432 18.9024V15.1928C14.3304 15.1928 24.2986 15.6941 29.092 25.73V27.0847C29.092 27.2201 29.1457 27.3498 29.2414 27.4455C29.3371 27.5412 29.4669 27.595 29.6022 27.595C29.7376 27.595 29.8674 27.5412 29.963 27.4455C30.0587 27.3498 30.1125 27.2201 30.1125 27.0847V25.73C34.8968 15.7121 44.8651 15.1793 47.1613 15.1928V18.9002C46.5855 18.9408 45.9804 19.004 45.355 19.0988C41.4919 19.6768 35.8722 21.5576 31.0224 27.227C30.9385 27.3304 30.8984 27.4626 30.9106 27.5952C30.9228 27.7279 30.9865 27.8504 31.0879 27.9368C31.1893 28.0232 31.3204 28.0665 31.4533 28.0575C31.5862 28.0484 31.7103 27.9878 31.7991 27.8885C39.7466 18.5886 49.9429 19.7604 52.0494 20.1284V24.1721C47.2019 23.8357 39.3853 24.0886 32.8151 27.9879C32.7015 28.0581 32.62 28.1701 32.5881 28.2998C32.5562 28.4295 32.5764 28.5665 32.6444 28.6815C32.7123 28.7964 32.8227 28.8802 32.9517 28.9147C33.0807 28.9492 33.2181 28.9318 33.3344 28.8661C42.1512 23.6258 53.7179 25.2898 56.0254 25.6826V30.1734C56.034 30.3026 56.0914 30.4237 56.186 30.5121C56.2805 30.6005 56.4051 30.6498 56.5346 30.6498C56.664 30.6498 56.7886 30.6005 56.8832 30.5121C56.9777 30.4237 57.0351 30.3026 57.0437 30.1734V25.2582C57.0436 25.1396 57.002 25.0248 56.9261 24.9336C56.8502 24.8425 56.7449 24.7808 56.6283 24.7592Z" fill="white"/>
<path id="Vector_13" d="M20.7041 3.72088H18.776V0H17.7983V4.48176H20.7041V3.72088Z" fill="white"/>
<path id="Vector_14" d="M22.5578 2.45198C21.5554 2.45198 21.0067 2.82903 21.0067 3.54927C21.0067 4.11599 21.4989 4.54497 22.1356 4.54497C22.2933 4.55023 22.4502 4.51941 22.5942 4.45484C22.7381 4.39028 22.8655 4.29369 22.9665 4.17243C22.9837 4.27941 23.0156 4.3835 23.0613 4.48175H24.0073V4.43208C23.914 4.20611 23.8694 3.963 23.8764 3.71861V2.23071C23.8561 1.52401 23.3526 1.09052 22.5217 1.09052C21.6908 1.09052 21.0903 1.54207 21.0903 2.1562H22.0295C22.0295 1.90333 22.1943 1.76334 22.4811 1.76334C22.7678 1.76334 22.9326 1.93494 22.9326 2.25554V2.45198H22.5578ZM22.9304 3.53572C22.8727 3.63618 22.789 3.7192 22.688 3.77602C22.5871 3.83285 22.4727 3.86138 22.3569 3.85859C22.3052 3.8637 22.2531 3.85781 22.2038 3.84133C22.1546 3.82485 22.1094 3.79813 22.0713 3.76295C22.0331 3.72777 22.0028 3.68491 21.9824 3.63718C21.962 3.58946 21.9519 3.53796 21.9527 3.48605C21.9527 3.14512 22.1672 2.97579 22.5962 2.97579H22.9304V3.53572Z" fill="white"/>
<path id="Vector_15" d="M25.4455 2.1246C25.496 2.03068 25.5719 1.9529 25.6645 1.90018C25.7572 1.84746 25.8628 1.82195 25.9694 1.82657C26.3464 1.82657 26.4796 1.99139 26.4796 2.36393V4.48175H27.4256V2.32554C27.4256 1.49918 27.0712 1.09052 26.378 1.09052C26.1937 1.08182 26.01 1.11843 25.8431 1.19715C25.6763 1.27587 25.5312 1.39431 25.4207 1.54208L25.3823 1.14471H24.4995V4.47273H25.4455V2.1246Z" fill="white"/>
<path id="Vector_16" d="M29.0964 1.56241L30.8236 4.48176H31.7945V0H30.8236V2.92613L29.0964 0H28.1188V4.48176H29.0964V1.56241Z" fill="white"/>
<path id="Vector_17" d="M34.0636 4.54497C34.3118 4.55426 34.5587 4.50493 34.7842 4.40097C35.0098 4.29702 35.2077 4.14137 35.3618 3.94665L34.9103 3.4409C34.818 3.5612 34.6984 3.65776 34.5614 3.72255C34.4243 3.78735 34.2738 3.81851 34.1223 3.81344C33.9279 3.8205 33.7383 3.75241 33.5929 3.62334C33.4474 3.49426 33.3572 3.3141 33.3411 3.12029H35.4409V2.74775C35.4409 1.70238 34.8787 1.09729 33.9507 1.09729C32.9618 1.09729 32.3702 1.81527 32.3702 2.81774V2.9058C32.386 3.88343 33.0611 4.54497 34.0636 4.54497ZM33.9552 1.82205C34.3097 1.82205 34.5106 2.04783 34.5174 2.42714V2.49487H33.3456C33.4088 2.0546 33.6211 1.82205 33.9552 1.82205Z" fill="white"/>
<path id="Vector_18" d="M37.2087 3.9015C36.87 3.9015 36.6352 3.74345 36.624 3.42284H35.7344C35.7344 4.10019 36.4117 4.55175 37.1839 4.55175C38.0238 4.55175 38.6018 4.13631 38.6018 3.53122C38.6018 3.06385 38.3263 2.76808 37.7641 2.58971C37.4435 2.48359 36.7368 2.44521 36.7368 2.09299C36.7413 2.04017 36.7564 1.9888 36.7811 1.94193C36.8059 1.89505 36.8398 1.85363 36.8809 1.82014C36.9219 1.78664 36.9693 1.76176 37.0202 1.74696C37.0711 1.73216 37.1245 1.72775 37.1771 1.734C37.2399 1.72454 37.304 1.72945 37.3646 1.74835C37.4253 1.76725 37.4808 1.79966 37.5271 1.84312C37.5734 1.88659 37.6092 1.93999 37.6319 1.9993C37.6546 2.05861 37.6635 2.1223 37.658 2.18556H38.6018C38.6018 1.54208 38.0351 1.10858 37.1839 1.10858C36.3846 1.10858 35.8405 1.54208 35.8405 2.14718C35.8405 2.6597 36.2446 2.98708 37.0078 3.15642C37.43 3.25125 37.6851 3.3393 37.6851 3.57863C37.6942 3.76377 37.5113 3.9015 37.2087 3.9015Z" fill="white"/>
<path id="Vector_19" d="M39.3175 3.54929C39.3175 4.22664 39.6314 4.54499 40.3065 4.54499C40.4947 4.54668 40.682 4.51926 40.8619 4.46371V3.78636C40.7761 3.80039 40.6892 3.80719 40.6022 3.80669C40.3313 3.80669 40.2636 3.71186 40.2636 3.45898V1.80852H40.8235V1.15375H40.2636V0.327393H39.3175V1.15375H38.866V1.80852H39.3175V3.54929Z" fill="white"/>
<path id="Vector_20" d="M57.4591 29.7693H34.3932C33.9823 28.0037 31.948 26.6874 29.5931 26.6874C27.2382 26.6874 25.2017 28.0037 24.793 29.7693H1.72719C1.27961 29.7855 0.855764 29.9747 0.544845 30.297C0.233925 30.6194 0.0601807 31.0498 0.0601807 31.4976C0.0601807 31.9455 0.233925 32.3759 0.544845 32.6983C0.855764 33.0207 1.27961 33.2098 1.72719 33.226H57.4591C57.9066 33.2098 58.3305 33.0207 58.6414 32.6983C58.9523 32.3759 59.1261 31.9455 59.1261 31.4976C59.1261 31.0498 58.9523 30.6194 58.6414 30.297C58.3305 29.9747 57.9066 29.7855 57.4591 29.7693ZM57.4591 31.9074H1.72719C1.61821 31.9074 1.51368 31.8642 1.43662 31.7871C1.35956 31.71 1.31627 31.6055 1.31627 31.4965C1.31627 31.3875 1.35956 31.283 1.43662 31.206C1.51368 31.1289 1.61821 31.0856 1.72719 31.0856H25.3755C25.55 31.0856 25.7173 31.0165 25.8409 30.8933C25.9645 30.7701 26.0342 30.603 26.0348 30.4286C26.0348 29.092 27.6311 28.0037 29.5931 28.0037C31.5552 28.0037 33.1514 29.092 33.1514 30.4286C33.152 30.603 33.2218 30.7701 33.3453 30.8933C33.4689 31.0165 33.6363 31.0856 33.8107 31.0856H57.4591C57.5681 31.0856 57.6726 31.1289 57.7496 31.206C57.8267 31.283 57.87 31.3875 57.87 31.4965C57.87 31.6055 57.8267 31.71 57.7496 31.7871C57.6726 31.8642 57.5681 31.9074 57.4591 31.9074Z" fill="white"/>
</g>
<defs>
<clipPath id="clip0_383_1042">
<rect width="59.1886" height="64" fill="white"/>
</clipPath>
</defs>
</svg>
