<svg width="59" height="29" viewBox="0 0 59 29" fill="none" xmlns="http://www.w3.org/2000/svg">
<g id="Group 5">
<path id="Vector" d="M24.2666 0.124878C35.5838 0.124878 46.9009 0.124878 58.5611 0.124878C58.5611 9.61248 58.5611 19.1001 58.5611 28.8752C47.2439 28.8752 35.9267 28.8752 24.2666 28.8752C24.2666 26.6924 24.2666 24.5095 24.2666 22.2606C24.8254 22.2606 25.3842 22.2606 25.9599 22.2606C25.9599 23.8839 25.9599 25.5071 25.9599 27.1796C36.1595 27.1796 46.3591 27.1796 56.8677 27.1796C56.8677 18.8172 56.8677 10.4549 56.8677 1.83909C46.6743 1.83909 36.4809 1.83909 25.9785 1.83909C25.9785 3.46852 25.9785 5.09796 25.9785 6.77677C25.4136 6.77677 24.8487 6.77677 24.2666 6.77677C24.2666 4.58164 24.2666 2.38652 24.2666 0.124878Z" fill="white"/>
<path id="Vector_2" d="M27.5996 11.1298C27.6123 11.1298 27.6249 11.1298 27.638 11.1298C27.8434 11.1305 28.0345 11.1459 28.23 11.2113C28.2482 11.2173 28.2482 11.2173 28.2668 11.2234C28.4809 11.2961 28.699 11.4062 28.8626 11.5653C28.8626 11.5776 28.8626 11.5899 28.8626 11.6026C28.8776 11.6083 28.8776 11.6083 28.8929 11.6142C28.9881 11.6694 29.0514 11.7495 29.1045 11.8448C29.1227 11.8712 29.1409 11.8976 29.1592 11.924C29.2219 12.0176 29.2906 12.1207 29.2906 12.2361C29.3029 12.2361 29.3152 12.2361 29.3278 12.2361C29.3336 12.2148 29.3336 12.2148 29.3395 12.193C29.3848 12.0711 29.4472 11.944 29.5325 11.8448C29.5448 11.8448 29.5571 11.8448 29.5697 11.8448C29.574 11.8313 29.5782 11.8179 29.5825 11.804C29.6278 11.7069 29.7111 11.6495 29.793 11.5839C29.807 11.5694 29.8209 11.5548 29.8353 11.5398C29.9679 11.4119 30.1412 11.3266 30.314 11.2672C30.3357 11.2593 30.3574 11.2515 30.3798 11.2434C30.6193 11.1589 30.8434 11.1294 31.0979 11.1298C31.1106 11.1298 31.1232 11.1298 31.1363 11.1298C31.3424 11.1306 31.5319 11.1478 31.7283 11.2113C31.7408 11.2151 31.7534 11.2189 31.7663 11.2228C32.1786 11.3493 32.5123 11.6322 32.7145 12.0125C32.7245 12.0302 32.7346 12.0479 32.7449 12.0662C32.8624 12.2838 32.928 12.5314 32.9564 12.7764C32.9579 12.7892 32.9594 12.802 32.961 12.8152C32.9787 12.9819 32.9776 13.1483 32.9774 13.3157C32.9774 13.3491 32.9775 13.3825 32.9775 13.4159C32.9776 13.506 32.9775 13.5962 32.9775 13.6863C32.9774 13.7808 32.9775 13.8752 32.9775 13.9696C32.9775 14.128 32.9775 14.2863 32.9774 14.4447C32.9773 14.628 32.9773 14.8112 32.9774 14.9945C32.9775 15.1519 32.9775 15.3094 32.9775 15.4668C32.9775 15.5608 32.9775 15.6548 32.9775 15.7488C32.9776 15.837 32.9775 15.9252 32.9774 16.0134C32.9774 16.0458 32.9774 16.0783 32.9775 16.1107C32.9775 16.1548 32.9774 16.1989 32.9773 16.2429C32.9774 16.2559 32.9774 16.2689 32.9775 16.2823C32.9771 16.3704 32.9771 16.3704 32.9564 16.3912C32.9031 16.393 32.8504 16.3935 32.7971 16.3933C32.7721 16.3933 32.7721 16.3933 32.7465 16.3933C32.691 16.3933 32.6356 16.3931 32.5801 16.393C32.5417 16.393 32.5034 16.3929 32.465 16.3929C32.3638 16.3929 32.2627 16.3927 32.1615 16.3925C32.0584 16.3923 31.9552 16.3922 31.8521 16.3921C31.6495 16.3919 31.447 16.3916 31.2444 16.3912C31.2444 16.3691 31.2444 16.3691 31.2443 16.3467C31.2427 15.9885 31.241 15.6303 31.2391 15.2721C31.2382 15.0989 31.2373 14.9257 31.2366 14.7525C31.236 14.6015 31.2352 14.4504 31.2343 14.2994C31.2339 14.2195 31.2335 14.1396 31.2332 14.0596C31.233 13.9843 31.2326 13.9089 31.232 13.8336C31.2319 13.8061 31.2318 13.7785 31.2317 13.751C31.2315 13.5959 31.2232 13.4496 31.1886 13.2981C31.1817 13.2673 31.1817 13.2673 31.1746 13.2358C31.1305 13.0876 31.0565 12.995 30.9467 12.8882C30.9352 12.8752 30.9237 12.8622 30.9118 12.8489C30.8619 12.8045 30.8139 12.7864 30.7513 12.7636C30.7304 12.7559 30.7095 12.7481 30.688 12.7401C30.4341 12.6538 30.1868 12.7025 29.9489 12.8149C29.8884 12.8458 29.8884 12.8458 29.8566 12.8812C29.8302 12.9069 29.8302 12.9069 29.793 12.9069C29.7881 12.9177 29.7832 12.9285 29.7782 12.9397C29.7548 12.9833 29.7279 13.0152 29.6953 13.0524C29.5037 13.2952 29.4712 13.5925 29.4708 13.8909C29.4706 13.9183 29.4704 13.9457 29.4702 13.9731C29.4697 14.0468 29.4694 14.1206 29.4692 14.1944C29.4689 14.2717 29.4684 14.349 29.4679 14.4263C29.467 14.5725 29.4663 14.7187 29.4657 14.8648C29.465 15.0313 29.4641 15.1978 29.4632 15.3643C29.4612 15.7066 29.4596 16.0489 29.4581 16.3912C29.2352 16.3916 29.0123 16.3919 28.7894 16.3921C28.6859 16.3922 28.5825 16.3924 28.479 16.3926C28.3792 16.3928 28.2794 16.3929 28.1796 16.393C28.1415 16.393 28.1033 16.3931 28.0652 16.3932C28.0119 16.3933 27.9587 16.3933 27.9054 16.3933C27.8895 16.3934 27.8735 16.3934 27.8571 16.3935C27.7483 16.3933 27.7483 16.3933 27.7275 16.3726C27.7257 16.3341 27.7251 16.2956 27.7251 16.2571C27.725 16.2388 27.725 16.2388 27.725 16.2201C27.7249 16.179 27.7249 16.1378 27.7249 16.0966C27.7248 16.0672 27.7248 16.0378 27.7247 16.0084C27.7246 15.9449 27.7245 15.8813 27.7244 15.8178C27.7243 15.7173 27.724 15.6167 27.7236 15.5162C27.7235 15.4817 27.7234 15.4473 27.7233 15.4129C27.7232 15.387 27.7232 15.387 27.7231 15.3607C27.7223 15.1265 27.7217 14.8923 27.7215 14.6581C27.7213 14.5003 27.7209 14.3425 27.7202 14.1847C27.7198 14.1012 27.7196 14.0177 27.7197 13.9342C27.7198 13.8555 27.7195 13.7768 27.719 13.6981C27.7189 13.6693 27.7189 13.6405 27.719 13.6118C27.7202 13.3354 27.651 13.1044 27.467 12.8929C27.3029 12.7374 27.0658 12.6951 26.8488 12.6965C26.7381 12.705 26.6401 12.7377 26.5366 12.7764C26.5136 12.7841 26.4906 12.7918 26.4669 12.7997C26.2699 12.9059 26.1116 13.096 26.0409 13.3086C25.9747 13.5305 25.957 13.74 25.956 13.9713C25.9558 13.9977 25.9556 14.0242 25.9554 14.0507C25.9549 14.1221 25.9545 14.1935 25.9541 14.265C25.9537 14.3398 25.9532 14.4146 25.9527 14.4894C25.9518 14.6309 25.951 14.7723 25.9502 14.9138C25.9491 15.1051 25.9478 15.2964 25.9466 15.4877C25.9447 15.7889 25.9429 16.09 25.9412 16.3912C25.3762 16.3912 24.8113 16.3912 24.2292 16.3912C24.2292 14.6818 24.2292 12.9724 24.2292 11.2113C24.7942 11.2113 25.3591 11.2113 25.9412 11.2113C25.9504 11.5802 25.9504 11.5802 25.9598 11.9566C26.0151 11.8828 26.0703 11.809 26.1273 11.733C26.2365 11.6144 26.3467 11.5232 26.4808 11.4349C26.495 11.4242 26.5091 11.4135 26.5237 11.4024C26.6375 11.3205 26.7566 11.2759 26.889 11.2334C26.9143 11.2253 26.9143 11.2253 26.9401 11.217C27.1594 11.1502 27.3708 11.1295 27.5996 11.1298Z" fill="white"/>
<path id="Vector_3" d="M43.3025 9.29224C43.8736 9.29224 44.4447 9.29224 45.0331 9.29224C45.0331 11.6349 45.0331 13.9776 45.0331 16.3913C44.462 16.3913 43.8909 16.3913 43.3025 16.3913C43.2964 16.1945 43.2903 15.9978 43.2839 15.7951C43.2197 15.8677 43.2197 15.8677 43.1559 15.9406C43.1062 15.9958 43.0755 16.0206 43.0048 16.0373C42.997 16.054 42.997 16.054 42.989 16.0711C42.9574 16.1311 42.9054 16.154 42.8478 16.1852C42.8362 16.1916 42.8246 16.1981 42.8126 16.2047C42.2858 16.4933 41.6223 16.5303 41.0457 16.3649C40.9747 16.3424 40.9097 16.3147 40.844 16.2795C40.7825 16.2474 40.7238 16.2182 40.6579 16.1968C40.5604 16.1621 40.4816 16.0993 40.3997 16.0373C40.3847 16.0261 40.3698 16.015 40.3543 16.0035C40.1083 15.814 39.8776 15.5787 39.7484 15.292C39.7484 15.2797 39.7484 15.2674 39.7484 15.2547C39.7361 15.2547 39.7239 15.2547 39.7112 15.2547C39.6437 15.1135 39.5886 14.9714 39.5402 14.8227C39.5307 14.7939 39.5307 14.7939 39.521 14.7646C39.3084 14.1188 39.3321 13.3446 39.5437 12.702C39.5478 12.689 39.552 12.6761 39.5562 12.6627C39.5979 12.5313 39.6467 12.4137 39.7212 12.2976C39.7475 12.2563 39.7701 12.2144 39.7926 12.171C39.8681 12.0335 39.9716 11.9167 40.0834 11.8077C40.1005 11.7864 40.1175 11.765 40.1345 11.7436C40.1891 11.6787 40.2506 11.6367 40.3221 11.5918C40.3586 11.568 40.3904 11.543 40.423 11.5142C40.4724 11.4737 40.5088 11.4583 40.5672 11.435C40.5942 11.4179 40.6209 11.4005 40.6474 11.3826C40.9021 11.2278 41.2755 11.1466 41.572 11.1369C41.5847 11.1364 41.5974 11.1359 41.6105 11.1354C42.0129 11.122 42.4545 11.1736 42.8001 11.3977C42.8237 11.411 42.8474 11.4242 42.8711 11.4373C42.9635 11.4918 42.9635 11.4918 43.0048 11.5282C43.0048 11.5405 43.0048 11.5528 43.0048 11.5654C43.0148 11.5697 43.0248 11.5739 43.0351 11.5782C43.1427 11.6378 43.2049 11.7127 43.2839 11.8077C43.2931 10.5625 43.2931 10.5625 43.3025 9.29224ZM41.6092 12.7393C41.5896 12.7508 41.5701 12.7624 41.5499 12.7742C41.4913 12.8186 41.4552 12.8655 41.4137 12.9256C41.3859 12.9629 41.3859 12.9629 41.3502 12.9941C41.2933 13.0577 41.2667 13.1301 41.2347 13.2086C41.2283 13.2237 41.2218 13.2389 41.2152 13.2545C41.0791 13.5827 41.0649 14.0108 41.1998 14.3417C41.2635 14.49 41.3226 14.6214 41.4417 14.733C41.4609 14.7569 41.4799 14.781 41.4987 14.8052C41.6264 14.9526 41.8273 15.0548 42.0214 15.0743C42.0876 15.0772 42.1535 15.0778 42.2198 15.0777C42.242 15.0782 42.2642 15.0788 42.2871 15.0793C42.5545 15.0799 42.7645 14.9654 42.9595 14.7877C43.2532 14.4734 43.3169 14.0797 43.3052 13.6632C43.2993 13.5568 43.2754 13.4566 43.2467 13.3542C43.2427 13.3374 43.2387 13.3207 43.2345 13.3034C43.2039 13.1856 43.1533 13.0786 43.0792 12.9815C43.067 12.9815 43.0547 12.9815 43.042 12.9815C43.0376 12.9679 43.0332 12.9542 43.0287 12.9401C42.961 12.7933 42.7781 12.672 42.6327 12.6089C42.2915 12.5064 41.8975 12.5121 41.6092 12.7393Z" fill="white"/>
<path id="Vector_4" d="M15.5233 11.1298C15.536 11.1298 15.5486 11.1298 15.5617 11.1298C15.7675 11.1306 15.9577 11.147 16.1536 11.2113C16.1668 11.2155 16.18 11.2197 16.1935 11.224C16.3494 11.2748 16.4866 11.3365 16.6188 11.4349C16.6486 11.454 16.6785 11.473 16.7084 11.4919C16.7725 11.5346 16.8146 11.5777 16.8608 11.6398C16.8792 11.6548 16.8976 11.6698 16.9166 11.6853C16.9748 11.7351 17.0068 11.7797 17.0468 11.8448C17.0591 11.8619 17.0591 11.8619 17.0716 11.8794C17.1333 11.9662 17.182 12.056 17.2271 12.1522C17.2324 12.1635 17.2377 12.1748 17.2432 12.1864C17.4498 12.6386 17.4081 13.1535 17.406 13.639C17.4057 13.7361 17.4057 13.8331 17.4056 13.9301C17.4054 14.1132 17.405 14.2962 17.4044 14.4792C17.4037 14.7271 17.4034 14.9749 17.403 15.2228C17.4025 15.6122 17.4014 16.0017 17.4004 16.3912C16.8354 16.3912 16.2705 16.3912 15.6884 16.3912C15.6875 16.1873 15.6866 15.9834 15.6857 15.7733C15.685 15.6438 15.6844 15.5143 15.6837 15.3848C15.6825 15.1795 15.6814 14.9741 15.6806 14.7688C15.68 14.6192 15.6792 14.4696 15.6783 14.32C15.6779 14.2409 15.6775 14.1618 15.6772 14.0827C15.677 14.008 15.6766 13.9333 15.676 13.8587C15.6759 13.8315 15.6758 13.8043 15.6757 13.7771C15.6752 13.4522 15.6587 13.1696 15.426 12.9213C15.2407 12.7473 15.0196 12.6884 14.7688 12.6959C14.6733 12.7045 14.5875 12.7249 14.4975 12.7578C14.4831 12.763 14.4686 12.7682 14.4536 12.7735C14.256 12.8527 14.0669 13.0108 13.9773 13.2067C13.9408 13.2977 13.9111 13.3904 13.8835 13.4845C13.88 13.4958 13.8766 13.5071 13.8731 13.5188C13.8623 13.5716 13.8622 13.6216 13.8619 13.6755C13.8617 13.6994 13.8616 13.7234 13.8614 13.748C13.8613 13.7745 13.8612 13.801 13.861 13.8275C13.8609 13.8554 13.8607 13.8833 13.8605 13.9112C13.86 13.987 13.8596 14.0627 13.8592 14.1385C13.8588 14.2176 13.8583 14.2968 13.8578 14.376C13.8569 14.5259 13.856 14.6759 13.8552 14.8258C13.8542 15.0284 13.8529 15.231 13.8517 15.4336C13.8498 15.7528 13.848 16.072 13.8463 16.3912C13.2752 16.3912 12.7041 16.3912 12.1157 16.3912C12.1157 14.6818 12.1157 12.9724 12.1157 11.2113C12.6868 11.2113 13.2579 11.2113 13.8463 11.2113C13.8524 11.4511 13.8585 11.6909 13.8649 11.938C13.914 11.8765 13.9631 11.815 14.0137 11.7516C14.044 11.7198 14.075 11.6887 14.1068 11.6585C14.1154 11.6488 14.124 11.6392 14.1329 11.6292C14.2319 11.5211 14.3528 11.4514 14.4789 11.379C14.4917 11.3713 14.5044 11.3637 14.5175 11.3558C14.6182 11.297 14.7171 11.2584 14.829 11.2264C14.8441 11.2218 14.8592 11.2172 14.8748 11.2125C15.0902 11.1492 15.2993 11.1295 15.5233 11.1298Z" fill="white"/>
<path id="Vector_5" d="M20.7796 11.1309C20.8308 11.1309 20.8821 11.1305 20.9333 11.13C21.2402 11.1289 21.5323 11.1687 21.8277 11.2532C21.8475 11.2588 21.8673 11.2644 21.8876 11.2702C22.0332 11.3132 22.1495 11.3684 22.2754 11.4535C22.3043 11.468 22.3333 11.482 22.3627 11.4954C22.4243 11.528 22.4243 11.528 22.4429 11.5839C22.4758 11.6027 22.4758 11.6027 22.5173 11.6212C22.6051 11.6736 22.662 11.7262 22.722 11.8075C22.722 11.8198 22.722 11.8321 22.722 11.8448C22.7336 11.8496 22.7451 11.8543 22.757 11.8592C22.8026 11.8856 22.8119 11.902 22.8325 11.9496C22.8634 12.017 22.8991 12.0771 22.9407 12.1383C23.0066 12.2573 23.0375 12.3889 23.0686 12.5202C23.0726 12.5364 23.0767 12.5525 23.0808 12.5691C23.1373 12.8056 23.134 13.0444 23.1335 13.2859C23.1335 13.3199 23.1335 13.3539 23.1335 13.3879C23.1335 13.4796 23.1334 13.5712 23.1333 13.6629C23.1332 13.7589 23.1332 13.8549 23.1331 13.9509C23.1331 14.1324 23.1329 14.314 23.1327 14.4955C23.1325 14.741 23.1324 14.9865 23.1323 15.232C23.1321 15.6184 23.1317 16.0048 23.1314 16.3912C22.5665 16.3912 22.0015 16.3912 21.4195 16.3912C21.4133 16.219 21.4072 16.0469 21.4009 15.8695C21.3364 15.9433 21.3364 15.9433 21.2706 16.0185C21.2306 16.0535 21.1919 16.0859 21.1497 16.1175C21.1398 16.1253 21.1299 16.133 21.1198 16.141C21.0499 16.1943 20.9798 16.2284 20.8985 16.2608C20.8472 16.2843 20.796 16.308 20.7449 16.3319C20.2738 16.5352 19.5408 16.5192 19.0661 16.3346C18.8097 16.226 18.5739 16.0715 18.4236 15.8322C18.4063 15.8111 18.3889 15.7902 18.3713 15.7693C18.2363 15.5899 18.163 15.3616 18.1259 15.1428C18.1234 15.1288 18.121 15.1148 18.1185 15.1004C18.0713 14.7614 18.1246 14.4477 18.2561 14.1366C18.2632 14.1191 18.2703 14.1016 18.2776 14.0836C18.395 13.8195 18.6371 13.6293 18.8888 13.5031C18.9082 13.4923 18.9276 13.4815 18.9476 13.4704C19.2533 13.3106 19.6254 13.2572 19.9682 13.2588C19.9919 13.2588 19.9919 13.2588 20.0161 13.2588C20.0678 13.2588 20.1194 13.2589 20.1711 13.2591C20.2071 13.2591 20.2432 13.2591 20.2792 13.2592C20.3737 13.2592 20.4681 13.2594 20.5625 13.2596C20.6591 13.2598 20.7556 13.2599 20.8522 13.26C21.0413 13.2602 21.2304 13.2605 21.4195 13.2609C21.4144 13.2164 21.409 13.172 21.4036 13.1276C21.4014 13.1089 21.4014 13.1089 21.3993 13.0899C21.3792 12.9298 21.3095 12.7967 21.1962 12.6833C21.1526 12.6553 21.1118 12.6318 21.0659 12.6087C21.0555 12.6024 21.0451 12.5961 21.0343 12.5896C20.6254 12.3542 20.0684 12.4937 19.6447 12.6053C19.4939 12.6466 19.3522 12.6999 19.2109 12.7668C19.1539 12.793 19.0973 12.813 19.0377 12.8323C19.0181 12.8433 19.0181 12.8433 18.9981 12.8545C18.9632 12.8696 18.9632 12.8696 18.9272 12.869C18.8765 12.8452 18.8674 12.8141 18.8482 12.7632C18.844 12.7511 18.8397 12.7389 18.8353 12.7264C18.8257 12.7007 18.8161 12.6751 18.8064 12.6494C18.8016 12.6364 18.7968 12.6233 18.7918 12.6099C18.7697 12.552 18.7449 12.4955 18.7202 12.4387C18.6763 12.3372 18.6356 12.2348 18.5966 12.1314C18.579 12.0855 18.561 12.0399 18.5425 11.9944C18.5374 11.9819 18.5324 11.9694 18.5271 11.9565C18.5127 11.9212 18.4983 11.8859 18.4838 11.8506C18.4643 11.7984 18.4509 11.7506 18.4422 11.6957C18.4524 11.6912 18.4626 11.6867 18.4731 11.6821C18.5459 11.6498 18.6185 11.6173 18.6908 11.5839C18.8333 11.5187 18.9733 11.4585 19.1245 11.416C19.1815 11.3991 19.2366 11.3791 19.2924 11.3584C19.4647 11.2959 19.6406 11.2588 19.8204 11.2253C19.8327 11.2229 19.845 11.2206 19.8577 11.2182C20.1655 11.1607 20.4662 11.1301 20.7796 11.1309ZM19.8297 14.3835C19.7416 14.5387 19.7207 14.6914 19.757 14.8662C19.7921 14.9887 19.8354 15.0787 19.9494 15.1428C19.9617 15.1428 19.974 15.1428 19.9867 15.1428C19.9867 15.1551 19.9867 15.1674 19.9867 15.1801C20.1968 15.3008 20.4971 15.2985 20.731 15.2546C20.9927 15.1727 21.2258 15.0232 21.3741 14.7888C21.4302 14.6666 21.4247 14.55 21.4223 14.4173C21.4221 14.3957 21.4219 14.374 21.4217 14.3517C21.4212 14.2987 21.4204 14.2456 21.4195 14.1925C21.2753 14.1912 21.1312 14.1902 20.9871 14.1896C20.9201 14.1893 20.8531 14.189 20.7862 14.1883C20.7214 14.1877 20.6566 14.1874 20.5918 14.1872C20.5555 14.1871 20.5191 14.1866 20.4827 14.1862C20.2539 14.1862 20.0046 14.2218 19.8297 14.3835Z" fill="white"/>
<path id="Vector_6" d="M37.7017 11.4162C37.7202 11.4347 37.7202 11.4347 37.739 11.4535C37.7821 11.4728 37.8255 11.4914 37.8692 11.5094C37.8815 11.5156 37.8938 11.5217 37.9064 11.528C37.9064 11.5403 37.9064 11.5526 37.9064 11.5653C37.919 11.5692 37.9317 11.5731 37.9447 11.5772C38.0176 11.611 38.0719 11.658 38.132 11.7109C38.1443 11.7216 38.1565 11.7322 38.1691 11.7432C38.3248 11.8824 38.4564 12.0341 38.5577 12.2175C38.5747 12.2439 38.5918 12.2703 38.6089 12.2966C38.7493 12.5314 38.8376 12.7892 38.8926 13.0559C38.8978 13.0794 38.9029 13.1028 38.9081 13.127C38.983 13.4932 39.0287 13.8966 38.9671 14.2671C37.7942 14.2671 36.6214 14.2671 35.413 14.2671C35.4787 14.4383 35.5266 14.5583 35.6363 14.6956C35.6476 14.7102 35.6588 14.7248 35.6705 14.7398C35.8516 14.9597 36.1023 15.072 36.3806 15.1055C36.7413 15.1367 37.0579 15.0696 37.3668 14.8819C37.4911 14.8074 37.4911 14.8074 37.5343 14.8074C37.5389 14.7964 37.5436 14.7853 37.5484 14.7739C37.5746 14.7273 37.6009 14.7043 37.6436 14.6723C37.6625 14.6578 37.6625 14.6578 37.6818 14.6429C37.7203 14.6211 37.7203 14.6211 37.7948 14.6211C37.8369 14.6543 37.8369 14.6543 37.8835 14.7015C37.8921 14.71 37.9006 14.7185 37.9094 14.7273C37.9376 14.7556 37.9655 14.7841 37.9934 14.8126C38.0128 14.8323 38.0323 14.8519 38.0519 14.8715C38.1032 14.9232 38.1543 14.9751 38.2053 15.027C38.2574 15.08 38.3098 15.1327 38.3621 15.1855C38.4647 15.2891 38.5671 15.3929 38.6693 15.4968C38.6426 15.5533 38.6195 15.5868 38.5705 15.6261C38.5285 15.6606 38.4904 15.6946 38.4519 15.7332C38.4143 15.7708 38.3787 15.8031 38.3344 15.8322C38.3221 15.8322 38.3098 15.8322 38.2972 15.8322C38.2911 15.8506 38.2849 15.8691 38.2786 15.8881C38.2146 15.9378 38.1433 15.977 38.0739 16.0185C38.0431 16.0383 38.0431 16.0383 38.0117 16.0584C37.7049 16.2492 37.3213 16.3753 36.9618 16.4118C36.9465 16.4133 36.9313 16.4149 36.9155 16.4165C36.745 16.4327 36.575 16.435 36.4038 16.4343C36.3796 16.4342 36.3796 16.4342 36.3549 16.4342C35.8974 16.4326 35.4788 16.3788 35.0594 16.1862C35.0411 16.178 35.0411 16.178 35.0225 16.1697C34.7589 16.0451 34.4947 15.8793 34.3151 15.6459C34.2938 15.6251 34.2938 15.6251 34.2721 15.604C34.036 15.3621 34.036 15.3621 34.036 15.2546C34.0237 15.2546 34.0114 15.2546 33.9988 15.2546C33.9947 15.2437 33.9906 15.2329 33.9864 15.2217C33.9523 15.1333 33.915 15.0501 33.8697 14.9669C33.7932 14.8155 33.7553 14.6557 33.7196 14.4906C33.7165 14.4765 33.7134 14.4624 33.7102 14.4479C33.6226 14.0296 33.6331 13.5664 33.7196 13.1491C33.7222 13.1355 33.7248 13.1218 33.7275 13.1078C33.7665 12.903 33.8342 12.7217 33.9243 12.5342C33.9391 12.5023 33.9391 12.5023 33.9543 12.4698C34.0035 12.3668 34.0539 12.2842 34.129 12.1988C34.1375 12.1808 34.1459 12.1627 34.1546 12.1441C34.189 12.0792 34.2298 12.0388 34.2825 11.9886C34.3188 11.9541 34.3188 11.9541 34.3604 11.9007C34.6565 11.5536 35.1266 11.3189 35.5653 11.2264C35.5874 11.2217 35.6095 11.217 35.6323 11.2121C36.2977 11.0729 37.0906 11.0828 37.7017 11.4162ZM35.6549 12.6833C35.6101 12.7329 35.6101 12.7329 35.599 12.7951C35.5868 12.7951 35.5745 12.7951 35.5618 12.7951C35.4188 13.0517 35.4188 13.0517 35.3571 13.3354C36.0019 13.3354 36.6467 13.3354 37.311 13.3354C37.2686 12.9958 37.2125 12.7742 36.9541 12.5558C36.9187 12.5285 36.8832 12.5028 36.8458 12.4783C36.8322 12.4688 36.8186 12.4592 36.8046 12.4493C36.737 12.4142 36.6727 12.403 36.5981 12.391C36.5846 12.3886 36.5712 12.3861 36.5574 12.3837C36.1972 12.3225 35.9083 12.4272 35.6549 12.6833Z" fill="white"/>
<path id="Vector_7" d="M0.612666 10.9294C0.634318 10.9293 0.65597 10.9293 0.678279 10.9292C0.737967 10.9291 0.797656 10.9291 0.857345 10.9291C0.921886 10.9291 0.986428 10.929 1.05097 10.929C1.17729 10.9288 1.3036 10.9287 1.42992 10.9287C1.5327 10.9287 1.63549 10.9287 1.73827 10.9286C2.03018 10.9285 2.32208 10.9284 2.61399 10.9284C2.63757 10.9284 2.63757 10.9284 2.66162 10.9284C2.67736 10.9284 2.6931 10.9284 2.70932 10.9284C2.96407 10.9284 3.21882 10.9282 3.47357 10.928C3.73564 10.9277 3.99771 10.9276 4.25978 10.9276C4.40671 10.9276 4.55364 10.9275 4.70058 10.9273C4.82574 10.9272 4.9509 10.9271 5.07607 10.9273C5.1398 10.9273 5.20352 10.9273 5.26725 10.9272C5.6281 10.9264 5.96242 10.9386 6.30995 11.0436C6.32818 11.0485 6.34641 11.0534 6.36519 11.0585C6.61897 11.1325 6.85708 11.2795 7.05427 11.4536C7.07517 11.4703 7.0961 11.487 7.11707 11.5036C7.16488 11.5458 7.20081 11.5901 7.24034 11.6399C7.25608 11.6522 7.27182 11.6645 7.28803 11.6772C7.33634 11.7168 7.3614 11.7519 7.38921 11.8076C7.38921 11.8199 7.38921 11.8322 7.38921 11.8449C7.40763 11.851 7.42605 11.8572 7.44503 11.8635C7.48884 11.9278 7.52122 11.9993 7.55668 12.0684C7.56898 12.0905 7.58134 12.1126 7.59375 12.1346C7.70285 12.3335 7.75543 12.536 7.79858 12.7579C7.80242 12.7763 7.80626 12.7947 7.81021 12.8138C7.82021 12.8938 7.81914 12.9731 7.81835 13.0537C7.81827 13.07 7.81819 13.0864 7.8181 13.1033C7.81788 13.1434 7.81755 13.1835 7.81719 13.2237C7.71545 13.2746 7.6373 13.2876 7.52436 13.2864C7.50047 13.2865 7.50047 13.2865 7.47609 13.2866C7.4229 13.2867 7.36972 13.2865 7.31654 13.2862C7.27828 13.2862 7.24002 13.2863 7.20176 13.2863C7.0977 13.2864 6.99366 13.2862 6.88961 13.2859C6.77976 13.2856 6.66991 13.2856 6.56007 13.2856C6.37473 13.2855 6.18939 13.2852 6.00405 13.2848C5.76925 13.2843 5.53445 13.2841 5.29964 13.284C5.09505 13.2839 4.89046 13.2837 4.68587 13.2834C4.62164 13.2834 4.5574 13.2833 4.49317 13.2833C3.83451 13.2826 3.17629 13.2727 2.51783 13.2566C2.50503 13.2562 2.49222 13.2559 2.47903 13.2556C2.24726 13.2498 2.01758 13.24 1.78821 13.205C1.76969 13.2022 1.76969 13.2022 1.75079 13.1994C1.58842 13.1738 1.45017 13.1311 1.30441 13.056C1.2856 13.0471 1.2668 13.0382 1.24742 13.0291C1.1451 12.9801 1.05304 12.9286 0.964375 12.8577C0.929406 12.8292 0.929406 12.8292 0.876424 12.7975C0.799383 12.7428 0.737215 12.6766 0.671736 12.6088C0.656385 12.5942 0.641033 12.5796 0.625216 12.5645C0.398619 12.3263 0.236663 12.0504 0.150713 11.7331C0.147217 11.7203 0.143721 11.7075 0.140119 11.6944C0.0887016 11.5046 0.0541469 11.3241 0.0565107 11.1275C0.0565946 11.1139 0.0566786 11.1004 0.0567651 11.0864C0.0569812 11.0535 0.0573148 11.0206 0.0576737 10.9877C0.0820666 10.9818 0.106498 10.976 0.130942 10.9703C0.144543 10.967 0.158144 10.9638 0.172156 10.9605C0.319104 10.9328 0.463638 10.9291 0.612666 10.9294Z" fill="white"/>
<path id="Vector_8" d="M3.6548 14.0596C3.76703 14.0596 3.87925 14.0596 3.99148 14.0596C4.17996 14.0595 4.36844 14.0596 4.55692 14.0597C4.77217 14.0598 4.98741 14.0597 5.20265 14.0596C5.38998 14.0595 5.5773 14.0595 5.76462 14.0596C5.87538 14.0596 5.98614 14.0596 6.0969 14.0595C6.67683 14.0593 7.25623 14.0662 7.83598 14.0807C7.83637 14.116 7.83664 14.1513 7.83687 14.1865C7.83712 14.216 7.83712 14.216 7.83737 14.2461C7.83536 14.3301 7.8204 14.4089 7.80225 14.4906C7.79714 14.5147 7.79714 14.5147 7.79193 14.5392C7.78206 14.5852 7.77185 14.6311 7.76154 14.677C7.75667 14.6993 7.7518 14.7217 7.74679 14.7447C7.72011 14.86 7.68353 14.9624 7.63129 15.0683C7.61996 15.0923 7.60865 15.1163 7.59734 15.1403C7.53366 15.2737 7.47362 15.389 7.37078 15.4968C7.35754 15.5199 7.35754 15.5199 7.34403 15.5434C7.30839 15.6005 7.26447 15.6422 7.21624 15.6887C7.18181 15.7219 7.18181 15.7219 7.14632 15.7705C7.10265 15.8227 7.05601 15.8516 6.99862 15.8881C6.97683 15.9051 6.95512 15.9222 6.93349 15.9393C6.73129 16.0926 6.50663 16.1963 6.26244 16.2607C6.24605 16.2654 6.22965 16.27 6.21276 16.2747C5.84877 16.3712 5.48116 16.3807 5.10688 16.379C5.03936 16.3788 4.97183 16.3789 4.90431 16.3789C4.78782 16.3789 4.67134 16.3788 4.55485 16.3785C4.38644 16.378 4.21803 16.3779 4.04961 16.3778C3.77626 16.3777 3.5029 16.3773 3.22954 16.3768C2.96429 16.3762 2.69904 16.3759 2.43378 16.3756C2.41738 16.3756 2.40098 16.3756 2.38408 16.3756C2.30179 16.3755 2.2195 16.3754 2.13721 16.3754C1.4565 16.3748 0.775781 16.3738 0.095066 16.3725C0.0444044 16.1284 0.0643266 15.8657 0.132282 15.6272C0.137895 15.6064 0.143508 15.5855 0.149291 15.5641C0.218073 15.3233 0.340784 15.0736 0.504441 14.8819C0.516722 14.8819 0.529004 14.8819 0.541657 14.8819C0.546262 14.8685 0.550868 14.855 0.555613 14.8412C0.602387 14.7358 0.680563 14.6691 0.76677 14.5959C0.801721 14.5666 0.801721 14.5666 0.828845 14.5368C0.865971 14.5017 0.907069 14.4792 0.951032 14.4534C0.978277 14.4333 1.00541 14.4131 1.03244 14.3928C1.14271 14.3151 1.25962 14.2592 1.3833 14.2066C1.41153 14.1945 1.4395 14.1819 1.4674 14.1691C1.74987 14.0554 2.09765 14.0791 2.39684 14.0706C2.41793 14.07 2.41793 14.07 2.43944 14.0694C2.84449 14.0583 3.24963 14.0594 3.6548 14.0596Z" fill="white"/>
<path id="Vector_9" d="M4.3175 7.85504C4.4421 7.85513 4.56671 7.85517 4.69132 7.85519C5.71474 7.85541 6.73805 7.85818 7.76135 7.8761C7.76157 7.9083 7.76173 7.94049 7.76187 7.97268C7.76196 7.99061 7.76206 8.00853 7.76216 8.027C7.75817 8.29365 7.69314 8.54367 7.59388 8.78911C7.58596 8.80981 7.57805 8.83052 7.56989 8.85185C7.52212 8.97313 7.46801 9.09441 7.38919 9.19903C7.37691 9.19903 7.36463 9.19903 7.35197 9.19903C7.35044 9.21248 7.3489 9.22593 7.34732 9.23979C7.32215 9.33431 7.25179 9.39251 7.1845 9.45989C7.17069 9.47718 7.15687 9.49447 7.14263 9.51229C6.87434 9.835 6.42238 10.0419 6.0122 10.0934C5.8853 10.1041 5.75797 10.1084 5.63074 10.1132C5.61183 10.114 5.59292 10.1147 5.57343 10.1155C5.2135 10.1298 4.85348 10.1369 4.49333 10.1423C4.48091 10.1425 4.4685 10.1427 4.4557 10.1429C3.61994 10.1559 2.78409 10.1487 1.9483 10.1421C1.85785 10.1413 1.76741 10.1407 1.67696 10.14C1.11843 10.1361 0.560063 10.132 0.00183295 10.112C-0.00621344 9.74679 0.00593798 9.4589 0.169305 9.1245C0.182545 9.09164 0.182545 9.09164 0.196053 9.05812C0.305443 8.81714 0.464614 8.60071 0.653111 8.41645C0.664649 8.40449 0.676187 8.39253 0.688074 8.38021C0.758959 8.30721 0.826433 8.24631 0.913623 8.19286C0.924728 8.18472 0.935834 8.17658 0.947277 8.16819C1.23954 7.95741 1.57423 7.87573 1.92885 7.87029C1.95029 7.86991 1.97173 7.86953 1.99382 7.86913C2.05324 7.86812 2.11266 7.86719 2.17208 7.86632C2.2103 7.86576 2.24852 7.86518 2.28673 7.86459C2.96362 7.85429 3.64055 7.85456 4.3175 7.85504Z" fill="white"/>
<path id="Vector_10" d="M9.13843 11.2113C9.70337 11.2113 10.2683 11.2113 10.8504 11.2113C10.8504 12.9207 10.8504 14.63 10.8504 16.3912C10.2854 16.3912 9.72048 16.3912 9.13843 16.3912C9.13843 14.6818 9.13843 12.9725 9.13843 11.2113Z" fill="white"/>
<path id="Vector_11" d="M10.5897 9.01904C10.7738 9.16144 10.8755 9.40185 10.906 9.62766C10.9244 9.89651 10.8714 10.1126 10.7199 10.3357C10.7118 10.3481 10.7036 10.3606 10.6952 10.3734C10.5754 10.5335 10.372 10.6303 10.1803 10.6711C10.1145 10.6782 10.0499 10.679 9.98376 10.6781C9.95917 10.6784 9.95917 10.6784 9.93408 10.6787C9.71178 10.6777 9.48671 10.5847 9.3234 10.4328C9.20988 10.3039 9.12238 10.1492 9.08244 9.98168C9.07822 9.96438 9.074 9.94709 9.06965 9.92927C9.03991 9.62551 9.09494 9.3791 9.27201 9.12807C9.60346 8.72453 10.1914 8.75266 10.5897 9.01904Z" fill="white"/>
<path id="Vector_12" d="M6.38428 18.2358C6.46411 18.2358 6.54393 18.2358 6.62618 18.2358C6.67143 18.3652 6.70636 18.495 6.73783 18.6283C6.7427 18.6488 6.74758 18.6692 6.7526 18.6903C6.7852 18.8288 6.81369 18.9675 6.8385 19.1076C6.85146 19.1783 6.86793 19.2472 6.88669 19.3165C6.92183 19.2638 6.93581 19.2279 6.95276 19.1678C6.96069 19.1401 6.96069 19.1401 6.96878 19.1119C6.97708 19.0823 6.97708 19.0823 6.98555 19.0522C7.02005 18.9305 7.05483 18.8094 7.0956 18.6896C7.14736 18.5364 7.16327 18.3966 7.16581 18.2358C7.2395 18.2358 7.31319 18.2358 7.38911 18.2358C7.43008 18.3273 7.46272 18.4179 7.49029 18.5142C7.49628 18.5348 7.49628 18.5348 7.50239 18.5558C7.53225 18.6598 7.55853 18.7645 7.584 18.8696C7.60706 18.9633 7.63376 19.0556 7.66241 19.1477C7.6664 19.1606 7.6704 19.1735 7.67451 19.1868C7.69041 19.2472 7.69041 19.2472 7.72405 19.2979C7.83672 18.8288 7.83672 18.8288 7.93448 18.3564C7.94735 18.2917 7.94735 18.2917 7.96595 18.2358C8.05192 18.2358 8.13789 18.2358 8.22646 18.2358C8.21818 18.352 8.19488 18.4591 8.16542 18.5717C8.13541 18.6887 8.11209 18.8067 8.08923 18.9253C8.05442 19.1051 8.01367 19.2826 7.96698 19.4597C7.93434 19.5851 7.91142 19.7101 7.89152 19.8383C7.79941 19.8383 7.7073 19.8383 7.6124 19.8383C7.54044 19.6317 7.54044 19.6317 7.52162 19.5292C7.49889 19.4104 7.46184 19.2966 7.42516 19.1815C7.41169 19.1391 7.39829 19.0967 7.38496 19.0542C7.37906 19.0357 7.37316 19.0172 7.36708 18.9981C7.35164 18.943 7.34164 18.8887 7.33328 18.8321C7.29397 18.8715 7.28616 18.8907 7.26997 18.9426C7.26534 18.9573 7.26072 18.972 7.25595 18.9871C7.25115 19.0028 7.24635 19.0185 7.24141 19.0347C7.23638 19.0509 7.23135 19.0671 7.22617 19.0837C7.2008 19.1663 7.17722 19.2487 7.15767 19.3328C7.11733 19.5048 7.05532 19.6713 6.99834 19.8383C6.91237 19.8383 6.8264 19.8383 6.73783 19.8383C6.67585 19.6264 6.62163 19.4156 6.58279 19.198C6.55095 19.0243 6.50825 18.8537 6.46482 18.6826C6.42723 18.5339 6.39419 18.3895 6.38428 18.2358Z" fill="white"/>
<path id="Vector_13" d="M1.50903 18.2356C1.595 18.2356 1.68097 18.2356 1.76954 18.2356C1.82651 18.3037 1.85049 18.3424 1.88119 18.422C1.89202 18.4475 1.89202 18.4475 1.90307 18.4736C1.9184 18.5101 1.93338 18.5468 1.94806 18.5835C1.99449 18.6936 2.0497 18.7993 2.10382 18.9057C2.13537 18.9679 2.16643 19.0303 2.19753 19.0927C2.20827 19.1143 2.21902 19.1358 2.23009 19.1579C2.24161 19.181 2.24161 19.181 2.25335 19.2045C2.33987 19.0475 2.41848 18.8912 2.48704 18.7255C2.52042 18.6492 2.56018 18.5777 2.60109 18.5053C2.62357 18.4629 2.64095 18.4217 2.65691 18.3765C2.6936 18.2768 2.6936 18.2768 2.73716 18.2356C2.78763 18.2301 2.83015 18.2285 2.88021 18.231C2.8998 18.2315 2.8998 18.2315 2.91979 18.232C2.95196 18.2329 2.98412 18.2342 3.01628 18.2356C3.01671 18.4418 3.01704 18.648 3.01724 18.8542C3.01734 18.9499 3.01747 19.0456 3.01768 19.1413C3.01788 19.2336 3.01799 19.3259 3.01804 19.4182C3.01808 19.4535 3.01814 19.4888 3.01824 19.5241C3.01838 19.5734 3.0184 19.6226 3.01839 19.6719C3.01846 19.6867 3.01852 19.7014 3.01859 19.7166C3.0184 19.8173 3.0184 19.8173 2.99767 19.838C2.9117 19.838 2.82573 19.838 2.73716 19.838C2.73102 19.4999 2.72488 19.1617 2.71855 18.8132C2.69399 18.8624 2.66943 18.9116 2.64412 18.9623C2.6327 18.985 2.62128 19.0076 2.60952 19.0309C2.51857 19.2115 2.43161 19.3938 2.34639 19.5772C2.28498 19.5772 2.22358 19.5772 2.16031 19.5772C2.153 19.562 2.1457 19.5468 2.13817 19.5311C2.11051 19.4736 2.08283 19.4161 2.05514 19.3586C2.04326 19.3339 2.03139 19.3092 2.01953 19.2846C2.00226 19.2487 1.98498 19.2128 1.96769 19.1769C1.9522 19.1447 1.9522 19.1447 1.93639 19.1118C1.88766 19.012 1.83779 18.9127 1.78815 18.8132C1.78201 19.1514 1.77587 19.4896 1.76954 19.838C1.68358 19.838 1.59761 19.838 1.50903 19.838C1.50903 19.3092 1.50903 18.7804 1.50903 18.2356Z" fill="white"/>
<path id="Vector_14" d="M31.3379 18.2358C31.4177 18.2358 31.4975 18.2358 31.5798 18.2358C31.6339 18.291 31.6582 18.3201 31.6914 18.3849C31.7298 18.4513 31.7716 18.5131 31.817 18.5747C31.9183 18.7131 32.0162 18.8533 32.1103 18.9966C32.1475 19.051 32.188 19.1025 32.2292 19.1539C32.2497 19.1861 32.2497 19.1861 32.2497 19.242C32.262 19.242 32.2742 19.242 32.2869 19.242C32.3053 19.2728 32.3237 19.3035 32.3427 19.3352C32.3489 18.9724 32.355 18.6096 32.3613 18.2358C32.4473 18.2358 32.5333 18.2358 32.6218 18.2358C32.6547 18.2687 32.6428 18.3121 32.643 18.3559C32.6429 18.3777 32.6429 18.3777 32.6429 18.4C32.6429 18.4228 32.6429 18.4228 32.643 18.4461C32.643 18.4968 32.643 18.5474 32.6429 18.598C32.6429 18.633 32.6429 18.6681 32.643 18.7031C32.643 18.7766 32.643 18.8501 32.6429 18.9236C32.6428 19.018 32.6428 19.1124 32.6429 19.2068C32.643 19.2792 32.643 19.3515 32.6429 19.4239C32.6429 19.4587 32.6429 19.4935 32.643 19.5284C32.643 19.577 32.643 19.6255 32.6429 19.6741C32.6429 19.6887 32.6429 19.7032 32.643 19.7182C32.6426 19.8175 32.6426 19.8175 32.6218 19.8383C32.5321 19.852 32.4377 19.8643 32.3594 19.8122C32.3246 19.7731 32.2964 19.7334 32.2683 19.6892C32.2577 19.673 32.247 19.6569 32.2361 19.6402C32.214 19.6058 32.1922 19.5712 32.1707 19.5364C32.1018 19.4262 32.0261 19.3211 31.9461 19.2187C31.9022 19.161 31.8767 19.1082 31.8589 19.037C31.8466 19.037 31.8344 19.037 31.8217 19.037C31.7204 18.8895 31.7204 18.8895 31.617 18.7389C31.6109 19.1017 31.6047 19.4645 31.5984 19.8383C31.5124 19.8383 31.4265 19.8383 31.3379 19.8383C31.3379 19.3095 31.3379 18.7807 31.3379 18.2358Z" fill="white"/>
<path id="Vector_15" d="M12.0039 18.2358C12.2458 18.2358 12.2458 18.2358 12.3062 18.287C12.3276 18.3201 12.3276 18.3201 12.347 18.3558C12.3582 18.3737 12.3582 18.3737 12.3696 18.3921C12.3844 18.4158 12.3988 18.4398 12.4129 18.4641C12.4369 18.5053 12.4632 18.5446 12.49 18.584C12.4986 18.5971 12.5072 18.6102 12.5161 18.6237C12.5473 18.67 12.5802 18.7149 12.6133 18.7599C12.6816 18.8529 12.7457 18.9483 12.8084 19.0451C12.8708 19.1405 12.938 19.2255 13.0087 19.3165C13.0149 18.9599 13.021 18.6033 13.0273 18.2358C13.1133 18.2358 13.1993 18.2358 13.2879 18.2358C13.2879 18.7646 13.2879 19.2934 13.2879 19.8383C13.046 19.8383 13.046 19.8383 12.9903 19.7918C12.9787 19.771 12.9671 19.7502 12.9552 19.7288C12.942 19.7064 12.9287 19.684 12.9154 19.6616C12.9092 19.6505 12.903 19.6393 12.8966 19.6278C12.871 19.5829 12.8412 19.5413 12.811 19.4994C12.7794 19.4543 12.7479 19.4092 12.7165 19.364C12.6593 19.2819 12.6014 19.2005 12.5424 19.1197C12.4873 19.0443 12.4346 18.9678 12.3839 18.8893C12.3526 18.8437 12.3175 18.8008 12.283 18.7576C12.2769 19.1142 12.2707 19.4708 12.2644 19.8383C12.1784 19.8383 12.0925 19.8383 12.0039 19.8383C12.0039 19.3095 12.0039 18.7807 12.0039 18.2358Z" fill="white"/>
<path id="Vector_16" d="M35.0779 18.2358C35.1516 18.2358 35.2253 18.2358 35.3012 18.2358C35.3073 18.2543 35.3135 18.2727 35.3198 18.2917C35.3321 18.2917 35.3443 18.2917 35.357 18.2917C35.3805 18.321 35.3805 18.321 35.4069 18.3618C35.4213 18.3839 35.4213 18.3839 35.436 18.4064C35.446 18.422 35.456 18.4376 35.4663 18.4536C35.526 18.5457 35.5854 18.6351 35.6547 18.7203C35.6726 18.7524 35.6904 18.7846 35.7081 18.8168C35.7308 18.8534 35.7564 18.8838 35.785 18.9159C35.8292 18.9658 35.8624 19.0159 35.894 19.0749C35.931 19.1388 35.9749 19.198 36.0178 19.2581C36.0455 19.2979 36.0455 19.2979 36.0641 19.3352C36.0702 18.9724 36.0764 18.6096 36.0827 18.2358C36.1748 18.2358 36.2669 18.2358 36.3618 18.2358C36.3618 18.7646 36.3618 19.2934 36.3618 19.8383C36.1199 19.8383 36.1199 19.8383 36.0618 19.7882C36.0445 19.7576 36.0445 19.7576 36.0269 19.7265C35.9901 19.6645 35.952 19.6082 35.9071 19.5518C35.8681 19.5024 35.8325 19.4545 35.8024 19.3992C35.7665 19.3355 35.7262 19.28 35.6819 19.222C35.5803 19.0879 35.5803 19.0879 35.5803 19.037C35.568 19.037 35.5557 19.037 35.5431 19.037C35.5183 19.0002 35.5183 19.0002 35.4907 18.9509C35.4453 18.8695 35.4003 18.8133 35.3384 18.7389C35.3323 19.1017 35.3261 19.4645 35.3198 19.8383C35.24 19.8383 35.1601 19.8383 35.0779 19.8383C35.0779 19.3095 35.0779 18.7807 35.0779 18.2358Z" fill="white"/>
<path id="Vector_17" d="M26.4067 18.2358C26.4804 18.2358 26.5541 18.2358 26.63 18.2358C26.6362 18.2543 26.6423 18.2727 26.6486 18.2917C26.6671 18.2979 26.6855 18.304 26.7045 18.3104C26.7789 18.4083 26.7789 18.4083 26.7789 18.4781C26.7912 18.4781 26.8035 18.4781 26.8161 18.4781C27.0394 18.7529 27.0394 18.7529 27.0394 18.8507C27.0578 18.8569 27.0763 18.863 27.0952 18.8694C27.1199 18.9047 27.1199 18.9047 27.1452 18.9509C27.1982 19.0433 27.2579 19.128 27.3217 19.2133C27.3541 19.2584 27.383 19.3061 27.4116 19.3538C27.4177 18.9849 27.4238 18.6159 27.4302 18.2358C27.5161 18.2358 27.6021 18.2358 27.6907 18.2358C27.6907 18.7646 27.6907 19.2934 27.6907 19.8383C27.4488 19.8383 27.4488 19.8383 27.3895 19.7893C27.3584 19.7314 27.3351 19.6782 27.3185 19.6147C27.3062 19.6147 27.294 19.6147 27.2813 19.6147C27.2563 19.5811 27.233 19.5463 27.2104 19.511C27.1671 19.4442 27.1239 19.3782 27.0766 19.3142C27.0394 19.2606 27.0394 19.2606 27.0394 19.2234C27.0271 19.2234 27.0148 19.2234 27.0022 19.2234C26.9781 19.1879 26.9781 19.1879 26.951 19.1395C26.915 19.0773 26.8784 19.0184 26.8347 18.9614C26.7755 18.8835 26.7215 18.8017 26.6672 18.7203C26.6611 19.0892 26.655 19.4581 26.6486 19.8383C26.5688 19.8383 26.489 19.8383 26.4067 19.8383C26.4067 19.3095 26.4067 18.7807 26.4067 18.2358Z" fill="white"/>
<path id="Vector_18" d="M9.88281 18.2358C10.0171 18.2347 10.1515 18.2335 10.2899 18.2323C10.3529 18.2316 10.3529 18.2316 10.4172 18.2308C10.4511 18.2306 10.485 18.2305 10.5188 18.2304C10.536 18.2301 10.5531 18.2298 10.5707 18.2295C10.708 18.2294 10.8502 18.2413 10.9557 18.3361C11.0278 18.4435 11.0818 18.534 11.0923 18.6644C11.0936 18.6779 11.0949 18.6915 11.0962 18.7055C11.1032 18.8538 11.0699 18.9865 10.9737 19.1011C10.925 19.1523 10.8774 19.1922 10.8132 19.2234C10.8213 19.23 10.8295 19.2366 10.8379 19.2434C10.8809 19.2929 10.8981 19.3448 10.9214 19.4062C10.931 19.4312 10.9407 19.4562 10.9504 19.4812C10.9553 19.494 10.9602 19.5068 10.9653 19.5199C10.9987 19.6044 11.0356 19.6873 11.0718 19.7705C11.0923 19.8196 11.0923 19.8196 11.0923 19.8382C11.0469 19.8407 11.0017 19.8426 10.9563 19.8441C10.9434 19.8448 10.9306 19.8456 10.9173 19.8464C10.8797 19.8473 10.8797 19.8473 10.8132 19.8382C10.7642 19.7788 10.744 19.7114 10.718 19.6392C10.65 19.4323 10.65 19.4323 10.5155 19.2793C10.4886 19.2764 10.4615 19.2746 10.4345 19.2734C10.4202 19.2726 10.406 19.2719 10.3913 19.2712C10.3732 19.2704 10.355 19.2696 10.3364 19.2688C10.2788 19.2661 10.2212 19.2634 10.1619 19.2606C10.1619 19.4512 10.1619 19.6418 10.1619 19.8382C10.0698 19.8382 9.97771 19.8382 9.88281 19.8382C9.88281 19.3094 9.88281 18.7806 9.88281 18.2358ZM10.1619 18.478C10.1619 18.6625 10.1619 18.847 10.1619 19.037C10.2684 19.0388 10.2684 19.0388 10.3771 19.0405C10.3992 19.041 10.4213 19.0415 10.4441 19.0421C10.557 19.0429 10.6402 19.0381 10.7388 18.9811C10.7972 18.915 10.8275 18.852 10.835 18.763C10.8285 18.6758 10.7974 18.5926 10.7574 18.5153C10.6898 18.4702 10.6584 18.4737 10.5781 18.4744C10.5563 18.4745 10.5345 18.4746 10.5121 18.4747C10.4706 18.4752 10.4706 18.4752 10.4283 18.4757C10.3404 18.4765 10.2525 18.4773 10.1619 18.478Z" fill="white"/>
<path id="Vector_19" d="M5.95859 18.3141C6.0177 18.3588 6.04788 18.4073 6.06806 18.478C6.08034 18.478 6.09262 18.478 6.10528 18.478C6.12053 18.516 6.13562 18.554 6.15063 18.5921C6.15905 18.6133 6.16747 18.6345 6.17615 18.6563C6.21969 18.7818 6.22033 18.902 6.22041 19.0335C6.22064 19.0511 6.22087 19.0688 6.2211 19.087C6.22151 19.2819 6.17929 19.4255 6.08667 19.596C6.07899 19.6129 6.07132 19.6298 6.06341 19.6472C5.96499 19.7739 5.81356 19.8349 5.65869 19.8568C5.42484 19.8766 5.17497 19.876 4.98066 19.7264C4.80256 19.5515 4.75018 19.2937 4.74341 19.0533C4.74725 18.8091 4.7818 18.5533 4.95158 18.3662C5.20468 18.1499 5.67649 18.1536 5.95859 18.3141ZM5.11906 18.5898C5.04459 18.7309 5.01911 18.8749 5.0202 19.0323C5.02023 19.0468 5.02025 19.0613 5.02027 19.0763C5.02229 19.1989 5.04345 19.3116 5.08184 19.4283C5.09412 19.4283 5.1064 19.4283 5.11906 19.4283C5.12289 19.4387 5.12673 19.449 5.13069 19.4597C5.17591 19.5359 5.24027 19.5867 5.32374 19.6146C5.57407 19.6389 5.57407 19.6389 5.79461 19.5394C5.92954 19.3828 5.96535 19.1857 5.96099 18.9846C5.94768 18.8119 5.91525 18.6585 5.78894 18.5339C5.60198 18.3924 5.2778 18.4272 5.11906 18.5898Z" fill="white"/>
<path id="Vector_20" d="M37.8877 18.2731C37.8877 18.353 37.8877 18.433 37.8877 18.5153C37.871 18.5126 37.8543 18.5099 37.8371 18.5072C37.4657 18.443 37.4657 18.443 37.1221 18.5444C37.0222 18.6338 36.9821 18.7205 36.9573 18.8507C36.9531 18.8722 36.9488 18.8938 36.9445 18.9159C36.9288 19.0922 36.9198 19.2995 37.0233 19.4521C37.1105 19.5435 37.2006 19.5984 37.3289 19.6021C37.3632 19.6019 37.3975 19.6014 37.4318 19.6007C37.449 19.6006 37.4662 19.6005 37.4839 19.6004C37.5726 19.5994 37.6503 19.5922 37.7388 19.5774C37.7388 19.436 37.7388 19.2945 37.7388 19.1488C37.6099 19.1488 37.4809 19.1488 37.348 19.1488C37.348 19.0812 37.348 19.0136 37.348 18.9439C37.5568 18.9439 37.7656 18.9439 37.9807 18.9439C37.9829 19.057 37.9847 19.17 37.9858 19.2831C37.9863 19.3216 37.9869 19.3601 37.9877 19.3986C37.9889 19.4538 37.9894 19.5091 37.9898 19.5644C37.9905 19.5902 37.9905 19.5902 37.9913 19.6166C37.9913 19.6613 37.9906 19.7014 37.9807 19.7451C37.9366 19.7832 37.9366 19.7832 37.8877 19.801C37.8722 19.8068 37.8567 19.8127 37.8407 19.8187C37.5772 19.887 37.2233 19.9135 36.9759 19.7823C36.7974 19.6632 36.7162 19.5082 36.6669 19.3028C36.6528 19.222 36.6533 19.1411 36.6537 19.0592C36.6538 19.041 36.6539 19.0228 36.654 19.004C36.6561 18.8773 36.6659 18.7637 36.7154 18.6457C36.7217 18.6298 36.728 18.6139 36.7346 18.5975C36.8091 18.4298 36.9074 18.3227 37.0794 18.2545C37.3333 18.1719 37.6368 18.1905 37.8877 18.2731Z" fill="white"/>
<path id="Vector_21" d="M14.3709 18.2112C14.3898 18.2112 14.4088 18.2113 14.4283 18.2113C14.5666 18.2131 14.6821 18.2295 14.814 18.2729C14.814 18.3529 14.814 18.4328 14.814 18.5152C14.7772 18.509 14.7403 18.5029 14.7024 18.4965C14.4912 18.4665 14.2215 18.4283 14.0383 18.5583C13.9131 18.6787 13.8798 18.841 13.8726 19.008C13.8703 19.1856 13.8836 19.3579 14.0051 19.4983C14.08 19.5649 14.1513 19.6005 14.2509 19.6008C14.2761 19.6009 14.2761 19.6009 14.3018 19.601C14.3192 19.6008 14.3367 19.6007 14.3546 19.6005C14.3718 19.6007 14.389 19.6008 14.4068 19.601C14.4321 19.6009 14.4321 19.6009 14.4579 19.6008C14.4807 19.6008 14.4807 19.6008 14.504 19.6007C14.568 19.596 14.568 19.596 14.6837 19.5586C14.6899 19.4233 14.696 19.2881 14.7024 19.1487C14.5734 19.1487 14.4444 19.1487 14.3116 19.1487C14.3116 19.081 14.3116 19.0134 14.3116 18.9437C14.5081 18.9437 14.7046 18.9437 14.907 18.9437C14.9087 19.0568 14.9102 19.1699 14.9111 19.283C14.9115 19.3214 14.912 19.3599 14.9127 19.3984C14.9136 19.4537 14.914 19.5089 14.9143 19.5642C14.9147 19.5814 14.9151 19.5987 14.9155 19.6164C14.9155 19.7356 14.9155 19.7356 14.8724 19.7831C14.6289 19.8916 14.2686 19.9036 14.015 19.8264C13.9264 19.7899 13.837 19.7423 13.772 19.6704C13.772 19.652 13.772 19.6335 13.772 19.6145C13.7535 19.6083 13.7351 19.6022 13.7161 19.5959C13.5644 19.3727 13.5579 19.0823 13.5952 18.823C13.6376 18.6365 13.7181 18.4559 13.865 18.3288C13.9189 18.2967 13.9729 18.2739 14.0325 18.2543C14.0514 18.2477 14.0703 18.241 14.0898 18.2341C14.1822 18.2084 14.2757 18.2107 14.3709 18.2112Z" fill="white"/>
<path id="Vector_22" d="M22.8896 18.2358C22.9756 18.2358 23.0616 18.2358 23.1502 18.2358C23.1502 18.4572 23.1502 18.6786 23.1502 18.9066C23.3896 18.9066 23.6291 18.9066 23.8759 18.9066C23.8759 18.6853 23.8759 18.4639 23.8759 18.2358C23.9618 18.2358 24.0478 18.2358 24.1364 18.2358C24.1364 18.7646 24.1364 19.2934 24.1364 19.8383C24.0504 19.8383 23.9644 19.8383 23.8759 19.8383C23.8759 19.6169 23.8759 19.3955 23.8759 19.1675C23.6364 19.1675 23.3969 19.1675 23.1502 19.1675C23.1502 19.3888 23.1502 19.6102 23.1502 19.8383C23.0642 19.8383 22.9782 19.8383 22.8896 19.8383C22.8896 19.3095 22.8896 18.7807 22.8896 18.2358Z" fill="white"/>
<path id="Vector_23" d="M15.8374 18.2358C15.9234 18.2358 16.0093 18.2358 16.0979 18.2358C16.0979 18.4572 16.0979 18.6786 16.0979 18.9066C16.3374 18.9066 16.5769 18.9066 16.8236 18.9066C16.8236 18.6853 16.8236 18.4639 16.8236 18.2358C16.9096 18.2358 16.9956 18.2358 17.0841 18.2358C17.0841 18.7646 17.0841 19.2934 17.0841 19.8383C16.9982 19.8383 16.9122 19.8383 16.8236 19.8383C16.8236 19.6169 16.8236 19.3955 16.8236 19.1675C16.5841 19.1675 16.3447 19.1675 16.0979 19.1675C16.0979 19.3888 16.0979 19.6102 16.0979 19.8383C16.0119 19.8383 15.926 19.8383 15.8374 19.8383C15.8374 19.3095 15.8374 18.7807 15.8374 18.2358Z" fill="white"/>
<path id="Vector_24" d="M42.4653 18.2358C42.8276 18.2358 43.1899 18.2358 43.5632 18.2358C43.5632 18.3096 43.5632 18.3834 43.5632 18.4594C43.293 18.4594 43.0228 18.4594 42.7445 18.4594C42.7445 18.6132 42.7445 18.7669 42.7445 18.9253C42.9839 18.9253 43.2234 18.9253 43.4702 18.9253C43.4702 18.999 43.4702 19.0728 43.4702 19.1488C43.2307 19.1488 42.9912 19.1488 42.7445 19.1488C42.7445 19.3026 42.7445 19.4563 42.7445 19.6147C43.0146 19.6147 43.2848 19.6147 43.5632 19.6147C43.5632 19.6884 43.5632 19.7622 43.5632 19.8383C43.2009 19.8383 42.8386 19.8383 42.4653 19.8383C42.4653 19.3095 42.4653 18.7807 42.4653 18.2358Z" fill="white"/>
<path id="Vector_25" d="M8.52441 18.2358C8.88671 18.2358 9.24901 18.2358 9.62228 18.2358C9.62228 18.3035 9.62228 18.3711 9.62228 18.4408C9.60368 18.4594 9.60368 18.4594 9.57106 18.4617C9.55689 18.4616 9.54271 18.4616 9.52811 18.4615C9.51209 18.4615 9.49608 18.4615 9.47957 18.4615C9.46217 18.4614 9.44476 18.4614 9.42683 18.4613C9.40909 18.4612 9.39136 18.4612 9.37309 18.4612C9.31621 18.4611 9.25932 18.4608 9.20244 18.4606C9.16398 18.4605 9.12551 18.4604 9.08705 18.4603C8.99254 18.4602 8.89804 18.4598 8.80353 18.4594C8.80353 18.6132 8.80353 18.7669 8.80353 18.9253C9.04302 18.9253 9.2825 18.9253 9.52924 18.9253C9.52924 18.999 9.52924 19.0728 9.52924 19.1488C9.28976 19.1488 9.05027 19.1488 8.80353 19.1488C8.80353 19.3026 8.80353 19.4563 8.80353 19.6147C8.86108 19.6144 8.91862 19.6142 8.97791 19.614C9.0334 19.6139 9.08888 19.6137 9.14437 19.6136C9.18305 19.6135 9.22173 19.6134 9.26041 19.6133C9.31589 19.613 9.37136 19.6129 9.42683 19.6128C9.45294 19.6127 9.45294 19.6127 9.47957 19.6126C9.49559 19.6126 9.51161 19.6125 9.52811 19.6125C9.54229 19.6125 9.55646 19.6125 9.57106 19.6124C9.60368 19.6147 9.60368 19.6147 9.62228 19.6333C9.62228 19.7009 9.62228 19.7686 9.62228 19.8383C9.25999 19.8383 8.89769 19.8383 8.52441 19.8383C8.52441 19.3095 8.52441 18.7807 8.52441 18.2358Z" fill="white"/>
<path id="Vector_26" d="M28.0439 18.2358C28.1238 18.2358 28.2036 18.2358 28.2858 18.2358C28.2858 18.4572 28.2858 18.6786 28.2858 18.9066C28.5315 18.9066 28.7771 18.9066 29.0302 18.9066C29.0302 18.6853 29.0302 18.4639 29.0302 18.2358C29.11 18.2358 29.1898 18.2358 29.2721 18.2358C29.2721 18.7646 29.2721 19.2934 29.2721 19.8383C29.1922 19.8383 29.1124 19.8383 29.0302 19.8383C29.0302 19.6169 29.0302 19.3955 29.0302 19.1675C28.7845 19.1675 28.5389 19.1675 28.2858 19.1675C28.2858 19.3888 28.2858 19.6102 28.2858 19.8383C28.206 19.8383 28.1262 19.8383 28.0439 19.8383C28.0439 19.3095 28.0439 18.7807 28.0439 18.2358Z" fill="white"/>
<path id="Vector_27" d="M3.35132 18.2358C4.2445 18.2358 4.2445 18.2358 4.38987 18.3232C4.48646 18.4254 4.53878 18.5214 4.54223 18.6644C4.54295 18.6822 4.54367 18.6999 4.54441 18.7183C4.54865 18.9061 4.52561 19.0414 4.39709 19.1867C4.25215 19.3165 4.04079 19.3075 3.85839 19.3026C3.77702 19.301 3.69566 19.2995 3.61183 19.2979C3.61183 19.4762 3.61183 19.6545 3.61183 19.8383C3.52586 19.8383 3.43989 19.8383 3.35132 19.8383C3.35132 19.3095 3.35132 18.7807 3.35132 18.2358ZM3.61183 18.4781C3.61183 18.6687 3.61183 18.8593 3.61183 19.0557C3.72754 19.058 3.72754 19.058 3.84559 19.0603C3.86966 19.061 3.89374 19.0617 3.91854 19.0624C4.04347 19.0636 4.12664 19.0604 4.22589 18.9811C4.28455 18.9059 4.30672 18.8208 4.30032 18.7261C4.28706 18.6487 4.25848 18.5943 4.20728 18.534C4.18886 18.5278 4.17044 18.5217 4.15146 18.5153C4.15146 18.503 4.15146 18.4907 4.15146 18.4781C3.97338 18.4781 3.7953 18.4781 3.61183 18.4781Z" fill="white"/>
<path id="Vector_28" d="M0.150635 18.2358C0.506791 18.2358 0.862947 18.2358 1.2299 18.2358C1.2299 18.3096 1.2299 18.3834 1.2299 18.4594C0.959709 18.4594 0.689521 18.4594 0.411146 18.4594C0.411146 18.6132 0.411146 18.7669 0.411146 18.9253C0.65063 18.9253 0.890115 18.9253 1.13686 18.9253C1.13686 18.999 1.13686 19.0728 1.13686 19.1488C0.897372 19.1488 0.657888 19.1488 0.411146 19.1488C0.411146 19.3026 0.411146 19.4563 0.411146 19.6147C0.681334 19.6147 0.951521 19.6147 1.2299 19.6147C1.2299 19.6884 1.2299 19.7622 1.2299 19.8383C0.87374 19.8383 0.517584 19.8383 0.150635 19.8383C0.150635 19.3095 0.150635 18.7807 0.150635 18.2358Z" fill="white"/>
<path id="Vector_29" d="M17.4375 18.2358C17.7875 18.2358 18.1375 18.2358 18.4982 18.2358C18.4982 18.3096 18.4982 18.3834 18.4982 18.4594C18.2341 18.4594 17.9701 18.4594 17.698 18.4594C17.698 18.6132 17.698 18.7669 17.698 18.9253C17.9375 18.9253 18.177 18.9253 18.4237 18.9253C18.4237 18.999 18.4237 19.0728 18.4237 19.1488C18.1842 19.1488 17.9448 19.1488 17.698 19.1488C17.698 19.3026 17.698 19.4563 17.698 19.6147C17.9621 19.6147 18.2261 19.6147 18.4982 19.6147C18.4982 19.6884 18.4982 19.7622 18.4982 19.8383C18.1481 19.8383 17.7981 19.8383 17.4375 19.8383C17.4375 19.3095 17.4375 18.7807 17.4375 18.2358Z" fill="white"/>
<path id="Vector_30" d="M25.0481 18.2358C25.4043 18.2358 25.7604 18.2358 26.1274 18.2358C26.1274 18.3096 26.1274 18.3834 26.1274 18.4594C25.851 18.4594 25.5747 18.4594 25.29 18.4594C25.29 18.6132 25.29 18.7669 25.29 18.9253C25.5356 18.9253 25.7812 18.9253 26.0343 18.9253C26.0343 18.999 26.0343 19.0728 26.0343 19.1488C25.7887 19.1488 25.5431 19.1488 25.29 19.1488C25.29 19.3026 25.29 19.4563 25.29 19.6147C25.5663 19.6147 25.8427 19.6147 26.1274 19.6147C26.1274 19.6884 26.1274 19.7622 26.1274 19.8383C25.7712 19.8383 25.415 19.8383 25.0481 19.8383C25.0481 19.3095 25.0481 18.7807 25.0481 18.2358Z" fill="white"/>
<path id="Vector_31" d="M30.1652 18.2358C30.2635 18.2358 30.3617 18.2358 30.463 18.2358C30.5552 18.4504 30.5552 18.4504 30.5816 18.5468C30.6062 18.6345 30.6404 18.7168 30.6758 18.8006C30.7236 18.914 30.763 19.0268 30.7972 19.1452C30.819 19.2124 30.8461 19.2765 30.8747 19.341C30.9329 19.473 30.9329 19.473 30.9491 19.5448C30.9669 19.6214 30.9942 19.6896 31.0248 19.7618C31.0398 19.801 31.0398 19.801 31.0398 19.8383C30.9477 19.8383 30.8556 19.8383 30.7607 19.8383C30.7116 19.7091 30.6624 19.58 30.6118 19.447C30.4092 19.4408 30.2065 19.4347 29.9978 19.4283C29.9855 19.4837 29.9732 19.539 29.9605 19.596C29.9458 19.6368 29.93 19.6773 29.9129 19.7171C29.9048 19.7362 29.8967 19.7552 29.8884 19.7748C29.8675 19.8196 29.8675 19.8196 29.8489 19.8383C29.8051 19.8396 29.7613 19.8398 29.7175 19.8394C29.6815 19.8392 29.6815 19.8392 29.6447 19.8389C29.6261 19.8387 29.6075 19.8385 29.5884 19.8383C29.6198 19.6771 29.6749 19.5306 29.738 19.3796C29.7762 19.2876 29.8075 19.196 29.8351 19.1004C29.8563 19.0317 29.8844 18.9666 29.9129 18.9008C29.9613 18.7864 30.0009 18.6723 30.0355 18.5529C30.06 18.4767 30.0926 18.4056 30.1271 18.3335C30.1484 18.2901 30.1484 18.2901 30.1652 18.2358ZM30.2955 18.5526C30.2174 18.7393 30.2174 18.7393 30.1536 18.9311C30.1263 19.0243 30.0896 19.1146 30.0536 19.2047C30.2194 19.2047 30.3852 19.2047 30.556 19.2047C30.5268 19.0644 30.5268 19.0644 30.4757 18.9416C30.4158 18.8159 30.3747 18.6851 30.3327 18.5526C30.3204 18.5526 30.3081 18.5526 30.2955 18.5526Z" fill="white"/>
<path id="Vector_32" d="M19.3168 18.2358C19.4151 18.2358 19.5133 18.2358 19.6146 18.2358C19.6445 18.3096 19.6743 18.3833 19.7041 18.4571C19.7125 18.4778 19.7209 18.4984 19.7296 18.5197C19.7728 18.627 19.8116 18.7334 19.8434 18.8446C19.8651 18.9167 19.8935 18.9859 19.9216 19.0557C19.9624 19.1585 19.999 19.2602 20.0287 19.3668C20.0513 19.4367 20.0834 19.5021 20.1144 19.5686C20.1598 19.6672 20.1728 19.7273 20.1728 19.8383C20.093 19.8383 20.0131 19.8383 19.9309 19.8383C19.8592 19.7075 19.828 19.5965 19.782 19.447C19.5733 19.4408 19.3645 19.4347 19.1494 19.4283C19.1432 19.4652 19.1371 19.5021 19.1308 19.5401C19.1196 19.575 19.1076 19.6095 19.0947 19.6438C19.0884 19.6607 19.0821 19.6776 19.0756 19.6951C19.0571 19.743 19.0381 19.7906 19.0191 19.8383C18.927 19.8383 18.8349 19.8383 18.74 19.8383C18.7765 19.714 18.8156 19.5912 18.8586 19.4691C18.8671 19.4449 18.8671 19.4449 18.8758 19.4201C18.9145 19.3104 18.955 19.2015 18.9979 19.0933C19.0148 19.0484 19.0302 19.0036 19.045 18.958C19.0809 18.8489 19.1249 18.7434 19.1687 18.6374C19.2069 18.5433 19.2393 18.4497 19.2664 18.3518C19.2796 18.3104 19.2796 18.3104 19.3168 18.2358ZM19.4471 18.534C19.4417 18.5511 19.4363 18.5683 19.4307 18.5859C19.3833 18.7332 19.3302 18.8738 19.2654 19.0143C19.2361 19.0842 19.2361 19.0842 19.2238 19.2047C19.3835 19.2047 19.5431 19.2047 19.7076 19.2047C19.6695 19.0139 19.605 18.8396 19.5215 18.6644C19.5025 18.6211 19.4841 18.5776 19.4657 18.534C19.4596 18.534 19.4534 18.534 19.4471 18.534Z" fill="white"/>
<path id="Vector_33" d="M44.7725 18.2732C44.7725 18.347 44.7725 18.4208 44.7725 18.4968C44.7469 18.4923 44.7213 18.4878 44.6949 18.4832C44.3684 18.4245 44.3684 18.4245 44.0654 18.534C44.0221 18.5938 44.0193 18.648 44.0282 18.7204C44.0801 18.8008 44.1238 18.8287 44.2145 18.856C44.2363 18.8629 44.2581 18.8697 44.2805 18.8768C44.3031 18.8836 44.3258 18.8904 44.3492 18.8974C44.7321 19.0137 44.7321 19.0137 44.8469 19.1862C44.8992 19.3206 44.8988 19.4562 44.8485 19.591C44.7917 19.7104 44.7191 19.7826 44.5946 19.829C44.3382 19.8957 44.038 19.8807 43.7863 19.8011C43.7677 19.7824 43.7677 19.7824 43.7658 19.7317C43.7661 19.7112 43.7663 19.6906 43.7665 19.6695C43.7667 19.6489 43.7668 19.6283 43.767 19.6071C43.7672 19.5912 43.7674 19.5752 43.7677 19.5588C43.7888 19.5642 43.8099 19.5696 43.8316 19.5751C44.0382 19.6201 44.2892 19.6733 44.4934 19.5961C44.563 19.5224 44.563 19.5224 44.5874 19.428C44.5863 19.4135 44.5852 19.3991 44.5841 19.3842C44.5833 19.3698 44.5825 19.3554 44.5816 19.3406C44.5617 19.279 44.5273 19.2603 44.4748 19.2234C44.4163 19.1985 44.4163 19.1985 44.3522 19.1793C44.3285 19.1716 44.3048 19.1639 44.2811 19.1561C44.2443 19.1443 44.2074 19.1326 44.1704 19.1211C43.8606 19.0234 43.8606 19.0234 43.7837 18.888C43.7329 18.77 43.7348 18.6023 43.7696 18.4793C43.8195 18.3645 43.8965 18.2923 44.0119 18.2452C44.2499 18.1772 44.5389 18.1952 44.7725 18.2732Z" fill="white"/>
<path id="Vector_34" d="M40.7532 18.2358C40.8453 18.2358 40.9374 18.2358 41.0323 18.2358C41.1245 18.4704 41.1245 18.4704 41.1509 18.5654C41.1809 18.6707 41.2223 18.7711 41.2626 18.8727C41.303 18.9755 41.3366 19.079 41.3677 19.185C41.3983 19.2812 41.4384 19.3733 41.4789 19.4656C41.4859 19.4458 41.4928 19.4259 41.5 19.4055C41.5728 19.1989 41.6455 18.9923 41.7205 18.7865C41.7271 18.7685 41.7336 18.7505 41.7404 18.7319C41.7533 18.6964 41.7663 18.6608 41.7793 18.6253C41.8129 18.5331 41.8452 18.4408 41.8749 18.3473C41.8883 18.3104 41.8883 18.3104 41.9255 18.2358C42.0176 18.2358 42.1097 18.2358 42.2046 18.2358C42.1662 18.3685 42.1227 18.4978 42.0743 18.6271C42.0653 18.6514 42.0564 18.6756 42.0474 18.6998C42.0072 18.8078 41.9671 18.9155 41.9231 19.0219C41.8956 19.0897 41.8739 19.1579 41.8534 19.228C41.8199 19.3405 41.7754 19.4456 41.7281 19.5529C41.6988 19.6228 41.6764 19.6927 41.6565 19.7658C41.6464 19.801 41.6464 19.801 41.6277 19.8383C41.5295 19.8383 41.4312 19.8383 41.33 19.8383C41.3223 19.8175 41.3147 19.7967 41.3068 19.7752C41.2847 19.7163 41.2618 19.6579 41.2381 19.5997C41.2319 19.5842 41.2256 19.5687 41.2191 19.5527C41.2063 19.5212 41.1934 19.4896 41.1804 19.4581C41.1427 19.3648 41.1113 19.2717 41.0834 19.175C41.0617 19.1049 41.0333 19.038 41.0044 18.9707C40.9647 18.8778 40.929 18.7852 40.8979 18.6891C40.867 18.5965 40.8315 18.5055 40.7967 18.4143C40.7911 18.3993 40.7855 18.3842 40.7797 18.3687C40.7746 18.3553 40.7695 18.3418 40.7642 18.3279C40.7532 18.2917 40.7532 18.2917 40.7532 18.2358Z" fill="white"/>
<path id="Vector_35" d="M33.703 18.2124C33.7213 18.212 33.7396 18.2116 33.7584 18.2112C33.8889 18.2105 34.0055 18.2289 34.1287 18.2729C34.1473 18.2916 34.1473 18.2916 34.1491 18.3464C34.1489 18.3686 34.1487 18.3909 34.1485 18.4138C34.1483 18.4361 34.1481 18.4585 34.1479 18.4814C34.1477 18.4987 34.1475 18.516 34.1473 18.5338C34.1306 18.5297 34.1139 18.5257 34.0967 18.5216C33.9186 18.4818 33.7527 18.4674 33.5704 18.4779C33.5474 18.4792 33.5474 18.4792 33.5239 18.4805C33.4238 18.4954 33.3695 18.5592 33.3055 18.6311C33.2206 18.7651 33.2076 18.8996 33.2088 19.0555C33.2084 19.0729 33.208 19.0903 33.2076 19.1082C33.2077 19.2487 33.2364 19.3627 33.3279 19.4717C33.34 19.4816 33.3521 19.4914 33.3646 19.5015C33.3827 19.5168 33.3827 19.5168 33.4012 19.5323C33.5077 19.604 33.606 19.6023 33.7309 19.6017C33.7492 19.6016 33.7675 19.6016 33.7863 19.6016C33.9151 19.5999 34.0255 19.5843 34.1473 19.5399C34.1473 19.626 34.1473 19.7121 34.1473 19.8008C33.8695 19.8822 33.5016 19.9197 33.2355 19.7822C33.0569 19.6501 32.9761 19.4952 32.9378 19.2791C32.9338 19.2093 32.9343 19.1394 32.9343 19.0695C32.9341 19.0509 32.9338 19.0322 32.9336 19.0131C32.9334 18.8976 32.9453 18.7943 32.975 18.6828C32.9798 18.6616 32.9798 18.6616 32.9846 18.64C33.0169 18.5011 33.1116 18.4015 33.2169 18.3102C33.371 18.2217 33.5294 18.2133 33.703 18.2124Z" fill="white"/>
<path id="Vector_36" d="M38.8926 18.2358C38.9847 18.2358 39.0768 18.2358 39.1717 18.2358C39.1717 18.6909 39.1717 19.1459 39.1717 19.6147C39.4296 19.6147 39.6875 19.6147 39.9532 19.6147C39.9532 19.6884 39.9532 19.7622 39.9532 19.8383C39.6032 19.8383 39.2532 19.8383 38.8926 19.8383C38.8926 19.3095 38.8926 18.7807 38.8926 18.2358Z" fill="white"/>
<path id="Vector_37" d="M21.3823 18.2358C21.7937 18.2358 22.2052 18.2358 22.6291 18.2358C22.6291 18.3096 22.6291 18.3834 22.6291 18.4594C22.4633 18.4594 22.2975 18.4594 22.1266 18.4594C22.1266 18.9144 22.1266 19.3695 22.1266 19.8383C22.0468 19.8383 21.967 19.8383 21.8847 19.8383C21.8847 19.3832 21.8847 18.9282 21.8847 18.4594C21.7189 18.4594 21.5531 18.4594 21.3823 18.4594C21.3823 18.3856 21.3823 18.3119 21.3823 18.2358Z" fill="white"/>
<path id="Vector_38" d="M20.4893 18.2358C20.5752 18.2358 20.6612 18.2358 20.7498 18.2358C20.7498 18.6909 20.7498 19.1459 20.7498 19.6147C21.0077 19.6147 21.2656 19.6147 21.5313 19.6147C21.5313 19.6884 21.5313 19.7622 21.5313 19.8383C21.1874 19.8383 20.8436 19.8383 20.4893 19.8383C20.4893 19.3095 20.4893 18.7807 20.4893 18.2358Z" fill="white"/>
<path id="Vector_39" d="M40.2136 18.2358C40.2996 18.2358 40.3856 18.2358 40.4741 18.2358C40.4741 18.7646 40.4741 19.2934 40.4741 19.8383C40.3882 19.8383 40.3022 19.8383 40.2136 19.8383C40.2136 19.3095 40.2136 18.7807 40.2136 18.2358Z" fill="white"/>
<path id="Vector_40" d="M11.3899 18.2358C11.4759 18.2358 11.5618 18.2358 11.6504 18.2358C11.6504 18.7646 11.6504 19.2934 11.6504 19.8383C11.5644 19.8383 11.4785 19.8383 11.3899 19.8383C11.3899 19.3095 11.3899 18.7807 11.3899 18.2358Z" fill="white"/>
<path id="Vector_41" d="M34.4639 18.2358C34.5437 18.2358 34.6235 18.2358 34.7058 18.2358C34.7058 18.7646 34.7058 19.2934 34.7058 19.8383C34.6259 19.8383 34.5461 19.8383 34.4639 19.8383C34.4639 19.3095 34.4639 18.7807 34.4639 18.2358Z" fill="white"/>
<path id="Vector_42" d="M24.5087 19.6519C24.5824 19.6519 24.6561 19.6519 24.732 19.6519C24.7144 19.8192 24.6939 19.9762 24.639 20.1363C24.5776 20.1363 24.5162 20.1363 24.4529 20.1363C24.4498 20.024 24.4609 19.9206 24.4808 19.8102C24.4835 19.7949 24.4861 19.7796 24.4889 19.7638C24.4954 19.7265 24.502 19.6892 24.5087 19.6519Z" fill="white"/>
</g>
</svg>
