<svg width="449" height="555" viewBox="0 0 449 555" fill="none" xmlns="http://www.w3.org/2000/svg">
<path d="M418.966 163.448C420.532 163.934 421.526 164.647 421.969 165.586L427.457 178.204C431.724 190.043 437.028 205.998 440.431 218.119L441.802 224.082C441.414 223.077 440.409 222.31 438.778 221.813C435.634 212.728 431.313 200.64 427.576 191.782C425.21 183.216 421.958 171.819 418.966 163.448Z" fill="#806189"/>
<path d="M382.216 104.38C383.383 104.736 384.214 105.233 384.733 105.86L384.895 106.076C402.676 129.917 403.021 130.37 410.702 143.776L417.81 157.009C417.356 156.102 416.373 155.421 414.861 154.957C409.643 146.747 402.589 135.858 396.842 128.015C392.64 120.81 386.947 111.239 382.216 104.38Z" fill="#806189"/>
<path d="M283.892 543.846L283.73 544.094L270.432 549.614L283.892 543.846Z" fill="#806189"/>
<path d="M315.143 525.892C315.435 525.978 315.619 526.119 315.684 526.302C307.765 530.991 297.147 537.18 288.969 541.393L270.432 549.614L288.526 541.069C296.585 536.651 307.301 530.688 315.143 525.892Z" fill="#806189"/>
<path d="M367.676 481.829C368.346 482.045 368.767 482.358 368.929 482.769C362.588 489.153 354.065 497.6 347.367 503.607C340.281 509.008 330.785 516.159 323.44 521.215C323.353 520.998 323.148 520.836 322.802 520.728C329.716 515.316 338.898 508.025 345.455 502.181C352.218 496.185 361.194 488.127 367.676 481.829Z" fill="#806189"/>
<path d="M407.634 427.535C408.639 427.849 409.266 428.313 409.503 428.94C404.891 436.631 398.657 446.861 393.602 454.272C388.168 460.937 380.844 469.784 375.065 476.157C374.892 475.714 374.449 475.369 373.736 475.153C378.878 468.282 385.684 459.057 390.372 451.863C395.665 444.647 402.676 434.989 407.634 427.535Z" fill="#806189"/>
<path d="M433.874 365.767C435.159 366.167 435.959 366.761 436.261 367.56C433.517 376.191 429.78 387.685 426.517 396.144C422.877 403.727 417.951 413.806 413.878 421.162C413.63 420.525 412.982 420.028 411.934 419.704C415.185 411.731 419.442 401.069 422.153 392.892C425.815 384.823 430.644 374.02 433.874 365.767Z" fill="#806189"/>
<mask id="mask0_148_2293" style="mask-type:luminance" maskUnits="userSpaceOnUse" x="435" y="298" width="14" height="62">
<path d="M448.5 298.273L448.5 359.113L435.559 359.113L435.559 298.273L448.5 298.273Z" fill="white"/>
</mask>
<g mask="url(#mask0_148_2293)">
<path d="M445.27 299.299C446.761 299.753 447.679 300.455 448.036 301.373C447.323 310.329 446.329 322.276 445.087 331.156L444.881 332.387C443.207 340.403 440.895 351.097 438.713 358.994C438.4 358.173 437.59 357.568 436.272 357.157C437.503 348.451 439.059 336.816 439.696 328.034C441.543 319.457 443.931 307.974 445.27 299.299Z" fill="#806189"/>
</g>
<mask id="mask1_148_2293" style="mask-type:luminance" maskUnits="userSpaceOnUse" x="438" y="229" width="11" height="64">
<path d="M448.5 229.137L448.5 292.742L438.324 292.742L438.324 229.137L448.5 229.137Z" fill="white"/>
</mask>
<g mask="url(#mask1_148_2293)">
<path d="M440.657 230.887C442.278 231.395 443.272 232.151 443.66 233.145L445.681 244.931C446.404 251.79 447.636 260.918 448.09 267.799L448.5 276.236L448.403 292.375C448.046 291.446 447.117 290.733 445.594 290.269C444.698 281.195 443.39 269.074 441.878 260.076C441.716 251.315 441.414 239.627 440.657 230.887Z" fill="#806189"/>
</g>
<path d="M333.81 57.4752C334.512 57.7021 335.096 57.9722 335.538 58.2962C341.091 62.8549 348.642 68.7638 354.011 73.5493C361.626 80.9598 371.684 90.9521 378.824 98.8163C378.316 98.233 377.506 97.7685 376.404 97.4336C369.631 90.7685 360.525 81.9644 353.363 75.7314C347.637 70.1033 339.924 62.6604 333.81 57.4752Z" fill="#806189"/>
<path d="M282.995 543.576C283.19 543.554 283.363 543.543 283.492 543.554L270.432 549.614L282.995 543.576Z" fill="#806189"/>
<path d="M338.002 505.789C339.147 505.659 340.097 505.616 340.864 505.648C334.145 511.222 325.103 518.6 318.039 523.742C310.228 528.539 299.772 534.869 291.756 539.298C291.529 539.287 291.249 539.298 290.924 539.33C298.043 534.88 307.506 528.873 314.301 523.937C321.495 518.6 329.749 509.245 338.002 505.789Z" fill="#4A1D56"/>
<path d="M381.363 456.346C383.361 456.119 385.025 456.043 386.353 456.097C381.492 463.076 374.924 472.344 369.599 478.988C363.106 485.296 354.378 493.658 347.605 499.674C346.762 499.642 345.714 499.696 344.45 499.837C349.69 493.841 356.625 485.783 361.389 479.409C367.481 472.571 373.325 460.721 381.363 456.346Z" fill="#806189"/>
<path d="M412.063 398.023C414.786 397.71 417.054 397.602 418.869 397.678C415.974 405.682 412.009 416.344 408.574 424.144C403.551 431.619 396.799 441.557 391.452 448.795C390.037 448.73 388.298 448.816 386.191 449.054C389.465 441.86 393.742 432.202 396.432 424.77C401.228 416.819 407.58 406.168 412.063 398.023Z" fill="#806189"/>
<path d="M429.034 333.586C432.34 333.208 435.094 333.079 437.298 333.165C436.455 341.84 435.245 353.398 433.809 361.997C430.46 370.282 425.912 381.301 422.153 389.403C420.273 389.327 417.929 389.446 415.12 389.759C416.33 381.701 417.843 370.92 418.426 362.796C421.742 354.079 426.106 342.434 429.034 333.586Z" fill="#806189"/>
<path d="M431.27 265.812C434.975 265.39 438.054 265.228 440.538 265.336C441.846 274.302 443.498 286.272 444.19 295.313C442.699 304.042 440.614 315.665 438.626 324.296C436.369 324.199 433.571 324.34 430.2 324.728C429.282 316.151 427.943 304.711 426.387 296.231C428.018 287.125 430.125 274.983 431.27 265.812Z" fill="#806189"/>
<path d="M417.724 197.454C421.624 197.011 424.864 196.849 427.468 196.946C431.011 205.836 435.645 217.741 438.583 226.858C439.134 235.651 439.783 247.404 439.761 256.23C437.266 256.122 434.144 256.284 430.406 256.705C427.295 247.966 423.039 236.353 419.355 227.852C419.074 218.713 418.599 206.539 417.724 197.454Z" fill="#4A1D56"/>
<path d="M388.287 132.985C392.143 132.542 395.352 132.38 397.934 132.499C403.518 140.503 410.897 151.262 415.952 159.624C418.718 168.06 422.315 179.36 424.454 187.991C421.839 187.872 418.588 188.034 414.688 188.477C409.395 180.008 402.244 168.752 396.421 160.628C394.185 152.278 391.117 141.151 388.287 132.985Z" fill="#806189"/>
<path d="M346.514 79.7175C350.1 79.307 353.082 79.1666 355.48 79.2638C362.534 85.6913 371.9 94.3441 378.554 101.193C383.069 108.139 389.011 117.461 392.975 124.731C390.415 124.634 387.228 124.785 383.394 125.218C376.48 118.164 367.201 108.809 359.898 102.154C356.074 95.3055 350.878 86.2314 346.514 79.7175Z" fill="#806189"/>
<path d="M295.148 39.1976C298.27 38.8411 300.863 38.7223 302.947 38.8087C311.071 43.5078 321.873 49.8597 329.727 55.0232C335.657 60.2948 343.511 67.4137 349.02 73.139C346.665 73.0418 343.716 73.1822 340.184 73.5819C332.125 68.1266 321.322 60.9214 312.994 55.8874C307.798 50.7239 300.776 43.8967 295.148 39.1976Z" fill="#806189"/>
<path d="M236.836 12.5587C239.321 12.2778 241.384 12.1806 243.037 12.2454C251.841 15.0865 263.562 18.9429 272.193 22.2485C279.236 25.7377 288.591 30.4692 295.364 34.4553C293.333 34.3689 290.795 34.4985 287.759 34.8442C278.977 31.1281 267.235 26.2562 258.29 22.9615C251.949 19.6559 243.426 15.3349 236.836 12.5587Z" fill="#806189"/>
<mask id="mask2_148_2293" style="mask-type:luminance" maskUnits="userSpaceOnUse" x="172" y="0" width="65" height="11">
<path d="M236.448 0.611115L236.448 10.6682L172.843 10.6682L172.843 0.611112L236.448 0.611115Z" fill="white"/>
</mask>
<g mask="url(#mask2_148_2293)">
<path d="M174.182 0.935218C175.889 0.751574 177.304 0.675959 178.438 0.719169L181.42 0.902811L194.977 2.10189L212.12 4.57565C218.904 6.05559 227.989 7.96763 234.676 9.82565C233.088 9.76084 231.1 9.86886 228.713 10.1281C219.639 8.3025 207.518 5.92596 198.369 4.52164C191.142 3.25775 181.484 1.66979 174.182 0.935218Z" fill="#806189"/>
</g>
<path d="M307.938 526.713C308.089 526.681 308.241 526.648 308.381 526.605C309.299 526.4 310.131 526.238 310.876 526.097C303.984 530.775 294.716 536.932 287.522 541.123L270.432 549.614L285.167 541.61C292.069 537.256 300.474 530.029 307.938 526.713Z" fill="#806189"/>
<path d="M351.116 483.719C351.462 483.644 351.807 483.568 352.153 483.482C354.259 483.006 356.171 482.617 357.878 482.326C352.985 488.483 346.363 496.628 341.016 502.397C334.124 508.079 324.887 515.597 317.758 520.988C316.883 521.139 315.911 521.333 314.83 521.582C314.647 521.614 314.474 521.657 314.29 521.701C319.389 516.699 326.13 509.958 330.764 504.525C336.943 498.357 343.565 488.083 351.116 483.719Z" fill="#806189"/>
<path d="M382.843 430.366C383.361 430.247 383.88 430.128 384.398 430.009C387.552 429.296 390.404 428.713 392.954 428.27C390.134 435.54 386.245 445.208 382.843 452.23C377.063 459.338 369.296 468.79 363.236 475.671C361.41 475.995 359.369 476.417 357.111 476.924C356.755 477.011 356.376 477.086 356.009 477.173C359.055 470.875 363.042 462.406 365.494 455.827C370.776 448.244 375.27 435.67 382.843 430.366Z" fill="#806189"/>
<path d="M402.265 369.375C402.935 369.224 403.594 369.073 404.242 368.921C408.272 368.014 411.912 367.269 415.164 366.696C414.44 374.722 413.37 385.438 411.998 393.389C407.515 401.577 401.466 412.455 396.67 420.471C394.012 420.935 391.042 421.54 387.758 422.286C387.228 422.404 386.688 422.523 386.148 422.653C387.099 415.361 388.276 405.607 388.589 398.25C392.792 389.63 398.333 378.114 402.265 369.375Z" fill="#4A1D56"/>
<path d="M408.553 303.491C409.33 303.307 410.087 303.134 410.854 302.961C415.531 301.903 419.755 301.049 423.536 300.38C424.94 308.827 426.712 320.105 427.479 328.628C424.497 337.519 420.457 349.358 417.097 358.108C413.759 358.702 410.033 359.458 405.906 360.387C405.236 360.539 404.556 360.701 403.875 360.863C402.708 352.912 401.056 342.326 399.295 334.483C402.179 325.225 405.992 312.856 408.553 303.491Z" fill="#806189"/>
<path d="M400.861 235.446C401.693 235.241 402.525 235.057 403.346 234.863C408.423 233.718 413.003 232.789 417.097 232.065C420.64 240.588 425.285 251.995 428.245 260.745C427.003 269.949 425.264 282.231 423.546 291.37C419.711 292.04 415.434 292.915 410.681 293.995C409.914 294.168 409.136 294.341 408.358 294.525C405.074 286.272 400.613 275.296 396.821 267.27C398.171 257.742 399.921 245.017 400.861 235.446Z" fill="#806189"/>
<path d="M378.403 168.082C379.256 167.887 380.11 167.693 380.952 167.498C386.116 166.332 390.782 165.381 394.963 164.647C400.645 172.878 408.142 183.907 413.306 192.474C414.04 201.613 414.926 213.83 415.077 222.991C410.961 223.715 406.349 224.654 401.25 225.81C400.418 225.994 399.586 226.188 398.733 226.394C393.397 218.162 386.181 207.241 380.412 199.312C379.98 189.935 379.332 177.426 378.403 168.082Z" fill="#806189"/>
<path d="M343.327 108.819C344.148 108.625 344.958 108.441 345.758 108.258C350.716 107.134 355.199 106.227 359.196 105.525C366.412 112.33 375.983 121.48 382.8 128.696C385.435 136.863 388.849 147.806 390.901 156.145C386.732 156.88 382.076 157.83 376.912 158.997C376.08 159.181 375.238 159.375 374.384 159.58C367.32 152.202 357.835 142.426 350.414 135.415C348.469 127.389 345.801 116.694 343.327 108.819Z" fill="#4A1D56"/>
<path d="M298.81 61.4722C299.545 61.2993 300.279 61.1373 301.003 60.9752C305.454 59.9598 309.483 59.1496 313.091 58.5123C321.366 63.7191 332.363 70.7407 340.367 76.358C344.537 82.9043 350.003 91.7083 353.622 98.557C349.657 99.2592 345.228 100.156 340.324 101.268C339.525 101.441 338.725 101.636 337.915 101.83C329.738 95.932 318.805 88.1327 310.39 82.591C307.096 76.1635 302.623 67.608 298.81 61.4722Z" fill="#806189"/>
<path d="M247.261 27.2392C247.876 27.0879 248.492 26.9475 249.097 26.8179C252.813 25.9753 256.173 25.2839 259.187 24.7654C268.099 28.2438 279.96 32.9537 288.699 36.8534C294.133 41.6065 301.327 48.0339 306.329 53.2407C302.796 53.8673 298.842 54.6666 294.467 55.6605C293.755 55.8225 293.042 55.9846 292.318 56.1466C283.514 51.858 271.739 46.1867 262.773 42.2438C258.279 37.5771 252.197 31.4305 247.261 27.2392Z" fill="#806189"/>
<path d="M191.131 7.2654C191.596 7.15738 192.049 7.04935 192.503 6.95213C195.279 6.32559 197.796 5.80707 200.043 5.41818C209.171 7.02775 221.346 9.25306 230.387 11.2947C236.836 14.125 245.403 17.9707 251.582 21.341C248.665 21.8487 245.403 22.5185 241.795 23.3287C241.211 23.4583 240.628 23.5987 240.023 23.7392C231.035 21.1574 219.023 17.7762 209.927 15.5509C204.386 12.8719 196.921 9.37188 191.131 7.2654Z" fill="#806189"/>
<mask id="mask3_148_2293" style="mask-type:luminance" maskUnits="userSpaceOnUse" x="131" y="0" width="62" height="8">
<path d="M192.201 0.611115L192.201 7.90278L131.361 7.90278L131.361 0.611112L192.201 0.611115Z" fill="white"/>
</mask>
<g mask="url(#mask3_148_2293)">
<path d="M132.852 2.72842C133.122 2.66361 133.403 2.59879 133.673 2.53398C135.347 2.15589 136.86 1.85342 138.21 1.61577C147.144 1.21608 159.08 0.773176 168.036 0.83799C175.23 1.59416 184.823 2.68521 191.931 3.99231C189.803 4.3704 187.415 4.84571 184.769 5.45065C184.347 5.54787 183.915 5.64509 183.472 5.75311C174.701 4.99694 163.002 4.05713 154.208 3.70064C147.813 3.21453 139.269 2.66361 132.852 2.72842Z" fill="#806189"/>
</g>
<path d="M279.776 544.332C280.165 544.213 280.543 544.105 280.9 544.019L270.432 549.614L279.776 544.332Z" fill="#806189"/>
<path d="M319.67 510.077C321.927 509.407 324.066 508.802 326.075 508.273C321.312 513.426 314.852 520.21 309.656 524.909C303.077 529.554 294.262 535.722 287.478 540.054C286.895 540.205 286.279 540.378 285.631 540.573C290.47 536.738 296.898 531.552 301.327 527.242C306.901 522.165 313.177 513.89 319.67 510.077Z" fill="#4A1D56"/>
<path d="M349.409 463.821C353.341 462.654 357.068 461.617 360.579 460.688C357.954 467.04 354.356 475.477 351.148 481.548C345.261 487.932 337.386 496.412 331.282 502.58C329.068 503.174 326.702 503.833 324.218 504.568C327.005 499.307 330.656 492.221 332.827 486.668C337.861 479.863 342.528 468.758 349.409 463.821Z" fill="#4A1D56"/>
<path d="M368.41 408.221C373.779 406.633 378.878 405.207 383.664 403.943C383.167 411.159 382.41 420.795 381.265 427.935C376.264 435.691 369.545 446.018 364.316 453.623C360.622 454.596 356.701 455.697 352.563 456.918C353.265 450.512 354.108 441.957 354.173 435.518C358.505 427.363 364.252 416.474 368.41 408.221Z" fill="#4A1D56"/>
<path d="M376.113 345.955C382.616 344.032 388.805 342.304 394.606 340.77C396.194 348.537 398.225 358.929 399.219 366.793C395.287 375.565 390.015 387.232 385.824 395.884C380.887 397.181 375.637 398.65 370.096 400.281C368.734 393.076 366.812 383.483 364.878 376.407C368.324 367.301 372.883 355.137 376.113 345.955Z" fill="#806189"/>
<path d="M355.318 212.026C362.998 209.768 370.29 207.727 377.128 205.923C382.745 213.895 390.177 224.589 395.363 232.853C394.315 242.468 392.856 255.279 391.409 264.839C384.841 266.579 377.841 268.534 370.463 270.716C365.191 262.863 358.083 252.438 352.444 244.866C353.438 235.025 354.713 221.9 355.318 212.026Z" fill="#806189"/>
<path d="M326.562 147.406C334.167 145.17 341.372 143.15 348.134 141.367C355.437 148.54 365.116 158.176 372.04 165.716C372.807 175.082 373.736 187.58 374.006 196.978C367.147 198.782 359.844 200.824 352.153 203.093C345.164 195.434 335.776 185.269 328.452 177.912C328.02 168.752 327.393 156.534 326.562 147.406Z" fill="#4A1D56"/>
<path d="M289.099 93.1342C296.163 91.0493 302.872 89.1697 309.159 87.5169C317.477 93.2422 328.538 100.944 336.608 107.015C338.844 114.923 341.739 125.509 343.478 133.557C336.759 135.329 329.597 137.338 322.046 139.563C313.998 133.19 303.228 124.731 294.954 118.66C293.366 110.969 291.162 100.718 289.099 93.1342Z" fill="#4A1D56"/>
<path d="M245.208 50.8642C251.355 49.0602 257.188 47.4182 262.665 45.9815C271.556 50.1405 283.384 55.7469 292.113 60.2408C295.667 66.4522 300.333 74.7917 303.369 81.2624C297.168 82.9044 290.557 84.7516 283.59 86.804C275.002 81.8781 263.508 75.3426 254.758 70.6976C252.079 64.659 248.406 56.6435 245.208 50.8642Z" fill="#4A1D56"/>
<path d="M197.083 21.8487C201.977 20.412 206.611 19.1049 210.975 17.9599C219.995 20.4228 232.018 23.7716 240.952 26.5802C245.63 30.8796 251.819 36.7129 256.054 41.4552C250.718 42.8704 245.025 44.4583 239.029 46.2299C230.333 42.8487 218.721 38.3765 209.927 35.2654C206.233 31.0957 201.231 25.5756 197.083 21.8487Z" fill="#806189"/>
<path d="M146.863 7.31936C150.222 6.32554 153.409 5.43973 156.401 4.65115C165.14 5.2885 176.807 6.1959 185.503 7.21134C191.099 9.43665 198.531 12.5154 203.846 15.324C199.654 16.4258 195.193 17.6789 190.494 19.0616C182.122 17.3333 170.952 15.0647 162.515 13.6388C157.914 11.5323 151.691 8.83171 146.863 7.31936Z" fill="#806189"/>
<path d="M96.696 8.51852C98.3164 8.04322 99.8395 7.62192 101.276 7.24383C109.324 5.90433 120.083 4.19754 128.196 3.30093C134.461 3.33334 142.833 3.45217 149.066 4.0463C146.269 4.79167 143.287 5.62346 140.154 6.55248C132.495 6.58488 122.276 6.6821 114.617 7.1034C109.227 7.33025 102.032 7.75155 96.696 8.51852Z" fill="#806189"/>
<path d="M87.1357 10.6574L91.716 9.42592L94.0493 8.84259C92.8286 9.16666 91.5323 9.52315 90.1604 9.93364L81.8533 12.1806C83.4413 11.716 85.5478 11.0895 87.1357 10.6574Z" fill="#806189"/>
<path d="M293.809 530.85C295.397 530.332 296.92 529.835 298.378 529.381C293.884 533.411 287.781 538.704 282.887 542.247L270.432 549.614L279.236 543.424C283.676 539.741 288.84 533.789 293.809 530.85Z" fill="#806189"/>
<path d="M318.687 493.236C322.316 492.026 325.816 490.903 329.187 489.844C326.875 495.181 323.688 502.278 320.782 507.312C315.522 512.637 308.478 519.724 303.023 524.844C301.295 525.384 299.502 525.968 297.633 526.583C299.998 522.468 303.077 516.894 304.816 512.475C309.029 506.739 312.983 497.492 318.687 493.236Z" fill="#4A1D56"/>
<path d="M334.286 444.614C339.719 442.799 344.969 441.103 350.003 439.537C349.809 445.856 349.441 454.293 348.588 460.559C343.835 467.548 337.462 476.86 332.525 483.73C328.938 484.853 325.179 486.063 321.301 487.36C321.603 481.948 321.895 474.699 321.549 469.298C325.406 461.909 327.988 450.059 334.286 444.614Z" fill="#806189"/>
<path d="M340.367 387.534C347.292 385.233 353.978 383.072 360.395 381.063C362.21 388.085 364.554 397.483 365.785 404.623C361.702 412.92 356.236 423.971 351.991 432.191C346.762 433.822 341.296 435.583 335.657 437.463C333.94 431.089 331.531 422.61 329.295 416.409C332.654 407.767 337.116 396.23 340.367 387.534Z" fill="#806189"/>
<path d="M336.662 324.577C344.699 321.909 352.466 319.392 359.92 317.069C363.657 324.512 368.572 334.494 371.824 342.164C368.648 351.389 364.359 363.682 360.967 372.832C354.389 374.884 347.54 377.11 340.443 379.465C336.824 372.454 331.92 363.142 327.89 356.347C330.58 346.841 334.134 334.137 336.662 324.577Z" fill="#806189"/>
<path d="M322.921 258.304C331.639 255.398 340.065 252.676 348.145 250.159C353.687 257.764 361.032 267.961 366.196 275.826C364.133 285.591 361.345 298.597 359.023 308.298C351.461 310.664 343.575 313.202 335.42 315.924C330.062 308.557 322.867 298.781 317.196 291.651C319 281.659 321.355 268.329 322.921 258.304Z" fill="#806189"/>
<path d="M298.961 191.394C307.852 188.434 316.44 185.657 324.671 183.086C331.877 190.54 341.448 200.522 348.361 208.267C347.691 218.151 346.741 231.33 345.704 241.193C337.58 243.732 329.1 246.475 320.329 249.392C313.437 241.938 304.201 232.054 297.071 224.827C297.741 214.803 298.594 201.429 298.961 191.394Z" fill="#806189"/>
<path d="M230.269 81.5864C237.938 79.0262 245.349 76.6388 252.446 74.4243C261.12 79.2206 272.668 85.6805 281.191 90.7577C283.071 98.3086 285.502 108.409 286.927 116.057C279.117 118.498 270.972 121.123 262.546 123.932C254.164 118.434 242.972 111.131 234.46 105.838C233.347 98.5354 231.802 88.8024 230.269 81.5864Z" fill="#806189"/>
<path d="M190.062 44.0154C196.457 41.8873 202.646 39.8888 208.577 38.0308C217.295 41.3147 228.907 45.7438 237.528 49.2978C240.498 55.0771 244.366 62.8333 246.839 68.8502C239.872 71.0215 232.602 73.3657 225.083 75.8718C216.733 71.7453 205.574 66.2684 197.126 62.3472C195.171 56.7839 192.503 49.3842 190.062 44.0154Z" fill="#4A1D56"/>
<path d="M148.407 19.7963C153.193 18.2083 157.806 16.7176 162.235 15.3348C170.585 16.966 181.711 19.2021 190.008 21.1142C193.918 24.8842 199.071 30.0046 202.528 34.2068C196.781 36 190.786 37.9336 184.585 40.0077C176.667 37.3611 166.102 33.8503 158.119 31.4089C155.375 27.7901 151.627 22.9938 148.407 19.7963Z" fill="#806189"/>
<path d="M107.142 10.2685C110.016 9.31786 112.803 8.41045 115.46 7.58946C123.043 7.41662 133.154 7.27619 140.738 7.47064C145.394 9.0478 151.605 11.2299 156.012 13.412C151.799 14.7299 147.414 16.145 142.877 17.6574C135.779 16.6095 126.316 15.216 119.187 14.4274C115.654 12.9583 110.869 11.1111 107.142 10.2685Z" fill="#806189"/>
<path d="M72.5956 15.108C74.324 14.5355 76.6357 13.7901 78.3749 13.2284L79.8332 12.7855L91.8564 9.60953C97.074 8.86416 104.052 7.92435 109.324 7.75151C106.915 8.50768 104.398 9.31787 101.795 10.1821C95.8533 10.8302 87.9351 11.7268 82.0585 12.7747C79.2175 13.4552 75.3718 14.1898 72.5956 15.108Z" fill="#806189"/>
<path d="M275.023 545.909C275.531 545.725 276.017 545.553 276.503 545.391L270.432 549.614L275.023 545.909Z" fill="#806189"/>
<path d="M292.696 519.054C295.548 518.017 298.346 517.034 301.079 516.083C299.21 520.232 296.585 525.752 294.1 529.576C290.006 533.465 284.54 538.628 280.251 542.312C279.463 542.582 278.663 542.873 277.832 543.165C279.657 540.378 282.034 536.554 283.201 533.432C286.085 529.144 288.656 522.284 292.696 519.054Z" fill="#4A1D56"/>
<path d="M302.375 479.474C307.355 477.67 312.237 475.941 316.991 474.299C317.196 479.549 317.379 486.571 316.937 491.81C313.004 497.654 307.744 505.443 303.693 511.201C300.679 512.238 297.589 513.34 294.435 514.474C294.219 510.207 293.787 504.503 292.944 500.312C295.785 494.068 299.566 485.739 302.375 479.474Z" fill="#806189"/>
<path d="M304.179 429.599C310.984 427.136 317.65 424.77 324.142 422.523C326.281 428.648 329.068 436.836 330.656 443.124C327.026 450.577 322.176 460.526 318.438 467.937C313.447 469.676 308.305 471.491 303.066 473.392C300.863 468.012 297.838 460.872 295.18 455.698C297.892 447.877 301.489 437.441 304.179 429.599Z" fill="#806189"/>
<path d="M284.627 308.73C293.874 305.381 302.937 302.173 311.762 299.116C317.337 306.235 324.747 315.762 330.008 323.119C327.512 332.701 324.164 345.469 321.528 355.019C313.512 357.795 305.27 360.711 296.855 363.758C291.292 357.028 283.816 348.073 278.016 341.548C280.025 331.707 282.704 318.593 284.627 308.73Z" fill="#806189"/>
<path d="M235.745 177.642C245.36 174.164 254.79 170.815 263.962 167.639C272.042 174.293 282.779 183.227 290.633 190.14C290.158 200.176 289.477 213.571 288.721 223.596C279.431 226.815 269.881 230.196 260.127 233.728C252.219 226.653 241.644 217.255 233.574 210.373C234.276 200.554 235.195 187.472 235.745 177.642Z" fill="#4A1D56"/>
<path d="M204.602 121.264C213.557 118.023 222.329 114.912 230.863 111.952C239.299 117.397 250.534 124.699 258.83 130.349C259.241 139.142 259.716 150.863 259.813 159.667C250.696 162.832 241.319 166.148 231.759 169.616C223.571 163.577 212.617 155.551 204.31 149.674C204.483 141.151 204.688 129.787 204.602 121.264Z" fill="#4A1D56"/>
<path d="M171.73 75.3318C179.519 72.5124 187.145 69.8117 194.566 67.2408C202.938 71.3457 214.086 76.8658 222.361 81.1651C223.647 88.4028 225.289 98.0602 226.196 105.363C217.781 108.279 209.139 111.336 200.313 114.534C192.276 109.684 181.571 103.235 173.469 98.5031C173.059 91.5463 172.475 82.2562 171.73 75.3318Z" fill="#806189"/>
<path d="M106.656 20.7037C110.912 19.1697 115.092 17.679 119.143 16.2747C126.197 17.3333 135.574 18.7916 142.574 20.0879C145.491 23.4043 149.304 27.9089 151.724 31.5926C146.042 33.5586 140.208 35.6327 134.256 37.7824C127.731 35.6327 119.035 32.7808 112.478 30.7608C110.901 27.6497 108.741 23.5015 106.656 20.7037Z" fill="#806189"/>
<path d="M77.4027 14.9459C79.4444 14.2005 81.4536 13.4984 83.3981 12.8178C89.2206 12.1157 96.9984 11.2515 102.843 10.9058C106.343 11.8888 111.009 13.3039 114.261 14.9135C110.458 16.2314 106.559 17.6141 102.583 19.0509C97.3441 18.4243 90.3441 17.6033 85.0725 17.2036C82.8472 16.2962 79.7901 15.2052 77.4027 14.9459Z" fill="#806189"/>
<path d="M66.676 17.1605C68.0479 16.6744 69.8843 16.037 71.2562 15.5617L78.8936 13.5741C77.2408 14.1466 75.534 14.7515 73.8056 15.3781C71.1374 16.0911 67.5294 16.858 64.9368 17.7978L66.676 17.1605Z" fill="#806189"/>
<path d="M275.887 537.343C277.702 536.64 279.506 535.949 281.289 535.29C280.003 538.163 278.145 541.977 276.244 544.494L270.432 549.614L271.923 546.136C273.1 543.489 273.781 539.33 275.887 537.343Z" fill="#806189"/>
<path d="M277.519 508.133C281.71 506.512 285.858 504.946 289.931 503.423C290.687 507.495 291.627 512.961 291.735 517.11C289.099 521.528 285.577 527.437 282.866 531.823C280.77 532.6 278.642 533.411 276.492 534.242C275.585 531.196 274.235 527.145 272.83 524.282C274.202 519.432 276.049 512.961 277.519 508.133Z" fill="#806189"/>
<path d="M272.657 466.921C278.923 464.491 285.134 462.136 291.248 459.857C293.841 464.966 297.265 471.815 299.404 477.14C296.736 483.471 293.193 491.918 290.525 498.259C286.16 499.89 281.721 501.576 277.238 503.304C274.407 499.015 270.54 493.344 267.386 489.293C268.92 482.574 271.005 473.619 272.657 466.921Z" fill="#806189"/>
<path d="M261.768 415.977C269.773 412.887 277.681 409.884 285.48 406.978C289.768 412.898 295.451 420.838 299.404 426.995C296.855 434.892 293.441 445.424 290.881 453.321C284.518 455.698 278.059 458.139 271.545 460.667C267.029 455.417 260.958 448.449 256.205 443.404C257.847 435.173 260.051 424.198 261.768 415.977Z" fill="#806189"/>
<path d="M245.381 357.611C254.671 354.025 263.864 350.535 272.906 347.165C278.696 353.668 286.377 362.375 291.918 369.094C289.606 378.19 286.528 390.31 284.194 399.384C276.211 402.366 268.099 405.444 259.91 408.61C253.969 402.614 246.008 394.664 239.904 388.852C241.535 379.475 243.718 366.977 245.381 357.611Z" fill="#4A1D56"/>
<path d="M198.11 227.884C208.361 223.931 218.526 220.063 228.529 216.336C236.545 223.293 247.207 232.594 255.082 239.702C253.861 249.997 252.198 263.738 250.804 274.011C240.941 277.694 230.906 281.497 220.784 285.418C212.887 278.591 202.344 269.506 194.372 262.755C195.517 252.298 197.029 238.352 198.11 227.884Z" fill="#806189"/>
<path d="M143.255 113.076C152.113 109.651 160.873 106.324 169.505 103.105C177.531 107.955 188.236 114.437 196.208 119.395C196.143 127.864 196.003 139.142 195.711 147.6C186.216 151.144 176.58 154.806 166.847 158.565C159.069 153.099 148.699 145.818 140.889 140.406C141.656 132.207 142.66 121.275 143.255 113.076Z" fill="#4A1D56"/>
<path d="M117.447 70.2978C124.825 67.4459 132.15 64.6589 139.344 61.9799C146.776 65.5771 156.671 70.3842 164.049 74.057C164.589 80.9274 165.238 90.0987 165.464 96.9907C157.006 100.145 148.407 103.407 139.722 106.767C132.679 102.403 123.281 96.5802 116.227 92.2268C116.67 85.6481 117.231 76.8765 117.447 70.2978Z" fill="#806189"/>
<path d="M94.1683 39.4352C99.6775 37.2963 105.144 35.2222 110.523 33.213C116.983 35.4059 125.593 38.355 132.02 40.6667C133.187 45.6574 134.656 52.3442 135.412 57.4105C128.434 60.0139 121.347 62.7145 114.185 65.48C108.211 62.3364 100.25 58.1451 94.2763 54.9908C94.3411 50.3241 94.4059 44.1019 94.1683 39.4352Z" fill="#806189"/>
<path d="M74.5076 22.0756C77.824 20.8009 81.1079 19.5478 84.3487 18.3487C89.5123 18.9753 96.4042 19.8611 101.535 20.6821C103.318 23.5015 105.586 27.3364 106.872 30.4043C101.762 32.3163 96.5663 34.2932 91.3163 36.3132C86.736 34.52 80.6218 32.1435 76.02 30.3719C75.6959 27.8657 75.2638 24.4953 74.5076 22.0756Z" fill="#806189"/>
<path d="M60.108 19.6127L62.1496 18.8349L63.9429 18.1651C66.9459 17.3333 70.9645 16.1667 74.0432 15.6158C76.2145 15.9506 79.1851 16.4908 81.1404 17.4954C78.2129 18.5864 75.2314 19.7207 72.2283 20.8766C69.3009 20.5525 65.3796 20.1204 62.4413 20.0124C61.7716 19.7747 60.7993 19.429 60.108 19.6127Z" fill="#806189"/>
<path d="M269.546 548.037C270.087 547.81 270.627 547.594 271.156 547.378L270.432 549.614L269.546 548.037Z" fill="#806189"/>
<path d="M261.531 531.109C264.599 529.856 267.656 528.625 270.691 527.415C272.042 530.116 273.835 533.767 274.656 536.684C273.684 539.341 272.377 542.895 271.48 545.585C270.605 545.93 269.719 546.287 268.833 546.654C267.073 545.023 264.664 542.927 262.752 541.491C262.244 538.39 261.671 534.242 261.531 531.109Z" fill="#4A1D56"/>
<path d="M229.998 458.301C237.279 455.319 244.56 452.381 251.798 449.508C256.551 454.466 262.86 461.099 267.386 466.262C265.938 472.992 264.015 481.969 262.708 488.731C257.123 490.946 251.506 493.214 245.9 495.515C240.758 491.378 233.866 485.89 228.605 481.904C228.94 474.818 229.437 465.377 229.998 458.301Z" fill="#4A1D56"/>
<path d="M208.275 406.687C217.111 403.057 225.937 399.503 234.719 396.014C240.823 401.761 248.957 409.441 254.898 415.361C253.332 423.614 251.269 434.611 249.799 442.875C242.324 445.835 234.816 448.87 227.309 451.949C220.87 446.872 212.282 440.131 205.769 435.184C206.46 426.628 207.411 415.221 208.275 406.687Z" fill="#806189"/>
<path d="M107.034 159.019C116.605 155.086 126.187 151.219 135.715 147.438C143.492 152.969 153.852 160.347 161.586 165.911C160.582 175.417 159.221 188.088 158.151 197.594C147.965 201.623 137.735 205.761 127.494 209.952C119.846 203.957 109.637 195.963 102.011 189.946C103.512 180.667 105.522 168.298 107.034 159.019Z" fill="#806189"/>
<path d="M71.0293 67.4675C77.662 64.7453 84.2947 62.0663 90.8951 59.4521C96.7932 62.7576 104.668 67.1651 110.577 70.449C110.134 77.0169 109.497 85.7669 108.849 92.324C100.758 95.5323 92.6342 98.8055 84.5 102.143C78.9799 98.0493 71.6234 92.5725 66.2006 88.3595C67.6697 82.0941 69.6466 73.7438 71.0293 67.4675Z" fill="#806189"/>
<path d="M60.227 38.6682C64.7856 36.7994 69.3335 34.9629 73.8705 33.1589C78.3751 35.1358 84.3921 37.75 88.8967 39.716C88.8427 44.3719 88.7023 50.5725 88.389 55.2176C82.048 57.7345 75.6745 60.3055 69.301 62.9197C65.2717 59.9923 59.9137 56.071 56.0032 52.9815C57.2995 48.7037 59.0171 42.9892 60.227 38.6682Z" fill="#4A1D56"/>
<path d="M55.1172 23.5663C57.3101 22.6697 59.4922 21.7839 61.6743 20.9197C64.5262 21.341 68.3178 21.9459 71.1373 22.4968C71.5262 24.9382 71.9258 28.2221 71.9583 30.6959C67.7237 32.3703 63.4675 34.0987 59.2005 35.8379C56.9212 34.2391 53.8749 32.111 51.7144 30.3394C52.7299 28.3086 53.4536 25.111 55.1172 23.5663Z" fill="#806189"/>
<path d="M53.9937 22.0756C56.6619 20.9737 56.6619 20.9737 58.0014 20.4444L59.114 20.0015C59.4921 20.0879 59.989 20.1852 60.3671 20.2716L60.4644 20.4444C58.6171 21.179 56.7591 21.9243 54.9119 22.6805C54.5554 22.5401 53.9181 22.5185 53.7236 22.1728L53.9937 22.0756Z" fill="#806189"/>
<path d="M256.659 545.218C258.485 544.429 260.332 543.641 262.179 542.863C264.156 544.191 266.813 545.941 268.65 547.454L270.432 549.614L264.242 549.333C261.855 548.329 258.668 546.86 256.659 545.218Z" fill="#806189"/>
<path d="M233.39 526.227C237.593 524.401 241.827 522.597 246.073 520.815C249.853 523.526 254.877 527.167 258.528 530.051C258.927 533.281 259.489 537.613 260.332 540.756C258.16 541.674 255.978 542.603 253.829 543.532C249.443 541.955 243.61 539.87 239.224 538.293C237.29 534.772 234.827 529.986 233.39 526.227Z" fill="#806189"/>
<path d="M206.589 494.003C212.866 491.281 219.207 488.58 225.569 485.901C230.884 489.801 237.96 495.019 243.167 499.059C243.177 504.406 243.231 511.546 243.577 516.872C239.029 518.784 234.503 520.718 230.009 522.673C224.165 519.756 216.355 515.878 210.489 513.015C209.171 507.344 207.497 499.761 206.589 494.003Z" fill="#806189"/>
<path d="M66.8919 208.624C76.7438 204.346 86.682 200.111 96.6635 195.92C104.29 201.98 114.455 210.06 122.093 216.099C120.71 226.34 118.884 240.005 117.588 250.256C107.196 254.62 96.8472 259.039 86.5956 263.489C78.9259 257.105 68.7067 248.593 61.091 242.144C62.787 232.086 65.0663 218.67 66.8919 208.624Z" fill="#806189"/>
<path d="M49.9968 151.306C58.8656 147.46 67.81 143.647 76.7869 139.877C83.452 145.116 92.3316 152.094 99.0508 157.269C97.4628 166.505 95.3347 178.809 93.7576 188.045C83.8733 192.193 74.0431 196.384 64.2884 200.619C57.7421 194.893 49.0245 187.235 42.5863 181.38C44.79 172.36 47.7282 160.315 49.9968 151.306Z" fill="#806189"/>
<path d="M39.6049 102.208C47.0046 98.9999 54.4691 95.8132 61.966 92.6697C67.3564 96.9475 74.5725 102.64 80.0493 106.81C78.4073 114.685 76.2036 125.196 74.5185 133.06C65.7144 136.755 56.932 140.503 48.236 144.273C43.0833 139.347 36.2129 132.758 31.233 127.659C33.7283 120.011 37.0663 109.835 39.6049 102.208Z" fill="#806189"/>
<path d="M36.0185 63.2654C41.5494 60.8673 47.1235 58.4907 52.7192 56.1358C56.5756 59.3117 61.75 63.4923 65.7253 66.5061C64.159 72.7068 62.0525 80.9815 60.4105 87.1605C53.1513 90.2176 45.9028 93.3071 38.7408 96.4182C35.1868 92.4537 30.4769 87.1389 27.2037 82.9583C29.8287 77.0386 31.4059 67.8024 36.0185 63.2654Z" fill="#806189"/>
<path d="M39.5185 36.4321C42.8456 34.9846 46.2052 33.5478 49.5756 32.1435C51.6605 34.0124 54.4907 36.4537 56.7268 38.1497C55.3117 42.3735 53.4104 47.9907 51.9413 52.1929C46.6265 54.429 41.3225 56.6867 36.0725 58.9661C34.3117 56.1466 31.9891 52.3333 30.6712 49.2762C33.2962 45.3982 35.878 39.3596 39.5185 36.4321Z" fill="#806189"/>
<path d="M49.2299 24.0956L49.8888 23.8039C50.7854 23.4258 51.9629 22.9181 52.8595 22.54C53.0107 22.8965 53.3456 23.3286 53.6697 23.5555C52.4274 25.4675 50.807 28.0277 49.6404 29.9937C46.5941 31.2684 43.5478 32.5647 40.5339 33.8826C40.6851 32.2515 41.0092 30.0153 41.8302 28.6002C44.0231 27.1959 46.8641 25.1758 49.2299 24.0956Z" fill="#4A1D56"/>
<path d="M264.069 550.414C264.566 550.187 265.085 549.949 265.603 549.711L270.432 549.614L264.069 550.414Z" fill="#806189"/>
<path d="M230.355 544.667C233.218 543.338 236.134 542.02 239.094 540.691C243.577 542.063 249.54 543.878 254.034 545.218C256.4 546.698 259.673 548.599 262.352 549.42C261.498 549.798 260.656 550.187 259.824 550.565C254.682 550.587 247.812 550.565 242.67 550.37C238.878 548.891 233.822 546.795 230.355 544.667Z" fill="#806189"/>
<mask id="mask4_148_2293" style="mask-type:luminance" maskUnits="userSpaceOnUse" x="0" y="52" width="35" height="42">
<path d="M34.5708 52.1497L34.5708 93.6311L0.499807 93.6311L0.499809 52.1497L34.5708 52.1497Z" fill="white"/>
</mask>
<g mask="url(#mask4_148_2293)">
<path d="M13.7544 58.8688C18.0214 56.9027 22.3748 54.9259 26.7822 52.9598C28.1649 56.125 30.131 60.3163 31.9458 63.2654C29.0939 69.1527 25.3023 76.9953 22.5152 82.9043C16.347 85.6589 10.2544 88.4135 4.29148 91.1682C2.97358 87.1281 1.28839 81.6944 0.553822 77.5031C4.46431 71.875 8.45043 63.2006 13.7544 58.8688Z" fill="#806189"/>
</g>
<path d="M32.8208 33.2562C34.8625 32.3164 36.9582 31.3657 39.0754 30.4259C38.3625 32.1435 37.5307 34.5525 37.5091 36.4105C34.5924 40.2022 30.7359 45.2901 27.9597 49.1898C23.8332 51.0262 19.7714 52.8735 15.7853 54.7099C16.5091 51.6744 17.6001 47.6127 18.972 44.8148C23.0554 41.2608 28.1865 36.054 32.8208 33.2562Z" fill="#806189"/>
<path d="M45.4814 25.7593C46.2808 25.4028 47.3502 24.9167 48.1604 24.5602C46.0971 25.7269 43.2669 27.1636 41.3008 28.5031C39.5076 29.3025 37.736 30.1019 35.9968 30.9012L42.057 27.3364C43.0832 26.8611 44.4552 26.2238 45.4814 25.7593Z" fill="#806189"/>
<mask id="mask5_148_2293" style="mask-type:luminance" maskUnits="userSpaceOnUse" x="236" y="547" width="37" height="8">
<path d="M272.398 547.162L272.398 554.389L236.448 554.389L236.448 547.162L272.398 547.162Z" fill="white"/>
</mask>
<g mask="url(#mask5_148_2293)">
<path d="M238.813 553.471C240.304 552.736 241.881 551.969 243.545 551.17L243.588 551.159C248.849 551.116 255.86 551.051 261.11 550.748L270.432 549.614L257.318 552.596C251.776 553.082 244.366 553.654 238.813 553.471Z" fill="#806189"/>
</g>
<path d="M259.586 552.639C259.921 552.455 260.289 552.261 260.688 552.055L270.432 549.614L259.586 552.639Z" fill="#806189"/>
<mask id="mask6_148_2293" style="mask-type:luminance" maskUnits="userSpaceOnUse" x="255" y="547" width="18" height="8">
<path d="M272.398 547.162L272.398 554.389L255.806 554.389L255.806 547.162L272.398 547.162Z" fill="white"/>
</mask>
<g mask="url(#mask6_148_2293)">
<path d="M257.113 554.205C257.253 554.086 257.415 553.968 257.61 553.827L270.432 549.614L257.113 554.205Z" fill="#806189"/>
</g>
</svg>
