<svg width="41" height="26" viewBox="0 0 41 26" fill="none" xmlns="http://www.w3.org/2000/svg">
<path d="M0 1.56561C0 4.49387 0.597917 9.04572 1.25278 11.1622C2.81875 16.1779 6.60556 20.8457 10.9618 23.1072C17.8236 26.6733 25.9097 26.9632 33.5687 23.861C35.7326 22.9912 38.8361 21.2226 40.1174 20.1209L41 19.3671V9.68356V0H32.0312H23.0625V3.47912V6.95824H28.1875H33.3125V11.713V16.4968L31.5472 17.3666C28.7854 18.6713 26.4222 19.2221 23.2049 19.1932C18.4785 19.1932 14.3785 17.4246 11.5597 14.1484C9.08264 11.2492 8.05764 8.29191 7.77292 3.24718L7.60208 0H3.81528H0V1.56561Z" fill="#808080"/>
</svg>
